<svg xmlns="http://www.w3.org/2000/svg" xmlns:xlink="http://www.w3.org/1999/xlink" contentStyleType="text/css" height="866px" preserveAspectRatio="none" style="width:2430px;height:866px;background:#FFFFFF;" version="1.1" viewBox="0 0 2430 866" width="2430px" zoomAndPan="magnify"><title>Watch Polling Flow - Scheduler/API to New Job Persistence</title><defs/><g><text fill="#000000" font-family="sans-serif" font-size="14" font-weight="bold" lengthAdjust="spacing" textLength="426.1729" x="1003.8875" y="28.5352">Watch Polling Flow - Scheduler/API to New Job Persistence</text><rect fill="none" height="163.8633" style="stroke:#000000;stroke-width:1.5;" width="1671.0928" x="753.855" y="517.0137"/><line style="stroke:#181818;stroke-width:0.5;stroke-dasharray:5.0,5.0;" x1="23" x2="23" y1="118.9766" y2="785.8086"/><line style="stroke:#181818;stroke-width:0.5;stroke-dasharray:5.0,5.0;" x1="143.4072" x2="143.4072" y1="118.9766" y2="785.8086"/><line style="stroke:#181818;stroke-width:0.5;stroke-dasharray:5.0,5.0;" x1="273.209" x2="273.209" y1="118.9766" y2="785.8086"/><line style="stroke:#181818;stroke-width:0.5;stroke-dasharray:5.0,5.0;" x1="475.1587" x2="475.1587" y1="118.9766" y2="785.8086"/><line style="stroke:#181818;stroke-width:0.5;stroke-dasharray:5.0,5.0;" x1="651.0259" x2="651.0259" y1="118.9766" y2="785.8086"/><line style="stroke:#181818;stroke-width:0.5;stroke-dasharray:5.0,5.0;" x1="858.855" x2="858.855" y1="118.9766" y2="785.8086"/><line style="stroke:#181818;stroke-width:0.5;stroke-dasharray:5.0,5.0;" x1="1043.687" x2="1043.687" y1="118.9766" y2="785.8086"/><line style="stroke:#181818;stroke-width:0.5;stroke-dasharray:5.0,5.0;" x1="1211.7544" x2="1211.7544" y1="118.9766" y2="785.8086"/><line style="stroke:#181818;stroke-width:0.5;stroke-dasharray:5.0,5.0;" x1="1533.3745" x2="1533.3745" y1="118.9766" y2="785.8086"/><line style="stroke:#181818;stroke-width:0.5;stroke-dasharray:5.0,5.0;" x1="1750.853" x2="1750.853" y1="118.9766" y2="785.8086"/><line style="stroke:#181818;stroke-width:0.5;stroke-dasharray:5.0,5.0;" x1="1907.0444" x2="1907.0444" y1="118.9766" y2="785.8086"/><line style="stroke:#181818;stroke-width:0.5;stroke-dasharray:5.0,5.0;" x1="2056.978" x2="2056.978" y1="118.9766" y2="785.8086"/><line style="stroke:#181818;stroke-width:0.5;stroke-dasharray:5.0,5.0;" x1="2298.4692" x2="2298.4692" y1="118.9766" y2="785.8086"/><text fill="#000000" font-family="sans-serif" font-size="14" lengthAdjust="spacing" textLength="30.3652" x="5" y="116.0234">User</text><ellipse cx="23.1826" cy="50.9883" fill="#E2E2F0" rx="8" ry="8" style="stroke:#181818;stroke-width:0.5;"/><path d="M23.1826,58.9883 L23.1826,85.9883 M10.1826,66.9883 L36.1826,66.9883 M23.1826,85.9883 L10.1826,100.9883 M23.1826,85.9883 L36.1826,100.9883 " fill="none" style="stroke:#181818;stroke-width:0.5;"/><text fill="#000000" font-family="sans-serif" font-size="14" lengthAdjust="spacing" textLength="30.3652" x="5" y="798.3438">User</text><ellipse cx="23.1826" cy="809.7969" fill="#E2E2F0" rx="8" ry="8" style="stroke:#181818;stroke-width:0.5;"/><path d="M23.1826,817.7969 L23.1826,844.7969 M10.1826,825.7969 L36.1826,825.7969 M23.1826,844.7969 L10.1826,859.7969 M23.1826,844.7969 L36.1826,859.7969 " fill="none" style="stroke:#181818;stroke-width:0.5;"/><rect fill="#E2E2F0" height="30.4883" rx="2.5" ry="2.5" style="stroke:#181818;stroke-width:0.5;" width="125.8018" x="81.4072" y="87.4883"/><text fill="#000000" font-family="sans-serif" font-size="14" lengthAdjust="spacing" textLength="111.8018" x="88.4072" y="108.0234">SettingsPage.tsx</text><rect fill="#E2E2F0" height="30.4883" rx="2.5" ry="2.5" style="stroke:#181818;stroke-width:0.5;" width="125.8018" x="81.4072" y="784.8086"/><text fill="#000000" font-family="sans-serif" font-size="14" lengthAdjust="spacing" textLength="111.8018" x="88.4072" y="805.3438">SettingsPage.tsx</text><rect fill="#E2E2F0" height="30.4883" rx="2.5" ry="2.5" style="stroke:#181818;stroke-width:0.5;" width="113.2852" x="217.209" y="87.4883"/><text fill="#000000" font-family="sans-serif" font-size="14" lengthAdjust="spacing" textLength="99.2852" x="224.209" y="108.0234">api/watches.ts</text><rect fill="#E2E2F0" height="30.4883" rx="2.5" ry="2.5" style="stroke:#181818;stroke-width:0.5;" width="113.2852" x="217.209" y="784.8086"/><text fill="#000000" font-family="sans-serif" font-size="14" lengthAdjust="spacing" textLength="99.2852" x="224.209" y="805.3438">api/watches.ts</text><rect fill="#E2E2F0" height="30.4883" rx="2.5" ry="2.5" style="stroke:#181818;stroke-width:0.5;" width="186.8672" x="382.1587" y="87.4883"/><text fill="#000000" font-family="sans-serif" font-size="14" lengthAdjust="spacing" textLength="172.8672" x="389.1587" y="108.0234">CompanyWatchController</text><rect fill="#E2E2F0" height="30.4883" rx="2.5" ry="2.5" style="stroke:#181818;stroke-width:0.5;" width="186.8672" x="382.1587" y="784.8086"/><text fill="#000000" font-family="sans-serif" font-size="14" lengthAdjust="spacing" textLength="172.8672" x="389.1587" y="805.3438">CompanyWatchController</text><rect fill="#E2E2F0" height="30.4883" rx="2.5" ry="2.5" style="stroke:#181818;stroke-width:0.5;" width="144.2246" x="579.0259" y="87.4883"/><text fill="#000000" font-family="sans-serif" font-size="14" lengthAdjust="spacing" textLength="130.2246" x="586.0259" y="108.0234">JobObserverService</text><rect fill="#E2E2F0" height="30.4883" rx="2.5" ry="2.5" style="stroke:#181818;stroke-width:0.5;" width="144.2246" x="579.0259" y="784.8086"/><text fill="#000000" font-family="sans-serif" font-size="14" lengthAdjust="spacing" textLength="130.2246" x="586.0259" y="805.3438">JobObserverService</text><rect fill="#E2E2F0" height="30.4883" rx="2.5" ry="2.5" style="stroke:#181818;stroke-width:0.5;" width="190.832" x="763.855" y="87.4883"/><text fill="#000000" font-family="sans-serif" font-size="14" lengthAdjust="spacing" textLength="176.832" x="770.855" y="108.0234">CompanyWatchRepository</text><rect fill="#E2E2F0" height="30.4883" rx="2.5" ry="2.5" style="stroke:#181818;stroke-width:0.5;" width="190.832" x="763.855" y="784.8086"/><text fill="#000000" font-family="sans-serif" font-size="14" lengthAdjust="spacing" textLength="176.832" x="770.855" y="805.3438">CompanyWatchRepository</text><rect fill="#E2E2F0" height="30.4883" rx="2.5" ry="2.5" style="stroke:#181818;stroke-width:0.5;" width="158.0674" x="964.687" y="87.4883"/><text fill="#000000" font-family="sans-serif" font-size="14" lengthAdjust="spacing" textLength="144.0674" x="971.687" y="108.0234">JobPostingRepository</text><rect fill="#E2E2F0" height="30.4883" rx="2.5" ry="2.5" style="stroke:#181818;stroke-width:0.5;" width="158.0674" x="964.687" y="784.8086"/><text fill="#000000" font-family="sans-serif" font-size="14" lengthAdjust="spacing" textLength="144.0674" x="971.687" y="805.3438">JobPostingRepository</text><rect fill="#E2E2F0" height="46.9766" rx="2.5" ry="2.5" style="stroke:#181818;stroke-width:0.5;" width="158.7373" x="1132.7544" y="71"/><text fill="#000000" font-family="sans-serif" font-size="14" lengthAdjust="spacing" textLength="144.7373" x="1139.7544" y="91.5352">JobIngestionMediator</text><text fill="#000000" font-family="sans-serif" font-size="14" lengthAdjust="spacing" textLength="74.6826" x="1174.7817" y="108.0234">&#171;Mediator&#187;</text><rect fill="#E2E2F0" height="46.9766" rx="2.5" ry="2.5" style="stroke:#181818;stroke-width:0.5;" width="158.7373" x="1132.7544" y="784.8086"/><text fill="#000000" font-family="sans-serif" font-size="14" lengthAdjust="spacing" textLength="144.7373" x="1139.7544" y="805.3438">JobIngestionMediator</text><text fill="#000000" font-family="sans-serif" font-size="14" lengthAdjust="spacing" textLength="74.6826" x="1174.7817" y="821.832">&#171;Mediator&#187;</text><rect fill="#E2E2F0" height="30.4883" rx="2.5" ry="2.5" style="stroke:#181818;stroke-width:0.5;" width="231.4785" x="1418.3745" y="87.4883"/><text fill="#000000" font-family="sans-serif" font-size="14" lengthAdjust="spacing" textLength="217.4785" x="1425.3745" y="108.0234">CareerPageFetchStrategyFactory</text><rect fill="#E2E2F0" height="30.4883" rx="2.5" ry="2.5" style="stroke:#181818;stroke-width:0.5;" width="231.4785" x="1418.3745" y="784.8086"/><text fill="#000000" font-family="sans-serif" font-size="14" lengthAdjust="spacing" textLength="217.4785" x="1425.3745" y="805.3438">CareerPageFetchStrategyFactory</text><rect fill="#E2E2F0" height="46.9766" rx="2.5" ry="2.5" style="stroke:#181818;stroke-width:0.5;" width="182.1914" x="1659.853" y="71"/><text fill="#000000" font-family="sans-serif" font-size="14" lengthAdjust="spacing" textLength="168.1914" x="1666.853" y="91.5352">CareerPageFetchStrategy</text><text fill="#000000" font-family="sans-serif" font-size="14" lengthAdjust="spacing" textLength="69.9863" x="1715.9556" y="108.0234">&#171;Strategy&#187;</text><rect fill="#E2E2F0" height="46.9766" rx="2.5" ry="2.5" style="stroke:#181818;stroke-width:0.5;" width="182.1914" x="1659.853" y="784.8086"/><text fill="#000000" font-family="sans-serif" font-size="14" lengthAdjust="spacing" textLength="168.1914" x="1666.853" y="805.3438">CareerPageFetchStrategy</text><text fill="#000000" font-family="sans-serif" font-size="14" lengthAdjust="spacing" textLength="69.9863" x="1715.9556" y="821.832">&#171;Strategy&#187;</text><rect fill="#E2E2F0" height="30.4883" rx="2.5" ry="2.5" style="stroke:#181818;stroke-width:0.5;" width="110.9336" x="1852.0444" y="87.4883"/><text fill="#000000" font-family="sans-serif" font-size="14" lengthAdjust="spacing" textLength="96.9336" x="1859.0444" y="108.0234">JobWatchFilter</text><rect fill="#E2E2F0" height="30.4883" rx="2.5" ry="2.5" style="stroke:#181818;stroke-width:0.5;" width="110.9336" x="1852.0444" y="784.8086"/><text fill="#000000" font-family="sans-serif" font-size="14" lengthAdjust="spacing" textLength="96.9336" x="1859.0444" y="805.3438">JobWatchFilter</text><rect fill="#E2E2F0" height="46.9766" rx="2.5" ry="2.5" style="stroke:#181818;stroke-width:0.5;" width="168.2119" x="1972.978" y="71"/><text fill="#000000" font-family="sans-serif" font-size="14" lengthAdjust="spacing" textLength="154.2119" x="1979.978" y="91.5352">CompanyWatchSubject</text><text fill="#000000" font-family="sans-serif" font-size="14" lengthAdjust="spacing" textLength="129.7324" x="1992.2178" y="108.0234">&#171;Observer Subject&#187;</text><rect fill="#E2E2F0" height="46.9766" rx="2.5" ry="2.5" style="stroke:#181818;stroke-width:0.5;" width="168.2119" x="1972.978" y="784.8086"/><text fill="#000000" font-family="sans-serif" font-size="14" lengthAdjust="spacing" textLength="154.2119" x="1979.978" y="805.3438">CompanyWatchSubject</text><text fill="#000000" font-family="sans-serif" font-size="14" lengthAdjust="spacing" textLength="129.7324" x="1992.2178" y="821.832">&#171;Observer Subject&#187;</text><rect fill="#E2E2F0" height="46.9766" rx="2.5" ry="2.5" style="stroke:#181818;stroke-width:0.5;" width="231.4785" x="2183.4692" y="71"/><text fill="#000000" font-family="sans-serif" font-size="14" lengthAdjust="spacing" textLength="217.4785" x="2190.4692" y="91.5352">JobDiscoveryPersistenceListener</text><text fill="#000000" font-family="sans-serif" font-size="14" lengthAdjust="spacing" textLength="75.7969" x="2261.3101" y="108.0234">&#171;Observer&#187;</text><rect fill="#E2E2F0" height="46.9766" rx="2.5" ry="2.5" style="stroke:#181818;stroke-width:0.5;" width="231.4785" x="2183.4692" y="784.8086"/><text fill="#000000" font-family="sans-serif" font-size="14" lengthAdjust="spacing" textLength="217.4785" x="2190.4692" y="805.3438">JobDiscoveryPersistenceListener</text><text fill="#000000" font-family="sans-serif" font-size="14" lengthAdjust="spacing" textLength="75.7969" x="2261.3101" y="821.832">&#171;Observer&#187;</text><polygon fill="#181818" points="132.3081,146.2871,142.3081,150.2871,132.3081,154.2871,136.3081,150.2871" style="stroke:#181818;stroke-width:1;"/><line style="stroke:#181818;stroke-width:1;" x1="23.1826" x2="138.3081" y1="150.2871" y2="150.2871"/><text fill="#000000" font-family="sans-serif" font-size="13" lengthAdjust="spacing" textLength="97.1255" x="30.1826" y="145.5449">click poll watch</text><polygon fill="#181818" points="261.8516,175.5977,271.8516,179.5977,261.8516,183.5977,265.8516,179.5977" style="stroke:#181818;stroke-width:1;"/><line style="stroke:#181818;stroke-width:1;" x1="144.3081" x2="267.8516" y1="179.5977" y2="179.5977"/><text fill="#000000" font-family="sans-serif" font-size="13" lengthAdjust="spacing" textLength="81.9673" x="151.3081" y="174.8555">pollWatch(id)</text><polygon fill="#181818" points="463.5923,204.9082,473.5923,208.9082,463.5923,212.9082,467.5923,208.9082" style="stroke:#181818;stroke-width:1;"/><line style="stroke:#181818;stroke-width:1;" x1="273.8516" x2="469.5923" y1="208.9082" y2="208.9082"/><text fill="#000000" font-family="sans-serif" font-size="13" lengthAdjust="spacing" textLength="177.7407" x="280.8516" y="204.166">POST /api/watches/{id}/poll</text><polygon fill="#181818" points="639.1382,234.2188,649.1382,238.2188,639.1382,242.2188,643.1382,238.2188" style="stroke:#181818;stroke-width:1;"/><line style="stroke:#181818;stroke-width:1;" x1="475.5923" x2="645.1382" y1="238.2188" y2="238.2188"/><text fill="#000000" font-family="sans-serif" font-size="13" lengthAdjust="spacing" textLength="129.3779" x="482.5923" y="233.4766">pollWatch(id, userId)</text><polygon fill="#181818" points="847.271,263.5293,857.271,267.5293,847.271,271.5293,851.271,267.5293" style="stroke:#181818;stroke-width:1;"/><line style="stroke:#181818;stroke-width:1;" x1="651.1382" x2="853.271" y1="267.5293" y2="267.5293"/><text fill="#000000" font-family="sans-serif" font-size="13" lengthAdjust="spacing" textLength="184.1328" x="658.1382" y="262.7871">findByIdAndUserId(id, userId)</text><polygon fill="#181818" points="1031.7207,292.8398,1041.7207,296.8398,1031.7207,300.8398,1035.7207,296.8398" style="stroke:#181818;stroke-width:1;"/><line style="stroke:#181818;stroke-width:1;" x1="651.1382" x2="1037.7207" y1="296.8398" y2="296.8398"/><text fill="#000000" font-family="sans-serif" font-size="13" lengthAdjust="spacing" textLength="275.3804" x="658.1382" y="292.0977">findExternalIdsByCompanyWatchId(watchId)</text><polygon fill="#181818" points="1200.123,322.1504,1210.123,326.1504,1200.123,330.1504,1204.123,326.1504" style="stroke:#181818;stroke-width:1;"/><line style="stroke:#181818;stroke-width:1;" x1="651.1382" x2="1206.123" y1="326.1504" y2="326.1504"/><text fill="#000000" font-family="sans-serif" font-size="13" lengthAdjust="spacing" textLength="209.0474" x="658.1382" y="321.4082">pollWatch(watch, knownIds, true)</text><polygon fill="#181818" points="1522.1138,351.4609,1532.1138,355.4609,1522.1138,359.4609,1526.1138,355.4609" style="stroke:#181818;stroke-width:1;"/><line style="stroke:#181818;stroke-width:1;" x1="1212.123" x2="1528.1138" y1="355.4609" y2="355.4609"/><text fill="#000000" font-family="sans-serif" font-size="13" lengthAdjust="spacing" textLength="167.4385" x="1219.123" y="350.7188">forAtsType(watch.atsType)</text><polygon fill="#181818" points="1223.123,380.7715,1213.123,384.7715,1223.123,388.7715,1219.123,384.7715" style="stroke:#181818;stroke-width:1;"/><line style="stroke:#181818;stroke-width:1;stroke-dasharray:2.0,2.0;" x1="1217.123" x2="1533.1138" y1="384.7715" y2="384.7715"/><text fill="#000000" font-family="sans-serif" font-size="13" lengthAdjust="spacing" textLength="297.9907" x="1229.123" y="380.0293">Greenhouse/Workday/SmartRecruiters strategy</text><polygon fill="#181818" points="1738.9487,410.082,1748.9487,414.082,1738.9487,418.082,1742.9487,414.082" style="stroke:#181818;stroke-width:1;"/><line style="stroke:#181818;stroke-width:1;" x1="1212.123" x2="1744.9487" y1="414.082" y2="414.082"/><text fill="#000000" font-family="sans-serif" font-size="13" lengthAdjust="spacing" textLength="135.0146" x="1219.123" y="409.3398">fetchForWatch(watch)</text><polygon fill="#181818" points="1223.123,439.3926,1213.123,443.3926,1223.123,447.3926,1219.123,443.3926" style="stroke:#181818;stroke-width:1;"/><line style="stroke:#181818;stroke-width:1;stroke-dasharray:2.0,2.0;" x1="1217.123" x2="1749.9487" y1="443.3926" y2="443.3926"/><text fill="#000000" font-family="sans-serif" font-size="13" lengthAdjust="spacing" textLength="128.0068" x="1229.123" y="438.6504">List~JobPostingDto~</text><polygon fill="#181818" points="1895.5112,468.7031,1905.5112,472.7031,1895.5112,476.7031,1899.5112,472.7031" style="stroke:#181818;stroke-width:1;"/><line style="stroke:#181818;stroke-width:1;" x1="1212.123" x2="1901.5112" y1="472.7031" y2="472.7031"/><text fill="#000000" font-family="sans-serif" font-size="13" lengthAdjust="spacing" textLength="161.4336" x="1219.123" y="467.9609">apply(watch, fetchedJobs)</text><polygon fill="#181818" points="1223.123,498.0137,1213.123,502.0137,1223.123,506.0137,1219.123,502.0137" style="stroke:#181818;stroke-width:1;"/><line style="stroke:#181818;stroke-width:1;stroke-dasharray:2.0,2.0;" x1="1217.123" x2="1906.5112" y1="502.0137" y2="502.0137"/><text fill="#000000" font-family="sans-serif" font-size="13" lengthAdjust="spacing" textLength="76.0068" x="1229.123" y="497.2715">filtered jobs</text><path d="M753.855,517.0137 L828.3018,517.0137 L828.3018,524.3242 L818.3018,534.3242 L753.855,534.3242 L753.855,517.0137 " fill="#EEEEEE" style="stroke:#000000;stroke-width:1.5;"/><rect fill="none" height="163.8633" style="stroke:#000000;stroke-width:1.5;" width="1671.0928" x="753.855" y="517.0137"/><text fill="#000000" font-family="sans-serif" font-size="13" font-weight="bold" lengthAdjust="spacing" textLength="29.4468" x="768.855" y="530.582">loop</text><text fill="#000000" font-family="sans-serif" font-size="11" font-weight="bold" lengthAdjust="spacing" textLength="141.8184" x="843.3018" y="529.6484">[for each new externalId]</text><polygon fill="#181818" points="2045.084,551.6348,2055.084,555.6348,2045.084,559.6348,2049.084,555.6348" style="stroke:#181818;stroke-width:1;"/><line style="stroke:#181818;stroke-width:1;" x1="1212.123" x2="2051.084" y1="555.6348" y2="555.6348"/><text fill="#000000" font-family="sans-serif" font-size="13" lengthAdjust="spacing" textLength="168.835" x="1219.123" y="550.8926">notifyNewJob(job, watchId)</text><polygon fill="#181818" points="2287.2085,580.9453,2297.2085,584.9453,2287.2085,588.9453,2291.2085,584.9453" style="stroke:#181818;stroke-width:1;"/><line style="stroke:#181818;stroke-width:1;" x1="2057.084" x2="2293.2085" y1="584.9453" y2="584.9453"/><text fill="#000000" font-family="sans-serif" font-size="13" lengthAdjust="spacing" textLength="218.1245" x="2064.084" y="580.2031">onNewJobDiscovered(job, watchId)</text><polygon fill="#181818" points="870.271,610.2559,860.271,614.2559,870.271,618.2559,866.271,614.2559" style="stroke:#181818;stroke-width:1;"/><line style="stroke:#181818;stroke-width:1;" x1="864.271" x2="2298.2085" y1="614.2559" y2="614.2559"/><text fill="#000000" font-family="sans-serif" font-size="13" lengthAdjust="spacing" textLength="108.1514" x="876.271" y="609.5137">findById(watchId)</text><polygon fill="#181818" points="1054.7207,639.5664,1044.7207,643.5664,1054.7207,647.5664,1050.7207,643.5664" style="stroke:#181818;stroke-width:1;"/><line style="stroke:#181818;stroke-width:1;" x1="1048.7207" x2="2298.2085" y1="643.5664" y2="643.5664"/><text fill="#000000" font-family="sans-serif" font-size="13" lengthAdjust="spacing" textLength="269.9023" x="1060.7207" y="638.8242">existsByCompanyWatchIdAndExternalId(...)</text><polygon fill="#181818" points="1054.7207,668.877,1044.7207,672.877,1054.7207,676.877,1050.7207,672.877" style="stroke:#181818;stroke-width:1;"/><line style="stroke:#181818;stroke-width:1;" x1="1048.7207" x2="2298.2085" y1="672.877" y2="672.877"/><text fill="#000000" font-family="sans-serif" font-size="13" lengthAdjust="spacing" textLength="206.064" x="1060.7207" y="668.1348">save(new JobPosting(watch, job))</text><polygon fill="#181818" points="662.1382,705.1875,652.1382,709.1875,662.1382,713.1875,658.1382,709.1875" style="stroke:#181818;stroke-width:1;"/><line style="stroke:#181818;stroke-width:1;stroke-dasharray:2.0,2.0;" x1="656.1382" x2="1211.123" y1="709.1875" y2="709.1875"/><text fill="#000000" font-family="sans-serif" font-size="13" lengthAdjust="spacing" textLength="52.165" x="668.1382" y="704.4453">newJobs</text><polygon fill="#181818" points="486.5923,734.498,476.5923,738.498,486.5923,742.498,482.5923,738.498" style="stroke:#181818;stroke-width:1;"/><line style="stroke:#181818;stroke-width:1;stroke-dasharray:2.0,2.0;" x1="480.5923" x2="650.1382" y1="738.498" y2="738.498"/><text fill="#000000" font-family="sans-serif" font-size="13" lengthAdjust="spacing" textLength="61.4644" x="492.5923" y="733.7559">PollResult</text><polygon fill="#181818" points="155.3081,763.8086,145.3081,767.8086,155.3081,771.8086,151.3081,767.8086" style="stroke:#181818;stroke-width:1;"/><line style="stroke:#181818;stroke-width:1;stroke-dasharray:2.0,2.0;" x1="149.3081" x2="474.5923" y1="767.8086" y2="767.8086"/><text fill="#000000" font-family="sans-serif" font-size="13" lengthAdjust="spacing" textLength="120.7705" x="161.3081" y="763.0664">PollWatchResponse</text><!--SRC=[ZLLHJzim47xthpZnr4gbUPyGKe5rwhIDY81uuSN4Hp44Ex9TIZIDtxwp4xU9qsfxQUppT_UTxxvpdNGLmZrtvJFakggaMiEoqbiuXQ9yHh6fq6IBV0LEmo_SmdVz23aQAwr3LIBZfTC6xYmQLdFZP2bhhXoS5EWSnR8vN-FSsOyJu1RwnY6SrpBR-YJG4Zg05xMyRor3wAL-eqKJpYwrSeQoHXDS4jlGZpA_VgGytz4Kz2jB33w9xJZN3TRQIhfji-VojX5Bhgs_POAdWuFebLeZuRNwYK9oWZ-eixEuFZyFld6R9CSDel6rN2BbKZZ37QwRPMX9IvhO_ilVyyTrnn-te-H34PQoSbq3skNn6XQRnnSidQU8TOVE5gdQtOZfIjfI4xpfYUz7-ABfX-l2n2F6l3JXz7oWFVW2PINBLwX99n1qnmRdXD_BZz0U5tOJAQQiTqJ0H7I4pg-BMyXwaiv-I_4dyq5OYgO0YG8JkXbiw7X5j2akSdjPaTEJLEAYMOc54dV1ur_EdI8xrwyVr3d5gvMm5qs_PnHestuFHedQ7AGT76RmglHMKS0PEBF1ATjXVJ-6qlHPQBDmzhQfiVMVytOtPIdsTCZxZNIidZLTDRlNvbNm9YlUI3ytM9gDf6jPi571XrBmt7u2bjhqqj_JfdnUN9_xGRzo-dCGjvq20lAwhffOZ421Wlpib7MG9F1JiAA05mAnIklQ5mMGq-EiwF75NOyOmE0cxTHG2AMTV6hefIQU2OMPmQvvi8EHHnmGSj6gXSSHGp5otA6FQ6vo1BkN67wGUQIiHLzta_byVZo0vUyuKUq_K5VuM5dATZfbg4Il2mVdIeLxsh6C3uynBMxGRYetdjhnWv97yPDBhPN5lm00]--></g></svg>