<svg xmlns="http://www.w3.org/2000/svg" xmlns:xlink="http://www.w3.org/1999/xlink" contentStyleType="text/css" height="415px" preserveAspectRatio="none" style="width:1032px;height:415px;background:#FEFEFE;" version="1.1" viewBox="0 0 1032 415" width="1032px" zoomAndPan="magnify"><title>Factory Pattern - Career Page Fetcher Creation</title><defs/><g><rect fill="#FEFEFE" height="415" style="stroke:none;stroke-width:1;" width="1032" x="0" y="0"/><text fill="#000000" font-family="sans-serif" font-size="14" font-weight="bold" lengthAdjust="spacing" textLength="337.2715" x="340.8326" y="23.5352">Factory Pattern - Career Page Fetcher Creation</text><!--class AtsType--><g id="elem_AtsType"><rect codeLine="300" fill="#E8F5E9" height="97.4648" id="AtsType" rx="2.5" ry="2.5" style="stroke:#43A047;stroke-width:0.5;" width="147.5088" x="774.88" y="311.4683"/><ellipse cx="817.1942" cy="327.4683" fill="#EB937F" rx="11" ry="11" style="stroke:#181818;stroke-width:1;"/><path d="M820.8085,333.9683 L813.0887,333.9683 L813.0887,321.5752 L820.8085,321.5752 L820.8085,323.7334 L815.5375,323.7334 L815.5375,326.4063 L820.3104,326.4063 L820.3104,328.5645 L815.5375,328.5645 L815.5375,331.8101 L820.8085,331.8101 Z " fill="#000000"/><text fill="#000000" font-family="sans-serif" font-size="14" lengthAdjust="spacing" textLength="54.8105" x="837.264" y="332.7593">AtsType</text><line style="stroke:#43A047;stroke-width:0.5;" x1="775.88" x2="921.3888" y1="343.4683" y2="343.4683"/><text fill="#000000" font-family="sans-serif" font-size="14" lengthAdjust="spacing" textLength="90.4805" x="780.88" y="361.0034">GREENHOUSE</text><text fill="#000000" font-family="sans-serif" font-size="14" lengthAdjust="spacing" textLength="69.7129" x="780.88" y="377.4917">WORKDAY</text><text fill="#000000" font-family="sans-serif" font-size="14" lengthAdjust="spacing" textLength="135.5088" x="780.88" y="393.98">SMART_RECRUITERS</text><line style="stroke:#43A047;stroke-width:0.5;" x1="775.88" x2="921.3888" y1="400.9331" y2="400.9331"/></g><!--class CareerPageFetcher--><g id="elem_CareerPageFetcher"><rect codeLine="306" fill="#E8F5E9" height="64.4883" id="CareerPageFetcher" rx="2.5" ry="2.5" style="stroke:#43A047;stroke-width:0.5;" width="185.2705" x="338" y="327.9483"/><ellipse cx="365.0902" cy="343.9483" fill="#B4A7E5" rx="11" ry="11" style="stroke:#181818;stroke-width:1;"/><path d="M361.518,340.2134 L361.518,338.0552 L368.8974,338.0552 L368.8974,340.2134 L366.432,340.2134 L366.432,348.2901 L368.8974,348.2901 L368.8974,350.4483 L361.518,350.4483 L361.518,348.2901 L363.9833,348.2901 L363.9833,340.2134 Z " fill="#000000"/><text fill="#000000" font-family="sans-serif" font-size="14" font-style="italic" lengthAdjust="spacing" textLength="126.4033" x="381.777" y="349.2393">CareerPageFetcher</text><line style="stroke:#43A047;stroke-width:0.5;" x1="339" x2="522.2705" y1="359.9483" y2="359.9483"/><line style="stroke:#43A047;stroke-width:0.5;" x1="339" x2="522.2705" y1="367.9483" y2="367.9483"/><ellipse cx="349" cy="381.6924" fill="#84BE84" rx="3" ry="3" style="stroke:#038048;stroke-width:1;"/><text fill="#000000" font-family="sans-serif" font-size="14" lengthAdjust="spacing" textLength="159.2705" x="358" y="385.4834">fetch(url: String): String</text></g><!--class GreenhouseFetcher--><g id="elem_GreenhouseFetcher"><rect codeLine="310" fill="#E8F5E9" height="64.4883" id="GreenhouseFetcher" rx="2.5" ry="2.5" style="stroke:#43A047;stroke-width:0.5;" width="185.2705" x="7" y="169.9783"/><ellipse cx="32.0323" cy="185.9783" fill="#ADD1B2" rx="11" ry="11" style="stroke:#181818;stroke-width:1;"/><path d="M34.5054,192.1213 Q33.9244,192.4202 33.2852,192.5696 Q32.646,192.719 31.9405,192.719 Q29.4336,192.719 28.1138,191.0671 Q26.794,189.4153 26.794,186.2942 Q26.794,183.1648 28.1138,181.5129 Q29.4336,179.8611 31.9405,179.8611 Q32.646,179.8611 33.2935,180.0105 Q33.941,180.1599 34.5054,180.4588 L34.5054,183.1814 Q33.8746,182.6004 33.2811,182.3306 Q32.6875,182.0608 32.0567,182.0608 Q30.712,182.0608 30.0271,183.1275 Q29.3423,184.1941 29.3423,186.2942 Q29.3423,188.386 30.0271,189.4526 Q30.712,190.5193 32.0567,190.5193 Q32.6875,190.5193 33.2811,190.2495 Q33.8746,189.9797 34.5054,189.3987 Z " fill="#000000"/><text fill="#000000" font-family="sans-serif" font-size="14" lengthAdjust="spacing" textLength="130.9766" x="48.2617" y="191.2693">GreenhouseFetcher</text><line style="stroke:#43A047;stroke-width:0.5;" x1="8" x2="191.2705" y1="201.9783" y2="201.9783"/><line style="stroke:#43A047;stroke-width:0.5;" x1="8" x2="191.2705" y1="209.9783" y2="209.9783"/><ellipse cx="18" cy="223.7224" fill="#84BE84" rx="3" ry="3" style="stroke:#038048;stroke-width:1;"/><text fill="#000000" font-family="sans-serif" font-size="14" lengthAdjust="spacing" textLength="159.2705" x="27" y="227.5134">fetch(url: String): String</text></g><!--class WorkdayFetcher--><g id="elem_WorkdayFetcher"><rect codeLine="314" fill="#E8F5E9" height="64.4883" id="WorkdayFetcher" rx="2.5" ry="2.5" style="stroke:#43A047;stroke-width:0.5;" width="185.2705" x="227" y="169.9783"/><ellipse cx="262.2482" cy="185.9783" fill="#ADD1B2" rx="11" ry="11" style="stroke:#181818;stroke-width:1;"/><path d="M264.7214,192.1213 Q264.1403,192.4202 263.5012,192.5696 Q262.862,192.719 262.1564,192.719 Q259.6496,192.719 258.3298,191.0671 Q257.01,189.4153 257.01,186.2942 Q257.01,183.1648 258.3298,181.5129 Q259.6496,179.8611 262.1564,179.8611 Q262.862,179.8611 263.5095,180.0105 Q264.1569,180.1599 264.7214,180.4588 L264.7214,183.1814 Q264.0905,182.6004 263.497,182.3306 Q262.9035,182.0608 262.2727,182.0608 Q260.9279,182.0608 260.2431,183.1275 Q259.5583,184.1941 259.5583,186.2942 Q259.5583,188.386 260.2431,189.4526 Q260.9279,190.5193 262.2727,190.5193 Q262.9035,190.5193 263.497,190.2495 Q264.0905,189.9797 264.7214,189.3987 Z " fill="#000000"/><text fill="#000000" font-family="sans-serif" font-size="14" lengthAdjust="spacing" textLength="108.2744" x="280.7479" y="191.2693">WorkdayFetcher</text><line style="stroke:#43A047;stroke-width:0.5;" x1="228" x2="411.2705" y1="201.9783" y2="201.9783"/><line style="stroke:#43A047;stroke-width:0.5;" x1="228" x2="411.2705" y1="209.9783" y2="209.9783"/><ellipse cx="238" cy="223.7224" fill="#84BE84" rx="3" ry="3" style="stroke:#038048;stroke-width:1;"/><text fill="#000000" font-family="sans-serif" font-size="14" lengthAdjust="spacing" textLength="159.2705" x="247" y="227.5134">fetch(url: String): String</text></g><!--class SmartRecruitersFetcher--><g id="elem_SmartRecruitersFetcher"><rect codeLine="318" fill="#E8F5E9" height="64.4883" id="SmartRecruitersFetcher" rx="2.5" ry="2.5" style="stroke:#43A047;stroke-width:0.5;" width="189.4248" x="446.92" y="169.9783"/><ellipse cx="461.92" cy="185.9783" fill="#ADD1B2" rx="11" ry="11" style="stroke:#181818;stroke-width:1;"/><path d="M464.3931,192.1213 Q463.8121,192.4202 463.1729,192.5696 Q462.5338,192.719 461.8282,192.719 Q459.3214,192.719 458.0015,191.0671 Q456.6817,189.4153 456.6817,186.2942 Q456.6817,183.1648 458.0015,181.5129 Q459.3214,179.8611 461.8282,179.8611 Q462.5338,179.8611 463.1812,180.0105 Q463.8287,180.1599 464.3931,180.4588 L464.3931,183.1814 Q463.7623,182.6004 463.1688,182.3306 Q462.5753,182.0608 461.9444,182.0608 Q460.5997,182.0608 459.9149,183.1275 Q459.2301,184.1941 459.2301,186.2942 Q459.2301,188.386 459.9149,189.4526 Q460.5997,190.5193 461.9444,190.5193 Q462.5753,190.5193 463.1688,190.2495 Q463.7623,189.9797 464.3931,189.3987 Z " fill="#000000"/><text fill="#000000" font-family="sans-serif" font-size="14" lengthAdjust="spacing" textLength="157.4248" x="475.92" y="191.2693">SmartRecruitersFetcher</text><line style="stroke:#43A047;stroke-width:0.5;" x1="447.92" x2="635.3448" y1="201.9783" y2="201.9783"/><line style="stroke:#43A047;stroke-width:0.5;" x1="447.92" x2="635.3448" y1="209.9783" y2="209.9783"/><ellipse cx="457.92" cy="223.7224" fill="#84BE84" rx="3" ry="3" style="stroke:#038048;stroke-width:1;"/><text fill="#000000" font-family="sans-serif" font-size="14" lengthAdjust="spacing" textLength="159.2705" x="466.92" y="227.5134">fetch(url: String): String</text></g><!--class CareerPageFetcherFactory--><g id="elem_CareerPageFetcherFactory"><rect codeLine="322" fill="#E8F5E9" height="64.4883" id="CareerPageFetcherFactory" rx="2.5" ry="2.5" style="stroke:#43A047;stroke-width:0.5;" width="354.5967" x="671.34" y="169.9783"/><ellipse cx="756.5431" cy="185.9783" fill="#A9DCDF" rx="11" ry="11" style="stroke:#181818;stroke-width:1;"/><path d="M756.4064,181.3264 L755.2526,186.3982 L757.5685,186.3982 Z M754.9123,179.0852 L757.9088,179.0852 L761.2541,191.4783 L758.8053,191.4783 L758.0417,188.4153 L754.7629,188.4153 L754.0158,191.4783 L751.5671,191.4783 Z " fill="#000000"/><text fill="#000000" font-family="sans-serif" font-size="14" font-style="italic" lengthAdjust="spacing" textLength="175.6904" x="777.0431" y="191.2693">CareerPageFetcherFactory</text><line style="stroke:#43A047;stroke-width:0.5;" x1="672.34" x2="1024.9367" y1="201.9783" y2="201.9783"/><line style="stroke:#43A047;stroke-width:0.5;" x1="672.34" x2="1024.9367" y1="209.9783" y2="209.9783"/><ellipse cx="682.34" cy="223.7224" fill="#84BE84" rx="3" ry="3" style="stroke:#038048;stroke-width:1;"/><text fill="#000000" font-family="sans-serif" font-size="14" lengthAdjust="spacing" textLength="328.5967" x="691.34" y="227.5134">createFetcher(type: AtsType): CareerPageFetcher</text></g><!--class DefaultCareerPageFetcherFactory--><g id="elem_DefaultCareerPageFetcherFactory"><rect codeLine="326" fill="#E8F5E9" height="64.4883" id="DefaultCareerPageFetcherFactory" rx="2.5" ry="2.5" style="stroke:#43A047;stroke-width:0.5;" width="354.5967" x="671.34" y="44.4883"/><ellipse cx="731.9748" cy="60.4883" fill="#ADD1B2" rx="11" ry="11" style="stroke:#181818;stroke-width:1;"/><path d="M734.4479,66.6313 Q733.8669,66.9302 733.2277,67.0796 Q732.5885,67.229 731.883,67.229 Q729.3761,67.229 728.0563,65.5771 Q726.7365,63.9253 726.7365,60.8042 Q726.7365,57.6748 728.0563,56.0229 Q729.3761,54.3711 731.883,54.3711 Q732.5885,54.3711 733.236,54.5205 Q733.8835,54.6699 734.4479,54.9688 L734.4479,57.6914 Q733.8171,57.1104 733.2235,56.8406 Q732.63,56.5708 731.9992,56.5708 Q730.6545,56.5708 729.9696,57.6375 Q729.2848,58.7041 729.2848,60.8042 Q729.2848,62.896 729.9696,63.9626 Q730.6545,65.0293 731.9992,65.0293 Q732.63,65.0293 733.2235,64.7595 Q733.8171,64.4897 734.4479,63.9087 Z " fill="#000000"/><text fill="#000000" font-family="sans-serif" font-size="14" lengthAdjust="spacing" textLength="224.8271" x="752.4748" y="65.7793">DefaultCareerPageFetcherFactory</text><line style="stroke:#43A047;stroke-width:0.5;" x1="672.34" x2="1024.9367" y1="76.4883" y2="76.4883"/><line style="stroke:#43A047;stroke-width:0.5;" x1="672.34" x2="1024.9367" y1="84.4883" y2="84.4883"/><ellipse cx="682.34" cy="98.2324" fill="#84BE84" rx="3" ry="3" style="stroke:#038048;stroke-width:1;"/><text fill="#000000" font-family="sans-serif" font-size="14" lengthAdjust="spacing" textLength="328.5967" x="691.34" y="102.0234">createFetcher(type: AtsType): CareerPageFetcher</text></g><!--link GreenhouseFetcher to CareerPageFetcher--><g id="link_GreenhouseFetcher_CareerPageFetcher"><path codeLine="330" d="M166.62,234.7883 C223.95,261.7983 289.7969,292.8363 347.1869,319.8763 " fill="none" id="GreenhouseFetcher-to-CareerPageFetcher" style="stroke:#181818;stroke-width:1;stroke-dasharray:7.0,7.0;"/><polygon fill="none" points="363.47,327.5483,349.7442,314.4486,344.6295,325.304,363.47,327.5483" style="stroke:#181818;stroke-width:1;"/><text fill="#000000" font-family="sans-serif" font-size="13" lengthAdjust="spacing" textLength="48.5786" x="266.14" y="278.0366">realizes</text></g><!--link WorkdayFetcher to CareerPageFetcher--><g id="link_WorkdayFetcher_CareerPageFetcher"><path codeLine="331" d="M342.1,234.7883 C361.36,261.8483 378.5234,285.9628 397.7734,313.0128 " fill="none" id="WorkdayFetcher-to-CareerPageFetcher" style="stroke:#181818;stroke-width:1;stroke-dasharray:7.0,7.0;"/><polygon fill="none" points="408.21,327.6783,402.6619,309.5339,392.8849,316.4917,408.21,327.6783" style="stroke:#181818;stroke-width:1;"/><text fill="#000000" font-family="sans-serif" font-size="13" lengthAdjust="spacing" textLength="48.5786" x="376.14" y="278.0366">realizes</text></g><!--link SmartRecruitersFetcher to CareerPageFetcher--><g id="link_SmartRecruitersFetcher_CareerPageFetcher"><path codeLine="332" d="M519.17,234.7883 C499.91,261.8483 482.7466,285.9628 463.4966,313.0128 " fill="none" id="SmartRecruitersFetcher-to-CareerPageFetcher" style="stroke:#181818;stroke-width:1;stroke-dasharray:7.0,7.0;"/><polygon fill="none" points="453.06,327.6783,468.3851,316.4917,458.6081,309.5339,453.06,327.6783" style="stroke:#181818;stroke-width:1;"/><text fill="#000000" font-family="sans-serif" font-size="13" lengthAdjust="spacing" textLength="48.5786" x="497.08" y="278.0366">realizes</text></g><!--link DefaultCareerPageFetcherFactory to CareerPageFetcherFactory--><g id="link_DefaultCareerPageFetcherFactory_CareerPageFetcherFactory"><path codeLine="333" d="M848.64,109.2083 C848.64,127.7883 848.64,133.2283 848.64,151.7983 " fill="none" id="DefaultCareerPageFetcherFactory-to-CareerPageFetcherFactory" style="stroke:#181818;stroke-width:1;"/><polygon fill="none" points="848.64,169.7983,854.64,151.7983,842.64,151.7983,848.64,169.7983" style="stroke:#181818;stroke-width:1;"/></g><!--link CareerPageFetcherFactory to CareerPageFetcher--><g id="link_CareerPageFetcherFactory_CareerPageFetcher"><path codeLine="334" d="M763.79,234.8783 C691.37,261.8983 593.3612,298.4701 520.9712,325.4901 " fill="none" id="CareerPageFetcherFactory-to-CareerPageFetcher" style="stroke:#181818;stroke-width:1;stroke-dasharray:7.0,7.0;"/><polygon fill="#181818" points="515.35,327.5883,525.1805,328.1885,520.0343,325.8398,522.383,320.6936,515.35,327.5883" style="stroke:#181818;stroke-width:1;"/><text fill="#000000" font-family="sans-serif" font-size="13" lengthAdjust="spacing" textLength="45.1318" x="678.07" y="278.0366">creates</text><text fill="#000000" font-family="sans-serif" font-size="13" lengthAdjust="spacing" textLength="8.2202" x="738.8743" y="255.131">1</text><text fill="#000000" font-family="sans-serif" font-size="13" lengthAdjust="spacing" textLength="8.2202" x="523.2624" y="317.2917">1</text></g><!--link CareerPageFetcherFactory to AtsType--><g id="link_CareerPageFetcherFactory_AtsType"><path codeLine="335" d="M848.64,234.7883 C848.64,256.6783 848.64,280.2583 848.64,305.0783 " fill="none" id="CareerPageFetcherFactory-to-AtsType" style="stroke:#181818;stroke-width:1;stroke-dasharray:7.0,7.0;"/><polygon fill="#181818" points="848.64,311.0783,852.64,302.0783,848.64,306.0783,844.64,302.0783,848.64,311.0783" style="stroke:#181818;stroke-width:1;"/><text fill="#000000" font-family="sans-serif" font-size="13" lengthAdjust="spacing" textLength="28.5645" x="849.64" y="278.0366">uses</text><text fill="#000000" font-family="sans-serif" font-size="13" lengthAdjust="spacing" textLength="8.2202" x="839.8988" y="255.0238">1</text><text fill="#000000" font-family="sans-serif" font-size="13" lengthAdjust="spacing" textLength="8.2202" x="840.0938" y="300.7059">1</text></g><!--SRC=[hLDDJm8n4BttLqpmWZ4GZHXr3oIu53H6CRiGuicKRe66tIsPpXxmux_RNTXeM0YIc1xQwSnxxNlJagPOGKz8ChY25q6aC8K6-0ALGhSnSrb5Sku27vKWRL96PWbaO6A8J0AHHYMBVRlGwLAWI60Yv6A69aiZtyG6uQJ7y_6hGiR2shljCdxJk-AtbJA3aS9DIUkoSzwwPaobMG8TiiFLKi470-W7d3_V3qOXTy5u43nsEwzk5JvrWk5RmFrWz33aGSY-6DEfapaLKcrqvZ9BbJdLsJGFwXd67eI4EfsTbeiSNbmA-WwPparcZuUE3IuYiJeQ5oO2AL0IC-q4s2FmOc89NPVNXbPbbo-We99veyjCdPp1Nkcq8wrWV-xNLLEHnVJlx5MhcytFzexcUU38O_skBDlo-31WZxc7WOTKDngx63PPjXTMkwYvmzl5lElyjO_sRmJbH_70cMZPDm00]--></g></svg>