<svg xmlns="http://www.w3.org/2000/svg" xmlns:xlink="http://www.w3.org/1999/xlink" contentStyleType="text/css" height="339px" preserveAspectRatio="none" style="width:1282px;height:339px;background:#FEFEFE;" version="1.1" viewBox="0 0 1282 339" width="1282px" zoomAndPan="magnify"><title>Facade Pattern - Resume Tailoring Simplified</title><defs/><g><rect fill="#FEFEFE" height="339" style="stroke:none;stroke-width:1;" width="1282" x="0" y="0"/><text fill="#000000" font-family="sans-serif" font-size="14" font-weight="bold" lengthAdjust="spacing" textLength="327.749" x="470.3094" y="23.5352">Facade Pattern - Resume Tailoring Simplified</text><!--class ResumeTailoringFacade--><g id="elem_ResumeTailoringFacade"><rect codeLine="386" fill="#FFF3E0" height="113.9531" id="ResumeTailoringFacade" rx="2.5" ry="2.5" style="stroke:#F57C00;stroke-width:0.5;" width="357.6113" x="634.85" y="44.4883"/><ellipse cx="729.121" cy="60.4883" fill="#ADD1B2" rx="11" ry="11" style="stroke:#181818;stroke-width:1;"/><path d="M731.5941,66.6313 Q731.0131,66.9302 730.3739,67.0796 Q729.7348,67.229 729.0292,67.229 Q726.5224,67.229 725.2025,65.5771 Q723.8827,63.9253 723.8827,60.8042 Q723.8827,57.6748 725.2025,56.0229 Q726.5224,54.3711 729.0292,54.3711 Q729.7348,54.3711 730.3822,54.5205 Q731.0297,54.6699 731.5941,54.9688 L731.5941,57.6914 Q730.9633,57.1104 730.3698,56.8406 Q729.7763,56.5708 729.1454,56.5708 Q727.8007,56.5708 727.1159,57.6375 Q726.4311,58.7041 726.4311,60.8042 Q726.4311,62.896 727.1159,63.9626 Q727.8007,65.0293 729.1454,65.0293 Q729.7763,65.0293 730.3698,64.7595 Q730.9633,64.4897 731.5941,63.9087 Z " fill="#000000"/><text fill="#000000" font-family="sans-serif" font-size="14" lengthAdjust="spacing" textLength="160.5693" x="749.621" y="65.7793">ResumeTailoringFacade</text><line style="stroke:#F57C00;stroke-width:0.5;" x1="635.85" x2="991.4613" y1="76.4883" y2="76.4883"/><rect fill="none" height="6" style="stroke:#C82930;stroke-width:1;" width="6" x="642.85" y="87.2324"/><text fill="#000000" font-family="sans-serif" font-size="14" lengthAdjust="spacing" textLength="233.0713" x="654.85" y="94.0234">pipeline: AbstractTailoringPipeline</text><rect fill="none" height="6" style="stroke:#C82930;stroke-width:1;" width="6" x="642.85" y="103.7207"/><text fill="#000000" font-family="sans-serif" font-size="14" lengthAdjust="spacing" textLength="288.4219" x="654.85" y="110.5117">validationChain: ResumeValidationHandler</text><rect fill="none" height="6" style="stroke:#C82930;stroke-width:1;" width="6" x="642.85" y="120.209"/><text fill="#000000" font-family="sans-serif" font-size="14" lengthAdjust="spacing" textLength="181.501" x="654.85" y="127">renderer: ResumeRenderer</text><line style="stroke:#F57C00;stroke-width:0.5;" x1="635.85" x2="991.4613" y1="133.9531" y2="133.9531"/><ellipse cx="645.85" cy="147.6973" fill="#84BE84" rx="3" ry="3" style="stroke:#038048;stroke-width:1;"/><text fill="#000000" font-family="sans-serif" font-size="14" lengthAdjust="spacing" textLength="331.6113" x="654.85" y="151.4883">tailor(job, baseResume): TailoredResumeContent</text></g><!--class AbstractTailoringPipeline--><g id="elem_AbstractTailoringPipeline"><rect codeLine="393" fill="#FFF3E0" height="97.4648" id="AbstractTailoringPipeline" rx="2.5" ry="2.5" style="stroke:#F57C00;stroke-width:0.5;" width="375.3027" x="106" y="235.4483"/><ellipse cx="204.3213" cy="251.4483" fill="#A9DCDF" rx="11" ry="11" style="stroke:#181818;stroke-width:1;"/><path d="M204.1846,246.7964 L203.0308,251.8682 L205.3467,251.8682 Z M202.6904,244.5552 L205.687,244.5552 L209.0322,256.9483 L206.5835,256.9483 L205.8198,253.8853 L202.541,253.8853 L201.7939,256.9483 L199.3452,256.9483 Z " fill="#000000"/><text fill="#000000" font-family="sans-serif" font-size="14" font-style="italic" lengthAdjust="spacing" textLength="170.1602" x="224.8213" y="256.7393">AbstractTailoringPipeline</text><line style="stroke:#F57C00;stroke-width:0.5;" x1="107" x2="480.3027" y1="267.4483" y2="267.4483"/><line style="stroke:#F57C00;stroke-width:0.5;" x1="107" x2="480.3027" y1="275.4483" y2="275.4483"/><ellipse cx="117" cy="289.1924" fill="#84BE84" rx="3" ry="3" style="stroke:#038048;stroke-width:1;"/><text fill="#000000" font-family="sans-serif" font-size="14" lengthAdjust="spacing" textLength="349.3027" x="126" y="292.9834">execute(job, baseResume): TailoredResumeContent</text><polygon fill="#FFFF44" points="117,300.6807,121,304.6807,117,308.6807,113,304.6807" style="stroke:#B38D22;stroke-width:1;"/><text fill="#000000" font-family="sans-serif" font-size="14" lengthAdjust="spacing" textLength="121.9121" x="126" y="309.4717">extractKeywords()</text><polygon fill="#FFFF44" points="117,317.169,121,321.169,117,325.169,113,321.169" style="stroke:#B38D22;stroke-width:1;"/><text fill="#000000" font-family="sans-serif" font-size="14" lengthAdjust="spacing" textLength="119.376" x="126" y="325.96">rewriteSummary()</text></g><!--class OpenAiTailoringPipeline--><g id="elem_OpenAiTailoringPipeline"><rect codeLine="399" fill="#FFF3E0" height="80.9766" id="OpenAiTailoringPipeline" rx="2.5" ry="2.5" style="stroke:#F57C00;stroke-width:0.5;" width="375.3027" x="7" y="60.9783"/><ellipse cx="108.7358" cy="76.9783" fill="#ADD1B2" rx="11" ry="11" style="stroke:#181818;stroke-width:1;"/><path d="M111.209,83.1213 Q110.6279,83.4202 109.9888,83.5696 Q109.3496,83.719 108.644,83.719 Q106.1372,83.719 104.8174,82.0671 Q103.4976,80.4153 103.4976,77.2942 Q103.4976,74.1648 104.8174,72.5129 Q106.1372,70.8611 108.644,70.8611 Q109.3496,70.8611 109.9971,71.0105 Q110.6445,71.1599 111.209,71.4588 L111.209,74.1814 Q110.5781,73.6004 109.9846,73.3306 Q109.3911,73.0608 108.7603,73.0608 Q107.4155,73.0608 106.7307,74.1275 Q106.0459,75.1941 106.0459,77.2942 Q106.0459,79.386 106.7307,80.4526 Q107.4155,81.5193 108.7603,81.5193 Q109.3911,81.5193 109.9846,81.2495 Q110.5781,80.9797 111.209,80.3987 Z " fill="#000000"/><text fill="#000000" font-family="sans-serif" font-size="14" lengthAdjust="spacing" textLength="163.3311" x="129.2358" y="82.2693">OpenAiTailoringPipeline</text><line style="stroke:#F57C00;stroke-width:0.5;" x1="8" x2="381.3027" y1="92.9783" y2="92.9783"/><rect fill="none" height="6" style="stroke:#C82930;stroke-width:1;" width="6" x="15" y="103.7224"/><text fill="#000000" font-family="sans-serif" font-size="14" lengthAdjust="spacing" textLength="135.2354" x="27" y="110.5134">client: OpenAiClient</text><line style="stroke:#F57C00;stroke-width:0.5;" x1="8" x2="381.3027" y1="117.4666" y2="117.4666"/><ellipse cx="18" cy="131.2107" fill="#84BE84" rx="3" ry="3" style="stroke:#038048;stroke-width:1;"/><text fill="#000000" font-family="sans-serif" font-size="14" lengthAdjust="spacing" textLength="349.3027" x="27" y="135.0017">execute(job, baseResume): TailoredResumeContent</text></g><!--class ResumeValidationHandler--><g id="elem_ResumeValidationHandler"><rect codeLine="404" fill="#FFF3E0" height="80.9766" id="ResumeValidationHandler" rx="2.5" ry="2.5" style="stroke:#F57C00;stroke-width:0.5;" width="239.7051" x="935.8" y="243.6883"/><ellipse cx="965.7265" cy="259.6883" fill="#A9DCDF" rx="11" ry="11" style="stroke:#181818;stroke-width:1;"/><path d="M965.5897,255.0364 L964.4359,260.1082 L966.7519,260.1082 Z M964.0956,252.7952 L967.0922,252.7952 L970.4374,265.1883 L967.9887,265.1883 L967.225,262.1253 L963.9462,262.1253 L963.1991,265.1883 L960.7504,265.1883 Z " fill="#000000"/><text fill="#000000" font-family="sans-serif" font-size="14" font-style="italic" lengthAdjust="spacing" textLength="174.5352" x="983.0435" y="264.9793">ResumeValidationHandler</text><line style="stroke:#F57C00;stroke-width:0.5;" x1="936.8" x2="1174.5051" y1="275.6883" y2="275.6883"/><polygon fill="none" points="946.8,284.4324,950.8,288.4324,946.8,292.4324,942.8,288.4324" style="stroke:#B38D22;stroke-width:1;"/><text fill="#000000" font-family="sans-serif" font-size="14" lengthAdjust="spacing" textLength="213.7051" x="955.8" y="293.2234">next: ResumeValidationHandler</text><line style="stroke:#F57C00;stroke-width:0.5;" x1="936.8" x2="1174.5051" y1="300.1766" y2="300.1766"/><ellipse cx="946.8" cy="313.9207" fill="#84BE84" rx="3" ry="3" style="stroke:#038048;stroke-width:1;"/><text fill="#000000" font-family="sans-serif" font-size="14" lengthAdjust="spacing" textLength="150.7393" x="955.8" y="317.7117">validate(content): void</text></g><!--class NoFabricationValidationHandler--><g id="elem_NoFabricationValidationHandler"><rect codeLine="409" fill="#FFF3E0" height="64.4883" id="NoFabricationValidationHandler" rx="2.5" ry="2.5" style="stroke:#F57C00;stroke-width:0.5;" width="247.4277" x="1027.94" y="69.2183"/><ellipse cx="1042.94" cy="85.2183" fill="#ADD1B2" rx="11" ry="11" style="stroke:#181818;stroke-width:1;"/><path d="M1045.4131,91.3613 Q1044.8321,91.6602 1044.1929,91.8096 Q1043.5538,91.959 1042.8482,91.959 Q1040.3414,91.959 1039.0215,90.3071 Q1037.7017,88.6553 1037.7017,85.5342 Q1037.7017,82.4048 1039.0215,80.7529 Q1040.3414,79.1011 1042.8482,79.1011 Q1043.5538,79.1011 1044.2012,79.2505 Q1044.8487,79.3999 1045.4131,79.6988 L1045.4131,82.4214 Q1044.7823,81.8404 1044.1888,81.5706 Q1043.5953,81.3008 1042.9644,81.3008 Q1041.6197,81.3008 1040.9349,82.3675 Q1040.2501,83.4341 1040.2501,85.5342 Q1040.2501,87.626 1040.9349,88.6926 Q1041.6197,89.7593 1042.9644,89.7593 Q1043.5953,89.7593 1044.1888,89.4895 Q1044.7823,89.2197 1045.4131,88.6387 Z " fill="#000000"/><text fill="#000000" font-family="sans-serif" font-size="14" lengthAdjust="spacing" textLength="215.4277" x="1056.94" y="90.5093">NoFabricationValidationHandler</text><line style="stroke:#F57C00;stroke-width:0.5;" x1="1028.94" x2="1274.3677" y1="101.2183" y2="101.2183"/><line style="stroke:#F57C00;stroke-width:0.5;" x1="1028.94" x2="1274.3677" y1="109.2183" y2="109.2183"/><polygon fill="#FFFF44" points="1038.94,117.9624,1042.94,121.9624,1038.94,125.9624,1034.94,121.9624" style="stroke:#B38D22;stroke-width:1;"/><text fill="#000000" font-family="sans-serif" font-size="14" lengthAdjust="spacing" textLength="137.1016" x="1047.94" y="126.7534">check(content): void</text></g><!--class ResumeRenderer--><g id="elem_ResumeRenderer"><rect codeLine="413" fill="#FFF3E0" height="64.4883" id="ResumeRenderer" rx="2.5" ry="2.5" style="stroke:#F57C00;stroke-width:0.5;" width="179.9111" x="624.7" y="251.9283"/><ellipse cx="654.7095" cy="267.9283" fill="#B4A7E5" rx="11" ry="11" style="stroke:#181818;stroke-width:1;"/><path d="M651.1373,264.1934 L651.1373,262.0352 L658.5167,262.0352 L658.5167,264.1934 L656.0513,264.1934 L656.0513,272.2701 L658.5167,272.2701 L658.5167,274.4283 L651.1373,274.4283 L651.1373,272.2701 L653.6026,272.2701 L653.6026,264.1934 Z " fill="#000000"/><text fill="#000000" font-family="sans-serif" font-size="14" font-style="italic" lengthAdjust="spacing" textLength="114.5566" x="672.045" y="273.2193">ResumeRenderer</text><line style="stroke:#F57C00;stroke-width:0.5;" x1="625.7" x2="803.6111" y1="283.9283" y2="283.9283"/><line style="stroke:#F57C00;stroke-width:0.5;" x1="625.7" x2="803.6111" y1="291.9283" y2="291.9283"/><ellipse cx="635.7" cy="305.6724" fill="#84BE84" rx="3" ry="3" style="stroke:#038048;stroke-width:1;"/><text fill="#000000" font-family="sans-serif" font-size="14" lengthAdjust="spacing" textLength="153.9111" x="644.7" y="309.4634">render(content): String</text></g><!--class LatexResumeRenderer--><g id="elem_LatexResumeRenderer"><rect codeLine="417" fill="#FFF3E0" height="64.4883" id="LatexResumeRenderer" rx="2.5" ry="2.5" style="stroke:#F57C00;stroke-width:0.5;" width="183.375" x="416.96" y="69.2183"/><ellipse cx="431.96" cy="85.2183" fill="#ADD1B2" rx="11" ry="11" style="stroke:#181818;stroke-width:1;"/><path d="M434.4331,91.3613 Q433.8521,91.6602 433.2129,91.8096 Q432.5738,91.959 431.8682,91.959 Q429.3614,91.959 428.0415,90.3071 Q426.7217,88.6553 426.7217,85.5342 Q426.7217,82.4048 428.0415,80.7529 Q429.3614,79.1011 431.8682,79.1011 Q432.5738,79.1011 433.2212,79.2505 Q433.8687,79.3999 434.4331,79.6988 L434.4331,82.4214 Q433.8023,81.8404 433.2088,81.5706 Q432.6153,81.3008 431.9844,81.3008 Q430.6397,81.3008 429.9549,82.3675 Q429.2701,83.4341 429.2701,85.5342 Q429.2701,87.626 429.9549,88.6926 Q430.6397,89.7593 431.9844,89.7593 Q432.6153,89.7593 433.2088,89.4895 Q433.8023,89.2197 434.4331,88.6387 Z " fill="#000000"/><text fill="#000000" font-family="sans-serif" font-size="14" lengthAdjust="spacing" textLength="151.375" x="445.96" y="90.5093">LatexResumeRenderer</text><line style="stroke:#F57C00;stroke-width:0.5;" x1="417.96" x2="599.335" y1="101.2183" y2="101.2183"/><line style="stroke:#F57C00;stroke-width:0.5;" x1="417.96" x2="599.335" y1="109.2183" y2="109.2183"/><ellipse cx="427.96" cy="122.9624" fill="#84BE84" rx="3" ry="3" style="stroke:#038048;stroke-width:1;"/><text fill="#000000" font-family="sans-serif" font-size="14" lengthAdjust="spacing" textLength="153.9111" x="436.96" y="126.7534">render(content): String</text></g><!--link OpenAiTailoringPipeline to AbstractTailoringPipeline--><g id="link_OpenAiTailoringPipeline_AbstractTailoringPipeline"><path codeLine="421" d="M216.38,142.1283 C231.4,169.5483 242.8317,190.412 258.7517,219.472 " fill="none" id="OpenAiTailoringPipeline-to-AbstractTailoringPipeline" style="stroke:#181818;stroke-width:1;"/><polygon fill="none" points="267.4,235.2583,264.0139,216.5892,253.4896,222.3547,267.4,235.2583" style="stroke:#181818;stroke-width:1;"/></g><!--link NoFabricationValidationHandler to ResumeValidationHandler--><g id="link_NoFabricationValidationHandler_ResumeValidationHandler"><path codeLine="422" d="M1134.93,133.9483 C1118.81,164.2783 1102.8173,194.4035 1085.3273,227.3135 " fill="none" id="NoFabricationValidationHandler-to-ResumeValidationHandler" style="stroke:#181818;stroke-width:1;"/><polygon fill="none" points="1076.88,243.2083,1090.6255,230.1293,1080.029,224.4978,1076.88,243.2083" style="stroke:#181818;stroke-width:1;"/></g><!--link LatexResumeRenderer to ResumeRenderer--><g id="link_LatexResumeRenderer_ResumeRenderer"><path codeLine="423" d="M522.4,133.8183 C533.29,155.9183 550.23,185.0883 571.65,205.4483 C591.11,223.9383 599.8437,231.1162 623.2337,243.2562 " fill="none" id="LatexResumeRenderer-to-ResumeRenderer" style="stroke:#181818;stroke-width:1;stroke-dasharray:7.0,7.0;"/><polygon fill="none" points="639.21,251.5483,625.9978,237.9308,620.4697,248.5816,639.21,251.5483" style="stroke:#181818;stroke-width:1;"/><text fill="#000000" font-family="sans-serif" font-size="13" lengthAdjust="spacing" textLength="48.5786" x="572.65" y="202.0166">realizes</text></g><!--link ResumeTailoringFacade to AbstractTailoringPipeline--><g id="link_ResumeTailoringFacade_AbstractTailoringPipeline"><path codeLine="424" d="M722.81,158.6983 C692.71,175.5483 658.5,192.8683 625.65,205.4483 C580.04,222.8983 535.1878,235.7925 487.4178,247.1325 " fill="none" id="ResumeTailoringFacade-to-AbstractTailoringPipeline" style="stroke:#181818;stroke-width:1;"/><polygon fill="#181818" points="481.58,248.5183,491.2605,250.3314,486.4448,247.3634,489.4128,242.5477,481.58,248.5183" style="stroke:#181818;stroke-width:1;"/><text fill="#000000" font-family="sans-serif" font-size="13" lengthAdjust="spacing" textLength="28.5645" x="664.31" y="202.0166">uses</text><text fill="#000000" font-family="sans-serif" font-size="13" lengthAdjust="spacing" textLength="8.2202" x="703.2641" y="179.175">1</text><text fill="#000000" font-family="sans-serif" font-size="13" lengthAdjust="spacing" textLength="8.2202" x="489.0815" y="244.4067">1</text></g><!--link ResumeTailoringFacade to ResumeValidationHandler--><g id="link_ResumeTailoringFacade_ResumeValidationHandler"><path codeLine="425" d="M889.23,158.8983 C925.84,186.2383 964.1325,214.8383 997.3025,239.6083 " fill="none" id="ResumeTailoringFacade-to-ResumeValidationHandler" style="stroke:#181818;stroke-width:1;"/><polygon fill="#181818" points="1002.11,243.1983,997.2921,234.6083,998.1038,240.2066,992.5055,241.0182,1002.11,243.1983" style="stroke:#181818;stroke-width:1;"/><text fill="#000000" font-family="sans-serif" font-size="13" lengthAdjust="spacing" textLength="40.3584" x="950.14" y="202.0166">chains</text><text fill="#000000" font-family="sans-serif" font-size="13" lengthAdjust="spacing" textLength="8.2202" x="889.5185" y="178.9925">1</text><text fill="#000000" font-family="sans-serif" font-size="13" lengthAdjust="spacing" textLength="22.7119" x="969.8803" y="233.0652">1..*</text></g><!--link ResumeTailoringFacade to ResumeRenderer--><g id="link_ResumeTailoringFacade_ResumeRenderer"><path codeLine="426" d="M782.87,158.6583 C766.13,189.2183 748.9128,220.6362 734.8828,246.2462 " fill="none" id="ResumeTailoringFacade-to-ResumeRenderer" style="stroke:#181818;stroke-width:1;"/><polygon fill="#181818" points="732,251.5083,739.8322,245.537,734.4023,247.1232,732.8161,241.6933,732,251.5083" style="stroke:#181818;stroke-width:1;"/><text fill="#000000" font-family="sans-serif" font-size="13" lengthAdjust="spacing" textLength="48.001" x="765.15" y="202.0166">renders</text><text fill="#000000" font-family="sans-serif" font-size="13" lengthAdjust="spacing" textLength="8.2202" x="770.6439" y="179.1301">1</text><text fill="#000000" font-family="sans-serif" font-size="13" lengthAdjust="spacing" textLength="8.2202" x="726.6489" y="241.1999">1</text></g><!--SRC=[dLDHJzim47xthpYrBuKkLIU49kK1YKL4aq0RecZlZdt0hOaTsGwKCVxx7CTDqPgmRif3alDtzttVtTcHAn5oBhX4kEREeL6Gm0tQfaAuvLHgG-eULbJL9TqHIkPq3Kv3ePtJ5KWoA1nfnUoQLCqDhw3WOdrlTADafdq-JFEBzdc342MtzlCUBCzFBfPxC6qacYtaz5EsN38MJgBCNcMqyS80affgB4bX2kU5TOOBryEkur4BU-GbITxgpnuugJIM_Dw7lt0bIpGjrg3oGj1iGJVntv_DNIW- -w6B3zw-nGvnbCOMekm2cLOEbMElZF4egpCvhZBOcUC6HUFmO0A0AMv2mKjyVl8TjBEZDcZmoP33LLDLt3pxsEksbzzgLESqJ9-8adpLD8AoyFS_ilPzZ_Gxq4wLz_3UIEPnV3WJ7O4dVjGaTww-wfmNXaH8764H3oZM0nN81ymT5_Z7lBk9TDlm9ctbshxjgA-yhiq_PeuD8Kb-dRspo7zn6RB7kZWaSx7e4_fO2WPzya-qRFZQJJvEFDDPU8zlSmgDFQ34Od4y6TsD54HxMGyHCc2Y_RJiDm00]--></g></svg>