<svg xmlns="http://www.w3.org/2000/svg" xmlns:xlink="http://www.w3.org/1999/xlink" contentStyleType="text/css" height="356px" preserveAspectRatio="none" style="width:1358px;height:356px;background:#FEFEFE;" version="1.1" viewBox="0 0 1358 356" width="1358px" zoomAndPan="magnify"><title>State Pattern - Application Tracker Workflow</title><defs/><g><rect fill="#FEFEFE" height="356" style="stroke:none;stroke-width:1;" width="1358" x="0" y="0"/><text fill="#000000" font-family="sans-serif" font-size="14" font-weight="bold" lengthAdjust="spacing" textLength="325.0557" x="509.5456" y="23.5352">State Pattern - Application Tracker Workflow</text><!--class ApplicationStatus--><g id="elem_ApplicationStatus"><rect codeLine="437" fill="#FCE4EC" height="113.9531" id="ApplicationStatus" rx="2.5" ry="2.5" style="stroke:#C2185B;stroke-width:0.5;" width="150.4189" x="7" y="44.4883"/><ellipse cx="22" cy="60.4883" fill="#EB937F" rx="11" ry="11" style="stroke:#181818;stroke-width:1;"/><path d="M25.6143,66.9883 L17.8945,66.9883 L17.8945,54.5952 L25.6143,54.5952 L25.6143,56.7534 L20.3433,56.7534 L20.3433,59.4263 L25.1162,59.4263 L25.1162,61.5845 L20.3433,61.5845 L20.3433,64.8301 L25.6143,64.8301 Z " fill="#000000"/><text fill="#000000" font-family="sans-serif" font-size="14" lengthAdjust="spacing" textLength="118.4189" x="36" y="65.7793">ApplicationStatus</text><line style="stroke:#C2185B;stroke-width:0.5;" x1="8" x2="156.4189" y1="76.4883" y2="76.4883"/><text fill="#000000" font-family="sans-serif" font-size="14" lengthAdjust="spacing" textLength="29.9072" x="13" y="94.0234">NEW</text><text fill="#000000" font-family="sans-serif" font-size="14" lengthAdjust="spacing" textLength="50.8252" x="13" y="110.5117">VIEWED</text><text fill="#000000" font-family="sans-serif" font-size="14" lengthAdjust="spacing" textLength="54.708" x="13" y="127">APPLIED</text><text fill="#000000" font-family="sans-serif" font-size="14" lengthAdjust="spacing" textLength="64.9961" x="13" y="143.4883">REJECTED</text><line style="stroke:#C2185B;stroke-width:0.5;" x1="8" x2="156.4189" y1="150.4414" y2="150.4414"/></g><!--class ApplicationState--><g id="elem_ApplicationState"><rect codeLine="444" fill="#FCE4EC" height="113.9531" id="ApplicationState" rx="2.5" ry="2.5" style="stroke:#C2185B;stroke-width:0.5;" width="225.7188" x="651.35" y="235.4483"/><ellipse cx="704.7626" cy="251.4483" fill="#B4A7E5" rx="11" ry="11" style="stroke:#181818;stroke-width:1;"/><path d="M701.1903,247.7134 L701.1903,245.5552 L708.5697,245.5552 L708.5697,247.7134 L706.1044,247.7134 L706.1044,255.7901 L708.5697,255.7901 L708.5697,257.9483 L701.1903,257.9483 L701.1903,255.7901 L703.6557,255.7901 L703.6557,247.7134 Z " fill="#000000"/><text fill="#000000" font-family="sans-serif" font-size="14" font-style="italic" lengthAdjust="spacing" textLength="110.3936" x="725.2626" y="256.7393">ApplicationState</text><line style="stroke:#C2185B;stroke-width:0.5;" x1="652.35" x2="876.0688" y1="267.4483" y2="267.4483"/><line style="stroke:#C2185B;stroke-width:0.5;" x1="652.35" x2="876.0688" y1="275.4483" y2="275.4483"/><ellipse cx="662.35" cy="289.1924" fill="#84BE84" rx="3" ry="3" style="stroke:#038048;stroke-width:1;"/><text fill="#000000" font-family="sans-serif" font-size="14" lengthAdjust="spacing" textLength="199.7188" x="671.35" y="292.9834">getStatus(): ApplicationStatus</text><ellipse cx="662.35" cy="305.6807" fill="#84BE84" rx="3" ry="3" style="stroke:#038048;stroke-width:1;"/><text fill="#000000" font-family="sans-serif" font-size="14" lengthAdjust="spacing" textLength="127.8662" x="671.35" y="309.4717">view(context): void</text><ellipse cx="662.35" cy="322.169" fill="#84BE84" rx="3" ry="3" style="stroke:#038048;stroke-width:1;"/><text fill="#000000" font-family="sans-serif" font-size="14" lengthAdjust="spacing" textLength="134.7021" x="671.35" y="325.96">apply(context): void</text><ellipse cx="662.35" cy="338.6573" fill="#84BE84" rx="3" ry="3" style="stroke:#038048;stroke-width:1;"/><text fill="#000000" font-family="sans-serif" font-size="14" lengthAdjust="spacing" textLength="135.9805" x="671.35" y="342.4483">reject(context): void</text></g><!--class NewApplicationState--><g id="elem_NewApplicationState"><rect codeLine="451" fill="#FCE4EC" height="80.9766" id="NewApplicationState" rx="2.5" ry="2.5" style="stroke:#C2185B;stroke-width:0.5;" width="199.2158" x="192.6" y="60.9783"/><ellipse cx="220.1517" cy="76.9783" fill="#ADD1B2" rx="11" ry="11" style="stroke:#181818;stroke-width:1;"/><path d="M222.6248,83.1213 Q222.0438,83.4202 221.4046,83.5696 Q220.7654,83.719 220.0599,83.719 Q217.553,83.719 216.2332,82.0671 Q214.9134,80.4153 214.9134,77.2942 Q214.9134,74.1648 216.2332,72.5129 Q217.553,70.8611 220.0599,70.8611 Q220.7654,70.8611 221.4129,71.0105 Q222.0604,71.1599 222.6248,71.4588 L222.6248,74.1814 Q221.9939,73.6004 221.4004,73.3306 Q220.8069,73.0608 220.1761,73.0608 Q218.8313,73.0608 218.1465,74.1275 Q217.4617,75.1941 217.4617,77.2942 Q217.4617,79.386 218.1465,80.4526 Q218.8313,81.5193 220.1761,81.5193 Q220.8069,81.5193 221.4004,81.2495 Q221.9939,80.9797 222.6248,80.3987 Z " fill="#000000"/><text fill="#000000" font-family="sans-serif" font-size="14" lengthAdjust="spacing" textLength="139.3232" x="236.9409" y="82.2693">NewApplicationState</text><line style="stroke:#C2185B;stroke-width:0.5;" x1="193.6" x2="390.8158" y1="92.9783" y2="92.9783"/><line style="stroke:#C2185B;stroke-width:0.5;" x1="193.6" x2="390.8158" y1="100.9783" y2="100.9783"/><ellipse cx="203.6" cy="114.7224" fill="#84BE84" rx="3" ry="3" style="stroke:#038048;stroke-width:1;"/><text fill="#000000" font-family="sans-serif" font-size="14" lengthAdjust="spacing" textLength="162.791" x="212.6" y="118.5134">view(): moves to Viewed</text><ellipse cx="203.6" cy="131.2107" fill="#84BE84" rx="3" ry="3" style="stroke:#038048;stroke-width:1;"/><text fill="#000000" font-family="sans-serif" font-size="14" lengthAdjust="spacing" textLength="173.2158" x="212.6" y="135.0017">apply(): moves to Applied</text></g><!--class ViewedApplicationState--><g id="elem_ViewedApplicationState"><rect codeLine="456" fill="#FCE4EC" height="64.4883" id="ViewedApplicationState" rx="2.5" ry="2.5" style="stroke:#C2185B;stroke-width:0.5;" width="199.2158" x="426.6" y="69.2283"/><ellipse cx="445.3907" cy="85.2283" fill="#ADD1B2" rx="11" ry="11" style="stroke:#181818;stroke-width:1;"/><path d="M447.8639,91.3713 Q447.2828,91.6702 446.6437,91.8196 Q446.0045,91.969 445.2989,91.969 Q442.7921,91.969 441.4723,90.3171 Q440.1524,88.6653 440.1524,85.5442 Q440.1524,82.4148 441.4723,80.7629 Q442.7921,79.1111 445.2989,79.1111 Q446.0045,79.1111 446.652,79.2605 Q447.2994,79.4099 447.8639,79.7088 L447.8639,82.4314 Q447.233,81.8504 446.6395,81.5806 Q446.046,81.3108 445.4151,81.3108 Q444.0704,81.3108 443.3856,82.3775 Q442.7008,83.4441 442.7008,85.5442 Q442.7008,87.636 443.3856,88.7026 Q444.0704,89.7693 445.4151,89.7693 Q446.046,89.7693 446.6395,89.4995 Q447.233,89.2297 447.8639,88.6487 Z " fill="#000000"/><text fill="#000000" font-family="sans-serif" font-size="14" lengthAdjust="spacing" textLength="158.792" x="460.2331" y="90.5193">ViewedApplicationState</text><line style="stroke:#C2185B;stroke-width:0.5;" x1="427.6" x2="624.8158" y1="101.2283" y2="101.2283"/><line style="stroke:#C2185B;stroke-width:0.5;" x1="427.6" x2="624.8158" y1="109.2283" y2="109.2283"/><ellipse cx="437.6" cy="122.9724" fill="#84BE84" rx="3" ry="3" style="stroke:#038048;stroke-width:1;"/><text fill="#000000" font-family="sans-serif" font-size="14" lengthAdjust="spacing" textLength="173.2158" x="446.6" y="126.7634">apply(): moves to Applied</text></g><!--class AppliedApplicationState--><g id="elem_AppliedApplicationState"><rect codeLine="460" fill="#FCE4EC" height="64.4883" id="AppliedApplicationState" rx="2.5" ry="2.5" style="stroke:#C2185B;stroke-width:0.5;" width="206.2363" x="661.09" y="69.2283"/><ellipse cx="681.425" cy="85.2283" fill="#ADD1B2" rx="11" ry="11" style="stroke:#181818;stroke-width:1;"/><path d="M683.8981,91.3713 Q683.3171,91.6702 682.6779,91.8196 Q682.0387,91.969 681.3332,91.969 Q678.8263,91.969 677.5065,90.3171 Q676.1867,88.6653 676.1867,85.5442 Q676.1867,82.4148 677.5065,80.7629 Q678.8263,79.1111 681.3332,79.1111 Q682.0387,79.1111 682.6862,79.2605 Q683.3337,79.4099 683.8981,79.7088 L683.8981,82.4314 Q683.2672,81.8504 682.6737,81.5806 Q682.0802,81.3108 681.4494,81.3108 Q680.1046,81.3108 679.4198,82.3775 Q678.735,83.4441 678.735,85.5442 Q678.735,87.636 679.4198,88.7026 Q680.1046,89.7693 681.4494,89.7693 Q682.0802,89.7693 682.6737,89.4995 Q683.2672,89.2297 683.8981,88.6487 Z " fill="#000000"/><text fill="#000000" font-family="sans-serif" font-size="14" lengthAdjust="spacing" textLength="162.3809" x="696.6105" y="90.5193">AppliedApplicationState</text><line style="stroke:#C2185B;stroke-width:0.5;" x1="662.09" x2="866.3263" y1="101.2283" y2="101.2283"/><line style="stroke:#C2185B;stroke-width:0.5;" x1="662.09" x2="866.3263" y1="109.2283" y2="109.2283"/><ellipse cx="672.09" cy="122.9724" fill="#84BE84" rx="3" ry="3" style="stroke:#038048;stroke-width:1;"/><text fill="#000000" font-family="sans-serif" font-size="14" lengthAdjust="spacing" textLength="180.2363" x="681.09" y="126.7634">reject(): moves to Rejected</text></g><!--class RejectedApplicationState--><g id="elem_RejectedApplicationState"><rect codeLine="464" fill="#FCE4EC" height="64.4883" id="RejectedApplicationState" rx="2.5" ry="2.5" style="stroke:#C2185B;stroke-width:0.5;" width="200.123" x="902.15" y="69.2283"/><ellipse cx="917.15" cy="85.2283" fill="#ADD1B2" rx="11" ry="11" style="stroke:#181818;stroke-width:1;"/><path d="M919.6231,91.3713 Q919.0421,91.6702 918.4029,91.8196 Q917.7638,91.969 917.0582,91.969 Q914.5514,91.969 913.2315,90.3171 Q911.9117,88.6653 911.9117,85.5442 Q911.9117,82.4148 913.2315,80.7629 Q914.5514,79.1111 917.0582,79.1111 Q917.7638,79.1111 918.4112,79.2605 Q919.0587,79.4099 919.6231,79.7088 L919.6231,82.4314 Q918.9923,81.8504 918.3988,81.5806 Q917.8053,81.3108 917.1744,81.3108 Q915.8297,81.3108 915.1449,82.3775 Q914.4601,83.4441 914.4601,85.5442 Q914.4601,87.636 915.1449,88.7026 Q915.8297,89.7693 917.1744,89.7693 Q917.8053,89.7693 918.3988,89.4995 Q918.9923,89.2297 919.6231,88.6487 Z " fill="#000000"/><text fill="#000000" font-family="sans-serif" font-size="14" lengthAdjust="spacing" textLength="168.123" x="931.15" y="90.5193">RejectedApplicationState</text><line style="stroke:#C2185B;stroke-width:0.5;" x1="903.15" x2="1101.273" y1="101.2283" y2="101.2283"/><line style="stroke:#C2185B;stroke-width:0.5;" x1="903.15" x2="1101.273" y1="109.2283" y2="109.2283"/><text fill="#000000" font-family="sans-serif" font-size="14" lengthAdjust="spacing" textLength="76.3369" x="908.15" y="126.7634">(final state)</text></g><!--class ApplicationTrackerContext--><g id="elem_ApplicationTrackerContext"><rect codeLine="468" fill="#FCE4EC" height="113.9531" id="ApplicationTrackerContext" rx="2.5" ry="2.5" style="stroke:#C2185B;stroke-width:0.5;" width="213.877" x="1137.27" y="44.4883"/><ellipse cx="1152.27" cy="60.4883" fill="#ADD1B2" rx="11" ry="11" style="stroke:#181818;stroke-width:1;"/><path d="M1154.7431,66.6313 Q1154.1621,66.9302 1153.5229,67.0796 Q1152.8838,67.229 1152.1782,67.229 Q1149.6714,67.229 1148.3515,65.5771 Q1147.0317,63.9253 1147.0317,60.8042 Q1147.0317,57.6748 1148.3515,56.0229 Q1149.6714,54.3711 1152.1782,54.3711 Q1152.8838,54.3711 1153.5312,54.5205 Q1154.1787,54.6699 1154.7431,54.9688 L1154.7431,57.6914 Q1154.1123,57.1104 1153.5188,56.8406 Q1152.9253,56.5708 1152.2944,56.5708 Q1150.9497,56.5708 1150.2649,57.6375 Q1149.5801,58.7041 1149.5801,60.8042 Q1149.5801,62.896 1150.2649,63.9626 Q1150.9497,65.0293 1152.2944,65.0293 Q1152.9253,65.0293 1153.5188,64.7595 Q1154.1123,64.4897 1154.7431,63.9087 Z " fill="#000000"/><text fill="#000000" font-family="sans-serif" font-size="14" lengthAdjust="spacing" textLength="181.877" x="1166.27" y="65.7793">ApplicationTrackerContext</text><line style="stroke:#C2185B;stroke-width:0.5;" x1="1138.27" x2="1350.147" y1="76.4883" y2="76.4883"/><rect fill="none" height="6" style="stroke:#C82930;stroke-width:1;" width="6" x="1145.27" y="87.2324"/><text fill="#000000" font-family="sans-serif" font-size="14" lengthAdjust="spacing" textLength="152.3936" x="1157.27" y="94.0234">state: ApplicationState</text><rect fill="none" height="6" style="stroke:#C82930;stroke-width:1;" width="6" x="1145.27" y="103.7207"/><text fill="#000000" font-family="sans-serif" font-size="14" lengthAdjust="spacing" textLength="152.6465" x="1157.27" y="110.5117">jobPosting: JobPosting</text><line style="stroke:#C2185B;stroke-width:0.5;" x1="1138.27" x2="1350.147" y1="117.4648" y2="117.4648"/><ellipse cx="1148.27" cy="131.209" fill="#84BE84" rx="3" ry="3" style="stroke:#038048;stroke-width:1;"/><text fill="#000000" font-family="sans-serif" font-size="14" lengthAdjust="spacing" textLength="133.5264" x="1157.27" y="135">setState(state): void</text><ellipse cx="1148.27" cy="147.6973" fill="#84BE84" rx="3" ry="3" style="stroke:#038048;stroke-width:1;"/><text fill="#000000" font-family="sans-serif" font-size="14" lengthAdjust="spacing" textLength="169.7227" x="1157.27" y="151.4883">transitionTo(target): void</text></g><!--link NewApplicationState to ApplicationState--><g id="link_NewApplicationState_ApplicationState"><path codeLine="475" d="M373.3,142.3883 C385.26,147.9583 397.5,153.4683 409.21,158.4483 C489,192.3983 563.7405,220.5311 633.9505,245.7611 " fill="none" id="NewApplicationState-to-ApplicationState" style="stroke:#181818;stroke-width:1;stroke-dasharray:7.0,7.0;"/><polygon fill="none" points="650.89,251.8483,635.9796,240.1146,631.9215,251.4076,650.89,251.8483" style="stroke:#181818;stroke-width:1;"/><text fill="#000000" font-family="sans-serif" font-size="13" lengthAdjust="spacing" textLength="48.5786" x="526.21" y="202.0166">realizes</text></g><!--link ViewedApplicationState to ApplicationState--><g id="link_ViewedApplicationState_ApplicationState"><path codeLine="476" d="M566.05,134.0983 C600.72,161.6183 637.6922,190.9767 679.3122,224.0167 " fill="none" id="ViewedApplicationState-to-ApplicationState" style="stroke:#181818;stroke-width:1;stroke-dasharray:7.0,7.0;"/><polygon fill="none" points="693.41,235.2083,683.0427,219.3174,675.5816,228.716,693.41,235.2083" style="stroke:#181818;stroke-width:1;"/><text fill="#000000" font-family="sans-serif" font-size="13" lengthAdjust="spacing" textLength="48.5786" x="653.35" y="202.0166">realizes</text></g><!--link AppliedApplicationState to ApplicationState--><g id="link_AppliedApplicationState_ApplicationState"><path codeLine="477" d="M764.21,134.0983 C764.21,161.6183 764.21,184.1683 764.21,217.2083 " fill="none" id="AppliedApplicationState-to-ApplicationState" style="stroke:#181818;stroke-width:1;stroke-dasharray:7.0,7.0;"/><polygon fill="none" points="764.21,235.2083,770.21,217.2083,758.21,217.2083,764.21,235.2083" style="stroke:#181818;stroke-width:1;"/><text fill="#000000" font-family="sans-serif" font-size="13" lengthAdjust="spacing" textLength="48.5786" x="765.21" y="202.0166">realizes</text></g><!--link RejectedApplicationState to ApplicationState--><g id="link_RejectedApplicationState_ApplicationState"><path codeLine="478" d="M962.37,134.0983 C927.7,161.6183 890.7278,190.9767 849.1078,224.0167 " fill="none" id="RejectedApplicationState-to-ApplicationState" style="stroke:#181818;stroke-width:1;stroke-dasharray:7.0,7.0;"/><polygon fill="none" points="835.01,235.2083,852.8384,228.716,845.3773,219.3174,835.01,235.2083" style="stroke:#181818;stroke-width:1;"/><text fill="#000000" font-family="sans-serif" font-size="13" lengthAdjust="spacing" textLength="48.5786" x="891.35" y="202.0166">realizes</text></g><!--link ApplicationTrackerContext to ApplicationState--><g id="link_ApplicationTrackerContext_ApplicationState"><path codeLine="479" d="M1125.8201,156.1616 C1120.2101,158.5516 1125.67,156.1983 1120.21,158.4483 C1039.69,191.6183 953.192,223.8967 882.832,249.3567 " fill="none" id="ApplicationTrackerContext-ApplicationState" style="stroke:#181818;stroke-width:1;"/><polygon fill="none" points="1136.86,151.4583,1129.7723,150.13,1125.8201,156.1616,1132.9078,157.4899,1136.86,151.4583" style="stroke:#181818;stroke-width:1;"/><polygon fill="#181818" points="877.19,251.3983,887.014,252.0972,881.8917,249.697,884.2919,244.5746,877.19,251.3983" style="stroke:#181818;stroke-width:1;"/><text fill="#000000" font-family="sans-serif" font-size="13" lengthAdjust="spacing" textLength="34.6201" x="1043.89" y="202.0166">holds</text><text fill="#000000" font-family="sans-serif" font-size="13" lengthAdjust="spacing" textLength="8.2202" x="1121.0386" y="152.0254">1</text><text fill="#000000" font-family="sans-serif" font-size="13" lengthAdjust="spacing" textLength="8.2202" x="885.057" y="245.7167">1</text></g><!--SRC=[ZL9DQy904BtlhnZi9L8YM5ee7WHDKr2AY9LwNfFHhYOxihjgF_zxTpUs3IQY1CBmvisRcJThXCaGdWqt26Dk32e98VGscqmat0YIC5KyMQE26Qdr8gCzCxG1Gp0dOoY7L2XC797fjP0RhdWESrknLBILQKGPARXwZDrNOYGPrxfVeKNnRHnLQAHIL0TATDE-l-ipXdARbyTq6smrV3A0KJop_vT1F8iVRD0RZvy6Ffh4mpYQsl2RCI7jgWkUuB48Ueth9Pf2CcXsgdqSOoTm7oHaTTwCvUn8f0xcbljUWojSMP-E4tOIloECS5y_Y6zZwJdjK3lVNoo0fLRbd9V0acn1hbU-eFm0rDSVDYeBJ3nKLlX5QYM2XP0y0-s0vb7NWdjuV57XcYyAFRro57If5St7f8sGomuC_s8th2xkYK7HxFykHd6fXUz5WU7A7hvqdBgpj5fVtUghwO12deaFrEo4wMVhJhbzjl2aoPUrhBMwqMu0XM7N1pKIhvIbclq0]--></g></svg>