<svg xmlns="http://www.w3.org/2000/svg" xmlns:xlink="http://www.w3.org/1999/xlink" contentStyleType="text/css" height="642px" preserveAspectRatio="none" style="width:4355px;height:642px;background:#FFFFFF;" version="1.1" viewBox="0 0 4355 642" width="4355px" zoomAndPan="magnify"><title>Design Pattern Map - Where Each Pattern Is Applied</title><defs/><g><text fill="#000000" font-family="sans-serif" font-size="14" font-weight="bold" lengthAdjust="spacing" textLength="376.0313" x="1982.4844" y="23.5352">Design Pattern Map - Where Each Pattern Is Applied</text><!--cluster Creational Patterns--><g id="cluster_Creational Patterns"><rect fill="none" height="341.15" rx="2.5" ry="2.5" style="stroke:#000000;stroke-width:1.5;" width="760" x="7" y="295.1283"/><text fill="#000000" font-family="sans-serif" font-size="14" font-weight="bold" lengthAdjust="spacing" textLength="138.373" x="317.8135" y="310.6634">Creational Patterns</text></g><!--cluster Structural Patterns--><g id="cluster_Structural Patterns"><rect fill="none" height="354.42" rx="2.5" ry="2.5" style="stroke:#000000;stroke-width:1.5;" width="1208" x="3141" y="94.4183"/><text fill="#000000" font-family="sans-serif" font-size="14" font-weight="bold" lengthAdjust="spacing" textLength="135.1533" x="3677.4233" y="109.9534">Structural Patterns</text></g><!--cluster Behavioral Patterns--><g id="cluster_Behavioral Patterns"><rect fill="none" height="362.66" rx="2.5" ry="2.5" style="stroke:#000000;stroke-width:1.5;" width="2326" x="791" y="86.1783"/><text fill="#000000" font-family="sans-serif" font-size="14" font-weight="bold" lengthAdjust="spacing" textLength="139.8496" x="1884.0752" y="101.7134">Behavioral Patterns</text></g><!--class FactoryMethod--><g id="elem_FactoryMethod"><rect codeLine="1902" fill="#F1F1F1" height="75.4648" id="FactoryMethod" rx="2.5" ry="2.5" style="stroke:#181818;stroke-width:0.5;" width="256.8271" x="22.59" y="349.1283"/><ellipse cx="37.59" cy="378.8607" fill="#ADD1B2" rx="11" ry="11" style="stroke:#181818;stroke-width:1;"/><path d="M40.0631,385.0038 Q39.4821,385.3026 38.8429,385.452 Q38.2038,385.6014 37.4982,385.6014 Q34.9914,385.6014 33.6715,383.9496 Q32.3517,382.2977 32.3517,379.1766 Q32.3517,376.0472 33.6715,374.3954 Q34.9914,372.7435 37.4982,372.7435 Q38.2038,372.7435 38.8512,372.8929 Q39.4987,373.0423 40.0631,373.3412 L40.0631,376.0638 Q39.4323,375.4828 38.8388,375.213 Q38.2453,374.9432 37.6144,374.9432 Q36.2697,374.9432 35.5849,376.0099 Q34.9001,377.0765 34.9001,379.1766 Q34.9001,381.2684 35.5849,382.3351 Q36.2697,383.4017 37.6144,383.4017 Q38.2453,383.4017 38.8388,383.1319 Q39.4323,382.8622 40.0631,382.2811 Z " fill="#000000"/><text fill="#000000" font-family="sans-serif" font-size="14" lengthAdjust="spacing" textLength="104.9111" x="111.548" y="367.6634">Factory Method</text><text fill="#000000" font-family="sans-serif" font-size="14" lengthAdjust="spacing" textLength="175.6904" x="76.1584" y="384.1517">CareerPageFetcherFactory</text><text fill="#000000" font-family="sans-serif" font-size="14" lengthAdjust="spacing" textLength="224.8271" x="51.59" y="400.64">DefaultCareerPageFetcherFactory</text><line style="stroke:#181818;stroke-width:0.5;" x1="23.59" x2="278.4171" y1="408.5931" y2="408.5931"/><line style="stroke:#181818;stroke-width:0.5;" x1="23.59" x2="278.4171" y1="416.5931" y2="416.5931"/></g><!--class AbstractFactory--><g id="elem_AbstractFactory"><rect codeLine="1903" fill="#F1F1F1" height="108.4414" id="AbstractFactory" rx="2.5" ry="2.5" style="stroke:#181818;stroke-width:0.5;" width="263.3008" x="255.35" y="511.8383"/><ellipse cx="270.35" cy="558.059" fill="#ADD1B2" rx="11" ry="11" style="stroke:#181818;stroke-width:1;"/><path d="M272.8231,564.2021 Q272.2421,564.5009 271.6029,564.6503 Q270.9638,564.7997 270.2582,564.7997 Q267.7514,564.7997 266.4315,563.1479 Q265.1117,561.496 265.1117,558.3749 Q265.1117,555.2455 266.4315,553.5937 Q267.7514,551.9418 270.2582,551.9418 Q270.9638,551.9418 271.6112,552.0912 Q272.2587,552.2406 272.8231,552.5395 L272.8231,555.2621 Q272.1923,554.6811 271.5988,554.4113 Q271.0053,554.1415 270.3744,554.1415 Q269.0297,554.1415 268.3449,555.2082 Q267.6601,556.2748 267.6601,558.3749 Q267.6601,560.4667 268.3449,561.5333 Q269.0297,562.6 270.3744,562.6 Q271.0053,562.6 271.5988,562.3302 Q272.1923,562.0604 272.8231,561.4794 Z " fill="#000000"/><text fill="#000000" font-family="sans-serif" font-size="14" lengthAdjust="spacing" textLength="110.4277" x="344.7865" y="530.3734">Abstract Factory</text><text fill="#000000" font-family="sans-serif" font-size="14" lengthAdjust="spacing" textLength="145.8379" x="327.0814" y="546.8617">AtsIntegrationFactory</text><text fill="#000000" font-family="sans-serif" font-size="14" lengthAdjust="spacing" textLength="204.8525" x="297.5741" y="563.35">GreenhouseIntegrationFactory</text><text fill="#000000" font-family="sans-serif" font-size="14" lengthAdjust="spacing" textLength="182.1504" x="308.9252" y="579.8383">WorkdayIntegrationFactory</text><text fill="#000000" font-family="sans-serif" font-size="14" lengthAdjust="spacing" textLength="231.3008" x="284.35" y="596.3266">SmartRecruitersIntegrationFactory</text><line style="stroke:#181818;stroke-width:0.5;" x1="256.35" x2="517.6508" y1="604.2797" y2="604.2797"/><line style="stroke:#181818;stroke-width:0.5;" x1="256.35" x2="517.6508" y1="612.2797" y2="612.2797"/></g><!--class Builder--><g id="elem_Builder"><rect codeLine="1904" fill="#F1F1F1" height="58.9766" id="Builder" rx="2.5" ry="2.5" style="stroke:#181818;stroke-width:0.5;" width="188.1396" x="313.93" y="357.3683"/><ellipse cx="328.93" cy="378.8566" fill="#ADD1B2" rx="11" ry="11" style="stroke:#181818;stroke-width:1;"/><path d="M331.4031,384.9996 Q330.8221,385.2985 330.1829,385.4479 Q329.5438,385.5973 328.8382,385.5973 Q326.3314,385.5973 325.0115,383.9454 Q323.6917,382.2936 323.6917,379.1725 Q323.6917,376.0431 325.0115,374.3912 Q326.3314,372.7394 328.8382,372.7394 Q329.5438,372.7394 330.1912,372.8888 Q330.8387,373.0382 331.4031,373.337 L331.4031,376.0597 Q330.7723,375.4786 330.1788,375.2089 Q329.5853,374.9391 328.9544,374.9391 Q327.6097,374.9391 326.9249,376.0057 Q326.2401,377.0724 326.2401,379.1725 Q326.2401,381.2643 326.9249,382.3309 Q327.6097,383.3976 328.9544,383.3976 Q329.5853,383.3976 330.1788,383.1278 Q330.7723,382.858 331.4031,382.277 Z " fill="#000000"/><text fill="#000000" font-family="sans-serif" font-size="14" lengthAdjust="spacing" textLength="47.1748" x="397.4124" y="375.9034">Builder</text><text fill="#000000" font-family="sans-serif" font-size="14" lengthAdjust="spacing" textLength="156.1396" x="342.93" y="392.3917">TailoredResumeBuilder</text><line style="stroke:#181818;stroke-width:0.5;" x1="314.93" x2="501.0696" y1="400.3448" y2="400.3448"/><line style="stroke:#181818;stroke-width:0.5;" x1="314.93" x2="501.0696" y1="408.3448" y2="408.3448"/></g><!--class Prototype--><g id="elem_Prototype"><rect codeLine="1905" fill="#F1F1F1" height="58.9766" id="Prototype" rx="2.5" ry="2.5" style="stroke:#181818;stroke-width:0.5;" width="213.7607" x="537.12" y="357.3683"/><ellipse cx="552.12" cy="378.8566" fill="#ADD1B2" rx="11" ry="11" style="stroke:#181818;stroke-width:1;"/><path d="M554.5931,384.9996 Q554.0121,385.2985 553.3729,385.4479 Q552.7338,385.5973 552.0282,385.5973 Q549.5214,385.5973 548.2015,383.9454 Q546.8817,382.2936 546.8817,379.1725 Q546.8817,376.0431 548.2015,374.3912 Q549.5214,372.7394 552.0282,372.7394 Q552.7338,372.7394 553.3812,372.8888 Q554.0287,373.0382 554.5931,373.337 L554.5931,376.0597 Q553.9623,375.4786 553.3688,375.2089 Q552.7753,374.9391 552.1444,374.9391 Q550.7997,374.9391 550.1149,376.0057 Q549.4301,377.0724 549.4301,379.1725 Q549.4301,381.2643 550.1149,382.3309 Q550.7997,383.3976 552.1444,383.3976 Q552.7753,383.3976 553.3688,383.1278 Q553.9623,382.858 554.5931,382.277 Z " fill="#000000"/><text fill="#000000" font-family="sans-serif" font-size="14" lengthAdjust="spacing" textLength="65.0645" x="624.4681" y="375.9034">Prototype</text><text fill="#000000" font-family="sans-serif" font-size="14" lengthAdjust="spacing" textLength="181.7607" x="566.12" y="392.3917">ResumeTemplatePrototype</text><line style="stroke:#181818;stroke-width:0.5;" x1="538.12" x2="749.8807" y1="400.3448" y2="400.3448"/><line style="stroke:#181818;stroke-width:0.5;" x1="538.12" x2="749.8807" y1="408.3448" y2="408.3448"/></g><!--class Adapter--><g id="elem_Adapter"><rect codeLine="1909" fill="#F1F1F1" height="75.4648" id="Adapter" rx="2.5" ry="2.5" style="stroke:#181818;stroke-width:0.5;" width="188.5908" x="4144.7" y="148.4183"/><ellipse cx="4159.7" cy="178.1507" fill="#ADD1B2" rx="11" ry="11" style="stroke:#181818;stroke-width:1;"/><path d="M4162.1731,184.2938 Q4161.5921,184.5926 4160.9529,184.742 Q4160.3138,184.8914 4159.6082,184.8914 Q4157.1014,184.8914 4155.7815,183.2396 Q4154.4617,181.5877 4154.4617,178.4666 Q4154.4617,175.3372 4155.7815,173.6854 Q4157.1014,172.0335 4159.6082,172.0335 Q4160.3138,172.0335 4160.9612,172.1829 Q4161.6087,172.3323 4162.1731,172.6312 L4162.1731,175.3538 Q4161.5423,174.7728 4160.9488,174.503 Q4160.3553,174.2332 4159.7244,174.2332 Q4158.3797,174.2332 4157.6949,175.2999 Q4157.0101,176.3665 4157.0101,178.4666 Q4157.0101,180.5584 4157.6949,181.6251 Q4158.3797,182.6917 4159.7244,182.6917 Q4160.3553,182.6917 4160.9488,182.4219 Q4161.5423,182.1522 4162.1731,181.5711 Z " fill="#000000"/><text fill="#000000" font-family="sans-serif" font-size="14" lengthAdjust="spacing" textLength="53.7783" x="4225.1063" y="166.9534">Adapter</text><text fill="#000000" font-family="sans-serif" font-size="14" lengthAdjust="spacing" textLength="156.5908" x="4173.7" y="183.4417">GreenhouseJobAdapter</text><text fill="#000000" font-family="sans-serif" font-size="14" lengthAdjust="spacing" textLength="141.3809" x="4181.305" y="199.93">JobDescriptionParser</text><line style="stroke:#181818;stroke-width:0.5;" x1="4145.7" x2="4332.2908" y1="207.8831" y2="207.8831"/><line style="stroke:#181818;stroke-width:0.5;" x1="4145.7" x2="4332.2908" y1="215.8831" y2="215.8831"/></g><!--class Bridge--><g id="elem_Bridge"><rect codeLine="1910" fill="#F1F1F1" height="75.4648" id="Bridge" rx="2.5" ry="2.5" style="stroke:#181818;stroke-width:0.5;" width="183.375" x="3384.31" y="148.4183"/><ellipse cx="3399.31" cy="178.1507" fill="#ADD1B2" rx="11" ry="11" style="stroke:#181818;stroke-width:1;"/><path d="M3401.7831,184.2938 Q3401.2021,184.5926 3400.5629,184.742 Q3399.9238,184.8914 3399.2182,184.8914 Q3396.7114,184.8914 3395.3915,183.2396 Q3394.0717,181.5877 3394.0717,178.4666 Q3394.0717,175.3372 3395.3915,173.6854 Q3396.7114,172.0335 3399.2182,172.0335 Q3399.9238,172.0335 3400.5712,172.1829 Q3401.2187,172.3323 3401.7831,172.6312 L3401.7831,175.3538 Q3401.1523,174.7728 3400.5588,174.503 Q3399.9653,174.2332 3399.3344,174.2332 Q3397.9897,174.2332 3397.3049,175.2999 Q3396.6201,176.3665 3396.6201,178.4666 Q3396.6201,180.5584 3397.3049,181.6251 Q3397.9897,182.6917 3399.3344,182.6917 Q3399.9653,182.6917 3400.5588,182.4219 Q3401.1523,182.1522 3401.7831,181.5711 Z " fill="#000000"/><text fill="#000000" font-family="sans-serif" font-size="14" lengthAdjust="spacing" textLength="43.1689" x="3467.413" y="166.9534">Bridge</text><text fill="#000000" font-family="sans-serif" font-size="14" lengthAdjust="spacing" textLength="114.5566" x="3431.7192" y="183.4417">ResumeRenderer</text><text fill="#000000" font-family="sans-serif" font-size="14" lengthAdjust="spacing" textLength="151.375" x="3413.31" y="199.93">LatexResumeRenderer</text><line style="stroke:#181818;stroke-width:0.5;" x1="3385.31" x2="3566.685" y1="207.8831" y2="207.8831"/><line style="stroke:#181818;stroke-width:0.5;" x1="3385.31" x2="3566.685" y1="215.8831" y2="215.8831"/></g><!--class Composite--><g id="elem_Composite"><rect codeLine="1911" fill="#F1F1F1" height="91.9531" id="Composite" rx="2.5" ry="2.5" style="stroke:#181818;stroke-width:0.5;" width="213.6104" x="3157.19" y="340.8883"/><ellipse cx="3172.19" cy="378.8648" fill="#ADD1B2" rx="11" ry="11" style="stroke:#181818;stroke-width:1;"/><path d="M3174.6631,385.0079 Q3174.0821,385.3067 3173.4429,385.4562 Q3172.8038,385.6056 3172.0982,385.6056 Q3169.5914,385.6056 3168.2715,383.9537 Q3166.9517,382.3019 3166.9517,379.1808 Q3166.9517,376.0514 3168.2715,374.3995 Q3169.5914,372.7477 3172.0982,372.7477 Q3172.8038,372.7477 3173.4512,372.8971 Q3174.0987,373.0465 3174.6631,373.3453 L3174.6631,376.068 Q3174.0323,375.4869 3173.4388,375.2171 Q3172.8453,374.9474 3172.2144,374.9474 Q3170.8697,374.9474 3170.1849,376.014 Q3169.5001,377.0807 3169.5001,379.1808 Q3169.5001,381.2726 3170.1849,382.3392 Q3170.8697,383.4059 3172.2144,383.4059 Q3172.8453,383.4059 3173.4388,383.1361 Q3174.0323,382.8663 3174.6631,382.2853 Z " fill="#000000"/><text fill="#000000" font-family="sans-serif" font-size="14" lengthAdjust="spacing" textLength="72.9873" x="3240.5015" y="359.4234">Composite</text><text fill="#000000" font-family="sans-serif" font-size="14" lengthAdjust="spacing" textLength="181.6104" x="3186.19" y="375.9117">ResumeSectionComponent</text><text fill="#000000" font-family="sans-serif" font-size="14" lengthAdjust="spacing" textLength="144.375" x="3204.8077" y="392.4">ResumeSectionGroup</text><text fill="#000000" font-family="sans-serif" font-size="14" lengthAdjust="spacing" textLength="130.5732" x="3211.7086" y="408.8883">ResumeSectionLeaf</text><line style="stroke:#181818;stroke-width:0.5;" x1="3158.19" x2="3369.8004" y1="416.8414" y2="416.8414"/><line style="stroke:#181818;stroke-width:0.5;" x1="3158.19" x2="3369.8004" y1="424.8414" y2="424.8414"/></g><!--class Decorator--><g id="elem_Decorator"><rect codeLine="1912" fill="#F1F1F1" height="75.4648" id="Decorator" rx="2.5" ry="2.5" style="stroke:#181818;stroke-width:0.5;" width="198.5713" x="3448.71" y="349.1283"/><ellipse cx="3463.71" cy="378.8607" fill="#ADD1B2" rx="11" ry="11" style="stroke:#181818;stroke-width:1;"/><path d="M3466.1831,385.0038 Q3465.6021,385.3026 3464.9629,385.452 Q3464.3238,385.6014 3463.6182,385.6014 Q3461.1114,385.6014 3459.7915,383.9496 Q3458.4717,382.2977 3458.4717,379.1766 Q3458.4717,376.0472 3459.7915,374.3954 Q3461.1114,372.7435 3463.6182,372.7435 Q3464.3238,372.7435 3464.9712,372.8929 Q3465.6187,373.0423 3466.1831,373.3412 L3466.1831,376.0638 Q3465.5523,375.4828 3464.9588,375.213 Q3464.3653,374.9432 3463.7344,374.9432 Q3462.3897,374.9432 3461.7049,376.0099 Q3461.0201,377.0765 3461.0201,379.1766 Q3461.0201,381.2684 3461.7049,382.3351 Q3462.3897,383.4017 3463.7344,383.4017 Q3464.3653,383.4017 3464.9588,383.1319 Q3465.5523,382.8622 3466.1831,382.2811 Z " fill="#000000"/><text fill="#000000" font-family="sans-serif" font-size="14" lengthAdjust="spacing" textLength="67.0811" x="3527.4551" y="367.6634">Decorator</text><text fill="#000000" font-family="sans-serif" font-size="14" lengthAdjust="spacing" textLength="139.0225" x="3491.4844" y="384.1517">JobPostingDecorator</text><text fill="#000000" font-family="sans-serif" font-size="14" lengthAdjust="spacing" textLength="166.5713" x="3477.71" y="400.64">MatchScoreJobDecorator</text><line style="stroke:#181818;stroke-width:0.5;" x1="3449.71" x2="3646.2813" y1="408.5931" y2="408.5931"/><line style="stroke:#181818;stroke-width:0.5;" x1="3449.71" x2="3646.2813" y1="416.5931" y2="416.5931"/></g><!--class Facade--><g id="elem_Facade"><rect codeLine="1913" fill="#F1F1F1" height="58.9766" id="Facade" rx="2.5" ry="2.5" style="stroke:#181818;stroke-width:0.5;" width="192.5693" x="3156.72" y="156.6583"/><ellipse cx="3171.72" cy="178.1466" fill="#ADD1B2" rx="11" ry="11" style="stroke:#181818;stroke-width:1;"/><path d="M3174.1931,184.2896 Q3173.6121,184.5885 3172.9729,184.7379 Q3172.3338,184.8873 3171.6282,184.8873 Q3169.1214,184.8873 3167.8015,183.2354 Q3166.4817,181.5836 3166.4817,178.4625 Q3166.4817,175.3331 3167.8015,173.6812 Q3169.1214,172.0294 3171.6282,172.0294 Q3172.3338,172.0294 3172.9812,172.1788 Q3173.6287,172.3282 3174.1931,172.627 L3174.1931,175.3497 Q3173.5623,174.7686 3172.9688,174.4989 Q3172.3753,174.2291 3171.7444,174.2291 Q3170.3997,174.2291 3169.7149,175.2957 Q3169.0301,176.3624 3169.0301,178.4625 Q3169.0301,180.5543 3169.7149,181.6209 Q3170.3997,182.6876 3171.7444,182.6876 Q3172.3753,182.6876 3172.9688,182.4178 Q3173.5623,182.148 3174.1931,181.567 Z " fill="#000000"/><text fill="#000000" font-family="sans-serif" font-size="14" lengthAdjust="spacing" textLength="46.751" x="3242.6292" y="175.1934">Facade</text><text fill="#000000" font-family="sans-serif" font-size="14" lengthAdjust="spacing" textLength="160.5693" x="3185.72" y="191.6817">ResumeTailoringFacade</text><line style="stroke:#181818;stroke-width:0.5;" x1="3157.72" x2="3348.2893" y1="199.6348" y2="199.6348"/><line style="stroke:#181818;stroke-width:0.5;" x1="3157.72" x2="3348.2893" y1="207.6348" y2="207.6348"/></g><!--class Flyweight--><g id="elem_Flyweight"><rect codeLine="1914" fill="#F1F1F1" height="75.4648" id="Flyweight" rx="2.5" ry="2.5" style="stroke:#181818;stroke-width:0.5;" width="269.8223" x="3603.09" y="148.4183"/><ellipse cx="3618.09" cy="178.1507" fill="#ADD1B2" rx="11" ry="11" style="stroke:#181818;stroke-width:1;"/><path d="M3620.5631,184.2938 Q3619.9821,184.5926 3619.3429,184.742 Q3618.7038,184.8914 3617.9982,184.8914 Q3615.4914,184.8914 3614.1715,183.2396 Q3612.8517,181.5877 3612.8517,178.4666 Q3612.8517,175.3372 3614.1715,173.6854 Q3615.4914,172.0335 3617.9982,172.0335 Q3618.7038,172.0335 3619.3512,172.1829 Q3619.9987,172.3323 3620.5631,172.6312 L3620.5631,175.3538 Q3619.9323,174.7728 3619.3388,174.503 Q3618.7453,174.2332 3618.1144,174.2332 Q3616.7697,174.2332 3616.0849,175.2999 Q3615.4001,176.3665 3615.4001,178.4666 Q3615.4001,180.5584 3616.0849,181.6251 Q3616.7697,182.6917 3618.1144,182.6917 Q3618.7453,182.6917 3619.3388,182.4219 Q3619.9323,182.1522 3620.5631,181.5711 Z " fill="#000000"/><text fill="#000000" font-family="sans-serif" font-size="14" lengthAdjust="spacing" textLength="64.1553" x="3718.9235" y="166.9534">Flyweight</text><text fill="#000000" font-family="sans-serif" font-size="14" lengthAdjust="spacing" textLength="188.5352" x="3656.7336" y="183.4417">CompanyBrandingFlyweight</text><text fill="#000000" font-family="sans-serif" font-size="14" lengthAdjust="spacing" textLength="237.8223" x="3632.09" y="199.93">CompanyBrandingFlyweightFactory</text><line style="stroke:#181818;stroke-width:0.5;" x1="3604.09" x2="3871.9123" y1="207.8831" y2="207.8831"/><line style="stroke:#181818;stroke-width:0.5;" x1="3604.09" x2="3871.9123" y1="215.8831" y2="215.8831"/></g><!--class Proxy--><g id="elem_Proxy"><rect codeLine="1915" fill="#F1F1F1" height="75.4648" id="Proxy" rx="2.5" ry="2.5" style="stroke:#181818;stroke-width:0.5;" width="201.1826" x="3908.41" y="148.4183"/><ellipse cx="3923.41" cy="178.1507" fill="#ADD1B2" rx="11" ry="11" style="stroke:#181818;stroke-width:1;"/><path d="M3925.8831,184.2938 Q3925.3021,184.5926 3924.6629,184.742 Q3924.0238,184.8914 3923.3182,184.8914 Q3920.8114,184.8914 3919.4915,183.2396 Q3918.1717,181.5877 3918.1717,178.4666 Q3918.1717,175.3372 3919.4915,173.6854 Q3920.8114,172.0335 3923.3182,172.0335 Q3924.0238,172.0335 3924.6712,172.1829 Q3925.3187,172.3323 3925.8831,172.6312 L3925.8831,175.3538 Q3925.2523,174.7728 3924.6588,174.503 Q3924.0653,174.2332 3923.4344,174.2332 Q3922.0897,174.2332 3921.4049,175.2999 Q3920.7201,176.3665 3920.7201,178.4666 Q3920.7201,180.5584 3921.4049,181.6251 Q3922.0897,182.6917 3923.4344,182.6917 Q3924.0653,182.6917 3924.6588,182.4219 Q3925.2523,182.1522 3925.8831,181.5711 Z " fill="#000000"/><text fill="#000000" font-family="sans-serif" font-size="14" lengthAdjust="spacing" textLength="37.9668" x="4003.0179" y="166.9534">Proxy</text><text fill="#000000" font-family="sans-serif" font-size="14" lengthAdjust="spacing" textLength="169.1826" x="3937.41" y="183.4417">CachingCareerPageProxy</text><text fill="#000000" font-family="sans-serif" font-size="14" lengthAdjust="spacing" textLength="126.4033" x="3958.7996" y="199.93">CareerPageFetcher</text><line style="stroke:#181818;stroke-width:0.5;" x1="3909.41" x2="4108.5926" y1="207.8831" y2="207.8831"/><line style="stroke:#181818;stroke-width:0.5;" x1="3909.41" x2="4108.5926" y1="215.8831" y2="215.8831"/></g><!--class Observer--><g id="elem_Observer"><rect codeLine="1919" fill="#F1F1F1" height="91.9531" id="Observer" rx="2.5" ry="2.5" style="stroke:#181818;stroke-width:0.5;" width="249.4785" x="1273.26" y="340.8883"/><ellipse cx="1288.26" cy="378.8648" fill="#ADD1B2" rx="11" ry="11" style="stroke:#181818;stroke-width:1;"/><path d="M1290.7331,385.0079 Q1290.1521,385.3067 1289.5129,385.4562 Q1288.8738,385.6056 1288.1682,385.6056 Q1285.6614,385.6056 1284.3415,383.9537 Q1283.0217,382.3019 1283.0217,379.1808 Q1283.0217,376.0514 1284.3415,374.3995 Q1285.6614,372.7477 1288.1682,372.7477 Q1288.8738,372.7477 1289.5212,372.8971 Q1290.1687,373.0465 1290.7331,373.3453 L1290.7331,376.068 Q1290.1023,375.4869 1289.5088,375.2171 Q1288.9153,374.9474 1288.2844,374.9474 Q1286.9397,374.9474 1286.2549,376.014 Q1285.5701,377.0807 1285.5701,379.1808 Q1285.5701,381.2726 1286.2549,382.3392 Q1286.9397,383.4059 1288.2844,383.4059 Q1288.9153,383.4059 1289.5088,383.1361 Q1290.1023,382.8663 1290.7331,382.2853 Z " fill="#000000"/><text fill="#000000" font-family="sans-serif" font-size="14" lengthAdjust="spacing" textLength="61.127" x="1380.4358" y="359.4234">Observer</text><text fill="#000000" font-family="sans-serif" font-size="14" lengthAdjust="spacing" textLength="154.2119" x="1333.8933" y="375.9117">CompanyWatchSubject</text><text fill="#000000" font-family="sans-serif" font-size="14" lengthAdjust="spacing" textLength="141.1963" x="1340.4011" y="392.4">JobDiscoveryListener</text><text fill="#000000" font-family="sans-serif" font-size="14" lengthAdjust="spacing" textLength="217.4785" x="1302.26" y="408.8883">JobDiscoveryPersistenceListener</text><line style="stroke:#181818;stroke-width:0.5;" x1="1274.26" x2="1521.7385" y1="416.8414" y2="416.8414"/><line style="stroke:#181818;stroke-width:0.5;" x1="1274.26" x2="1521.7385" y1="424.8414" y2="424.8414"/></g><!--class Strategy--><g id="elem_Strategy"><rect codeLine="1920" fill="#F1F1F1" height="75.4648" id="Strategy" rx="2.5" ry="2.5" style="stroke:#181818;stroke-width:0.5;" width="364.9854" x="2736.51" y="148.4183"/><ellipse cx="2751.51" cy="178.1507" fill="#ADD1B2" rx="11" ry="11" style="stroke:#181818;stroke-width:1;"/><path d="M2753.9831,184.2938 Q2753.4021,184.5926 2752.7629,184.742 Q2752.1238,184.8914 2751.4182,184.8914 Q2748.9114,184.8914 2747.5915,183.2396 Q2746.2717,181.5877 2746.2717,178.4666 Q2746.2717,175.3372 2747.5915,173.6854 Q2748.9114,172.0335 2751.4182,172.0335 Q2752.1238,172.0335 2752.7712,172.1829 Q2753.4187,172.3323 2753.9831,172.6312 L2753.9831,175.3538 Q2753.3523,174.7728 2752.7588,174.503 Q2752.1653,174.2332 2751.5344,174.2332 Q2750.1897,174.2332 2749.5049,175.2999 Q2748.8201,176.3665 2748.8201,178.4666 Q2748.8201,180.5584 2749.5049,181.6251 Q2750.1897,182.6917 2751.5344,182.6917 Q2752.1653,182.6917 2752.7588,182.4219 Q2753.3523,182.1522 2753.9831,181.5711 Z " fill="#000000"/><text fill="#000000" font-family="sans-serif" font-size="14" lengthAdjust="spacing" textLength="55.3164" x="2904.3445" y="166.9534">Strategy</text><text fill="#000000" font-family="sans-serif" font-size="14" lengthAdjust="spacing" textLength="168.1914" x="2847.907" y="183.4417">CareerPageFetchStrategy</text><text fill="#000000" font-family="sans-serif" font-size="14" lengthAdjust="spacing" textLength="332.9854" x="2765.51" y="199.93">Greenhouse/Workday/SmartRecruiters Strategies</text><line style="stroke:#181818;stroke-width:0.5;" x1="2737.51" x2="3100.4954" y1="207.8831" y2="207.8831"/><line style="stroke:#181818;stroke-width:0.5;" x1="2737.51" x2="3100.4954" y1="215.8831" y2="215.8831"/></g><!--class State--><g id="elem_State"><rect codeLine="1921" fill="#F1F1F1" height="91.9531" id="State" rx="2.5" ry="2.5" style="stroke:#181818;stroke-width:0.5;" width="286.1807" x="2414.91" y="140.1783"/><ellipse cx="2429.91" cy="178.1548" fill="#ADD1B2" rx="11" ry="11" style="stroke:#181818;stroke-width:1;"/><path d="M2432.3831,184.2979 Q2431.8021,184.5967 2431.1629,184.7462 Q2430.5238,184.8956 2429.8182,184.8956 Q2427.3114,184.8956 2425.9915,183.2437 Q2424.6717,181.5919 2424.6717,178.4708 Q2424.6717,175.3414 2425.9915,173.6895 Q2427.3114,172.0377 2429.8182,172.0377 Q2430.5238,172.0377 2431.1712,172.1871 Q2431.8187,172.3365 2432.3831,172.6353 L2432.3831,175.358 Q2431.7523,174.7769 2431.1588,174.5071 Q2430.5653,174.2374 2429.9344,174.2374 Q2428.5897,174.2374 2427.9049,175.304 Q2427.2201,176.3707 2427.2201,178.4708 Q2427.2201,180.5626 2427.9049,181.6292 Q2428.5897,182.6959 2429.9344,182.6959 Q2430.5653,182.6959 2431.1588,182.4261 Q2431.7523,182.1563 2432.3831,181.5753 Z " fill="#000000"/><text fill="#000000" font-family="sans-serif" font-size="14" lengthAdjust="spacing" textLength="33.5439" x="2554.2284" y="158.7134">State</text><text fill="#000000" font-family="sans-serif" font-size="14" lengthAdjust="spacing" textLength="181.877" x="2480.0619" y="175.2017">ApplicationTrackerContext</text><text fill="#000000" font-family="sans-serif" font-size="14" lengthAdjust="spacing" textLength="110.3936" x="2515.8036" y="191.69">ApplicationState</text><text fill="#000000" font-family="sans-serif" font-size="14" lengthAdjust="spacing" textLength="254.1807" x="2443.91" y="208.1783">New/Viewed/Applied/Rejected States</text><line style="stroke:#181818;stroke-width:0.5;" x1="2415.91" x2="2700.0907" y1="216.1314" y2="216.1314"/><line style="stroke:#181818;stroke-width:0.5;" x1="2415.91" x2="2700.0907" y1="224.1314" y2="224.1314"/></g><!--class Command--><g id="elem_Command"><rect codeLine="1922" fill="#F1F1F1" height="91.9531" id="Command" rx="2.5" ry="2.5" style="stroke:#181818;stroke-width:0.5;" width="194.0117" x="2259.99" y="340.8883"/><ellipse cx="2274.99" cy="378.8648" fill="#ADD1B2" rx="11" ry="11" style="stroke:#181818;stroke-width:1;"/><path d="M2277.4631,385.0079 Q2276.8821,385.3067 2276.2429,385.4562 Q2275.6038,385.6056 2274.8982,385.6056 Q2272.3914,385.6056 2271.0715,383.9537 Q2269.7517,382.3019 2269.7517,379.1808 Q2269.7517,376.0514 2271.0715,374.3995 Q2272.3914,372.7477 2274.8982,372.7477 Q2275.6038,372.7477 2276.2512,372.8971 Q2276.8987,373.0465 2277.4631,373.3453 L2277.4631,376.068 Q2276.8323,375.4869 2276.2388,375.2171 Q2275.6453,374.9474 2275.0144,374.9474 Q2273.6697,374.9474 2272.9849,376.014 Q2272.3001,377.0807 2272.3001,379.1808 Q2272.3001,381.2726 2272.9849,382.3392 Q2273.6697,383.4059 2275.0144,383.4059 Q2275.6453,383.4059 2276.2388,383.1361 Q2276.8323,382.8663 2277.4631,382.2853 Z " fill="#000000"/><text fill="#000000" font-family="sans-serif" font-size="14" lengthAdjust="spacing" textLength="69.6582" x="2335.1668" y="359.4234">Command</text><text fill="#000000" font-family="sans-serif" font-size="14" lengthAdjust="spacing" textLength="123.0059" x="2308.4929" y="375.9117">ResumeCommand</text><text fill="#000000" font-family="sans-serif" font-size="14" lengthAdjust="spacing" textLength="162.0117" x="2288.99" y="392.4">TailorResumeCommand</text><text fill="#000000" font-family="sans-serif" font-size="14" lengthAdjust="spacing" textLength="119.9365" x="2310.0276" y="408.8883">CommandInvoker</text><line style="stroke:#181818;stroke-width:0.5;" x1="2260.99" x2="2453.0017" y1="416.8414" y2="416.8414"/><line style="stroke:#181818;stroke-width:0.5;" x1="2260.99" x2="2453.0017" y1="424.8414" y2="424.8414"/></g><!--class Chain--><g id="elem_Chain"><rect codeLine="1923" fill="#F1F1F1" height="91.9531" id="Chain" rx="2.5" ry="2.5" style="stroke:#181818;stroke-width:0.5;" width="247.4277" x="1503.29" y="140.1783"/><ellipse cx="1518.29" cy="178.1548" fill="#ADD1B2" rx="11" ry="11" style="stroke:#181818;stroke-width:1;"/><path d="M1520.7631,184.2979 Q1520.1821,184.5967 1519.5429,184.7462 Q1518.9038,184.8956 1518.1982,184.8956 Q1515.6914,184.8956 1514.3715,183.2437 Q1513.0517,181.5919 1513.0517,178.4708 Q1513.0517,175.3414 1514.3715,173.6895 Q1515.6914,172.0377 1518.1982,172.0377 Q1518.9038,172.0377 1519.5512,172.1871 Q1520.1987,172.3365 1520.7631,172.6353 L1520.7631,175.358 Q1520.1323,174.7769 1519.5388,174.5071 Q1518.9453,174.2374 1518.3144,174.2374 Q1516.9697,174.2374 1516.2849,175.304 Q1515.6001,176.3707 1515.6001,178.4708 Q1515.6001,180.5626 1516.2849,181.6292 Q1516.9697,182.6959 1518.3144,182.6959 Q1518.9453,182.6959 1519.5388,182.4261 Q1520.1323,182.1563 1520.7631,181.5753 Z " fill="#000000"/><text fill="#000000" font-family="sans-serif" font-size="14" lengthAdjust="spacing" textLength="156.0234" x="1561.9921" y="158.7134">Chain of Responsibility</text><text fill="#000000" font-family="sans-serif" font-size="14" lengthAdjust="spacing" textLength="174.5352" x="1552.7363" y="175.2017">ResumeValidationHandler</text><text fill="#000000" font-family="sans-serif" font-size="14" lengthAdjust="spacing" textLength="215.4277" x="1532.29" y="191.69">NoFabricationValidationHandler</text><text fill="#000000" font-family="sans-serif" font-size="14" lengthAdjust="spacing" textLength="189.8271" x="1545.0903" y="208.1783">AtsLengthValidationHandler</text><line style="stroke:#181818;stroke-width:0.5;" x1="1504.29" x2="1749.7177" y1="216.1314" y2="216.1314"/><line style="stroke:#181818;stroke-width:0.5;" x1="1504.29" x2="1749.7177" y1="224.1314" y2="224.1314"/></g><!--class TemplateMethod--><g id="elem_TemplateMethod"><rect codeLine="1924" fill="#F1F1F1" height="91.9531" id="TemplateMethod" rx="2.5" ry="2.5" style="stroke:#181818;stroke-width:0.5;" width="214.3691" x="806.82" y="140.1783"/><ellipse cx="821.82" cy="178.1548" fill="#ADD1B2" rx="11" ry="11" style="stroke:#181818;stroke-width:1;"/><path d="M824.2931,184.2979 Q823.7121,184.5967 823.0729,184.7462 Q822.4338,184.8956 821.7282,184.8956 Q819.2214,184.8956 817.9015,183.2437 Q816.5817,181.5919 816.5817,178.4708 Q816.5817,175.3414 817.9015,173.6895 Q819.2214,172.0377 821.7282,172.0377 Q822.4338,172.0377 823.0812,172.1871 Q823.7287,172.3365 824.2931,172.6353 L824.2931,175.358 Q823.6623,174.7769 823.0688,174.5071 Q822.4753,174.2374 821.8444,174.2374 Q820.4997,174.2374 819.8149,175.304 Q819.1301,176.3707 819.1301,178.4708 Q819.1301,180.5626 819.8149,181.6292 Q820.4997,182.6959 821.8444,182.6959 Q822.4753,182.6959 823.0688,182.4261 Q823.6623,182.1563 824.2931,181.5753 Z " fill="#000000"/><text fill="#000000" font-family="sans-serif" font-size="14" lengthAdjust="spacing" textLength="118.9727" x="867.5182" y="158.7134">Template Method</text><text fill="#000000" font-family="sans-serif" font-size="14" lengthAdjust="spacing" textLength="170.1602" x="841.9245" y="175.2017">AbstractTailoringPipeline</text><text fill="#000000" font-family="sans-serif" font-size="14" lengthAdjust="spacing" textLength="163.3311" x="845.339" y="191.69">OpenAiTailoringPipeline</text><text fill="#000000" font-family="sans-serif" font-size="14" lengthAdjust="spacing" textLength="182.3691" x="835.82" y="208.1783">RuleBasedTailoringPipeline</text><line style="stroke:#181818;stroke-width:0.5;" x1="807.82" x2="1020.1891" y1="216.1314" y2="216.1314"/><line style="stroke:#181818;stroke-width:0.5;" x1="807.82" x2="1020.1891" y1="224.1314" y2="224.1314"/></g><!--class Memento--><g id="elem_Memento"><rect codeLine="1925" fill="#F1F1F1" height="75.4648" id="Memento" rx="2.5" ry="2.5" style="stroke:#181818;stroke-width:0.5;" width="199.7539" x="1268.12" y="148.4183"/><ellipse cx="1283.12" cy="178.1507" fill="#ADD1B2" rx="11" ry="11" style="stroke:#181818;stroke-width:1;"/><path d="M1285.5931,184.2938 Q1285.0121,184.5926 1284.3729,184.742 Q1283.7338,184.8914 1283.0282,184.8914 Q1280.5214,184.8914 1279.2015,183.2396 Q1277.8817,181.5877 1277.8817,178.4666 Q1277.8817,175.3372 1279.2015,173.6854 Q1280.5214,172.0335 1283.0282,172.0335 Q1283.7338,172.0335 1284.3812,172.1829 Q1285.0287,172.3323 1285.5931,172.6312 L1285.5931,175.3538 Q1284.9623,174.7728 1284.3688,174.503 Q1283.7753,174.2332 1283.1444,174.2332 Q1281.7997,174.2332 1281.1149,175.2999 Q1280.4301,176.3665 1280.4301,178.4666 Q1280.4301,180.5584 1281.1149,181.6251 Q1281.7997,182.6917 1283.1444,182.6917 Q1283.7753,182.6917 1284.3688,182.4219 Q1284.9623,182.1522 1285.5931,181.5711 Z " fill="#000000"/><text fill="#000000" font-family="sans-serif" font-size="14" lengthAdjust="spacing" textLength="63.2529" x="1349.3705" y="166.9534">Memento</text><text fill="#000000" font-family="sans-serif" font-size="14" lengthAdjust="spacing" textLength="167.7539" x="1297.12" y="183.4417">ResumeVersionMemento</text><text fill="#000000" font-family="sans-serif" font-size="14" lengthAdjust="spacing" textLength="167.3232" x="1297.3353" y="199.93">ResumeHistoryCaretaker</text><line style="stroke:#181818;stroke-width:0.5;" x1="1269.12" x2="1466.8739" y1="207.8831" y2="207.8831"/><line style="stroke:#181818;stroke-width:0.5;" x1="1269.12" x2="1466.8739" y1="215.8831" y2="215.8831"/></g><!--class Mediator--><g id="elem_Mediator"><rect codeLine="1926" fill="#F1F1F1" height="58.9766" id="Mediator" rx="2.5" ry="2.5" style="stroke:#181818;stroke-width:0.5;" width="176.7373" x="1056.63" y="156.6583"/><ellipse cx="1071.63" cy="178.1466" fill="#ADD1B2" rx="11" ry="11" style="stroke:#181818;stroke-width:1;"/><path d="M1074.1031,184.2896 Q1073.5221,184.5885 1072.8829,184.7379 Q1072.2438,184.8873 1071.5382,184.8873 Q1069.0314,184.8873 1067.7115,183.2354 Q1066.3917,181.5836 1066.3917,178.4625 Q1066.3917,175.3331 1067.7115,173.6812 Q1069.0314,172.0294 1071.5382,172.0294 Q1072.2438,172.0294 1072.8912,172.1788 Q1073.5387,172.3282 1074.1031,172.627 L1074.1031,175.3497 Q1073.4723,174.7686 1072.8788,174.4989 Q1072.2853,174.2291 1071.6544,174.2291 Q1070.3097,174.2291 1069.6249,175.2957 Q1068.9401,176.3624 1068.9401,178.4625 Q1068.9401,180.5543 1069.6249,181.6209 Q1070.3097,182.6876 1071.6544,182.6876 Q1072.2853,182.6876 1072.8788,182.4178 Q1073.4723,182.148 1074.1031,181.567 Z " fill="#000000"/><text fill="#000000" font-family="sans-serif" font-size="14" lengthAdjust="spacing" textLength="60.0127" x="1127.9923" y="175.1934">Mediator</text><text fill="#000000" font-family="sans-serif" font-size="14" lengthAdjust="spacing" textLength="144.7373" x="1085.63" y="191.6817">JobIngestionMediator</text><line style="stroke:#181818;stroke-width:0.5;" x1="1057.63" x2="1232.3673" y1="199.6348" y2="199.6348"/><line style="stroke:#181818;stroke-width:0.5;" x1="1057.63" x2="1232.3673" y1="207.6348" y2="207.6348"/></g><!--class IteratorPattern--><g id="elem_IteratorPattern"><rect codeLine="1927" fill="#F1F1F1" height="58.9766" id="IteratorPattern" rx="2.5" ry="2.5" style="stroke:#181818;stroke-width:0.5;" width="184.5234" x="2195.74" y="156.6583"/><ellipse cx="2210.74" cy="178.1466" fill="#ADD1B2" rx="11" ry="11" style="stroke:#181818;stroke-width:1;"/><path d="M2213.2131,184.2896 Q2212.6321,184.5885 2211.9929,184.7379 Q2211.3538,184.8873 2210.6482,184.8873 Q2208.1414,184.8873 2206.8215,183.2354 Q2205.5017,181.5836 2205.5017,178.4625 Q2205.5017,175.3331 2206.8215,173.6812 Q2208.1414,172.0294 2210.6482,172.0294 Q2211.3538,172.0294 2212.0012,172.1788 Q2212.6487,172.3282 2213.2131,172.627 L2213.2131,175.3497 Q2212.5823,174.7686 2211.9888,174.4989 Q2211.3953,174.2291 2210.7644,174.2291 Q2209.4197,174.2291 2208.7349,175.2957 Q2208.0501,176.3624 2208.0501,178.4625 Q2208.0501,180.5543 2208.7349,181.6209 Q2209.4197,182.6876 2210.7644,182.6876 Q2211.3953,182.6876 2211.9888,182.4178 Q2212.5823,182.148 2213.2131,181.567 Z " fill="#000000"/><text fill="#000000" font-family="sans-serif" font-size="14" lengthAdjust="spacing" textLength="50.0938" x="2275.9548" y="175.1934">Iterator</text><text fill="#000000" font-family="sans-serif" font-size="14" lengthAdjust="spacing" textLength="152.5234" x="2224.74" y="191.6817">ResumeSectionIterator</text><line style="stroke:#181818;stroke-width:0.5;" x1="2196.74" x2="2379.2634" y1="199.6348" y2="199.6348"/><line style="stroke:#181818;stroke-width:0.5;" x1="2196.74" x2="2379.2634" y1="207.6348" y2="207.6348"/></g><!--class Visitor--><g id="elem_Visitor"><rect codeLine="1928" fill="#F1F1F1" height="75.4648" id="Visitor" rx="2.5" ry="2.5" style="stroke:#181818;stroke-width:0.5;" width="178.3779" x="1785.81" y="148.4183"/><ellipse cx="1800.81" cy="178.1507" fill="#ADD1B2" rx="11" ry="11" style="stroke:#181818;stroke-width:1;"/><path d="M1803.2831,184.2938 Q1802.7021,184.5926 1802.0629,184.742 Q1801.4238,184.8914 1800.7182,184.8914 Q1798.2114,184.8914 1796.8915,183.2396 Q1795.5717,181.5877 1795.5717,178.4666 Q1795.5717,175.3372 1796.8915,173.6854 Q1798.2114,172.0335 1800.7182,172.0335 Q1801.4238,172.0335 1802.0712,172.1829 Q1802.7187,172.3323 1803.2831,172.6312 L1803.2831,175.3538 Q1802.6523,174.7728 1802.0588,174.503 Q1801.4653,174.2332 1800.8344,174.2332 Q1799.4897,174.2332 1798.8049,175.2999 Q1798.1201,176.3665 1798.1201,178.4666 Q1798.1201,180.5584 1798.8049,181.6251 Q1799.4897,182.6917 1800.8344,182.6917 Q1801.4653,182.6917 1802.0588,182.4219 Q1802.6523,182.1522 1803.2831,181.5711 Z " fill="#000000"/><text fill="#000000" font-family="sans-serif" font-size="14" lengthAdjust="spacing" textLength="43.9482" x="1866.0248" y="166.9534">Visitor</text><text fill="#000000" font-family="sans-serif" font-size="14" lengthAdjust="spacing" textLength="146.3779" x="1814.81" y="183.4417">ResumeSectionVisitor</text><text fill="#000000" font-family="sans-serif" font-size="14" lengthAdjust="spacing" textLength="125.3164" x="1825.3408" y="199.93">LatexExportVisitor</text><line style="stroke:#181818;stroke-width:0.5;" x1="1786.81" x2="1963.1879" y1="207.8831" y2="207.8831"/><line style="stroke:#181818;stroke-width:0.5;" x1="1786.81" x2="1963.1879" y1="215.8831" y2="215.8831"/></g><!--class NullObject--><g id="elem_NullObject"><rect codeLine="1929" fill="#F1F1F1" height="58.9766" id="NullObject" rx="2.5" ry="2.5" style="stroke:#181818;stroke-width:0.5;" width="161.5547" x="1999.22" y="156.6583"/><ellipse cx="2014.22" cy="178.1466" fill="#ADD1B2" rx="11" ry="11" style="stroke:#181818;stroke-width:1;"/><path d="M2016.6931,184.2896 Q2016.1121,184.5885 2015.4729,184.7379 Q2014.8338,184.8873 2014.1282,184.8873 Q2011.6214,184.8873 2010.3015,183.2354 Q2008.9817,181.5836 2008.9817,178.4625 Q2008.9817,175.3331 2010.3015,173.6812 Q2011.6214,172.0294 2014.1282,172.0294 Q2014.8338,172.0294 2015.4812,172.1788 Q2016.1287,172.3282 2016.6931,172.627 L2016.6931,175.3497 Q2016.0623,174.7686 2015.4688,174.4989 Q2014.8753,174.2291 2014.2444,174.2291 Q2012.8997,174.2291 2012.2149,175.2957 Q2011.5301,176.3624 2011.5301,178.4625 Q2011.5301,180.5543 2012.2149,181.6209 Q2012.8997,182.6876 2014.2444,182.6876 Q2014.8753,182.6876 2015.4688,182.4178 Q2016.0623,182.148 2016.6931,181.567 Z " fill="#000000"/><text fill="#000000" font-family="sans-serif" font-size="14" lengthAdjust="spacing" textLength="75.708" x="2055.1433" y="175.1934">Null Object</text><text fill="#000000" font-family="sans-serif" font-size="14" lengthAdjust="spacing" textLength="129.5547" x="2028.22" y="191.6817">NullResumeSection</text><line style="stroke:#181818;stroke-width:0.5;" x1="2000.22" x2="2159.7747" y1="199.6348" y2="199.6348"/><line style="stroke:#181818;stroke-width:0.5;" x1="2000.22" x2="2159.7747" y1="207.6348" y2="207.6348"/></g><!--link FactoryMethod to AbstractFactory--><g id="link_FactoryMethod_AbstractFactory"><path codeLine="1932" d="M200.47,425.0083 C233.86,450.0683 273.642,479.9456 310.852,507.8856 " fill="none" id="FactoryMethod-to-AbstractFactory" style="stroke:#181818;stroke-width:1;"/><polygon fill="#181818" points="315.65,511.4883,310.8548,502.8856,311.6517,508.486,306.0512,509.2829,315.65,511.4883" style="stroke:#181818;stroke-width:1;"/><text fill="#000000" font-family="sans-serif" font-size="13" lengthAdjust="spacing" textLength="181.9746" x="277.08" y="478.4066">creates ATS-specific families</text></g><!--link AbstractFactory to Proxy--><g id="link_AbstractFactory_Proxy"><path codeLine="1933" d="M518.76,564.5683 C1092.73,561.9283 3359.84,545.8783 3665,456.8383 C3813.77,413.4283 3860.38,393.4483 3965,279.1283 C3979.34,263.4583 3987.6865,247.8451 3994.8665,229.7551 " fill="none" id="AbstractFactory-to-Proxy" style="stroke:#181818;stroke-width:1;"/><polygon fill="#181818" points="3997.08,224.1783,3990.042,231.0678,3995.2355,228.8256,3997.4777,234.0191,3997.08,224.1783" style="stroke:#181818;stroke-width:1;"/><text fill="#000000" font-family="sans-serif" font-size="13" lengthAdjust="spacing" textLength="180.1465" x="3955.73" y="391.9266">creates cached/lazy fetchers</text></g><!--link Proxy to Strategy--><g id="link_Proxy_Strategy"><path codeLine="1934" d="M3977.7,148.1683 C3955.88,124.8283 3924.57,97.0283 3890,84.2583 C3811.94,55.3983 3222.3,66.4883 3141,84.2583 C3084.66,96.5683 3030.7849,121.6806 2987.7349,145.2106 " fill="none" id="Proxy-to-Strategy" style="stroke:#181818;stroke-width:1;"/><polygon fill="#181818" points="2982.47,148.0883,2992.2858,147.2817,2986.8574,145.6902,2988.4489,140.2619,2982.47,148.0883" style="stroke:#181818;stroke-width:1;"/><text fill="#000000" font-family="sans-serif" font-size="13" lengthAdjust="spacing" textLength="193.5083" x="3257.5" y="66.7466">fetch behavior selected by ATS</text></g><!--link Strategy to Adapter--><g id="link_Strategy_Adapter"><path codeLine="1935" d="M2982.47,148.0883 C3025.52,124.5583 3084.66,96.5683 3141,84.2583 C3248.03,60.8683 4024.82,44.7283 4127,84.2583 C4160.1,97.0583 4185.4803,120.1816 4205.8203,143.4416 " fill="none" id="Strategy-to-Adapter" style="stroke:#181818;stroke-width:1;"/><polygon fill="#181818" points="4209.77,147.9583,4206.8566,138.5502,4206.4786,144.1944,4200.8344,143.8164,4209.77,147.9583" style="stroke:#181818;stroke-width:1;"/><text fill="#000000" font-family="sans-serif" font-size="13" lengthAdjust="spacing" textLength="270.8545" x="3809" y="66.7466">raw ATS data normalized into internal DTO</text></g><!--link Adapter to Mediator--><g id="link_Adapter_Mediator"><path codeLine="1936" d="M4209.77,147.9583 C4189.43,124.6983 4160.1,97.0583 4127,84.2583 C4052.49,55.4283 1325.11,54.4083 1251,84.2583 C1215.01,98.7483 1188.0513,127.1948 1169.1113,151.7848 " fill="none" id="Adapter-to-Mediator" style="stroke:#181818;stroke-width:1;"/><polygon fill="#181818" points="1165.45,156.5383,1174.1108,151.849,1168.501,152.5771,1167.7729,146.9673,1165.45,156.5383" style="stroke:#181818;stroke-width:1;"/><text fill="#000000" font-family="sans-serif" font-size="13" lengthAdjust="spacing" textLength="254.1094" x="3518" y="66.7466">discovered jobs passed into polling flow</text></g><!--link Mediator to Observer--><g id="link_Mediator_Observer"><path codeLine="1937" d="M1181.79,216.0483 C1223.45,248.7683 1287.1415,298.7921 1335.8515,337.0521 " fill="none" id="Mediator-to-Observer" style="stroke:#181818;stroke-width:1;"/><polygon fill="#181818" points="1340.57,340.7583,1335.9631,332.0533,1336.6379,337.6698,1331.0215,338.3446,1340.57,340.7583" style="stroke:#181818;stroke-width:1;"/><text fill="#000000" font-family="sans-serif" font-size="13" lengthAdjust="spacing" textLength="104.6982" x="1257.35" y="275.6966">notifies listeners</text></g><!--link Observer to Facade--><g id="link_Observer_Facade"><path codeLine="1938" d="M1522.97,369.7883 C1687.58,348.9483 1986.17,312.2983 2242,287.1283 C2380.88,273.4583 2415.75,271.4083 2555,262.1283 C2804.58,245.4983 2871.2,278.4683 3117,232.1283 C3136.92,228.3683 3152.236,224.3094 3171.636,217.9794 " fill="none" id="Observer-to-Facade" style="stroke:#181818;stroke-width:1;"/><polygon fill="#181818" points="3177.34,216.1183,3167.5432,215.1073,3172.5866,217.6693,3170.0247,222.7127,3177.34,216.1183" style="stroke:#181818;stroke-width:1;"/><text fill="#000000" font-family="sans-serif" font-size="13" lengthAdjust="spacing" textLength="308.1216" x="2556" y="275.6966">downstream resume generation can be triggered</text></g><!--link Facade to TemplateMethod--><g id="link_Facade_TemplateMethod"><path codeLine="1939" d="M3227.48,156.2783 C3199.59,126.1583 3151.85,81.5583 3099.5,63.1783 C3045.96,44.3683 1109.72,43.4883 1056.5,63.1783 C1015.12,78.4783 981.8401,107.4391 955.7601,135.5591 " fill="none" id="Facade-to-TemplateMethod" style="stroke:#181818;stroke-width:1;"/><polygon fill="#181818" points="951.68,139.9583,960.7329,136.0795,955.0801,136.2923,954.8673,130.6394,951.68,139.9583" style="stroke:#181818;stroke-width:1;"/></g><!--link Facade to Chain--><g id="link_Facade_Chain"><path codeLine="1940" d="M3227.48,156.2783 C3199.59,126.1583 3151.85,81.5583 3099.5,63.1783 C3065.06,51.0783 1820.03,51.3483 1785.5,63.1783 C1741.02,78.4083 1703.7074,107.6325 1674.2774,135.7625 " fill="none" id="Facade-to-Chain" style="stroke:#181818;stroke-width:1;"/><polygon fill="#181818" points="1669.94,139.9083,1679.2099,136.5812,1673.5545,136.4535,1673.6822,130.7981,1669.94,139.9083" style="stroke:#181818;stroke-width:1;"/></g><!--link TemplateMethod to Builder--><g id="link_TemplateMethod_Builder"><path codeLine="1941" d="M806.63,200.3783 C724.49,213.7283 610.35,239.4583 520,287.1283 C486.3,304.9083 458.4966,330.4727 437.4166,352.7227 " fill="none" id="TemplateMethod-to-Builder" style="stroke:#181818;stroke-width:1;"/><polygon fill="#181818" points="433.29,357.0783,442.3836,353.2959,436.7288,353.4486,436.5761,347.7938,433.29,357.0783" style="stroke:#181818;stroke-width:1;"/></g><!--link TemplateMethod to Prototype--><g id="link_TemplateMethod_Prototype"><path codeLine="1942" d="M852.39,232.4883 C800.41,270.7483 732.4026,320.8022 688.0326,353.4522 " fill="none" id="TemplateMethod-to-Prototype" style="stroke:#181818;stroke-width:1;"/><polygon fill="#181818" points="683.2,357.0083,692.8196,354.8959,687.2272,354.0449,688.0782,348.4524,683.2,357.0083" style="stroke:#181818;stroke-width:1;"/></g><!--link Bridge to Composite--><g id="link_Bridge_Composite"><path codeLine="1943" d="M3436.62,224.0583 C3401.54,256.9483 3354.4578,301.0752 3316.8478,336.3252 " fill="none" id="Bridge-to-Composite" style="stroke:#181818;stroke-width:1;"/><polygon fill="#181818" points="3312.47,340.4283,3321.772,337.1922,3316.1181,337.0091,3316.3013,331.3552,3312.47,340.4283" style="stroke:#181818;stroke-width:1;"/><text fill="#000000" font-family="sans-serif" font-size="13" lengthAdjust="spacing" textLength="180.6606" x="3396.22" y="275.6966">renders section tree/content</text></g><!--link Composite to IteratorPattern--><g id="link_Composite_IteratorPattern"><path codeLine="1944" d="M3212.42,340.4183 C3185.85,319.9683 3151.77,298.0083 3117,287.1283 C3088.63,278.2483 2611.47,283.0383 2582,279.1283 C2497.9,267.9683 2477.53,258.8183 2397,232.1283 C2382.81,227.4283 2373.4235,223.9949 2359.2835,218.2849 " fill="none" id="Composite-to-IteratorPattern" style="stroke:#181818;stroke-width:1;"/><polygon fill="#181818" points="2353.72,216.0383,2360.5675,223.1173,2358.3563,217.9105,2363.563,215.6993,2353.72,216.0383" style="stroke:#181818;stroke-width:1;"/></g><!--link Composite to Visitor--><g id="link_Composite_Visitor"><path codeLine="1945" d="M3212.78,340.5983 C3186.16,320.0583 3151.94,297.9583 3117,287.1283 C3073.38,273.6083 2340.52,282.7483 2295,279.1283 C2154.77,267.9683 2117.44,270.1183 1982,232.1283 C1974.05,229.8983 1971.5351,229.2613 1963.4551,226.3513 " fill="none" id="Composite-to-Visitor" style="stroke:#181818;stroke-width:1;"/><polygon fill="#181818" points="1957.81,224.3183,1964.9222,231.1312,1962.5142,226.0125,1967.633,223.6045,1957.81,224.3183" style="stroke:#181818;stroke-width:1;"/></g><!--link Command to Facade--><g id="link_Command_Facade"><path codeLine="1946" d="M2454.42,374.5683 C2579.47,358.9083 2802.54,326.9883 2989,279.1283 C3055.05,262.1683 3122.5153,238.2702 3175.0053,218.2102 " fill="none" id="Command-to-Facade" style="stroke:#181818;stroke-width:1;"/><polygon fill="#181818" points="3180.61,216.0683,3170.7751,215.5447,3175.9395,217.8532,3173.631,223.0176,3180.61,216.0683" style="stroke:#181818;stroke-width:1;"/></g><!--link Memento to Command--><g id="link_Memento_Command"><path codeLine="1947" d="M1430.73,224.1983 C1466.32,243.5583 1512.35,265.9283 1556,279.1283 C1802.24,353.6083 2100.7059,375.8818 2253.6359,382.6818 " fill="none" id="Memento-to-Command" style="stroke:#181818;stroke-width:1;"/><polygon fill="#181818" points="2259.63,382.9483,2250.8166,378.5524,2254.6349,382.7262,2250.4612,386.5445,2259.63,382.9483" style="stroke:#181818;stroke-width:1;"/></g><!--link State to Decorator--><g id="link_State_Decorator"><path codeLine="1948" d="M2701.31,228.0983 C2707.27,229.5183 2713.19,230.8683 2719,232.1283 C2850.88,260.7783 2884.57,267.1983 3019,279.1283 C3059.85,282.7583 3348.67,275.5083 3388,287.1283 C3430.1,299.5683 3467.3044,322.6226 3497.7144,345.0926 " fill="none" id="State-to-Decorator" style="stroke:#181818;stroke-width:1;"/><polygon fill="#181818" points="3502.54,348.6583,3497.6787,340.0928,3498.5187,345.6869,3492.9245,346.5269,3502.54,348.6583" style="stroke:#181818;stroke-width:1;"/><text fill="#000000" font-family="sans-serif" font-size="13" lengthAdjust="spacing" textLength="354.6245" x="3020" y="275.6966">tracker status and display metadata enrich job workflow</text></g><!--link Flyweight to Decorator--><g id="link_Flyweight_Decorator"><path codeLine="1949" d="M3693.65,224.1283 C3680.22,235.8883 3665.68,249.2083 3653,262.1283 C3625.87,289.7783 3601.3589,318.7597 3580.9989,343.9797 " fill="none" id="Flyweight-to-Decorator" style="stroke:#181818;stroke-width:1;"/><polygon fill="#181818" points="3577.23,348.6483,3585.9957,344.1581,3580.3708,344.7578,3579.771,339.1329,3577.23,348.6483" style="stroke:#181818;stroke-width:1;"/><text fill="#000000" font-family="sans-serif" font-size="13" lengthAdjust="spacing" textLength="306.3823" x="3654" y="275.6966">shared company branding can support job cards</text></g><!--link NullObject to Composite--><g id="link_NullObject_Composite"><path codeLine="1950" d="M2135.97,216.0583 C2149.45,222.1183 2164.01,227.9283 2178,232.1283 C2309.37,271.5583 2346.31,267.7883 2483,279.1283 C2518.1,282.0383 3083.37,276.6483 3117,287.1283 C3151.78,297.9683 3181.1061,316.2676 3207.6761,336.7276 " fill="none" id="NullObject-to-Composite" style="stroke:#181818;stroke-width:1;"/><polygon fill="#181818" points="3212.43,340.3883,3207.7396,331.728,3208.4684,337.3377,3202.8587,338.0665,3212.43,340.3883" style="stroke:#181818;stroke-width:1;"/></g><!--SRC=[XLRBRkCw3DtxAuJkY-pluW9fEvt9e8yW2TfDDuhCs9h8aY79JJo3- - -NUlgH5BC9B9A7fCX3AfPR0UG13AyaMLDhGKloJ5joIzvhq42-KLPdnSgGPTiA3cLXZbosLDE6j9GTQGLRswCd3SnIMGaeYYWdD_SQgELAKf4ScHlofo242MeCkNcap2hTasUmjIe_v3tL07gDs4Um3BE81X_o0Gwq4_OhWnj23OdVmTaGPBatLgEAP6TBQrRIGgLzSbdy7NtBMdK6hcdVbJwMjB-csZPKsmqmtN6yunNVFhsKHvGD2TvrN9IWF-IESg4qb1imNGDHxB7nUy2ijRBAzYryo62zWwOLr49MU5m-5V-DshArkcEsqr-rPLdIrhg4XehyLFiinM-a3TEyTLTSKsrYbj5YT3FDoogdk069Tt0UdZ3HyrGOhkdj1_ozQbfbiAZ9nHP9XZ6zN8AqC_bthRfs9di2Ul3EixF1_mCmXOrIuL9hPIoNrKZuJ95aMpo2ltEKUs_vD64pBOU6-6QYlo1E3CNF4KBq9-1LZVTmsL7PtsagImVwksP2_IISCEJSkv5YDQA6mSdosIGblfpx2LVkeAQVN7t9bTSzTl_JDJNc-Uvhrkr_OVa3LxXX2Ytw9suioCIW95tZn7W5WsJWKqcEXr18M-HDTPdye1W8kuZpkfWD9ud678mFax3ZCDGHpgyxvgTuXsDx17slSB3FTgAAnYzmMhnnE46vY6joiG5N0IY9Dqd1g9tIky6c9iRaOw3EJ1W_Ll9J7ME9ecZaiAPS4dKWYCK1CNpF1RTz2l161IzzsZyG9bmdNjGZtUjucIjwN9LF82jRN-X21YxW43yjeRpGqyxBmx3cBGWkiMIlBSWblwBOT0Bkg87oGkT3fXZpDVyC3Iu4bU_gQANaJFe36OOpu_XZQIfZj1cxAddU2YjPWR7ULP16J3WCe1MoAu0cwoU9FIeTuYGDu3UEY-a2cwL-NtuxjqhRAFFkulVWvgKJ0WSdZ9uxJDnvZ9C62pVcaoUJtDx-Et-bo3-4kKSSSBlljhUc1SOFd943RP1QO8gvlVFXjyW8oN07uKG8-hidXx1jJ16Cd7aQGKHuBTd7dKCCY313-zw5BxAbppIyDeZIzEJK1Fb9YLIwGQx-HXJ7hheVB3MkhuVTQv4m3fzQY0xAk8mGyqlj3VwnCIRXMoMGUnKv27KgCiOvI1iA7KXbiInuLH5Nc2corfc6nUyYgPF4WW7-UzA-DwHovdwmi4uIxqwivbNbaYaYp7cOqNwa2JCurNj5-jDmHJNyBmXFRd2K7aXNKlyi6-o0fmxc1B1WRW5AMmo63ZOdzLIRE1ftrQWQHPox5DklChyXlIG_i9YD3GkO6DHsXZW_s3AyL4yQ76JVTv2unchNFtB2rU_RbP_52u-cfgxRBBnPP1yVLzy2qxLkqhmhHdLfYc5efeNw7m00]--></g></svg>