<svg xmlns="http://www.w3.org/2000/svg" xmlns:xlink="http://www.w3.org/1999/xlink" contentStyleType="text/css" height="598px" preserveAspectRatio="none" style="width:1933px;height:598px;background:#FFFFFF;" version="1.1" viewBox="0 0 1933 598" width="1933px" zoomAndPan="magnify"><title>Resume Tailoring Flow - Runtime Sequence</title><defs/><g><text fill="#000000" font-family="sans-serif" font-size="14" font-weight="bold" lengthAdjust="spacing" textLength="315.4375" x="808.1157" y="28.5352">Resume Tailoring Flow - Runtime Sequence</text><line style="stroke:#181818;stroke-width:0.5;stroke-dasharray:5.0,5.0;" x1="27" x2="27" y1="73.9766" y2="562.9453"/><line style="stroke:#181818;stroke-width:0.5;stroke-dasharray:5.0,5.0;" x1="207.4346" x2="207.4346" y1="73.9766" y2="562.9453"/><line style="stroke:#181818;stroke-width:0.5;stroke-dasharray:5.0,5.0;" x1="496.874" x2="496.874" y1="73.9766" y2="562.9453"/><line style="stroke:#181818;stroke-width:0.5;stroke-dasharray:5.0,5.0;" x1="719.085" x2="719.085" y1="73.9766" y2="562.9453"/><line style="stroke:#181818;stroke-width:0.5;stroke-dasharray:5.0,5.0;" x1="914.7046" x2="914.7046" y1="73.9766" y2="562.9453"/><line style="stroke:#181818;stroke-width:0.5;stroke-dasharray:5.0,5.0;" x1="1103.731" x2="1103.731" y1="73.9766" y2="562.9453"/><line style="stroke:#181818;stroke-width:0.5;stroke-dasharray:5.0,5.0;" x1="1287.6074" x2="1287.6074" y1="73.9766" y2="562.9453"/><line style="stroke:#181818;stroke-width:0.5;stroke-dasharray:5.0,5.0;" x1="1437.3359" x2="1437.3359" y1="73.9766" y2="562.9453"/><line style="stroke:#181818;stroke-width:0.5;stroke-dasharray:5.0,5.0;" x1="1616.8711" x2="1616.8711" y1="73.9766" y2="562.9453"/><line style="stroke:#181818;stroke-width:0.5;stroke-dasharray:5.0,5.0;" x1="1770.9131" x2="1770.9131" y1="73.9766" y2="562.9453"/><line style="stroke:#181818;stroke-width:0.5;stroke-dasharray:5.0,5.0;" x1="1889.0039" x2="1889.0039" y1="73.9766" y2="562.9453"/><rect fill="#E2E2F0" height="30.4883" rx="2.5" ry="2.5" style="stroke:#181818;stroke-width:0.5;" width="44.3652" x="5" y="42.4883"/><text fill="#000000" font-family="sans-serif" font-size="14" lengthAdjust="spacing" textLength="30.3652" x="12" y="63.0234">User</text><rect fill="#E2E2F0" height="30.4883" rx="2.5" ry="2.5" style="stroke:#181818;stroke-width:0.5;" width="44.3652" x="5" y="561.9453"/><text fill="#000000" font-family="sans-serif" font-size="14" lengthAdjust="spacing" textLength="30.3652" x="12" y="582.4805">User</text><rect fill="#E2E2F0" height="30.4883" rx="2.5" ry="2.5" style="stroke:#181818;stroke-width:0.5;" width="210.9434" x="102.4346" y="42.4883"/><text fill="#000000" font-family="sans-serif" font-size="14" lengthAdjust="spacing" textLength="196.9434" x="109.4346" y="63.0234">ResumesPage/JobDetailPanel</text><rect fill="#E2E2F0" height="30.4883" rx="2.5" ry="2.5" style="stroke:#181818;stroke-width:0.5;" width="210.9434" x="102.4346" y="561.9453"/><text fill="#000000" font-family="sans-serif" font-size="14" lengthAdjust="spacing" textLength="196.9434" x="109.4346" y="582.4805">ResumesPage/JobDetailPanel</text><rect fill="#E2E2F0" height="30.4883" rx="2.5" ry="2.5" style="stroke:#181818;stroke-width:0.5;" width="157.2744" x="418.874" y="42.4883"/><text fill="#000000" font-family="sans-serif" font-size="14" lengthAdjust="spacing" textLength="143.2744" x="425.874" y="63.0234">JobResumeController</text><rect fill="#E2E2F0" height="30.4883" rx="2.5" ry="2.5" style="stroke:#181818;stroke-width:0.5;" width="157.2744" x="418.874" y="561.9453"/><text fill="#000000" font-family="sans-serif" font-size="14" lengthAdjust="spacing" textLength="143.2744" x="425.874" y="582.4805">JobResumeController</text><rect fill="#E2E2F0" height="30.4883" rx="2.5" ry="2.5" style="stroke:#181818;stroke-width:0.5;" width="114.6797" x="662.085" y="42.4883"/><text fill="#000000" font-family="sans-serif" font-size="14" lengthAdjust="spacing" textLength="100.6797" x="669.085" y="63.0234">ResumeService</text><rect fill="#E2E2F0" height="30.4883" rx="2.5" ry="2.5" style="stroke:#181818;stroke-width:0.5;" width="114.6797" x="662.085" y="561.9453"/><text fill="#000000" font-family="sans-serif" font-size="14" lengthAdjust="spacing" textLength="100.6797" x="669.085" y="582.4805">ResumeService</text><rect fill="#E2E2F0" height="30.4883" rx="2.5" ry="2.5" style="stroke:#181818;stroke-width:0.5;" width="174.5693" x="827.7046" y="42.4883"/><text fill="#000000" font-family="sans-serif" font-size="14" lengthAdjust="spacing" textLength="160.5693" x="834.7046" y="63.0234">ResumeTailoringFacade</text><rect fill="#E2E2F0" height="30.4883" rx="2.5" ry="2.5" style="stroke:#181818;stroke-width:0.5;" width="174.5693" x="827.7046" y="561.9453"/><text fill="#000000" font-family="sans-serif" font-size="14" lengthAdjust="spacing" textLength="160.5693" x="834.7046" y="582.4805">ResumeTailoringFacade</text><rect fill="#E2E2F0" height="30.4883" rx="2.5" ry="2.5" style="stroke:#181818;stroke-width:0.5;" width="177.3311" x="1015.731" y="42.4883"/><text fill="#000000" font-family="sans-serif" font-size="14" lengthAdjust="spacing" textLength="163.3311" x="1022.731" y="63.0234">OpenAiTailoringPipeline</text><rect fill="#E2E2F0" height="30.4883" rx="2.5" ry="2.5" style="stroke:#181818;stroke-width:0.5;" width="177.3311" x="1015.731" y="561.9453"/><text fill="#000000" font-family="sans-serif" font-size="14" lengthAdjust="spacing" textLength="163.3311" x="1022.731" y="582.4805">OpenAiTailoringPipeline</text><rect fill="#E2E2F0" height="30.4883" rx="2.5" ry="2.5" style="stroke:#181818;stroke-width:0.5;" width="89.7285" x="1243.6074" y="42.4883"/><text fill="#000000" font-family="sans-serif" font-size="14" lengthAdjust="spacing" textLength="75.7285" x="1250.6074" y="63.0234">OpenAI API</text><rect fill="#E2E2F0" height="30.4883" rx="2.5" ry="2.5" style="stroke:#181818;stroke-width:0.5;" width="89.7285" x="1243.6074" y="561.9453"/><text fill="#000000" font-family="sans-serif" font-size="14" lengthAdjust="spacing" textLength="75.7285" x="1250.6074" y="582.4805">OpenAI API</text><rect fill="#E2E2F0" height="30.4883" rx="2.5" ry="2.5" style="stroke:#181818;stroke-width:0.5;" width="188.5352" x="1343.3359" y="42.4883"/><text fill="#000000" font-family="sans-serif" font-size="14" lengthAdjust="spacing" textLength="174.5352" x="1350.3359" y="63.0234">ResumeValidationHandler</text><rect fill="#E2E2F0" height="30.4883" rx="2.5" ry="2.5" style="stroke:#181818;stroke-width:0.5;" width="188.5352" x="1343.3359" y="561.9453"/><text fill="#000000" font-family="sans-serif" font-size="14" lengthAdjust="spacing" textLength="174.5352" x="1350.3359" y="582.4805">ResumeValidationHandler</text><rect fill="#E2E2F0" height="30.4883" rx="2.5" ry="2.5" style="stroke:#181818;stroke-width:0.5;" width="150.042" x="1541.8711" y="42.4883"/><text fill="#000000" font-family="sans-serif" font-size="14" lengthAdjust="spacing" textLength="136.042" x="1548.8711" y="63.0234">LatexFinalizeService</text><rect fill="#E2E2F0" height="30.4883" rx="2.5" ry="2.5" style="stroke:#181818;stroke-width:0.5;" width="150.042" x="1541.8711" y="561.9453"/><text fill="#000000" font-family="sans-serif" font-size="14" lengthAdjust="spacing" textLength="136.042" x="1548.8711" y="582.4805">LatexFinalizeService</text><rect fill="#E2E2F0" height="30.4883" rx="2.5" ry="2.5" style="stroke:#181818;stroke-width:0.5;" width="139.0908" x="1701.9131" y="42.4883"/><text fill="#000000" font-family="sans-serif" font-size="14" lengthAdjust="spacing" textLength="125.0908" x="1708.9131" y="63.0234">PdfCompileService</text><rect fill="#E2E2F0" height="30.4883" rx="2.5" ry="2.5" style="stroke:#181818;stroke-width:0.5;" width="139.0908" x="1701.9131" y="561.9453"/><text fill="#000000" font-family="sans-serif" font-size="14" lengthAdjust="spacing" textLength="125.0908" x="1708.9131" y="582.4805">PdfCompileService</text><rect fill="#E2E2F0" height="30.4883" rx="2.5" ry="2.5" style="stroke:#181818;stroke-width:0.5;" width="76.665" x="1851.0039" y="42.4883"/><text fill="#000000" font-family="sans-serif" font-size="14" lengthAdjust="spacing" textLength="62.665" x="1858.0039" y="63.0234">Database</text><rect fill="#E2E2F0" height="30.4883" rx="2.5" ry="2.5" style="stroke:#181818;stroke-width:0.5;" width="76.665" x="1851.0039" y="561.9453"/><text fill="#000000" font-family="sans-serif" font-size="14" lengthAdjust="spacing" textLength="62.665" x="1858.0039" y="582.4805">Database</text><polygon fill="#181818" points="195.9063,101.2871,205.9063,105.2871,195.9063,109.2871,199.9063,105.2871" style="stroke:#181818;stroke-width:1;"/><line style="stroke:#181818;stroke-width:1;" x1="27.1826" x2="201.9063" y1="105.2871" y2="105.2871"/><text fill="#000000" font-family="sans-serif" font-size="13" lengthAdjust="spacing" textLength="156.7236" x="34.1826" y="100.5449">Generate Resume for Job</text><polygon fill="#181818" points="485.5112,130.5977,495.5112,134.5977,485.5112,138.5977,489.5112,134.5977" style="stroke:#181818;stroke-width:1;"/><line style="stroke:#181818;stroke-width:1;" x1="207.9063" x2="491.5112" y1="134.5977" y2="134.5977"/><text fill="#000000" font-family="sans-serif" font-size="13" lengthAdjust="spacing" textLength="265.605" x="214.9063" y="129.8555">POST /api/jobs/{jobId}/resumes/generate</text><polygon fill="#181818" points="707.4248,159.9082,717.4248,163.9082,707.4248,167.9082,711.4248,163.9082" style="stroke:#181818;stroke-width:1;"/><line style="stroke:#181818;stroke-width:1;" x1="497.5112" x2="713.4248" y1="163.9082" y2="163.9082"/><text fill="#000000" font-family="sans-serif" font-size="13" lengthAdjust="spacing" textLength="136.2524" x="504.5112" y="159.166">generateForJob(jobId)</text><polygon fill="#181818" points="902.9893,189.2188,912.9893,193.2188,902.9893,197.2188,906.9893,193.2188" style="stroke:#181818;stroke-width:1;"/><line style="stroke:#181818;stroke-width:1;" x1="719.4248" x2="908.9893" y1="193.2188" y2="193.2188"/><text fill="#000000" font-family="sans-serif" font-size="13" lengthAdjust="spacing" textLength="171.5645" x="726.4248" y="188.4766">tailor(jobDto, baseContent)</text><polygon fill="#181818" points="1092.3965,218.5293,1102.3965,222.5293,1092.3965,226.5293,1096.3965,222.5293" style="stroke:#181818;stroke-width:1;"/><line style="stroke:#181818;stroke-width:1;" x1="914.9893" x2="1098.3965" y1="222.5293" y2="222.5293"/><text fill="#000000" font-family="sans-serif" font-size="13" lengthAdjust="spacing" textLength="165.4072" x="921.9893" y="217.7871">execute(job, baseContent)</text><polygon fill="#181818" points="1276.4717,247.8398,1286.4717,251.8398,1276.4717,255.8398,1280.4717,251.8398" style="stroke:#181818;stroke-width:1;"/><line style="stroke:#181818;stroke-width:1;" x1="1104.3965" x2="1282.4717" y1="251.8398" y2="251.8398"/><text fill="#000000" font-family="sans-serif" font-size="13" lengthAdjust="spacing" textLength="160.0752" x="1111.3965" y="247.0977">rewrite/prioritize content</text><polygon fill="#181818" points="1115.3965,277.1504,1105.3965,281.1504,1115.3965,285.1504,1111.3965,281.1504" style="stroke:#181818;stroke-width:1;"/><line style="stroke:#181818;stroke-width:1;stroke-dasharray:2.0,2.0;" x1="1109.3965" x2="1287.4717" y1="281.1504" y2="281.1504"/><text fill="#000000" font-family="sans-serif" font-size="13" lengthAdjust="spacing" textLength="151.2646" x="1121.3965" y="276.4082">TailoredResumeContent</text><polygon fill="#181818" points="1425.6035,306.4609,1435.6035,310.4609,1425.6035,314.4609,1429.6035,310.4609" style="stroke:#181818;stroke-width:1;"/><line style="stroke:#181818;stroke-width:1;" x1="914.9893" x2="1431.6035" y1="310.4609" y2="310.4609"/><text fill="#000000" font-family="sans-serif" font-size="13" lengthAdjust="spacing" textLength="105.0918" x="921.9893" y="305.7188">validate(content)</text><polygon fill="#181818" points="925.9893,335.7715,915.9893,339.7715,925.9893,343.7715,921.9893,339.7715" style="stroke:#181818;stroke-width:1;"/><line style="stroke:#181818;stroke-width:1;stroke-dasharray:2.0,2.0;" x1="919.9893" x2="1436.6035" y1="339.7715" y2="339.7715"/><text fill="#000000" font-family="sans-serif" font-size="13" lengthAdjust="spacing" textLength="29.6055" x="931.9893" y="335.0293">valid</text><polygon fill="#181818" points="730.4248,365.082,720.4248,369.082,730.4248,373.082,726.4248,369.082" style="stroke:#181818;stroke-width:1;"/><line style="stroke:#181818;stroke-width:1;stroke-dasharray:2.0,2.0;" x1="724.4248" x2="913.9893" y1="369.082" y2="369.082"/><text fill="#000000" font-family="sans-serif" font-size="13" lengthAdjust="spacing" textLength="151.2646" x="736.4248" y="364.3398">TailoredResumeContent</text><polygon fill="#181818" points="1604.8921,394.3926,1614.8921,398.3926,1604.8921,402.3926,1608.8921,398.3926" style="stroke:#181818;stroke-width:1;"/><line style="stroke:#181818;stroke-width:1;" x1="719.4248" x2="1610.8921" y1="398.3926" y2="398.3926"/><text fill="#000000" font-family="sans-serif" font-size="13" lengthAdjust="spacing" textLength="130.8633" x="726.4248" y="393.6504">create/update LaTeX</text><polygon fill="#181818" points="1759.4585,423.7031,1769.4585,427.7031,1759.4585,431.7031,1763.4585,427.7031" style="stroke:#181818;stroke-width:1;"/><line style="stroke:#181818;stroke-width:1;" x1="719.4248" x2="1765.4585" y1="427.7031" y2="427.7031"/><text fill="#000000" font-family="sans-serif" font-size="13" lengthAdjust="spacing" textLength="89.1909" x="726.4248" y="422.9609">compile(latex)</text><polygon fill="#181818" points="1877.3364,453.0137,1887.3364,457.0137,1877.3364,461.0137,1881.3364,457.0137" style="stroke:#181818;stroke-width:1;"/><line style="stroke:#181818;stroke-width:1;" x1="719.4248" x2="1883.3364" y1="457.0137" y2="457.0137"/><text fill="#000000" font-family="sans-serif" font-size="13" lengthAdjust="spacing" textLength="137.4141" x="726.4248" y="452.2715">save(TailoredResume)</text><polygon fill="#181818" points="508.5112,482.3242,498.5112,486.3242,508.5112,490.3242,504.5112,486.3242" style="stroke:#181818;stroke-width:1;"/><line style="stroke:#181818;stroke-width:1;stroke-dasharray:2.0,2.0;" x1="502.5112" x2="718.4248" y1="486.3242" y2="486.3242"/><text fill="#000000" font-family="sans-serif" font-size="13" lengthAdjust="spacing" textLength="197.9136" x="514.5112" y="481.582">TailoredResumeDetailResponse</text><polygon fill="#181818" points="218.9063,511.6348,208.9063,515.6348,218.9063,519.6348,214.9063,515.6348" style="stroke:#181818;stroke-width:1;"/><line style="stroke:#181818;stroke-width:1;stroke-dasharray:2.0,2.0;" x1="212.9063" x2="496.5112" y1="515.6348" y2="515.6348"/><text fill="#000000" font-family="sans-serif" font-size="13" lengthAdjust="spacing" textLength="117.0952" x="224.9063" y="510.8926">Resume generated</text><polygon fill="#181818" points="38.1826,540.9453,28.1826,544.9453,38.1826,548.9453,34.1826,544.9453" style="stroke:#181818;stroke-width:1;"/><line style="stroke:#181818;stroke-width:1;stroke-dasharray:2.0,2.0;" x1="32.1826" x2="206.9063" y1="544.9453" y2="544.9453"/><text fill="#000000" font-family="sans-serif" font-size="13" lengthAdjust="spacing" textLength="99.2456" x="44.1826" y="540.2031">Download/View</text><!--SRC=[RPDVRziW5CNV-HHNVKgbHNxdOL9RBvsdIhMQfDhhZNqRCL5W62VLfdttWO4uL7wnWFkxXp_ds0ad2Lve6Dy9TYYaja8TOIFr6TRmCYedV65BlqTI7J63rebE65GERlO3sHl00RwfFepBQjGSMZnIzKCVQd9UlKL5SkhPDoNkaTZne9MpMigaFK-NvBTaJwAZYKpZ9UnoiGrss4Sy3alwsP2w4nUw5OQaK97FauME1kxQPeBYTEa8hoX5ZqvezHrLdsythvOzJ-ZeOoEKB_yfBfdNIhpjtnxqkn6oOFrgYTNey813hDRtZ2NZOFtL-y7XaHHPltFEmvksu7rX-oOGinCSskVj3Yeqelgb3qFrrt-R_bzbe-VLCGcnkISefCDnoFMDjbv_DNNVibGEP3I7Wvki243jz1S8Xm-IfDmjYqoWipKSw8EwqL5e-4Hd9l3H9GwMpbOugemLtc_ddnMwoBFawxfGZy6WVWvgGETpp6voECKnhRfyWhawoUOhJk15vFgLbhUxVgKK1WwT9RzNDPgm9JpXZdvUWpu9dea9MScGhUArwtiE0vveLUvunNool-JYh-t7HgkXz3m5A-KfszvFYVArb3yEjJuhgR6lNWMTsNy0]--></g></svg>