<svg xmlns="http://www.w3.org/2000/svg" xmlns:xlink="http://www.w3.org/1999/xlink" contentStyleType="text/css" data-diagram-type="CLASS" height="730px" preserveAspectRatio="none" style="width:425px;height:730px;background:#FFFFFF;" version="1.1" viewBox="0 0 425 730" width="425px" zoomAndPan="magnify"><?plantuml 1.2026.5?><defs/><g><g class="title" data-source-line="2546"><text fill="#000000" font-family="sans-serif" font-size="14" font-weight="700" lengthAdjust="spacing" textLength="344.5039" x="36.748" y="23.5352">Builder Pattern - Tailored Resume Construction</text></g><!--cluster Builder Pattern--><g class="cluster" data-qualified-name="Builder Pattern" data-source-line="2549" id="ent0001"><path d="M8.5,43.4883 L117.002,43.4883 A3.75,3.75 0 0 1 119.502,45.9883 L126.502,65.9766 L407.5,65.9766 A2.5,2.5 0 0 1 410,68.4766 L410,713.3383 A2.5,2.5 0 0 1 407.5,715.8383 L8.5,715.8383 A2.5,2.5 0 0 1 6,713.3383 L6,45.9883 A2.5,2.5 0 0 1 8.5,43.4883" fill="none" style="stroke:#000000;stroke-width:1.5;"/><line style="stroke:#000000;stroke-width:1.5;" x1="6" x2="126.502" y1="65.9766" y2="65.9766"/><text fill="#000000" font-family="sans-serif" font-size="14" font-weight="700" lengthAdjust="spacing" textLength="107.502" x="10" y="59.0234">Builder Pattern</text></g><!--class TailoredResumeBuilder--><g class="entity" data-qualified-name="Builder Pattern.TailoredResumeBuilder" data-source-line="2550" id="ent0002"><rect fill="#F1F1F1" height="163.418" rx="2.5" ry="2.5" style="stroke:#181818;stroke-width:0.5;" width="347.918" x="34.04" y="361.9583"/><ellipse cx="125.6792" cy="377.9583" fill="#ADD1B2" rx="11" ry="11" style="stroke:#181818;stroke-width:1;"/><path d="M128.1523,384.1013 Q127.5712,384.4002 126.9321,384.5496 Q126.2929,384.699 125.5874,384.699 Q123.0805,384.699 121.7607,383.0471 Q120.4409,381.3953 120.4409,378.2742 Q120.4409,375.1448 121.7607,373.4929 Q123.0805,371.8411 125.5874,371.8411 Q126.2929,371.8411 126.9404,371.9905 Q127.5879,372.1399 128.1523,372.4388 L128.1523,375.1614 Q127.5214,374.5804 126.9279,374.3106 Q126.3344,374.0408 125.7036,374.0408 Q124.3588,374.0408 123.674,375.1075 Q122.9892,376.1741 122.9892,378.2742 Q122.9892,380.366 123.674,381.4326 Q124.3588,382.4993 125.7036,382.4993 Q126.3344,382.4993 126.9279,382.2295 Q127.5214,381.9597 128.1523,381.3787 Z " fill="#000000"/><text fill="#000000" font-family="sans-serif" font-size="14" lengthAdjust="spacing" textLength="156.1396" x="146.1792" y="383.2493">TailoredResumeBuilder</text><line style="stroke:#181818;stroke-width:0.5;" x1="35.04" x2="380.958" y1="393.9583" y2="393.9583"/><text fill="#000000" font-family="sans-serif" font-size="14" lengthAdjust="spacing" textLength="119.6699" x="40.04" y="411.4934">-summary: String</text><text fill="#000000" font-family="sans-serif" font-size="14" lengthAdjust="spacing" textLength="133.1162" x="40.04" y="427.9817">-skills: List~String~</text><text fill="#000000" font-family="sans-serif" font-size="14" lengthAdjust="spacing" textLength="217.7588" x="40.04" y="444.47">-experienceBullets: List~String~</text><line style="stroke:#181818;stroke-width:0.5;" x1="35.04" x2="380.958" y1="451.4231" y2="451.4231"/><text fill="#000000" font-family="sans-serif" font-size="14" lengthAdjust="spacing" textLength="323.6611" x="40.04" y="468.9583">+summary(text: String): TailoredResumeBuilder</text><text fill="#000000" font-family="sans-serif" font-size="14" lengthAdjust="spacing" textLength="314.7402" x="40.04" y="485.4466">+addSkill(skill: String): TailoredResumeBuilder</text><text fill="#000000" font-family="sans-serif" font-size="14" lengthAdjust="spacing" textLength="335.918" x="40.04" y="501.9348">+addBullet(bullet: String): TailoredResumeBuilder</text><text fill="#000000" font-family="sans-serif" font-size="14" lengthAdjust="spacing" textLength="226.3994" x="40.04" y="518.4231">+build(): TailoredResumeContent</text></g><!--class TailoredResumeContent--><g class="entity" data-qualified-name="Builder Pattern.TailoredResumeContent" data-source-line="2560" id="ent0003"><rect fill="#F1F1F1" height="97.4648" rx="2.5" ry="2.5" style="stroke:#181818;stroke-width:0.5;" width="232.7871" x="91.61" y="602.3783"/><ellipse cx="123.659" cy="618.3783" fill="#ADD1B2" rx="11" ry="11" style="stroke:#181818;stroke-width:1;"/><path d="M126.1322,624.5213 Q125.5511,624.8202 124.912,624.9696 Q124.2728,625.119 123.5672,625.119 Q121.0604,625.119 119.7406,623.4671 Q118.4207,621.8153 118.4207,618.6942 Q118.4207,615.5648 119.7406,613.9129 Q121.0604,612.2611 123.5672,612.2611 Q124.2728,612.2611 124.9203,612.4105 Q125.5677,612.5599 126.1322,612.8588 L126.1322,615.5814 Q125.5013,615.0004 124.9078,614.7306 Q124.3143,614.4608 123.6834,614.4608 Q122.3387,614.4608 121.6539,615.5275 Q120.9691,616.5941 120.9691,618.6942 Q120.9691,620.786 121.6539,621.8526 Q122.3387,622.9193 123.6834,622.9193 Q124.3143,622.9193 124.9078,622.6495 Q125.5013,622.3797 126.1322,621.7987 Z " fill="#000000"/><text fill="#000000" font-family="sans-serif" font-size="14" lengthAdjust="spacing" textLength="162.9004" x="141.4477" y="623.6693">TailoredResumeContent</text><line style="stroke:#181818;stroke-width:0.5;" x1="92.61" x2="323.3971" y1="634.3783" y2="634.3783"/><text fill="#000000" font-family="sans-serif" font-size="14" lengthAdjust="spacing" textLength="122.6982" x="97.61" y="651.9134">+summary: String</text><text fill="#000000" font-family="sans-serif" font-size="14" lengthAdjust="spacing" textLength="136.1445" x="97.61" y="668.4017">+skills: List~String~</text><text fill="#000000" font-family="sans-serif" font-size="14" lengthAdjust="spacing" textLength="220.7871" x="97.61" y="684.89">+experienceBullets: List~String~</text><line style="stroke:#181818;stroke-width:0.5;" x1="92.61" x2="323.3971" y1="691.8431" y2="691.8431"/></g><!--class AbstractTailoringPipeline--><g class="entity" data-qualified-name="Builder Pattern.AbstractTailoringPipeline" data-source-line="2566" id="ent0004"><rect fill="#F1F1F1" height="80.9766" rx="2.5" ry="2.5" style="stroke:#181818;stroke-width:0.5;" width="372.4316" x="21.78" y="203.9783"/><ellipse cx="118.6657" cy="219.9783" fill="#A9DCDF" rx="11" ry="11" style="stroke:#181818;stroke-width:1;"/><path d="M118.529,215.3264 L117.3752,220.3982 L119.6911,220.3982 Z M117.0349,213.0852 L120.0315,213.0852 L123.3767,225.4783 L120.9279,225.4783 L120.1643,222.4153 L116.8855,222.4153 L116.1384,225.4783 L113.6897,225.4783 Z " fill="#000000"/><text fill="#000000" font-family="sans-serif" font-size="14" font-style="italic" lengthAdjust="spacing" textLength="170.1602" x="139.1657" y="225.2693">AbstractTailoringPipeline</text><line style="stroke:#181818;stroke-width:0.5;" x1="22.78" x2="393.2116" y1="235.9783" y2="235.9783"/><line style="stroke:#181818;stroke-width:0.5;" x1="22.78" x2="393.2116" y1="243.9783" y2="243.9783"/><text fill="#000000" font-family="sans-serif" font-size="14" lengthAdjust="spacing" textLength="360.4316" x="27.78" y="261.5134">+execute(job, baseResume): TailoredResumeContent</text><text fill="#000000" font-family="sans-serif" font-size="14" lengthAdjust="spacing" textLength="292.9678" x="27.78" y="278.0017">#buildContent(job): TailoredResumeBuilder</text></g><!--class OpenAiTailoringPipeline--><g class="entity" data-qualified-name="Builder Pattern.OpenAiTailoringPipeline" data-source-line="2571" id="ent0005"><rect fill="#F1F1F1" height="64.4883" rx="2.5" ry="2.5" style="stroke:#181818;stroke-width:0.5;" width="372.4316" x="21.78" y="78.4883"/><ellipse cx="122.0803" cy="94.4883" fill="#ADD1B2" rx="11" ry="11" style="stroke:#181818;stroke-width:1;"/><path d="M124.5534,100.6313 Q123.9724,100.9302 123.3332,101.0796 Q122.6941,101.229 121.9885,101.229 Q119.4817,101.229 118.1618,99.5771 Q116.842,97.9253 116.842,94.8042 Q116.842,91.6748 118.1618,90.0229 Q119.4817,88.3711 121.9885,88.3711 Q122.6941,88.3711 123.3415,88.5205 Q123.989,88.6699 124.5534,88.9688 L124.5534,91.6914 Q123.9226,91.1104 123.3291,90.8406 Q122.7356,90.5708 122.1047,90.5708 Q120.76,90.5708 120.0752,91.6375 Q119.3904,92.7041 119.3904,94.8042 Q119.3904,96.896 120.0752,97.9626 Q120.76,99.0293 122.1047,99.0293 Q122.7356,99.0293 123.3291,98.7595 Q123.9226,98.4897 124.5534,97.9087 Z " fill="#000000"/><text fill="#000000" font-family="sans-serif" font-size="14" lengthAdjust="spacing" textLength="163.3311" x="142.5803" y="99.7793">OpenAiTailoringPipeline</text><line style="stroke:#181818;stroke-width:0.5;" x1="22.78" x2="393.2116" y1="110.4883" y2="110.4883"/><line style="stroke:#181818;stroke-width:0.5;" x1="22.78" x2="393.2116" y1="118.4883" y2="118.4883"/><text fill="#000000" font-family="sans-serif" font-size="14" lengthAdjust="spacing" textLength="360.4316" x="27.78" y="136.0234">+execute(job, baseResume): TailoredResumeContent</text></g><!--link OpenAiTailoringPipeline to AbstractTailoringPipeline--><g class="link" data-entity-1="ent0005" data-entity-2="ent0004" data-link-type="extension" data-source-line="2576" id="lnk6"><path codeLine="2576" d="M208,143.2883 C208,161.4083 208,166.3283 208,185.6683" fill="none" id="OpenAiTailoringPipeline-to-AbstractTailoringPipeline" style="stroke:#181818;stroke-width:1;"/><polygon fill="none" points="208,203.6683,214,185.6683,202,185.6683,208,203.6683" style="stroke:#181818;stroke-width:1;stroke-linejoin:miter;stroke-miterlimit:10;"/></g><!--link AbstractTailoringPipeline to TailoredResumeBuilder--><g class="link" data-entity-1="ent0004" data-entity-2="ent0002" data-link-type="dependency" data-source-line="2577" id="lnk7"><path codeLine="2577" d="M208,285.3683 C208,307.3183 208,330.3683 208,356.6783" fill="none" id="AbstractTailoringPipeline-to-TailoredResumeBuilder" style="stroke:#181818;stroke-width:1;"/><polygon fill="#181818" points="208,361.6783,212,352.6783,208,356.6783,204,352.6783,208,361.6783" style="stroke:#181818;stroke-width:1;stroke-linejoin:miter;stroke-miterlimit:10;"/><text fill="#000000" font-family="sans-serif" font-size="13" lengthAdjust="spacing" textLength="69.3926" x="209" y="328.5266">builds with</text><text fill="#000000" font-family="sans-serif" font-size="13" lengthAdjust="spacing" textLength="8.2202" x="199.405" y="305.3719">1</text><text fill="#000000" font-family="sans-serif" font-size="13" lengthAdjust="spacing" textLength="8.2202" x="199.6536" y="351.2904">1</text></g><!--link TailoredResumeBuilder to TailoredResumeContent--><g class="link" data-entity-1="ent0002" data-entity-2="ent0003" data-link-type="dependency" data-source-line="2578" id="lnk8"><path codeLine="2578" d="M208,525.8583 C208,551.6583 208,574.3483 208,597.0283" fill="none" id="TailoredResumeBuilder-to-TailoredResumeContent" style="stroke:#181818;stroke-width:1;"/><polygon fill="#181818" points="208,602.0283,212,593.0283,208,597.0283,204,593.0283,208,602.0283" style="stroke:#181818;stroke-width:1;stroke-linejoin:miter;stroke-miterlimit:10;"/><text fill="#000000" font-family="sans-serif" font-size="13" lengthAdjust="spacing" textLength="45.1318" x="209" y="568.9466">creates</text><text fill="#000000" font-family="sans-serif" font-size="13" lengthAdjust="spacing" textLength="8.2202" x="199.678" y="545.867">1</text><text fill="#000000" font-family="sans-serif" font-size="13" lengthAdjust="spacing" textLength="8.2202" x="199.4525" y="591.6616">1</text></g><?plantuml-src hLBBJiCm4BpxArRX4XGYmJM7IeKJ4X8LvGSSPrMMEavaRqHvjD-E4pi8GL9wu6HvTsPsF5ucrWZN7UaABQmaCre3EJnAqet52XxGTJN2JMCSsqunDKQuBPbMMbc3qjAv9REbicEyLOrPqnl2fH2jL5kvGKX-Q2VmBY3mleQ46IEmxmFalbHB-rh0sgkRJInkIMjNm1qvFeJ68NHmrw8bDChhQ8qy1SgYPiguur7ul9Zs4HYogjRzp7IOV38dU4ZBuJYDLVQNz1V61yzes6FsOYQu28d1PLF1PRF1PNy7DmoMfVz_gJWwMCPhSEA1AsfHay7H1UvG-PL8dvlo0ahfC7WzyZw0io63MEcPHnBxbiPzYsP9_-XaBxpwd6gUVopcdo_cWqck4azU3EVqvXSm1E3WXVX9J6FcLSOrA41Pb8nEV080?></g></svg>