<svg xmlns="http://www.w3.org/2000/svg" xmlns:xlink="http://www.w3.org/1999/xlink" contentStyleType="text/css" height="422px" preserveAspectRatio="none" style="width:1617px;height:422px;background:#FFFFFF;" version="1.1" viewBox="0 0 1617 422" width="1617px" zoomAndPan="magnify"><title>Watch Polling Flow - Runtime Sequence</title><defs/><g><text fill="#000000" font-family="sans-serif" font-size="14" font-weight="bold" lengthAdjust="spacing" textLength="286.2207" x="664.8059" y="28.5352">Watch Polling Flow - Runtime Sequence</text><line style="stroke:#181818;stroke-width:0.5;stroke-dasharray:5.0,5.0;" x1="27" x2="27" y1="73.9766" y2="387.082"/><line style="stroke:#181818;stroke-width:0.5;stroke-dasharray:5.0,5.0;" x1="243.9185" x2="243.9185" y1="73.9766" y2="387.082"/><line style="stroke:#181818;stroke-width:0.5;stroke-dasharray:5.0,5.0;" x1="445.5537" x2="445.5537" y1="73.9766" y2="387.082"/><line style="stroke:#181818;stroke-width:0.5;stroke-dasharray:5.0,5.0;" x1="621.4209" x2="621.4209" y1="73.9766" y2="387.082"/><line style="stroke:#181818;stroke-width:0.5;stroke-dasharray:5.0,5.0;" x1="864.9648" x2="864.9648" y1="73.9766" y2="387.082"/><line style="stroke:#181818;stroke-width:0.5;stroke-dasharray:5.0,5.0;" x1="1167.1978" x2="1167.1978" y1="73.9766" y2="387.082"/><line style="stroke:#181818;stroke-width:0.5;stroke-dasharray:5.0,5.0;" x1="1408.689" x2="1408.689" y1="73.9766" y2="387.082"/><line style="stroke:#181818;stroke-width:0.5;stroke-dasharray:5.0,5.0;" x1="1573.1675" x2="1573.1675" y1="73.9766" y2="387.082"/><rect fill="#E2E2F0" height="30.4883" rx="2.5" ry="2.5" style="stroke:#181818;stroke-width:0.5;" width="44.3652" x="5" y="42.4883"/><text fill="#000000" font-family="sans-serif" font-size="14" lengthAdjust="spacing" textLength="30.3652" x="12" y="63.0234">User</text><rect fill="#E2E2F0" height="30.4883" rx="2.5" ry="2.5" style="stroke:#181818;stroke-width:0.5;" width="44.3652" x="5" y="386.082"/><text fill="#000000" font-family="sans-serif" font-size="14" lengthAdjust="spacing" textLength="30.3652" x="12" y="406.6172">User</text><rect fill="#E2E2F0" height="30.4883" rx="2.5" ry="2.5" style="stroke:#181818;stroke-width:0.5;" width="168.6563" x="159.9185" y="42.4883"/><text fill="#000000" font-family="sans-serif" font-size="14" lengthAdjust="spacing" textLength="154.6563" x="166.9185" y="63.0234">SettingsPage/JobsPage</text><rect fill="#E2E2F0" height="30.4883" rx="2.5" ry="2.5" style="stroke:#181818;stroke-width:0.5;" width="168.6563" x="159.9185" y="386.082"/><text fill="#000000" font-family="sans-serif" font-size="14" lengthAdjust="spacing" textLength="154.6563" x="166.9185" y="406.6172">SettingsPage/JobsPage</text><rect fill="#E2E2F0" height="30.4883" rx="2.5" ry="2.5" style="stroke:#181818;stroke-width:0.5;" width="186.8672" x="352.5537" y="42.4883"/><text fill="#000000" font-family="sans-serif" font-size="14" lengthAdjust="spacing" textLength="172.8672" x="359.5537" y="63.0234">CompanyWatchController</text><rect fill="#E2E2F0" height="30.4883" rx="2.5" ry="2.5" style="stroke:#181818;stroke-width:0.5;" width="186.8672" x="352.5537" y="386.082"/><text fill="#000000" font-family="sans-serif" font-size="14" lengthAdjust="spacing" textLength="172.8672" x="359.5537" y="406.6172">CompanyWatchController</text><rect fill="#E2E2F0" height="30.4883" rx="2.5" ry="2.5" style="stroke:#181818;stroke-width:0.5;" width="144.2246" x="549.4209" y="42.4883"/><text fill="#000000" font-family="sans-serif" font-size="14" lengthAdjust="spacing" textLength="130.2246" x="556.4209" y="63.0234">JobObserverService</text><rect fill="#E2E2F0" height="30.4883" rx="2.5" ry="2.5" style="stroke:#181818;stroke-width:0.5;" width="144.2246" x="549.4209" y="386.082"/><text fill="#000000" font-family="sans-serif" font-size="14" lengthAdjust="spacing" textLength="130.2246" x="556.4209" y="406.6172">JobObserverService</text><rect fill="#E2E2F0" height="30.4883" rx="2.5" ry="2.5" style="stroke:#181818;stroke-width:0.5;" width="158.7373" x="785.9648" y="42.4883"/><text fill="#000000" font-family="sans-serif" font-size="14" lengthAdjust="spacing" textLength="144.7373" x="792.9648" y="63.0234">JobIngestionMediator</text><rect fill="#E2E2F0" height="30.4883" rx="2.5" ry="2.5" style="stroke:#181818;stroke-width:0.5;" width="158.7373" x="785.9648" y="386.082"/><text fill="#000000" font-family="sans-serif" font-size="14" lengthAdjust="spacing" textLength="144.7373" x="792.9648" y="406.6172">JobIngestionMediator</text><rect fill="#E2E2F0" height="30.4883" rx="2.5" ry="2.5" style="stroke:#181818;stroke-width:0.5;" width="168.2119" x="1083.1978" y="42.4883"/><text fill="#000000" font-family="sans-serif" font-size="14" lengthAdjust="spacing" textLength="154.2119" x="1090.1978" y="63.0234">CompanyWatchSubject</text><rect fill="#E2E2F0" height="30.4883" rx="2.5" ry="2.5" style="stroke:#181818;stroke-width:0.5;" width="168.2119" x="1083.1978" y="386.082"/><text fill="#000000" font-family="sans-serif" font-size="14" lengthAdjust="spacing" textLength="154.2119" x="1090.1978" y="406.6172">CompanyWatchSubject</text><rect fill="#E2E2F0" height="30.4883" rx="2.5" ry="2.5" style="stroke:#181818;stroke-width:0.5;" width="231.4785" x="1293.689" y="42.4883"/><text fill="#000000" font-family="sans-serif" font-size="14" lengthAdjust="spacing" textLength="217.4785" x="1300.689" y="63.0234">JobDiscoveryPersistenceListener</text><rect fill="#E2E2F0" height="30.4883" rx="2.5" ry="2.5" style="stroke:#181818;stroke-width:0.5;" width="231.4785" x="1293.689" y="386.082"/><text fill="#000000" font-family="sans-serif" font-size="14" lengthAdjust="spacing" textLength="217.4785" x="1300.689" y="406.6172">JobDiscoveryPersistenceListener</text><rect fill="#E2E2F0" height="30.4883" rx="2.5" ry="2.5" style="stroke:#181818;stroke-width:0.5;" width="76.665" x="1535.1675" y="42.4883"/><text fill="#000000" font-family="sans-serif" font-size="14" lengthAdjust="spacing" textLength="62.665" x="1542.1675" y="63.0234">Database</text><rect fill="#E2E2F0" height="30.4883" rx="2.5" ry="2.5" style="stroke:#181818;stroke-width:0.5;" width="76.665" x="1535.1675" y="386.082"/><text fill="#000000" font-family="sans-serif" font-size="14" lengthAdjust="spacing" textLength="62.665" x="1542.1675" y="406.6172">Database</text><polygon fill="#181818" points="232.2466,101.2871,242.2466,105.2871,232.2466,109.2871,236.2466,105.2871" style="stroke:#181818;stroke-width:1;"/><line style="stroke:#181818;stroke-width:1;" x1="27.1826" x2="238.2466" y1="105.2871" y2="105.2871"/><text fill="#000000" font-family="sans-serif" font-size="13" lengthAdjust="spacing" textLength="193.064" x="34.1826" y="100.5449">Click Poll Watch / Refresh Jobs</text><polygon fill="#181818" points="433.9873,130.5977,443.9873,134.5977,433.9873,138.5977,437.9873,134.5977" style="stroke:#181818;stroke-width:1;"/><line style="stroke:#181818;stroke-width:1;" x1="244.2466" x2="439.9873" y1="134.5977" y2="134.5977"/><text fill="#000000" font-family="sans-serif" font-size="13" lengthAdjust="spacing" textLength="177.7407" x="251.2466" y="129.8555">POST /api/watches/{id}/poll</text><polygon fill="#181818" points="609.5332,159.9082,619.5332,163.9082,609.5332,167.9082,613.5332,163.9082" style="stroke:#181818;stroke-width:1;"/><line style="stroke:#181818;stroke-width:1;" x1="445.9873" x2="615.5332" y1="163.9082" y2="163.9082"/><text fill="#000000" font-family="sans-serif" font-size="13" lengthAdjust="spacing" textLength="129.3779" x="452.9873" y="159.166">pollWatch(id, userId)</text><polygon fill="#181818" points="853.3335,189.2188,863.3335,193.2188,853.3335,197.2188,857.3335,193.2188" style="stroke:#181818;stroke-width:1;"/><line style="stroke:#181818;stroke-width:1;" x1="621.5332" x2="859.3335" y1="193.2188" y2="193.2188"/><text fill="#000000" font-family="sans-serif" font-size="13" lengthAdjust="spacing" textLength="219.8003" x="628.5332" y="188.4766">pollWatch(watch, knownIds, notify)</text><polygon fill="#181818" points="1155.3037,218.5293,1165.3037,222.5293,1155.3037,226.5293,1159.3037,222.5293" style="stroke:#181818;stroke-width:1;"/><line style="stroke:#181818;stroke-width:1;" x1="865.3335" x2="1161.3037" y1="222.5293" y2="222.5293"/><text fill="#000000" font-family="sans-serif" font-size="13" lengthAdjust="spacing" textLength="277.9702" x="872.3335" y="217.7871">notifyNewJob(job, watchId) for each new job</text><polygon fill="#181818" points="1397.4282,247.8398,1407.4282,251.8398,1397.4282,255.8398,1401.4282,251.8398" style="stroke:#181818;stroke-width:1;"/><line style="stroke:#181818;stroke-width:1;" x1="1167.3037" x2="1403.4282" y1="251.8398" y2="251.8398"/><text fill="#000000" font-family="sans-serif" font-size="13" lengthAdjust="spacing" textLength="218.1245" x="1174.3037" y="247.0977">onNewJobDiscovered(job, watchId)</text><polygon fill="#181818" points="1561.5,277.1504,1571.5,281.1504,1561.5,285.1504,1565.5,281.1504" style="stroke:#181818;stroke-width:1;"/><line style="stroke:#181818;stroke-width:1;" x1="1409.4282" x2="1567.5" y1="281.1504" y2="281.1504"/><text fill="#000000" font-family="sans-serif" font-size="13" lengthAdjust="spacing" textLength="103.0352" x="1416.4282" y="276.4082">save(JobPosting)</text><polygon fill="#181818" points="456.9873,306.4609,446.9873,310.4609,456.9873,314.4609,452.9873,310.4609" style="stroke:#181818;stroke-width:1;"/><line style="stroke:#181818;stroke-width:1;stroke-dasharray:2.0,2.0;" x1="450.9873" x2="620.5332" y1="310.4609" y2="310.4609"/><text fill="#000000" font-family="sans-serif" font-size="13" lengthAdjust="spacing" textLength="61.4644" x="462.9873" y="305.7188">PollResult</text><polygon fill="#181818" points="255.2466,335.7715,245.2466,339.7715,255.2466,343.7715,251.2466,339.7715" style="stroke:#181818;stroke-width:1;"/><line style="stroke:#181818;stroke-width:1;stroke-dasharray:2.0,2.0;" x1="249.2466" x2="444.9873" y1="339.7715" y2="339.7715"/><text fill="#000000" font-family="sans-serif" font-size="13" lengthAdjust="spacing" textLength="120.7705" x="261.2466" y="335.0293">PollWatchResponse</text><polygon fill="#181818" points="38.1826,365.082,28.1826,369.082,38.1826,373.082,34.1826,369.082" style="stroke:#181818;stroke-width:1;"/><line style="stroke:#181818;stroke-width:1;stroke-dasharray:2.0,2.0;" x1="32.1826" x2="243.2466" y1="369.082" y2="369.082"/><text fill="#000000" font-family="sans-serif" font-size="13" lengthAdjust="spacing" textLength="92.6504" x="44.1826" y="364.3398">Display results</text><!--SRC=[TLB1ReCm3BtdAwoUMgaLTmuxjDqafcr5PTNE0TmsBKqO2KLesh_F2K4TTBiG9txlsNx625CWV72J7I5MHI7a0PuArS02jhKqueAGu6UDCaDMyig8J9HS6fZiD5OJu1eUPMxZOJP1OqXAn_o0mRDANU3WksY8NAaB1QthOAMagQW9htox3Ycajqcfv1MhXBuYwvH7RtUSI1vG6w7aA-Q26zKLwI__TvNKwGapuz0-ljDU2vqfgjt6M6cXZVNhnPr-bluoPAwvuIdNNV_h9MFUJ5Wya54Xh0gHdTrU_8e2sEA-Gdq4QohRHHPvyoc4U9EyGy1B4JIMW3hu4lbtK5AQtN2MDR8h18jnLQOYdqDDsIYViH7CCdlBVbDSjJcSfMfabEivI6N4lfsn7co9thtG9z-meIcc9vNEmV6f7km9Yfn6bTW0fPWdMNvlOWXATkJUTyo7Cgo7Mjfw6OBcLvmI8LRQ_fX_p3Ksaiujwhem0z_yOk9-S8AKIcfqgw2aNs08r5bPy1Ogfw7P3m00]--></g></svg>