<svg xmlns="http://www.w3.org/2000/svg" xmlns:xlink="http://www.w3.org/1999/xlink" contentStyleType="text/css" height="813px" preserveAspectRatio="none" style="width:1604px;height:813px;background:#FFFFFF;" version="1.1" viewBox="0 0 1604 813" width="1604px" zoomAndPan="magnify"><title>NextOffer - Use Case Diagram</title><defs/><g><text fill="#000000" font-family="sans-serif" font-size="14" font-weight="bold" lengthAdjust="spacing" textLength="220.0488" x="685.4256" y="23.5352">NextOffer - Use Case Diagram</text><!--cluster NextOffer System--><g id="cluster_NextOffer System"><rect fill="none" height="315" rx="2.5" ry="2.5" style="stroke:#181818;stroke-width:1;" width="1418.51" x="180.39" y="44.4883"/><text fill="#000000" font-family="sans-serif" font-size="14" font-weight="bold" lengthAdjust="spacing" textLength="126.752" x="826.269" y="60.0234">NextOffer System</text></g><g id="elem_UC1"><ellipse cx="293.6461" cy="325.4855" fill="#F1F1F1" rx="77.2361" ry="17.8472" style="stroke:#181818;stroke-width:0.5;"/><text fill="#000000" font-family="sans-serif" font-size="14" lengthAdjust="spacing" textLength="111.4805" x="237.9059" y="328.7765">Register &amp; Login</text></g><g id="elem_UC3"><ellipse cx="293.6543" cy="250.4911" fill="#F1F1F1" rx="97.2643" ry="21.8529" style="stroke:#181818;stroke-width:0.5;"/><text fill="#000000" font-family="sans-serif" font-size="14" lengthAdjust="spacing" textLength="157.5479" x="214.8804" y="253.7822">Create Company Watch</text></g><g id="elem_UC4"><ellipse cx="530.4151" cy="322.4893" fill="#F1F1F1" rx="79.5051" ry="18.301" style="stroke:#181818;stroke-width:0.5;"/><text fill="#000000" font-family="sans-serif" font-size="14" lengthAdjust="spacing" textLength="116.9014" x="471.9645" y="325.7803">Poll Career Pages</text></g><g id="elem_UC5"><ellipse cx="749.9426" cy="322.4908" fill="#F1F1F1" rx="80.0126" ry="18.4025" style="stroke:#181818;stroke-width:0.5;"/><text fill="#000000" font-family="sans-serif" font-size="14" lengthAdjust="spacing" textLength="118.1045" x="690.8904" y="325.7818">View &amp; Filter Jobs</text></g><g id="elem_UC6"><ellipse cx="990.5636" cy="320.489" fill="#F1F1F1" rx="100.6036" ry="22.5207" style="stroke:#181818;stroke-width:0.5;"/><text fill="#000000" font-family="sans-serif" font-size="14" lengthAdjust="spacing" textLength="164.9443" x="908.0915" y="323.78">Track Application Status</text></g><g id="elem_UC7"><ellipse cx="293.6455" cy="173.4854" fill="#F1F1F1" rx="89.7355" ry="20.3471" style="stroke:#181818;stroke-width:0.5;"/><text fill="#000000" font-family="sans-serif" font-size="14" lengthAdjust="spacing" textLength="140.6289" x="223.331" y="176.7764">Upload Base Resume</text></g><g id="elem_UC8"><ellipse cx="1243.6595" cy="321.4882" fill="#F1F1F1" rx="92.4995" ry="20.8999" style="stroke:#181818;stroke-width:0.5;"/><text fill="#000000" font-family="sans-serif" font-size="14" lengthAdjust="spacing" textLength="146.8838" x="1170.2176" y="324.7792">Tailor Resume for Job</text></g><g id="elem_UC9"><ellipse cx="1489.5283" cy="246.4919" fill="#F1F1F1" rx="93.3683" ry="21.0737" style="stroke:#181818;stroke-width:0.5;"/><text fill="#000000" font-family="sans-serif" font-size="14" lengthAdjust="spacing" textLength="148.8389" x="1415.1089" y="249.783">Generate PDF Resume</text></g><g id="elem_UC10"><ellipse cx="1489.5313" cy="323.4865" fill="#F1F1F1" rx="90.4913" ry="20.4983" style="stroke:#181818;stroke-width:0.5;"/><text fill="#000000" font-family="sans-serif" font-size="14" lengthAdjust="spacing" textLength="142.3447" x="1418.3589" y="326.7775">View Resume History</text></g><g id="elem_UC11"><ellipse cx="293.6455" cy="98.4854" fill="#F1F1F1" rx="85.4855" ry="19.4971" style="stroke:#181818;stroke-width:0.5;"/><text fill="#000000" font-family="sans-serif" font-size="14" lengthAdjust="spacing" textLength="130.8945" x="228.1982" y="101.7764">Manage Dashboard</text></g><!--entity Student--><g id="elem_Student"><ellipse cx="71.1943" cy="410.2483" fill="#F1F1F1" rx="16" ry="16" style="stroke:#181818;stroke-width:0.5;"/><path d="M71.1943,430.2483 C75.1943,430.2483 78.1943,430.2483 82.1943,426.2483 C90.1943,426.2483 98.1943,434.2483 98.1943,442.2483 L98.1943,446.2483 C98.1943,450.2483 94.1943,454.2483 90.1943,454.2483 L52.1943,454.2483 C48.1943,454.2483 44.1943,450.2483 44.1943,446.2483 L44.1943,442.2483 C44.1943,434.2483 52.1943,426.2483 60.1943,426.2483 C64.1943,430.2483 67.1943,430.2483 71.1943,430.2483 " fill="#F1F1F1" style="stroke:#181818;stroke-width:0.5;"/><text fill="#000000" font-family="sans-serif" font-size="14" lengthAdjust="spacing" textLength="130.3887" x="6" y="468.2834">Student/Job Seeker</text></g><!--link Student to UC1--><g id="link_Student_UC1"><path d="M131.24,393.3083 C144.5,385.2583 158.71,377.1983 172.39,370.4883 C196.41,358.7083 218.6634,350.0605 241.5634,342.0905 " fill="none" id="Student-to-UC1" style="stroke:#181818;stroke-width:1;"/><polygon fill="#181818" points="247.23,340.1183,237.4153,339.2988,242.5078,341.7618,240.0449,346.8543,247.23,340.1183" style="stroke:#181818;stroke-width:1;"/></g><!--link Student to UC3--><g id="link_Student_UC3"><path d="M90.81,393.4883 C107.9,361.5883 136.05,317.4683 172.39,290.4883 C187.05,279.5983 199.1671,273.4931 216.5271,267.6131 " fill="none" id="Student-to-UC3" style="stroke:#181818;stroke-width:1;"/><polygon fill="#181818" points="222.21,265.6883,212.4025,264.787,217.4743,267.2923,214.9689,272.3641,222.21,265.6883" style="stroke:#181818;stroke-width:1;"/></g><!--link Student to UC4--><g id="link_Student_UC4"><path d="M136.8,418.7983 C201.34,404.9083 303.27,382.3983 390.92,360.4883 C420.31,353.1383 447.2229,345.8287 473.4629,338.4687 " fill="none" id="Student-to-UC4" style="stroke:#181818;stroke-width:1;"/><polygon fill="#181818" points="479.24,336.8483,469.4942,335.4275,474.4258,338.1986,471.6547,343.1302,479.24,336.8483" style="stroke:#181818;stroke-width:1;"/></g><!--link Student to UC5--><g id="link_Student_UC5"><path d="M136.69,433.4483 C201.36,433.4783 303.6,430.9683 390.92,417.4883 C505.47,399.7983 630.4979,361.7954 697.8379,339.7454 " fill="none" id="Student-to-UC5" style="stroke:#181818;stroke-width:1;"/><polygon fill="#181818" points="703.54,337.8783,693.7421,336.8775,698.7883,339.4342,696.2316,344.4803,703.54,337.8783" style="stroke:#181818;stroke-width:1;"/></g><!--link Student to UC6--><g id="link_Student_UC6"><path d="M136.81,439.1483 C148.64,440.1283 160.87,440.9783 172.39,441.4883 C269.42,445.8383 293.99,447.6583 390.92,441.4883 C488.85,435.2583 513.45,431.4183 609.93,413.4883 C722.51,392.5683 845.834,360.4065 920.774,339.8365 " fill="none" id="Student-to-UC6" style="stroke:#181818;stroke-width:1;"/><polygon fill="#181818" points="926.56,338.2483,916.8222,336.7732,921.7383,339.5718,918.9398,344.4879,926.56,338.2483" style="stroke:#181818;stroke-width:1;"/></g><!--link Student to UC7--><g id="link_Student_UC7"><path d="M79.67,393.5383 C91.12,344.2583 117.71,259.9883 172.39,211.4883 C185.98,199.4283 197.7026,193.0491 215.0326,187.4291 " fill="none" id="Student-to-UC7" style="stroke:#181818;stroke-width:1;"/><polygon fill="#181818" points="220.74,185.5783,210.945,184.5497,215.9838,187.1207,213.4128,192.1595,220.74,185.5783" style="stroke:#181818;stroke-width:1;"/></g><!--link Student to UC8--><g id="link_Student_UC8"><path d="M131.12,471.5483 C215.59,523.6783 377.7,609.4883 529.42,609.4883 C529.42,609.4883 529.42,609.4883 750.94,609.4883 C962.66,609.4883 1159.9717,412.6668 1220.3417,346.6268 " fill="none" id="Student-to-UC8" style="stroke:#181818;stroke-width:1;"/><polygon fill="#181818" points="1224.39,342.1983,1215.3653,346.1422,1221.0164,345.8887,1221.2699,351.5399,1224.39,342.1983" style="stroke:#181818;stroke-width:1;"/></g><!--link Student to UC9--><g id="link_Student_UC9"><path d="M86.02,471.6183 C101.32,509.1383 129.61,564.5183 172.39,595.4883 C304.51,691.1483 366.31,680.4883 529.42,680.4883 C529.42,680.4883 529.42,680.4883 991.56,680.4883 C1200.87,680.4883 1193.32,512.4883 1336.16,359.4883 C1365.05,328.5383 1362.31,310.9283 1396.16,285.4883 C1407.71,276.8083 1415.9626,272.0158 1429.3026,266.3158 " fill="none" id="Student-to-UC9" style="stroke:#181818;stroke-width:1;"/><polygon fill="#181818" points="1434.82,263.9583,1424.9722,263.8163,1430.2221,265.9229,1428.1155,271.1729,1434.82,263.9583" style="stroke:#181818;stroke-width:1;"/></g><!--link Student to UC10--><g id="link_Student_UC10"><path d="M74.22,471.5383 C79.63,532.2683 99.5,648.4083 172.39,706.4883 C297.47,806.1583 369.49,751.4883 529.42,751.4883 C529.42,751.4883 529.42,751.4883 991.56,751.4883 C1146.01,751.4883 1214.23,801.3083 1336.16,706.4883 C1456.48,612.9183 1481.5855,415.8895 1486.7855,350.3395 " fill="none" id="Student-to-UC10" style="stroke:#181818;stroke-width:1;"/><polygon fill="#181818" points="1487.26,344.3583,1482.5608,353.0138,1486.8646,349.3426,1490.5358,353.6464,1487.26,344.3583" style="stroke:#181818;stroke-width:1;"/></g><!--link Student to UC11--><g id="link_Student_UC11"><path d="M74.35,393.3383 C79.94,330.2183 100.06,205.8983 172.39,135.4883 C185.54,122.6883 197.2842,116.1015 214.8142,110.6115 " fill="none" id="Student-to-UC11" style="stroke:#181818;stroke-width:1;"/><polygon fill="#181818" points="220.54,108.8183,210.7559,107.6909,215.7685,110.3126,213.1468,115.3252,220.54,108.8183" style="stroke:#181818;stroke-width:1;"/></g><!--link UC3 to UC4--><g id="link_UC3_UC4"><path d="M352.69,268.2883 C392.2,280.4083 438.1538,294.4986 475.4138,305.9286 " fill="none" id="UC3-to-UC4" style="stroke:#181818;stroke-width:1;"/><polygon fill="#181818" points="481.15,307.6883,473.7188,301.2247,476.3699,306.2219,471.3726,308.8729,481.15,307.6883" style="stroke:#181818;stroke-width:1;"/></g><!--link UC4 to UC5--><g id="link_UC4_UC5"><path d="M610.26,322.4883 C629.59,322.4883 644.29,322.4883 663.64,322.4883 " fill="none" id="UC4-to-UC5" style="stroke:#181818;stroke-width:1;"/><polygon fill="#181818" points="669.64,322.4883,660.64,318.4883,664.64,322.4883,660.64,326.4883,669.64,322.4883" style="stroke:#181818;stroke-width:1;"/></g><!--link UC5 to UC6--><g id="link_UC5_UC6"><path d="M830.4,321.8283 C849.38,321.6683 863.8802,321.5368 883.6502,321.3768 " fill="none" id="UC5-to-UC6" style="stroke:#181818;stroke-width:1;"/><polygon fill="#181818" points="889.65,321.3283,880.6179,317.4012,884.6502,321.3687,880.6827,325.401,889.65,321.3283" style="stroke:#181818;stroke-width:1;"/></g><!--link UC6 to UC8--><g id="link_UC6_UC8"><path d="M1091.52,320.8883 C1111.08,320.9683 1125.5001,321.0234 1144.7801,321.1034 " fill="none" id="UC6-to-UC8" style="stroke:#181818;stroke-width:1;"/><polygon fill="#181818" points="1150.78,321.1283,1141.7967,317.091,1145.78,321.1075,1141.7635,325.0909,1150.78,321.1283" style="stroke:#181818;stroke-width:1;"/></g><!--link UC8 to UC9--><g id="link_UC8_UC9"><path d="M1300,304.4683 C1339.77,292.2383 1387.4352,277.5825 1427.2552,265.3325 " fill="none" id="UC8-to-UC9" style="stroke:#181818;stroke-width:1;"/><polygon fill="#181818" points="1432.99,263.5683,1423.2117,262.3914,1428.211,265.0385,1425.564,270.0378,1432.99,263.5683" style="stroke:#181818;stroke-width:1;"/></g><!--link UC8 to UC10--><g id="link_UC8_UC10"><path d="M1336.51,322.2383 C1356.9,322.4083 1372.4802,322.538 1392.7802,322.708 " fill="none" id="UC8-to-UC10" style="stroke:#181818;stroke-width:1;"/><polygon fill="#181818" points="1398.78,322.7583,1389.8138,318.6831,1393.7802,322.7164,1389.7468,326.6828,1398.78,322.7583" style="stroke:#181818;stroke-width:1;"/></g><!--SRC=[PP5DJuD048Rl-oic7BmrjkdtnKJRL6FyQ8hLynG6kYdiajqbbHZ_kmC2KZpCPj_Dm_lE34wwXE25Fjrh59610UmjmGhvM4kC3QR2dgJAa6-0WTF6TmL_WMUoEYMHKEJ0QJ0oFZe8fQ70IQs4g5ZmV9U7fDprepw0JtGYum5Qg9-5A7bKCJjwVqtuXNMKUl0b079BGTcDjwDOyhE1AtZIiLILpturwZ8hG-YuVPrcg0huG1SSQsxSvROwINX8GsotnPXi3KswqBkaCuTjP5AcyW0DDUrIRmQ34zncMI83B4VdsT3b3JlhiliiqHZ2NIbsPFEKQcf-uOWouTNz0X3fAhi65rtmdXIPSjxjUdFfj_mtH-tsm2lKfcXsD-nopwXu5R16UpneD643ZSIt4FKFWy7WfbhwfHxtzAIdfpqzw-bvJozwUjdF7_OVHa9m6sqyLnlDrSPojH5ShVtVdQr_0000]--></g></svg>