<svg xmlns="http://www.w3.org/2000/svg" xmlns:xlink="http://www.w3.org/1999/xlink" contentStyleType="text/css" height="464px" preserveAspectRatio="none" style="width:922px;height:464px;background:#FEFEFE;" version="1.1" viewBox="0 0 922 464" width="922px" zoomAndPan="magnify"><title>Observer Pattern - New Job Discovery</title><defs/><g><rect fill="#FEFEFE" height="464" style="stroke:none;stroke-width:1;" width="922" x="0" y="0"/><text fill="#000000" font-family="sans-serif" font-size="14" font-weight="bold" lengthAdjust="spacing" textLength="276.2129" x="316.1614" y="23.5352">Observer Pattern - New Job Discovery</text><!--class CompanyWatchSubject--><g id="elem_CompanyWatchSubject"><rect codeLine="346" fill="#F1F8E9" height="113.9531" id="CompanyWatchSubject" rx="2.5" ry="2.5" style="stroke:#689F38;stroke-width:0.5;" width="275.2656" x="7" y="202.4683"/><ellipse cx="63.2769" cy="218.4683" fill="#ADD1B2" rx="11" ry="11" style="stroke:#181818;stroke-width:1;"/><path d="M65.75,224.6113 Q65.1689,224.9102 64.5298,225.0596 Q63.8906,225.209 63.1851,225.209 Q60.6782,225.209 59.3584,223.5571 Q58.0386,221.9053 58.0386,218.7842 Q58.0386,215.6548 59.3584,214.0029 Q60.6782,212.3511 63.1851,212.3511 Q63.8906,212.3511 64.5381,212.5005 Q65.1855,212.6499 65.75,212.9488 L65.75,215.6714 Q65.1191,215.0904 64.5256,214.8206 Q63.9321,214.5508 63.3013,214.5508 Q61.9565,214.5508 61.2717,215.6175 Q60.5869,216.6841 60.5869,218.7842 Q60.5869,220.876 61.2717,221.9426 Q61.9565,223.0093 63.3013,223.0093 Q63.9321,223.0093 64.5256,222.7395 Q65.1191,222.4697 65.75,221.8887 Z " fill="#000000"/><text fill="#000000" font-family="sans-serif" font-size="14" lengthAdjust="spacing" textLength="154.2119" x="83.7769" y="223.7593">CompanyWatchSubject</text><line style="stroke:#689F38;stroke-width:0.5;" x1="8" x2="281.2656" y1="234.4683" y2="234.4683"/><rect fill="none" height="6" style="stroke:#C82930;stroke-width:1;" width="6" x="15" y="245.2124"/><text fill="#000000" font-family="sans-serif" font-size="14" lengthAdjust="spacing" textLength="249.2656" x="27" y="252.0034">listeners: List~JobDiscoveryListener~</text><line style="stroke:#689F38;stroke-width:0.5;" x1="8" x2="281.2656" y1="258.9566" y2="258.9566"/><ellipse cx="18" cy="272.7007" fill="#84BE84" rx="3" ry="3" style="stroke:#038048;stroke-width:1;"/><text fill="#000000" font-family="sans-serif" font-size="14" lengthAdjust="spacing" textLength="162.4834" x="27" y="276.4917">subscribe(listener): void</text><ellipse cx="18" cy="289.189" fill="#84BE84" rx="3" ry="3" style="stroke:#038048;stroke-width:1;"/><text fill="#000000" font-family="sans-serif" font-size="14" lengthAdjust="spacing" textLength="179.8604" x="27" y="292.98">unsubscribe(listener): void</text><ellipse cx="18" cy="305.6773" fill="#84BE84" rx="3" ry="3" style="stroke:#038048;stroke-width:1;"/><text fill="#000000" font-family="sans-serif" font-size="14" lengthAdjust="spacing" textLength="219.3857" x="27" y="309.4683">notifyNewJob(job, watchId): void</text></g><!--class JobDiscoveryListener--><g id="elem_JobDiscoveryListener"><rect codeLine="353" fill="#F1F8E9" height="64.4883" id="JobDiscoveryListener" rx="2.5" ry="2.5" style="stroke:#689F38;stroke-width:0.5;" width="298.4668" x="130.4" y="393.4183"/><ellipse cx="204.7853" cy="409.4183" fill="#B4A7E5" rx="11" ry="11" style="stroke:#181818;stroke-width:1;"/><path d="M201.213,405.6834 L201.213,403.5252 L208.5924,403.5252 L208.5924,405.6834 L206.1271,405.6834 L206.1271,413.7601 L208.5924,413.7601 L208.5924,415.9183 L201.213,415.9183 L201.213,413.7601 L203.6783,413.7601 L203.6783,405.6834 Z " fill="#000000"/><text fill="#000000" font-family="sans-serif" font-size="14" font-style="italic" lengthAdjust="spacing" textLength="141.1963" x="225.2853" y="414.7093">JobDiscoveryListener</text><line style="stroke:#689F38;stroke-width:0.5;" x1="131.4" x2="427.8668" y1="425.4183" y2="425.4183"/><line style="stroke:#689F38;stroke-width:0.5;" x1="131.4" x2="427.8668" y1="433.4183" y2="433.4183"/><ellipse cx="141.4" cy="447.1624" fill="#84BE84" rx="3" ry="3" style="stroke:#038048;stroke-width:1;"/><text fill="#000000" font-family="sans-serif" font-size="14" lengthAdjust="spacing" textLength="272.4668" x="150.4" y="450.9534">onNewJobDiscovered(job, watchId): void</text></g><!--class JobDiscoveryPersistenceListener--><g id="elem_JobDiscoveryPersistenceListener"><rect codeLine="357" fill="#F1F8E9" height="80.9766" id="JobDiscoveryPersistenceListener" rx="2.5" ry="2.5" style="stroke:#689F38;stroke-width:0.5;" width="298.4668" x="203.4" y="44.4883"/><ellipse cx="240.4447" cy="60.4883" fill="#ADD1B2" rx="11" ry="11" style="stroke:#181818;stroke-width:1;"/><path d="M242.9179,66.6313 Q242.3368,66.9302 241.6977,67.0796 Q241.0585,67.229 240.3529,67.229 Q237.8461,67.229 236.5263,65.5771 Q235.2064,63.9253 235.2064,60.8042 Q235.2064,57.6748 236.5263,56.0229 Q237.8461,54.3711 240.3529,54.3711 Q241.0585,54.3711 241.706,54.5205 Q242.3534,54.6699 242.9179,54.9688 L242.9179,57.6914 Q242.287,57.1104 241.6935,56.8406 Q241.1,56.5708 240.4691,56.5708 Q239.1244,56.5708 238.4396,57.6375 Q237.7548,58.7041 237.7548,60.8042 Q237.7548,62.896 238.4396,63.9626 Q239.1244,65.0293 240.4691,65.0293 Q241.1,65.0293 241.6935,64.7595 Q242.287,64.4897 242.9179,63.9087 Z " fill="#000000"/><text fill="#000000" font-family="sans-serif" font-size="14" lengthAdjust="spacing" textLength="217.4785" x="259.3436" y="65.7793">JobDiscoveryPersistenceListener</text><line style="stroke:#689F38;stroke-width:0.5;" x1="204.4" x2="500.8668" y1="76.4883" y2="76.4883"/><rect fill="none" height="6" style="stroke:#C82930;stroke-width:1;" width="6" x="211.4" y="87.2324"/><text fill="#000000" font-family="sans-serif" font-size="14" lengthAdjust="spacing" textLength="221.9287" x="223.4" y="94.0234">repository: JobPostingRepository</text><line style="stroke:#689F38;stroke-width:0.5;" x1="204.4" x2="500.8668" y1="100.9766" y2="100.9766"/><ellipse cx="214.4" cy="114.7207" fill="#84BE84" rx="3" ry="3" style="stroke:#038048;stroke-width:1;"/><text fill="#000000" font-family="sans-serif" font-size="14" lengthAdjust="spacing" textLength="272.4668" x="223.4" y="118.5117">onNewJobDiscovered(job, watchId): void</text></g><!--class JobPollingScheduler--><g id="elem_JobPollingScheduler"><rect codeLine="362" fill="#F1F8E9" height="64.4883" id="JobPollingScheduler" rx="2.5" ry="2.5" style="stroke:#689F38;stroke-width:0.5;" width="207.3916" x="657.94" y="52.7383"/><ellipse cx="691.5948" cy="68.7383" fill="#ADD1B2" rx="11" ry="11" style="stroke:#181818;stroke-width:1;"/><path d="M694.0679,74.8813 Q693.4869,75.1802 692.8477,75.3296 Q692.2086,75.479 691.503,75.479 Q688.9962,75.479 687.6763,73.8271 Q686.3565,72.1753 686.3565,69.0542 Q686.3565,65.9248 687.6763,64.2729 Q688.9962,62.6211 691.503,62.6211 Q692.2086,62.6211 692.856,62.7705 Q693.5035,62.9199 694.0679,63.2188 L694.0679,65.9414 Q693.4371,65.3604 692.8436,65.0906 Q692.2501,64.8208 691.6192,64.8208 Q690.2745,64.8208 689.5897,65.8875 Q688.9048,66.9541 688.9048,69.0542 Q688.9048,71.146 689.5897,72.2126 Q690.2745,73.2793 691.6192,73.2793 Q692.2501,73.2793 692.8436,73.0095 Q693.4371,72.7397 694.0679,72.1587 Z " fill="#000000"/><text fill="#000000" font-family="sans-serif" font-size="14" lengthAdjust="spacing" textLength="133.9365" x="709.7403" y="74.0293">JobPollingScheduler</text><line style="stroke:#689F38;stroke-width:0.5;" x1="658.94" x2="864.3316" y1="84.7383" y2="84.7383"/><line style="stroke:#689F38;stroke-width:0.5;" x1="658.94" x2="864.3316" y1="92.7383" y2="92.7383"/><ellipse cx="668.94" cy="106.4824" fill="#84BE84" rx="3" ry="3" style="stroke:#038048;stroke-width:1;"/><text fill="#000000" font-family="sans-serif" font-size="14" lengthAdjust="spacing" textLength="181.3916" x="677.94" y="110.2734">pollEnabledWatches(): void</text></g><!--class JobObserverService--><g id="elem_JobObserverService"><rect codeLine="366" fill="#F1F8E9" height="64.4883" id="JobObserverService" rx="2.5" ry="2.5" style="stroke:#689F38;stroke-width:0.5;" width="225.1445" x="649.06" y="227.1983"/><ellipse cx="692.374" cy="243.1983" fill="#ADD1B2" rx="11" ry="11" style="stroke:#181818;stroke-width:1;"/><path d="M694.8471,249.3413 Q694.2661,249.6402 693.6269,249.7896 Q692.9877,249.939 692.2822,249.939 Q689.7753,249.939 688.4555,248.2871 Q687.1357,246.6353 687.1357,243.5142 Q687.1357,240.3848 688.4555,238.7329 Q689.7753,237.0811 692.2822,237.0811 Q692.9877,237.0811 693.6352,237.2305 Q694.2827,237.3799 694.8471,237.6788 L694.8471,240.4014 Q694.2163,239.8204 693.6227,239.5506 Q693.0292,239.2808 692.3984,239.2808 Q691.0537,239.2808 690.3688,240.3475 Q689.684,241.4141 689.684,243.5142 Q689.684,245.606 690.3688,246.6726 Q691.0537,247.7393 692.3984,247.7393 Q693.0292,247.7393 693.6227,247.4695 Q694.2163,247.1997 694.8471,246.6187 Z " fill="#000000"/><text fill="#000000" font-family="sans-serif" font-size="14" lengthAdjust="spacing" textLength="130.2246" x="712.666" y="248.4893">JobObserverService</text><line style="stroke:#689F38;stroke-width:0.5;" x1="650.06" x2="873.2045" y1="259.1983" y2="259.1983"/><line style="stroke:#689F38;stroke-width:0.5;" x1="650.06" x2="873.2045" y1="267.1983" y2="267.1983"/><ellipse cx="660.06" cy="280.9424" fill="#84BE84" rx="3" ry="3" style="stroke:#038048;stroke-width:1;"/><text fill="#000000" font-family="sans-serif" font-size="14" lengthAdjust="spacing" textLength="199.1445" x="669.06" y="284.7334">pollAllEnabledWatches(): void</text></g><!--class JobPostingRepository--><g id="elem_JobPostingRepository"><rect fill="#F1F8E9" height="48" id="JobPostingRepository" rx="2.5" ry="2.5" style="stroke:#689F38;stroke-width:0.5;" width="176.0674" x="437.6" y="235.4483"/><ellipse cx="452.6" cy="251.4483" fill="#ADD1B2" rx="11" ry="11" style="stroke:#181818;stroke-width:1;"/><path d="M455.0731,257.5913 Q454.4921,257.8902 453.8529,258.0396 Q453.2138,258.189 452.5082,258.189 Q450.0014,258.189 448.6815,256.5371 Q447.3617,254.8853 447.3617,251.7642 Q447.3617,248.6348 448.6815,246.9829 Q450.0014,245.3311 452.5082,245.3311 Q453.2138,245.3311 453.8612,245.4805 Q454.5087,245.6299 455.0731,245.9288 L455.0731,248.6514 Q454.4423,248.0704 453.8488,247.8006 Q453.2553,247.5308 452.6244,247.5308 Q451.2797,247.5308 450.5949,248.5975 Q449.9101,249.6641 449.9101,251.7642 Q449.9101,253.856 450.5949,254.9226 Q451.2797,255.9893 452.6244,255.9893 Q453.2553,255.9893 453.8488,255.7195 Q454.4423,255.4497 455.0731,254.8687 Z " fill="#000000"/><text fill="#000000" font-family="sans-serif" font-size="14" lengthAdjust="spacing" textLength="144.0674" x="466.6" y="256.7393">JobPostingRepository</text><line style="stroke:#689F38;stroke-width:0.5;" x1="438.6" x2="612.6674" y1="267.4483" y2="267.4483"/><line style="stroke:#689F38;stroke-width:0.5;" x1="438.6" x2="612.6674" y1="275.4483" y2="275.4483"/></g><!--class JobIngestionMediator--><g id="elem_JobIngestionMediator"><rect fill="#F1F8E9" height="48" id="JobIngestionMediator" rx="2.5" ry="2.5" style="stroke:#689F38;stroke-width:0.5;" width="176.7373" x="673.26" y="401.6683"/><ellipse cx="688.26" cy="417.6683" fill="#ADD1B2" rx="11" ry="11" style="stroke:#181818;stroke-width:1;"/><path d="M690.7331,423.8113 Q690.1521,424.1102 689.5129,424.2596 Q688.8738,424.409 688.1682,424.409 Q685.6614,424.409 684.3415,422.7571 Q683.0217,421.1053 683.0217,417.9842 Q683.0217,414.8548 684.3415,413.2029 Q685.6614,411.5511 688.1682,411.5511 Q688.8738,411.5511 689.5212,411.7005 Q690.1687,411.8499 690.7331,412.1488 L690.7331,414.8714 Q690.1023,414.2904 689.5088,414.0206 Q688.9153,413.7508 688.2844,413.7508 Q686.9397,413.7508 686.2549,414.8175 Q685.5701,415.8841 685.5701,417.9842 Q685.5701,420.076 686.2549,421.1426 Q686.9397,422.2093 688.2844,422.2093 Q688.9153,422.2093 689.5088,421.9395 Q690.1023,421.6697 690.7331,421.0887 Z " fill="#000000"/><text fill="#000000" font-family="sans-serif" font-size="14" lengthAdjust="spacing" textLength="144.7373" x="702.26" y="422.9593">JobIngestionMediator</text><line style="stroke:#689F38;stroke-width:0.5;" x1="674.26" x2="848.9973" y1="433.6683" y2="433.6683"/><line style="stroke:#689F38;stroke-width:0.5;" x1="674.26" x2="848.9973" y1="441.6683" y2="441.6683"/></g><!--link JobDiscoveryPersistenceListener to JobDiscoveryListener--><g id="link_JobDiscoveryPersistenceListener_JobDiscoveryListener"><path codeLine="370" d="M346.28,125.7883 C337.33,179.9383 319.71,279.6683 298.63,363.4183 C296.19,373.1383 298.48,366.408 295.52,375.878 " fill="none" id="JobDiscoveryPersistenceListener-to-JobDiscoveryListener" style="stroke:#181818;stroke-width:1;stroke-dasharray:7.0,7.0;"/><polygon fill="none" points="290.15,393.0583,301.2468,377.668,289.7932,374.088,290.15,393.0583" style="stroke:#181818;stroke-width:1;"/><text fill="#000000" font-family="sans-serif" font-size="13" lengthAdjust="spacing" textLength="48.5786" x="333.35" y="264.5166">realizes</text></g><!--link CompanyWatchSubject to JobDiscoveryListener--><g id="link_CompanyWatchSubject_JobDiscoveryListener"><path codeLine="371" d="M198.3313,325.7674 C219.4213,351.4174 232.1801,366.9331 250.0001,388.6131 " fill="none" id="CompanyWatchSubject-JobDiscoveryListener" style="stroke:#181818;stroke-width:1;"/><polygon fill="none" points="190.71,316.4983,191.4309,323.6733,198.3313,325.7674,197.6103,318.5924,190.71,316.4983" style="stroke:#181818;stroke-width:1;"/><polygon fill="#181818" points="253.81,393.2483,251.1853,383.7556,250.6351,389.3856,245.0051,388.8355,253.81,393.2483" style="stroke:#181818;stroke-width:1;"/><polygon fill="#000000" points="236.3654,358.9358,232.8913,350.0825,228.3509,353.8154,236.3654,358.9358" style="stroke:#000000;stroke-width:1;"/><text fill="#000000" font-family="sans-serif" font-size="13" lengthAdjust="spacing" textLength="47.0806" x="242.19" y="359.9866">notifies</text><text fill="#000000" font-family="sans-serif" font-size="13" lengthAdjust="spacing" textLength="8.2202" x="187.8516" y="336.953">1</text><text fill="#000000" font-family="sans-serif" font-size="13" lengthAdjust="spacing" textLength="22.7119" x="224.2886" y="382.6164">0..*</text></g><!--link JobDiscoveryPersistenceListener to JobPostingRepository--><g id="link_JobDiscoveryPersistenceListener_JobPostingRepository"><path codeLine="372" d="M392.32,125.5483 C426.24,159.3583 469.6513,202.6317 497.8413,230.7417 " fill="none" id="JobDiscoveryPersistenceListener-to-JobPostingRepository" style="stroke:#181818;stroke-width:1;"/><polygon fill="#181818" points="502.09,234.9783,498.5414,225.7909,498.5494,231.4478,492.8926,231.4558,502.09,234.9783" style="stroke:#181818;stroke-width:1;"/><text fill="#000000" font-family="sans-serif" font-size="13" lengthAdjust="spacing" textLength="103.835" x="440.13" y="169.0366">persists through</text><text fill="#000000" font-family="sans-serif" font-size="13" lengthAdjust="spacing" textLength="8.2202" x="390.2488" y="146.1042">1</text><text fill="#000000" font-family="sans-serif" font-size="13" lengthAdjust="spacing" textLength="8.2202" x="487.4031" y="224.7918">1</text></g><!--link JobPollingScheduler to JobObserverService--><g id="link_JobPollingScheduler_JobObserverService"><path codeLine="373" d="M761.63,117.6083 C761.63,148.6283 761.63,189.6683 761.63,220.7183 " fill="none" id="JobPollingScheduler-to-JobObserverService" style="stroke:#181818;stroke-width:1;"/><polygon fill="#181818" points="761.63,226.7183,765.63,217.7183,761.63,221.7183,757.63,217.7183,761.63,226.7183" style="stroke:#181818;stroke-width:1;"/><text fill="#000000" font-family="sans-serif" font-size="13" lengthAdjust="spacing" textLength="151.9058" x="762.63" y="169.0366">triggers scheduled polls</text><text fill="#000000" font-family="sans-serif" font-size="13" lengthAdjust="spacing" textLength="8.2202" x="752.8874" y="137.8552">1</text><text fill="#000000" font-family="sans-serif" font-size="13" lengthAdjust="spacing" textLength="8.2202" x="752.8637" y="216.3981">1</text></g><!--link JobObserverService to JobIngestionMediator--><g id="link_JobObserverService_JobIngestionMediator"><path codeLine="374" d="M761.63,292.1083 C761.63,324.0783 761.63,366.6983 761.63,395.3183 " fill="none" id="JobObserverService-to-JobIngestionMediator" style="stroke:#181818;stroke-width:1;"/><polygon fill="#181818" points="761.63,401.3183,765.63,392.3183,761.63,396.3183,757.63,392.3183,761.63,401.3183" style="stroke:#181818;stroke-width:1;"/><text fill="#000000" font-family="sans-serif" font-size="13" lengthAdjust="spacing" textLength="136.4556" x="762.63" y="359.9866">coordinates ingestion</text><text fill="#000000" font-family="sans-serif" font-size="13" lengthAdjust="spacing" textLength="8.2202" x="752.8881" y="312.3629">1</text><text fill="#000000" font-family="sans-serif" font-size="13" lengthAdjust="spacing" textLength="8.2202" x="752.6336" y="390.7649">1</text></g><!--link JobDiscoveryPersistenceListener to CompanyWatchSubject--><g id="link_JobDiscoveryPersistenceListener_CompanyWatchSubject"><path codeLine="375" d="M228.7,125.9383 C214.07,134.1383 200.24,143.8983 188.63,155.4683 C175.76,168.2983 168.6501,179.9281 161.9801,196.5881 " fill="none" id="JobDiscoveryPersistenceListener-to-CompanyWatchSubject" style="stroke:#181818;stroke-width:1;"/><polygon fill="#181818" points="159.75,202.1583,166.8086,195.2897,161.6084,197.5165,159.3817,192.3163,159.75,202.1583" style="stroke:#181818;stroke-width:1;"/><text fill="#000000" font-family="sans-serif" font-size="13" lengthAdjust="spacing" textLength="136.6714" x="189.63" y="169.0366">subscribes on startup</text><text fill="#000000" font-family="sans-serif" font-size="13" lengthAdjust="spacing" textLength="8.2202" x="201.1271" y="145.9511">1</text><text fill="#000000" font-family="sans-serif" font-size="13" lengthAdjust="spacing" textLength="8.2202" x="153.1183" y="191.8497">1</text></g><!--SRC=[dPDRRzD048NVzrUCp4kWE292GgaV8a59fA824NdWUIzJPrjdnzfPjmgN_dR6JXoLr6q5icHPEsS-ppcxctog4BuQndY34POw9Om1SlY2j_2937pqR4bAMvMeXaHWA2NQWFCHRV8K55_xKEkeDs2qlIuZDS6TKKKHNYpcxNDFOIlD_E61RBAOpayVo2WwZ7l9k-dfukrKgQu2PxIfTTX-ryckLusvaadWfmB8Ayy90qOku48-xyJ1mS35ldOdmXDk3Dle3OxwbfS5t91tRR49JvO39N-vbO24FheYynfksq7ENQ_vhPGFakEbjWX38tJ3db3OCVeokiTeEzVtIKlnsC4i_WND8zR4Fb7S5ct3aZZvK7uxhFxdZvTKLS9PsJMwfkeTrB8w3zfKwBgzG1uDDVV7QoLlBv4SUjy_rVwStV7ursmutG8Ywih_G5P39oMRP41vFeFipNZyAdkCqMspHuRPiwEqn0uuoGP35rgzQsD8QpdwvLeDXNh4ESwjW1HzMGe9UD_ZeCsHrO3w27OUIkJsmdv6vxLC9JXBSiTyq4bS-hx-Jsw7yYtWS7qOA00d7LDJgpy0]--></g></svg>