<svg xmlns="http://www.w3.org/2000/svg" xmlns:xlink="http://www.w3.org/1999/xlink" contentStyleType="text/css" data-diagram-type="DESCRIPTION" height="988px" preserveAspectRatio="none" style="width:1540px;height:988px;background:#FFFFFF;" version="1.1" viewBox="0 0 1540 988" width="1540px" zoomAndPan="magnify"><?plantuml 1.2026.5?><defs/><g><g class="title" data-source-line="2254"><text fill="#000000" font-family="sans-serif" font-size="14" font-weight="700" lengthAdjust="spacing" textLength="220.0488" x="656.8056" y="23.5352">NextOffer - Use Case Diagram</text></g><!--cluster NextOffer System--><g class="cluster" data-qualified-name="NextOffer System" data-source-line="2262" id="ent0004"><rect fill="none" height="445" rx="2.5" ry="2.5" style="stroke:#181818;stroke-width:1;" width="1346.27" x="180.39" y="81.7383"/><text fill="#000000" font-family="sans-serif" font-size="14" font-weight="700" lengthAdjust="spacing" textLength="126.752" x="790.149" y="97.2734">NextOffer System</text></g><!--entity UC1--><g class="entity" data-qualified-name="NextOffer System.UC1" data-source-line="2263" id="ent0005"><ellipse cx="291.2862" cy="277.7335" fill="#F1F1F1" rx="72.3262" ry="16.8652" style="stroke:#181818;stroke-width:0.5;"/><text fill="#000000" font-family="sans-serif" font-size="14" lengthAdjust="spacing" textLength="111.4805" x="235.546" y="282.4777">Register &amp; Login</text></g><!--entity UC2--><g class="entity" data-qualified-name="NextOffer System.UC2" data-source-line="2264" id="ent0006"><ellipse cx="291.2875" cy="209.7398" fill="#F1F1F1" rx="67.9075" ry="15.9815" style="stroke:#181818;stroke-width:0.5;"/><text fill="#000000" font-family="sans-serif" font-size="14" lengthAdjust="spacing" textLength="100.2764" x="241.1493" y="214.4839">Manage Profile</text></g><!--entity UC3--><g class="entity" data-qualified-name="NextOffer System.UC3" data-source-line="2265" id="ent0007"><ellipse cx="291.2871" cy="489.7397" fill="#F1F1F1" rx="91.9071" ry="20.7814" style="stroke:#181818;stroke-width:0.5;"/><text fill="#000000" font-family="sans-serif" font-size="14" lengthAdjust="spacing" textLength="157.5479" x="212.5132" y="494.4838">Create Company Watch</text></g><!--entity UC4--><g class="entity" data-qualified-name="NextOffer System.UC4" data-source-line="2266" id="ent0008"><ellipse cx="520.7236" cy="489.743" fill="#F1F1F1" rx="74.5236" ry="17.3047" style="stroke:#181818;stroke-width:0.5;"/><text fill="#000000" font-family="sans-serif" font-size="14" lengthAdjust="spacing" textLength="116.9014" x="462.2729" y="494.4871">Poll Career Pages</text></g><!--entity UC5--><g class="entity" data-qualified-name="NextOffer System.UC5" data-source-line="2267" id="ent0009"><ellipse cx="722.4557" cy="489.7414" fill="#F1F1F1" rx="67.2157" ry="15.8431" style="stroke:#181818;stroke-width:0.5;"/><text fill="#000000" font-family="sans-serif" font-size="14" lengthAdjust="spacing" textLength="98.4785" x="673.2164" y="494.4856">View New Jobs</text></g><!--entity UC6--><g class="entity" data-qualified-name="NextOffer System.UC6" data-source-line="2268" id="ent0010"><ellipse cx="944.8698" cy="489.7382" fill="#F1F1F1" rx="95.1998" ry="21.44" style="stroke:#181818;stroke-width:0.5;"/><text fill="#000000" font-family="sans-serif" font-size="14" lengthAdjust="spacing" textLength="164.9443" x="862.3976" y="494.4824">Track Application Status</text></g><!--entity UC7--><g class="entity" data-qualified-name="NextOffer System.UC7" data-source-line="2269" id="ent0011"><ellipse cx="291.2871" cy="417.7357" fill="#F1F1F1" rx="69.9371" ry="16.3874" style="stroke:#181818;stroke-width:0.5;"/><text fill="#000000" font-family="sans-serif" font-size="14" lengthAdjust="spacing" textLength="105.4785" x="238.5478" y="422.4798">Upload Resume</text></g><!--entity UC8--><g class="entity" data-qualified-name="NextOffer System.UC8" data-source-line="2270" id="ent0012"><ellipse cx="1187.2891" cy="489.7421" fill="#F1F1F1" rx="87.2191" ry="19.8438" style="stroke:#181818;stroke-width:0.5;"/><text fill="#000000" font-family="sans-serif" font-size="14" lengthAdjust="spacing" textLength="146.8838" x="1113.8472" y="494.4862">Tailor Resume for Job</text></g><!--entity UC9--><g class="entity" data-qualified-name="NextOffer System.UC9" data-source-line="2271" id="ent0013"><ellipse cx="1422.5829" cy="417.7429" fill="#F1F1F1" rx="88.0729" ry="20.0146" style="stroke:#181818;stroke-width:0.5;"/><text fill="#000000" font-family="sans-serif" font-size="14" lengthAdjust="spacing" textLength="148.8389" x="1348.1635" y="422.487">Generate PDF Resume</text></g><!--entity UC10--><g class="entity" data-qualified-name="NextOffer System.UC10" data-source-line="2272" id="ent0014"><ellipse cx="1422.5775" cy="491.7378" fill="#F1F1F1" rx="85.2475" ry="19.4495" style="stroke:#181818;stroke-width:0.5;"/><text fill="#000000" font-family="sans-serif" font-size="14" lengthAdjust="spacing" textLength="142.3447" x="1351.4051" y="496.4819">View Resume History</text></g><!--entity UC11--><g class="entity" data-qualified-name="NextOffer System.UC11" data-source-line="2273" id="ent0015"><ellipse cx="291.2866" cy="347.7376" fill="#F1F1F1" rx="80.3466" ry="18.4693" style="stroke:#181818;stroke-width:0.5;"/><text fill="#000000" font-family="sans-serif" font-size="14" lengthAdjust="spacing" textLength="130.8945" x="225.8393" y="352.4817">Manage Dashboard</text></g><!--entity UC12--><g class="entity" data-qualified-name="NextOffer System.UC12" data-source-line="2274" id="ent0016"><ellipse cx="291.2934" cy="137.739" fill="#F1F1F1" rx="94.9034" ry="21.3807" style="stroke:#181818;stroke-width:0.5;"/><text fill="#000000" font-family="sans-serif" font-size="14" lengthAdjust="spacing" textLength="164.2813" x="209.1527" y="142.4831">Connect to ATS Systems</text></g><!--entity Student--><g class="entity" data-qualified-name="Student" data-source-line="2258" id="ent0001"><ellipse cx="71.1943" cy="541.4883" fill="#F1F1F1" rx="16" ry="16" style="stroke:#181818;stroke-width:0.5;"/><path d="M71.1943,561.4883 C75.1943,561.4883 78.1943,561.4883 82.1943,557.4883 C90.1943,557.4883 98.1943,565.4883 98.1943,573.4883 L98.1943,577.4883 C98.1943,581.4883 94.1943,585.4883 90.1943,585.4883 L52.1943,585.4883 C48.1943,585.4883 44.1943,581.4883 44.1943,577.4883 L44.1943,573.4883 C44.1943,565.4883 52.1943,557.4883 60.1943,557.4883 C64.1943,561.4883 67.1943,561.4883 71.1943,561.4883" fill="#F1F1F1" style="stroke:#181818;stroke-width:0.5;"/><text fill="#000000" font-family="sans-serif" font-size="14" lengthAdjust="spacing" textLength="130.3887" x="6" y="599.5234">Student/Job Seeker</text></g><!--entity Admin--><g class="entity" data-qualified-name="Admin" data-source-line="2259" id="ent0002"><ellipse cx="71.1904" cy="59.4883" fill="#F1F1F1" rx="16" ry="16" style="stroke:#181818;stroke-width:0.5;"/><path d="M71.1904,79.4883 C75.1904,79.4883 78.1904,79.4883 82.1904,75.4883 C90.1904,75.4883 98.1904,83.4883 98.1904,91.4883 L98.1904,95.4883 C98.1904,99.4883 94.1904,103.4883 90.1904,103.4883 L52.1904,103.4883 C48.1904,103.4883 44.1904,99.4883 44.1904,95.4883 L44.1904,91.4883 C44.1904,83.4883 52.1904,75.4883 60.1904,75.4883 C64.1904,79.4883 67.1904,79.4883 71.1904,79.4883" fill="#F1F1F1" style="stroke:#181818;stroke-width:0.5;"/><text fill="#000000" font-family="sans-serif" font-size="14" lengthAdjust="spacing" textLength="93.7207" x="24.33" y="117.5234">Administrator</text></g><!--entity External--><g class="entity" data-qualified-name="External" data-source-line="2260" id="ent0003"><ellipse cx="71.1963" cy="171.4883" fill="#F1F1F1" rx="16" ry="16" style="stroke:#181818;stroke-width:0.5;"/><path d="M71.1963,191.4883 C75.1963,191.4883 78.1963,191.4883 82.1963,187.4883 C90.1963,187.4883 98.1963,195.4883 98.1963,203.4883 L98.1963,207.4883 C98.1963,211.4883 94.1963,215.4883 90.1963,215.4883 L52.1963,215.4883 C48.1963,215.4883 44.1963,211.4883 44.1963,207.4883 L44.1963,203.4883 C44.1963,195.4883 52.1963,187.4883 60.1963,187.4883 C64.1963,191.4883 67.1963,191.4883 71.1963,191.4883" fill="#F1F1F1" style="stroke:#181818;stroke-width:0.5;"/><text fill="#000000" font-family="sans-serif" font-size="14" lengthAdjust="spacing" textLength="107.9326" x="17.23" y="229.5234">External System</text></g><!--link Student to UC1--><g class="link" data-entity-1="ent0001" data-entity-2="ent0005" data-link-type="dependency" data-source-line="2277" id="lnk17"><path d="M76.92,524.8883 C85.71,469.5583 109.78,368.5083 172.39,311.7383 C187.14,298.3583 202.0104,291.4745 221.0804,286.5245" fill="none" id="Student-to-UC1" style="stroke:#181818;stroke-width:1;"/><polygon fill="#181818" points="225.92,285.2683,216.2037,283.6578,221.0804,286.5245,218.2137,291.4012,225.92,285.2683" style="stroke:#181818;stroke-width:1;stroke-linejoin:miter;stroke-miterlimit:10;"/></g><!--link Student to UC2--><g class="link" data-entity-1="ent0001" data-entity-2="ent0006" data-link-type="dependency" data-source-line="2278" id="lnk18"><path d="M73.05,524.7283 C76.68,457.6883 93.92,320.4483 172.39,243.7383 C187.32,229.1383 203.2291,221.9097 223.1891,217.0997" fill="none" id="Student-to-UC2" style="stroke:#181818;stroke-width:1;"/><polygon fill="#181818" points="228.05,215.9283,218.3634,214.1481,223.1891,217.0997,220.2376,221.9254,228.05,215.9283" style="stroke:#181818;stroke-width:1;stroke-linejoin:miter;stroke-miterlimit:10;"/></g><!--link Student to UC3--><g class="link" data-entity-1="ent0001" data-entity-2="ent0007" data-link-type="dependency" data-source-line="2279" id="lnk19"><path d="M136.75,541.8383 C169.4,530.7583 203.7552,519.095 234.3152,508.725" fill="none" id="Student-to-UC3" style="stroke:#181818;stroke-width:1;"/><polygon fill="#181818" points="239.05,507.1183,229.242,506.2224,234.3152,508.725,231.8127,513.7982,239.05,507.1183" style="stroke:#181818;stroke-width:1;stroke-linejoin:miter;stroke-miterlimit:10;"/></g><!--link Student to UC4--><g class="link" data-entity-1="ent0001" data-entity-2="ent0008" data-link-type="dependency" data-source-line="2280" id="lnk20"><path d="M136.72,559.4283 C200.53,554.4483 300.75,544.6783 386.2,527.7383 C416.69,521.6883 445.5848,513.5706 471.4848,505.5306" fill="none" id="Student-to-UC4" style="stroke:#181818;stroke-width:1;"/><polygon fill="#181818" points="476.26,504.0483,466.4787,502.8963,471.4848,505.5306,468.8505,510.5367,476.26,504.0483" style="stroke:#181818;stroke-width:1;stroke-linejoin:miter;stroke-miterlimit:10;"/></g><!--link Student to UC5--><g class="link" data-entity-1="ent0001" data-entity-2="ent0009" data-link-type="dependency" data-source-line="2281" id="lnk21"><path d="M136.7,567.1983 C200.29,569.7983 300.16,571.6983 386.2,563.7383 C480.31,555.0383 503.16,546.0483 595.24,524.7383 C623.6,518.1683 650.348,510.8116 674.818,503.7116" fill="none" id="Student-to-UC5" style="stroke:#181818;stroke-width:1;"/><polygon fill="#181818" points="679.62,502.3183,669.8619,500.9846,674.818,503.7116,672.0911,508.6678,679.62,502.3183" style="stroke:#181818;stroke-width:1;stroke-linejoin:miter;stroke-miterlimit:10;"/></g><!--link Student to UC6--><g class="link" data-entity-1="ent0001" data-entity-2="ent0010" data-link-type="dependency" data-source-line="2282" id="lnk22"><path d="M136.73,574.0983 C148.56,575.6083 160.82,576.9283 172.39,577.7383 C359.96,590.7783 408.98,590.4183 595.24,564.7383 C696.44,550.7883 807.1722,524.8825 876.5522,507.3625" fill="none" id="Student-to-UC6" style="stroke:#181818;stroke-width:1;"/><polygon fill="#181818" points="881.4,506.1383,871.6946,504.4636,876.5522,507.3625,873.6533,512.2201,881.4,506.1383" style="stroke:#181818;stroke-width:1;stroke-linejoin:miter;stroke-miterlimit:10;"/></g><!--link Student to UC7--><g class="link" data-entity-1="ent0001" data-entity-2="ent0011" data-link-type="dependency" data-source-line="2283" id="lnk23"><path d="M98.4,524.6083 C116.53,500.3683 142.67,470.3983 172.39,451.7383 C190.79,440.1783 208.3921,433.6622 228.7521,428.5222" fill="none" id="Student-to-UC7" style="stroke:#181818;stroke-width:1;"/><polygon fill="#181818" points="233.6,427.2983,223.8947,425.6229,228.7521,428.5222,225.8529,433.3796,233.6,427.2983" style="stroke:#181818;stroke-width:1;stroke-linejoin:miter;stroke-miterlimit:10;"/></g><!--link Student to UC8--><g class="link" data-entity-1="ent0001" data-entity-2="ent0012" data-link-type="dependency" data-source-line="2284" id="lnk24"><path d="M118.38,602.8083 C195.95,664.2983 359.67,776.7383 519.72,776.7383 C519.72,776.7383 519.72,776.7383 723.46,776.7383 C926.74,776.7383 1111.7926,578.1187 1166.8826,513.2787" fill="none" id="Student-to-UC8" style="stroke:#181818;stroke-width:1;"/><polygon fill="#181818" points="1170.12,509.4683,1161.2443,513.737,1166.8826,513.2787,1167.341,518.9169,1170.12,509.4683" style="stroke:#181818;stroke-width:1;stroke-linejoin:miter;stroke-miterlimit:10;"/></g><!--link Student to UC9--><g class="link" data-entity-1="ent0001" data-entity-2="ent0013" data-link-type="dependency" data-source-line="2285" id="lnk25"><path d="M81.86,602.8883 C94.88,647.3383 122.41,718.8583 172.39,758.7383 C296.95,858.1283 360.36,847.7383 519.72,847.7383 C519.72,847.7383 519.72,847.7383 945.87,847.7383 C967.14,847.7383 1084.96,733.6583 1274.51,526.7383 C1302.65,496.0183 1301.07,479.5783 1334.51,454.7383 C1345.59,446.5083 1354.1733,441.6657 1366.8833,436.2257" fill="none" id="Student-to-UC9" style="stroke:#181818;stroke-width:1;"/><polygon fill="#181818" points="1371.48,434.2583,1361.6321,434.1223,1366.8833,436.2257,1364.7799,441.477,1371.48,434.2583" style="stroke:#181818;stroke-width:1;stroke-linejoin:miter;stroke-miterlimit:10;"/></g><!--link Student to UC10--><g class="link" data-entity-1="ent0001" data-entity-2="ent0014" data-link-type="dependency" data-source-line="2286" id="lnk26"><path d="M72.32,602.8183 C74.83,669.7183 90.4,805.5783 172.39,873.7383 C292.09,973.2383 364.06,918.7383 519.72,918.7383 C519.72,918.7383 519.72,918.7383 945.87,918.7383 C1093.3,918.7383 1158.93,965.2483 1274.51,873.7383 C1393.74,779.3383 1416.0815,580.8175 1420.3115,516.5775" fill="none" id="Student-to-UC10" style="stroke:#181818;stroke-width:1;"/><polygon fill="#181818" points="1420.64,511.5883,1416.0573,520.306,1420.3115,516.5775,1424.04,520.8317,1420.64,511.5883" style="stroke:#181818;stroke-width:1;stroke-linejoin:miter;stroke-miterlimit:10;"/></g><!--link Student to UC11--><g class="link" data-entity-1="ent0001" data-entity-2="ent0015" data-link-type="dependency" data-source-line="2287" id="lnk27"><path d="M84.17,524.6083 C98.65,483.7183 126.9,420.4883 172.39,383.7383 C187.29,371.6983 201.3808,365.081 219.6508,359.741" fill="none" id="Student-to-UC11" style="stroke:#181818;stroke-width:1;"/><polygon fill="#181818" points="224.45,358.3383,214.6893,357.0238,219.6508,359.741,216.9336,364.7025,224.45,358.3383" style="stroke:#181818;stroke-width:1;stroke-linejoin:miter;stroke-miterlimit:10;"/></g><!--link Admin to UC12--><g class="link" data-entity-1="ent0002" data-entity-2="ent0016" data-link-type="dependency" data-source-line="2289" id="lnk28"><path d="M118.45,93.6183 C150.21,101.7683 187.9072,111.4445 222.7172,120.3845" fill="none" id="Admin-to-UC12" style="stroke:#181818;stroke-width:1;"/><polygon fill="#181818" points="227.56,121.6283,219.8379,115.5153,222.7172,120.3845,217.8479,123.2638,227.56,121.6283" style="stroke:#181818;stroke-width:1;stroke-linejoin:miter;stroke-miterlimit:10;"/></g><!--link UC3 to UC4--><g class="link" data-entity-1="ent0007" data-entity-2="ent0008" data-link-type="dependency" data-source-line="2291" id="lnk29"><path d="M383.48,489.7383 C404.25,489.7383 421.05,489.7383 440.98,489.7383" fill="none" id="UC3-to-UC4" style="stroke:#181818;stroke-width:1;"/><polygon fill="#181818" points="445.98,489.7383,436.98,485.7383,440.98,489.7383,436.98,493.7383,445.98,489.7383" style="stroke:#181818;stroke-width:1;stroke-linejoin:miter;stroke-miterlimit:10;"/></g><!--link UC4 to UC5--><g class="link" data-entity-1="ent0008" data-entity-2="ent0009" data-link-type="dependency" data-source-line="2292" id="lnk30"><path d="M595.53,489.7383 C614.97,489.7383 630.84,489.7383 649.88,489.7383" fill="none" id="UC4-to-UC5" style="stroke:#181818;stroke-width:1;"/><polygon fill="#181818" points="654.88,489.7383,645.88,485.7383,649.88,489.7383,645.88,493.7383,654.88,489.7383" style="stroke:#181818;stroke-width:1;stroke-linejoin:miter;stroke-miterlimit:10;"/></g><!--link UC5 to UC6--><g class="link" data-entity-1="ent0009" data-entity-2="ent0010" data-link-type="dependency" data-source-line="2293" id="lnk31"><path d="M789.89,489.7383 C808.65,489.7383 824.43,489.7383 844.5,489.7383" fill="none" id="UC5-to-UC6" style="stroke:#181818;stroke-width:1;"/><polygon fill="#181818" points="849.5,489.7383,840.5,485.7383,844.5,489.7383,840.5,493.7383,849.5,489.7383" style="stroke:#181818;stroke-width:1;stroke-linejoin:miter;stroke-miterlimit:10;"/></g><!--link UC6 to UC8--><g class="link" data-entity-1="ent0010" data-entity-2="ent0012" data-link-type="dependency" data-source-line="2294" id="lnk32"><path d="M1040.55,489.7383 C1060.13,489.7383 1075.65,489.7383 1094.92,489.7383" fill="none" id="UC6-to-UC8" style="stroke:#181818;stroke-width:1;"/><polygon fill="#181818" points="1099.92,489.7383,1090.92,485.7383,1094.92,489.7383,1090.92,493.7383,1099.92,489.7383" style="stroke:#181818;stroke-width:1;stroke-linejoin:miter;stroke-miterlimit:10;"/></g><!--link UC8 to UC9--><g class="link" data-entity-1="ent0012" data-entity-2="ent0013" data-link-type="dependency" data-source-line="2295" id="lnk33"><path d="M1240.36,473.6683 C1278.63,461.8583 1325.6725,447.3431 1364.0925,435.4831" fill="none" id="UC8-to-UC9" style="stroke:#181818;stroke-width:1;"/><polygon fill="#181818" points="1368.87,434.0083,1359.0906,432.8409,1364.0925,435.4831,1361.4503,440.485,1368.87,434.0083" style="stroke:#181818;stroke-width:1;stroke-linejoin:miter;stroke-miterlimit:10;"/></g><!--link UC8 to UC10--><g class="link" data-entity-1="ent0012" data-entity-2="ent0014" data-link-type="dependency" data-source-line="2296" id="lnk34"><path d="M1274.83,490.4783 C1295.19,490.6583 1311.8602,490.7963 1332.1302,490.9663" fill="none" id="UC8-to-UC10" style="stroke:#181818;stroke-width:1;"/><polygon fill="#181818" points="1337.13,491.0083,1328.1639,486.9329,1332.1302,490.9663,1328.0968,494.9327,1337.13,491.0083" style="stroke:#181818;stroke-width:1;stroke-linejoin:miter;stroke-miterlimit:10;"/></g><!--link External to UC12--><g class="link" data-entity-1="ent0003" data-entity-2="ent0016" data-link-type="dependency" data-source-line="2298" id="lnk35"><path d="M125.55,180.0383 C156.32,172.1383 190.3372,163.402 222.5772,155.122" fill="none" id="External-to-UC12" style="stroke:#181818;stroke-width:1;"/><polygon fill="#181818" points="227.42,153.8783,217.7079,152.2428,222.5772,155.122,219.6979,159.9913,227.42,153.8783" style="stroke:#181818;stroke-width:1;stroke-linejoin:miter;stroke-miterlimit:10;"/></g><!--link UC12 to UC4--><g class="link" data-entity-1="ent0016" data-entity-2="ent0008" data-link-type="dependency" data-source-line="2299" id="lnk36"><path d="M352.14,154.4683 C364.51,160.0283 376.66,167.2983 386.2,176.7383 C474.76,264.4583 507.1918,415.2808 516.1518,467.3308" fill="none" id="UC12-to-UC4" style="stroke:#181818;stroke-width:1;"/><polygon fill="#181818" points="517,472.2583,519.4152,462.7101,516.1518,467.3308,511.5312,464.0673,517,472.2583" style="stroke:#181818;stroke-width:1;stroke-linejoin:miter;stroke-miterlimit:10;"/></g><?plantuml-src RPDDRzim38Rl-XL43hi5QzBlIu4WsLOK-mZgPZspDkq8aIL3Of06m_xxQCzo7RK72dgbnoJrIcRDXk0dlVAliYGFKzW4WYNAiD9OUQnLs6dReCm0StO-uwDyWGSAhYPbg6HW1rvNMuP2UyfPEwjKny8autr1bZy_k1V8Y7Ra9u01-kL8BOfQMntOeyWEw5RYzfTN9c_HG7OCJ7K7n3Mbsf9eAsbgydQEIFvH0Fj0UNkWoIDLKaHsFy5tLsdR9TeiPsFc1rgi2DRUbTfGJyp7nD8JidZawWRj4PwHystFdO-vjJD6dFGa1TUIC_JGnHZwhUaWzXz038h0vHXuyfZlOD4qHkVOMYlU8UyZUpLcDurnMC0ZXNqTMxy-IORQYA7_0IXbAcLxy6OCVYDBlZtbUlNrDD_jk-xxRFTYhVF7wEdP1wQkC6nV7FeYGYVEBvsrSfNjQreyPVqDndFEvkglKlspWUdqhhktKprFz7cYBn9zcUYhH5yd-YRHjsa_P-d2JAdk8KSzLqhQ6jgH65gH6DgG64fA3ENUvb9A3N_5aBmTXkJ_0000?></g></svg>