<svg xmlns="http://www.w3.org/2000/svg" xmlns:xlink="http://www.w3.org/1999/xlink" contentStyleType="text/css" height="514px" preserveAspectRatio="none" style="width:887px;height:514px;background:#FFFFFF;" version="1.1" viewBox="0 0 887 514" width="887px" zoomAndPan="magnify"><title>Observer Pattern - New Job Discovery Notifications</title><defs/><g><text fill="#000000" font-family="sans-serif" font-size="14" font-weight="bold" lengthAdjust="spacing" textLength="373.0713" x="249.983" y="23.5352">Observer Pattern - New Job Discovery Notifications</text><!--cluster Observer Pattern--><g id="cluster_Observer Pattern"><path d="M8.5,43.4883 L132.1982,43.4883 A3.75,3.75 0 0 1 134.6982,45.9883 L141.6982,65.9766 L682.5,65.9766 A2.5,2.5 0 0 1 685,68.4766 L685,505.4083 A2.5,2.5 0 0 1 682.5,507.9083 L8.5,507.9083 A2.5,2.5 0 0 1 6,505.4083 L6,45.9883 A2.5,2.5 0 0 1 8.5,43.4883 " fill="none" style="stroke:#000000;stroke-width:1.5;"/><line style="stroke:#000000;stroke-width:1.5;" x1="6" x2="141.6982" y1="65.9766" y2="65.9766"/><text fill="#000000" font-family="sans-serif" font-size="14" font-weight="bold" lengthAdjust="spacing" textLength="122.6982" x="10" y="59.0234">Observer Pattern</text></g><!--class CompanyWatchSubject--><g id="elem_CompanyWatchSubject"><rect codeLine="2224" fill="#F1F1F1" height="113.9531" id="CompanyWatchSubject" rx="2.5" ry="2.5" style="stroke:#181818;stroke-width:0.5;" width="269.3662" x="22.32" y="236.4683"/><ellipse cx="75.6471" cy="252.4683" fill="#ADD1B2" rx="11" ry="11" style="stroke:#181818;stroke-width:1;"/><path d="M78.1203,258.6113 Q77.5392,258.9102 76.9001,259.0596 Q76.2609,259.209 75.5554,259.209 Q73.0485,259.209 71.7287,257.5571 Q70.4089,255.9053 70.4089,252.7842 Q70.4089,249.6548 71.7287,248.0029 Q73.0485,246.3511 75.5554,246.3511 Q76.2609,246.3511 76.9084,246.5005 Q77.5558,246.6499 78.1203,246.9488 L78.1203,249.6714 Q77.4894,249.0904 76.8959,248.8206 Q76.3024,248.5508 75.6716,248.5508 Q74.3268,248.5508 73.642,249.6175 Q72.9572,250.6841 72.9572,252.7842 Q72.9572,254.876 73.642,255.9426 Q74.3268,257.0093 75.6716,257.0093 Q76.3024,257.0093 76.8959,256.7395 Q77.4894,256.4697 78.1203,255.8887 Z " fill="#000000"/><text fill="#000000" font-family="sans-serif" font-size="14" lengthAdjust="spacing" textLength="154.2119" x="96.1471" y="257.7593">CompanyWatchSubject</text><line style="stroke:#181818;stroke-width:0.5;" x1="23.32" x2="290.6862" y1="268.4683" y2="268.4683"/><text fill="#000000" font-family="sans-serif" font-size="14" lengthAdjust="spacing" textLength="257.3662" x="28.32" y="286.0034">-listeners: List~JobDiscoveryListener~</text><line style="stroke:#181818;stroke-width:0.5;" x1="23.32" x2="290.6862" y1="292.9566" y2="292.9566"/><text fill="#000000" font-family="sans-serif" font-size="14" lengthAdjust="spacing" textLength="173.6123" x="28.32" y="310.4917">+subscribe(listener): void</text><text fill="#000000" font-family="sans-serif" font-size="14" lengthAdjust="spacing" textLength="190.9893" x="28.32" y="326.98">+unsubscribe(listener): void</text><text fill="#000000" font-family="sans-serif" font-size="14" lengthAdjust="spacing" textLength="230.5146" x="28.32" y="343.4683">+notifyNewJob(job, watchId): void</text></g><!--class JobDiscoveryListener--><g id="elem_JobDiscoveryListener"><rect codeLine="2231" fill="#F1F1F1" height="64.4883" id="JobDiscoveryListener" rx="2.5" ry="2.5" style="stroke:#181818;stroke-width:0.5;" width="295.5957" x="118.2" y="427.4183"/><ellipse cx="191.1497" cy="443.4183" fill="#B4A7E5" rx="11" ry="11" style="stroke:#181818;stroke-width:1;"/><path d="M187.5774,439.6834 L187.5774,437.5252 L194.9568,437.5252 L194.9568,439.6834 L192.4915,439.6834 L192.4915,447.7601 L194.9568,447.7601 L194.9568,449.9183 L187.5774,449.9183 L187.5774,447.7601 L190.0428,447.7601 L190.0428,439.6834 Z " fill="#000000"/><text fill="#000000" font-family="sans-serif" font-size="14" font-style="italic" lengthAdjust="spacing" textLength="141.1963" x="211.6497" y="448.7093">JobDiscoveryListener</text><line style="stroke:#181818;stroke-width:0.5;" x1="119.2" x2="412.7957" y1="459.4183" y2="459.4183"/><line style="stroke:#181818;stroke-width:0.5;" x1="119.2" x2="412.7957" y1="467.4183" y2="467.4183"/><text fill="#000000" font-family="sans-serif" font-size="14" lengthAdjust="spacing" textLength="283.5957" x="124.2" y="484.9534">+onNewJobDiscovered(job, watchId): void</text></g><!--class JobDiscoveryPersistenceListener--><g id="elem_JobDiscoveryPersistenceListener"><rect codeLine="2235" fill="#F1F1F1" height="80.9766" id="JobDiscoveryPersistenceListener" rx="2.5" ry="2.5" style="stroke:#181818;stroke-width:0.5;" width="295.5957" x="108.2" y="78.4883"/><ellipse cx="143.9527" cy="94.4883" fill="#ADD1B2" rx="11" ry="11" style="stroke:#181818;stroke-width:1;"/><path d="M146.4259,100.6313 Q145.8448,100.9302 145.2057,101.0796 Q144.5665,101.229 143.8609,101.229 Q141.3541,101.229 140.0343,99.5771 Q138.7145,97.9253 138.7145,94.8042 Q138.7145,91.6748 140.0343,90.0229 Q141.3541,88.3711 143.8609,88.3711 Q144.5665,88.3711 145.214,88.5205 Q145.8614,88.6699 146.4259,88.9688 L146.4259,91.6914 Q145.795,91.1104 145.2015,90.8406 Q144.608,90.5708 143.9771,90.5708 Q142.6324,90.5708 141.9476,91.6375 Q141.2628,92.7041 141.2628,94.8042 Q141.2628,96.896 141.9476,97.9626 Q142.6324,99.0293 143.9771,99.0293 Q144.608,99.0293 145.2015,98.7595 Q145.795,98.4897 146.4259,97.9087 Z " fill="#000000"/><text fill="#000000" font-family="sans-serif" font-size="14" lengthAdjust="spacing" textLength="217.4785" x="162.5645" y="99.7793">JobDiscoveryPersistenceListener</text><line style="stroke:#181818;stroke-width:0.5;" x1="109.2" x2="402.7957" y1="110.4883" y2="110.4883"/><text fill="#000000" font-family="sans-serif" font-size="14" lengthAdjust="spacing" textLength="230.0293" x="114.2" y="128.0234">-repository: JobPostingRepository</text><line style="stroke:#181818;stroke-width:0.5;" x1="109.2" x2="402.7957" y1="134.9766" y2="134.9766"/><text fill="#000000" font-family="sans-serif" font-size="14" lengthAdjust="spacing" textLength="283.5957" x="114.2" y="152.5117">+onNewJobDiscovered(job, watchId): void</text></g><!--class JobObserverService--><g id="elem_JobObserverService"><rect codeLine="2240" fill="#F1F1F1" height="64.4883" id="JobObserverService" rx="2.5" ry="2.5" style="stroke:#181818;stroke-width:0.5;" width="222.2734" x="446.86" y="261.1983"/><ellipse cx="488.882" cy="277.1983" fill="#ADD1B2" rx="11" ry="11" style="stroke:#181818;stroke-width:1;"/><path d="M491.3551,283.3413 Q490.7741,283.6402 490.1349,283.7896 Q489.4957,283.939 488.7902,283.939 Q486.2833,283.939 484.9635,282.2871 Q483.6437,280.6353 483.6437,277.5142 Q483.6437,274.3848 484.9635,272.7329 Q486.2833,271.0811 488.7902,271.0811 Q489.4957,271.0811 490.1432,271.2305 Q490.7907,271.3799 491.3551,271.6788 L491.3551,274.4014 Q490.7243,273.8204 490.1308,273.5506 Q489.5372,273.2808 488.9064,273.2808 Q487.5617,273.2808 486.8768,274.3475 Q486.192,275.4141 486.192,277.5142 Q486.192,279.606 486.8768,280.6726 Q487.5617,281.7393 488.9064,281.7393 Q489.5372,281.7393 490.1308,281.4695 Q490.7243,281.1997 491.3551,280.6187 Z " fill="#000000"/><text fill="#000000" font-family="sans-serif" font-size="14" lengthAdjust="spacing" textLength="130.2246" x="508.8869" y="282.4893">JobObserverService</text><line style="stroke:#181818;stroke-width:0.5;" x1="447.86" x2="668.1334" y1="293.1983" y2="293.1983"/><line style="stroke:#181818;stroke-width:0.5;" x1="447.86" x2="668.1334" y1="301.1983" y2="301.1983"/><text fill="#000000" font-family="sans-serif" font-size="14" lengthAdjust="spacing" textLength="210.2734" x="452.86" y="318.7334">+pollAllEnabledWatches(): void</text></g><!--class JobPollingScheduler--><g id="elem_JobPollingScheduler"><rect codeLine="2244" fill="#F1F1F1" height="64.4883" id="JobPollingScheduler" rx="2.5" ry="2.5" style="stroke:#181818;stroke-width:0.5;" width="204.5205" x="438.74" y="86.7383"/><ellipse cx="471.1028" cy="102.7383" fill="#ADD1B2" rx="11" ry="11" style="stroke:#181818;stroke-width:1;"/><path d="M473.5759,108.8813 Q472.9949,109.1802 472.3557,109.3296 Q471.7166,109.479 471.011,109.479 Q468.5042,109.479 467.1843,107.8271 Q465.8645,106.1753 465.8645,103.0542 Q465.8645,99.9248 467.1843,98.2729 Q468.5042,96.6211 471.011,96.6211 Q471.7166,96.6211 472.364,96.7705 Q473.0115,96.9199 473.5759,97.2188 L473.5759,99.9414 Q472.9451,99.3604 472.3516,99.0906 Q471.7581,98.8208 471.1272,98.8208 Q469.7825,98.8208 469.0977,99.8875 Q468.4129,100.9541 468.4129,103.0542 Q468.4129,105.146 469.0977,106.2126 Q469.7825,107.2793 471.1272,107.2793 Q471.7581,107.2793 472.3516,107.0095 Q472.9451,106.7397 473.5759,106.1587 Z " fill="#000000"/><text fill="#000000" font-family="sans-serif" font-size="14" lengthAdjust="spacing" textLength="133.9365" x="488.9612" y="108.0293">JobPollingScheduler</text><line style="stroke:#181818;stroke-width:0.5;" x1="439.74" x2="642.2605" y1="118.7383" y2="118.7383"/><line style="stroke:#181818;stroke-width:0.5;" x1="439.74" x2="642.2605" y1="126.7383" y2="126.7383"/><text fill="#000000" font-family="sans-serif" font-size="14" lengthAdjust="spacing" textLength="192.5205" x="444.74" y="144.2734">+pollEnabledWatches(): void</text></g><!--class JobPostingRepository--><g id="elem_JobPostingRepository"><rect fill="#F1F1F1" height="48" id="JobPostingRepository" rx="2.5" ry="2.5" style="stroke:#181818;stroke-width:0.5;" width="176.0674" x="703.97" y="269.4483"/><ellipse cx="718.97" cy="285.4483" fill="#ADD1B2" rx="11" ry="11" style="stroke:#181818;stroke-width:1;"/><path d="M721.4431,291.5913 Q720.8621,291.8902 720.2229,292.0396 Q719.5838,292.189 718.8782,292.189 Q716.3714,292.189 715.0515,290.5371 Q713.7317,288.8853 713.7317,285.7642 Q713.7317,282.6348 715.0515,280.9829 Q716.3714,279.3311 718.8782,279.3311 Q719.5838,279.3311 720.2312,279.4805 Q720.8787,279.6299 721.4431,279.9288 L721.4431,282.6514 Q720.8123,282.0704 720.2188,281.8006 Q719.6253,281.5308 718.9944,281.5308 Q717.6497,281.5308 716.9649,282.5975 Q716.2801,283.6641 716.2801,285.7642 Q716.2801,287.856 716.9649,288.9226 Q717.6497,289.9893 718.9944,289.9893 Q719.6253,289.9893 720.2188,289.7195 Q720.8123,289.4497 721.4431,288.8687 Z " fill="#000000"/><text fill="#000000" font-family="sans-serif" font-size="14" lengthAdjust="spacing" textLength="144.0674" x="732.97" y="290.7393">JobPostingRepository</text><line style="stroke:#181818;stroke-width:0.5;" x1="704.97" x2="879.0374" y1="301.4483" y2="301.4483"/><line style="stroke:#181818;stroke-width:0.5;" x1="704.97" x2="879.0374" y1="309.4483" y2="309.4483"/></g><!--class JobIngestionMediator--><g id="elem_JobIngestionMediator"><rect fill="#F1F1F1" height="48" id="JobIngestionMediator" rx="2.5" ry="2.5" style="stroke:#181818;stroke-width:0.5;" width="176.7373" x="700.63" y="435.6683"/><ellipse cx="715.63" cy="451.6683" fill="#ADD1B2" rx="11" ry="11" style="stroke:#181818;stroke-width:1;"/><path d="M718.1031,457.8113 Q717.5221,458.1102 716.8829,458.2596 Q716.2438,458.409 715.5382,458.409 Q713.0314,458.409 711.7115,456.7571 Q710.3917,455.1053 710.3917,451.9842 Q710.3917,448.8548 711.7115,447.2029 Q713.0314,445.5511 715.5382,445.5511 Q716.2438,445.5511 716.8912,445.7005 Q717.5387,445.8499 718.1031,446.1488 L718.1031,448.8714 Q717.4723,448.2904 716.8788,448.0206 Q716.2853,447.7508 715.6544,447.7508 Q714.3097,447.7508 713.6249,448.8175 Q712.9401,449.8841 712.9401,451.9842 Q712.9401,454.076 713.6249,455.1426 Q714.3097,456.2093 715.6544,456.2093 Q716.2853,456.2093 716.8788,455.9395 Q717.4723,455.6697 718.1031,455.0887 Z " fill="#000000"/><text fill="#000000" font-family="sans-serif" font-size="14" lengthAdjust="spacing" textLength="144.7373" x="729.63" y="456.9593">JobIngestionMediator</text><line style="stroke:#181818;stroke-width:0.5;" x1="701.63" x2="876.3673" y1="467.6683" y2="467.6683"/><line style="stroke:#181818;stroke-width:0.5;" x1="701.63" x2="876.3673" y1="475.6683" y2="475.6683"/></g><!--link JobDiscoveryPersistenceListener to JobDiscoveryListener--><g id="link_JobDiscoveryPersistenceListener_JobDiscoveryListener"><path codeLine="2249" d="M332.5,159.9283 C342.35,168.3383 351.06,178.1683 357,189.4683 C399.59,270.4683 343.7155,361.2079 303.6255,412.8679 " fill="none" id="JobDiscoveryPersistenceListener-to-JobDiscoveryListener" style="stroke:#181818;stroke-width:1;stroke-dasharray:7.0,7.0;"/><polygon fill="none" points="292.59,427.0883,308.3656,416.5464,298.8854,409.1894,292.59,427.0883" style="stroke:#181818;stroke-width:1;"/><text fill="#000000" font-family="sans-serif" font-size="13" lengthAdjust="spacing" textLength="48.5786" x="371.67" y="298.5166">realizes</text></g><!--link CompanyWatchSubject to JobDiscoveryListener--><g id="link_CompanyWatchSubject_JobDiscoveryListener"><path codeLine="2250" d="M200.8448,360.4973 C217.8648,386.1473 227.4419,400.5692 241.8319,422.2492 " fill="none" id="CompanyWatchSubject-JobDiscoveryListener" style="stroke:#181818;stroke-width:1;"/><polygon fill="none" points="194.21,350.4983,194.1944,357.7094,200.8448,360.4973,200.8604,353.2862,194.21,350.4983" style="stroke:#181818;stroke-width:1;"/><polygon fill="#181818" points="245.15,427.2483,243.5056,417.5377,242.3849,423.0824,236.8402,421.9618,245.15,427.2483" style="stroke:#181818;stroke-width:1;"/><text fill="#000000" font-family="sans-serif" font-size="13" lengthAdjust="spacing" textLength="47.0806" x="225.47" y="393.9866">notifies</text><text fill="#000000" font-family="sans-serif" font-size="13" lengthAdjust="spacing" textLength="8.2202" x="190.2705" y="370.953">1</text><text fill="#000000" font-family="sans-serif" font-size="13" lengthAdjust="spacing" textLength="22.7119" x="216.6548" y="416.6164">0..*</text></g><!--link JobDiscoveryPersistenceListener to JobPostingRepository--><g id="link_JobDiscoveryPersistenceListener_JobPostingRepository"><path codeLine="2251" d="M404.22,156.4283 C409.88,157.5083 415.48,158.5283 421,159.4683 C484.87,170.3683 654.26,158.1983 711,189.4683 C743.67,207.4683 764.8878,239.3788 777.9578,263.7888 " fill="none" id="JobDiscoveryPersistenceListener-to-JobPostingRepository" style="stroke:#181818;stroke-width:1;"/><polygon fill="#181818" points="780.79,269.0783,780.068,259.2559,778.4298,264.6704,773.0154,263.0322,780.79,269.0783" style="stroke:#181818;stroke-width:1;"/><text fill="#000000" font-family="sans-serif" font-size="13" lengthAdjust="spacing" textLength="103.835" x="734.83" y="203.0366">persists through</text><text fill="#000000" font-family="sans-serif" font-size="13" lengthAdjust="spacing" textLength="8.2202" x="411.5986" y="155.4549">1</text><text fill="#000000" font-family="sans-serif" font-size="13" lengthAdjust="spacing" textLength="8.2202" x="768.9197" y="258.5197">1</text></g><!--link JobPollingScheduler to JobObserverService--><g id="link_JobPollingScheduler_JobObserverService"><path codeLine="2252" d="M544.12,151.6083 C547.18,182.6283 551.2215,223.6972 554.2815,254.7472 " fill="none" id="JobPollingScheduler-to-JobObserverService" style="stroke:#181818;stroke-width:1;"/><polygon fill="#181818" points="554.87,260.7183,557.968,251.3694,554.3796,255.7424,550.0066,252.154,554.87,260.7183" style="stroke:#181818;stroke-width:1;"/><text fill="#000000" font-family="sans-serif" font-size="13" lengthAdjust="spacing" textLength="151.9058" x="550.5" y="203.0366">triggers scheduled polls</text><text fill="#000000" font-family="sans-serif" font-size="13" lengthAdjust="spacing" textLength="8.2202" x="535.9732" y="171.8552">1</text><text fill="#000000" font-family="sans-serif" font-size="13" lengthAdjust="spacing" textLength="8.2202" x="545.4886" y="250.3981">1</text></g><!--link JobObserverService to JobIngestionMediator--><g id="link_JobObserverService_JobIngestionMediator"><path codeLine="2253" d="M602.54,326.1083 C647.51,358.0783 711.0201,403.2213 751.2701,431.8413 " fill="none" id="JobObserverService-to-JobIngestionMediator" style="stroke:#181818;stroke-width:1;"/><polygon fill="#181818" points="756.16,435.3183,751.1432,426.8429,752.0851,432.4208,746.5072,433.3627,756.16,435.3183" style="stroke:#181818;stroke-width:1;"/><text fill="#000000" font-family="sans-serif" font-size="13" lengthAdjust="spacing" textLength="136.4556" x="701.98" y="393.9866">coordinates ingestion</text><text fill="#000000" font-family="sans-serif" font-size="13" lengthAdjust="spacing" textLength="8.2202" x="602.2896" y="346.3629">1</text><text fill="#000000" font-family="sans-serif" font-size="13" lengthAdjust="spacing" textLength="8.2202" x="738.7483" y="424.7649">1</text></g><!--link JobDiscoveryPersistenceListener to CompanyWatchSubject--><g id="link_JobDiscoveryPersistenceListener_CompanyWatchSubject"><path codeLine="2254" d="M232.23,159.9483 C226.55,169.5883 220.53,179.8783 215,189.4683 C206.29,204.5783 199.9168,215.7818 191.3468,230.9818 " fill="none" id="JobDiscoveryPersistenceListener-to-CompanyWatchSubject" style="stroke:#181818;stroke-width:1;"/><polygon fill="#181818" points="188.4,236.2083,196.3045,230.333,190.8557,231.8529,189.3358,226.404,188.4,236.2083" style="stroke:#181818;stroke-width:1;"/><text fill="#000000" font-family="sans-serif" font-size="13" lengthAdjust="spacing" textLength="136.6714" x="216" y="203.0366">subscribes on startup</text><text fill="#000000" font-family="sans-serif" font-size="13" lengthAdjust="spacing" textLength="8.2202" x="219.9949" y="179.9626">1</text><text fill="#000000" font-family="sans-serif" font-size="13" lengthAdjust="spacing" textLength="8.2202" x="183.7524" y="225.9058">1</text></g><!--SRC=[fPDFJ-D03CNl-HHMJjs5L73D0GdjSYW2jg87pfE9IGU6SJHsGDrb-UmuVrfG5AWGboYAdtzvVkCH9nxXJy4O7p72qeXW39315Jx1EHNmsx4bBMtWYiJTEcl4KU24xrseJJGFOBrXFXM9hcW45vR2olr5E4gIsjXxKo6aOtuA_nBe6-4NFTGcR6wCsFMgAUxGIbS5oBnZmO2HSxZGrnVrixDpCTHUEka1DmLRTO2pRTEF71x9bNsv2Ni4eHrkeqFhFsPtL1p2KsjeKRwf_YVwS47ztngBC6LcC7v0eITj1LX-nknpUCzRwimTqk88dKMiYPrGtEHjov9ONAYkTr-_PM1xJYjzEfrn6AScxq-zFmkcy5Xs9uKy-mYoLBLQMgceRFnRA2tb4uH2zaKmdp-VJEUUGqJZTUqucTgdz3W5oh8JI8_cyv_fHunk2PmozXbfUHtkE9qy16NLVHk3h2CrrJgPIcR46SUVWrwggb8IyD1JGXjZvt2i7i4MeK9kx-ebbiweAyLPebYwO0HPDtceVsdQgNHps5qk1Wh0Og8qTV8A]--></g></svg>