<svg xmlns="http://www.w3.org/2000/svg" xmlns:xlink="http://www.w3.org/1999/xlink" contentStyleType="text/css" height="661px" preserveAspectRatio="none" style="width:1856px;height:661px;background:#FFFFFF;" version="1.1" viewBox="0 0 1856 661" width="1856px" zoomAndPan="magnify"><title>Application Tracker Flow - State Pattern</title><defs/><g><text fill="#000000" font-family="sans-serif" font-size="14" font-weight="bold" lengthAdjust="spacing" textLength="290.4727" x="782.0737" y="28.5352">Application Tracker Flow - State Pattern</text><rect fill="none" height="75.9316" style="stroke:#000000;stroke-width:1.5;" width="370.9961" x="1348.0938" y="399.7715"/><line style="stroke:#181818;stroke-width:0.5;stroke-dasharray:5.0,5.0;" x1="23" x2="23" y1="118.9766" y2="580.6348"/><line style="stroke:#181818;stroke-width:0.5;stroke-dasharray:5.0,5.0;" x1="193.9604" x2="193.9604" y1="118.9766" y2="580.6348"/><line style="stroke:#181818;stroke-width:0.5;stroke-dasharray:5.0,5.0;" x1="437.3511" x2="437.3511" y1="118.9766" y2="580.6348"/><line style="stroke:#181818;stroke-width:0.5;stroke-dasharray:5.0,5.0;" x1="717.9058" x2="717.9058" y1="118.9766" y2="580.6348"/><line style="stroke:#181818;stroke-width:0.5;stroke-dasharray:5.0,5.0;" x1="1013.6855" x2="1013.6855" y1="118.9766" y2="580.6348"/><line style="stroke:#181818;stroke-width:0.5;stroke-dasharray:5.0,5.0;" x1="1269.0264" x2="1269.0264" y1="118.9766" y2="580.6348"/><line style="stroke:#181818;stroke-width:0.5;stroke-dasharray:5.0,5.0;" x1="1455.0938" x2="1455.0938" y1="118.9766" y2="580.6348"/><line style="stroke:#181818;stroke-width:0.5;stroke-dasharray:5.0,5.0;" x1="1646.6963" x2="1646.6963" y1="118.9766" y2="580.6348"/><line style="stroke:#181818;stroke-width:0.5;stroke-dasharray:5.0,5.0;" x1="1784.0898" x2="1784.0898" y1="118.9766" y2="580.6348"/><text fill="#000000" font-family="sans-serif" font-size="14" lengthAdjust="spacing" textLength="30.3652" x="5" y="116.0234">User</text><ellipse cx="23.1826" cy="50.9883" fill="#E2E2F0" rx="8" ry="8" style="stroke:#181818;stroke-width:0.5;"/><path d="M23.1826,58.9883 L23.1826,85.9883 M10.1826,66.9883 L36.1826,66.9883 M23.1826,85.9883 L10.1826,100.9883 M23.1826,85.9883 L36.1826,100.9883 " fill="none" style="stroke:#181818;stroke-width:0.5;"/><text fill="#000000" font-family="sans-serif" font-size="14" lengthAdjust="spacing" textLength="30.3652" x="5" y="593.1699">User</text><ellipse cx="23.1826" cy="604.623" fill="#E2E2F0" rx="8" ry="8" style="stroke:#181818;stroke-width:0.5;"/><path d="M23.1826,612.623 L23.1826,639.623 M10.1826,620.623 L36.1826,620.623 M23.1826,639.623 L10.1826,654.623 M23.1826,639.623 L36.1826,654.623 " fill="none" style="stroke:#181818;stroke-width:0.5;"/><rect fill="#E2E2F0" height="30.4883" rx="2.5" ry="2.5" style="stroke:#181818;stroke-width:0.5;" width="122.582" x="132.9604" y="87.4883"/><text fill="#000000" font-family="sans-serif" font-size="14" lengthAdjust="spacing" textLength="108.582" x="139.9604" y="108.0234">TrackerPage.tsx</text><rect fill="#E2E2F0" height="30.4883" rx="2.5" ry="2.5" style="stroke:#181818;stroke-width:0.5;" width="122.582" x="132.9604" y="579.6348"/><text fill="#000000" font-family="sans-serif" font-size="14" lengthAdjust="spacing" textLength="108.582" x="139.9604" y="600.1699">TrackerPage.tsx</text><rect fill="#E2E2F0" height="30.4883" rx="2.5" ry="2.5" style="stroke:#181818;stroke-width:0.5;" width="87.541" x="394.3511" y="87.4883"/><text fill="#000000" font-family="sans-serif" font-size="14" lengthAdjust="spacing" textLength="73.541" x="401.3511" y="108.0234">api/jobs.ts</text><rect fill="#E2E2F0" height="30.4883" rx="2.5" ry="2.5" style="stroke:#181818;stroke-width:0.5;" width="87.541" x="394.3511" y="579.6348"/><text fill="#000000" font-family="sans-serif" font-size="14" lengthAdjust="spacing" textLength="73.541" x="401.3511" y="600.1699">api/jobs.ts</text><rect fill="#E2E2F0" height="30.4883" rx="2.5" ry="2.5" style="stroke:#181818;stroke-width:0.5;" width="210.2051" x="612.9058" y="87.4883"/><text fill="#000000" font-family="sans-serif" font-size="14" lengthAdjust="spacing" textLength="196.2051" x="619.9058" y="108.0234">ApplicationTrackerController</text><rect fill="#E2E2F0" height="30.4883" rx="2.5" ry="2.5" style="stroke:#181818;stroke-width:0.5;" width="210.2051" x="612.9058" y="579.6348"/><text fill="#000000" font-family="sans-serif" font-size="14" lengthAdjust="spacing" textLength="196.2051" x="619.9058" y="600.1699">ApplicationTrackerController</text><rect fill="#E2E2F0" height="30.4883" rx="2.5" ry="2.5" style="stroke:#181818;stroke-width:0.5;" width="189.376" x="919.6855" y="87.4883"/><text fill="#000000" font-family="sans-serif" font-size="14" lengthAdjust="spacing" textLength="175.376" x="926.6855" y="108.0234">ApplicationTrackerService</text><rect fill="#E2E2F0" height="30.4883" rx="2.5" ry="2.5" style="stroke:#181818;stroke-width:0.5;" width="189.376" x="919.6855" y="579.6348"/><text fill="#000000" font-family="sans-serif" font-size="14" lengthAdjust="spacing" textLength="175.376" x="926.6855" y="600.1699">ApplicationTrackerService</text><rect fill="#E2E2F0" height="30.4883" rx="2.5" ry="2.5" style="stroke:#181818;stroke-width:0.5;" width="158.0674" x="1190.0264" y="87.4883"/><text fill="#000000" font-family="sans-serif" font-size="14" lengthAdjust="spacing" textLength="144.0674" x="1197.0264" y="108.0234">JobPostingRepository</text><rect fill="#E2E2F0" height="30.4883" rx="2.5" ry="2.5" style="stroke:#181818;stroke-width:0.5;" width="158.0674" x="1190.0264" y="579.6348"/><text fill="#000000" font-family="sans-serif" font-size="14" lengthAdjust="spacing" textLength="144.0674" x="1197.0264" y="600.1699">JobPostingRepository</text><rect fill="#E2E2F0" height="46.9766" rx="2.5" ry="2.5" style="stroke:#181818;stroke-width:0.5;" width="195.877" x="1358.0938" y="71"/><text fill="#000000" font-family="sans-serif" font-size="14" lengthAdjust="spacing" textLength="181.877" x="1365.0938" y="91.5352">ApplicationTrackerContext</text><text fill="#000000" font-family="sans-serif" font-size="14" lengthAdjust="spacing" textLength="106.4766" x="1402.7939" y="108.0234">&#171;State Context&#187;</text><rect fill="#E2E2F0" height="46.9766" rx="2.5" ry="2.5" style="stroke:#181818;stroke-width:0.5;" width="195.877" x="1358.0938" y="579.6348"/><text fill="#000000" font-family="sans-serif" font-size="14" lengthAdjust="spacing" textLength="181.877" x="1365.0938" y="600.1699">ApplicationTrackerContext</text><text fill="#000000" font-family="sans-serif" font-size="14" lengthAdjust="spacing" textLength="106.4766" x="1402.7939" y="616.6582">&#171;State Context&#187;</text><rect fill="#E2E2F0" height="46.9766" rx="2.5" ry="2.5" style="stroke:#181818;stroke-width:0.5;" width="124.3936" x="1584.6963" y="71"/><text fill="#000000" font-family="sans-serif" font-size="14" lengthAdjust="spacing" textLength="110.3936" x="1591.6963" y="91.5352">ApplicationState</text><text fill="#000000" font-family="sans-serif" font-size="14" lengthAdjust="spacing" textLength="48.2139" x="1622.7861" y="108.0234">&#171;State&#187;</text><rect fill="#E2E2F0" height="46.9766" rx="2.5" ry="2.5" style="stroke:#181818;stroke-width:0.5;" width="124.3936" x="1584.6963" y="579.6348"/><text fill="#000000" font-family="sans-serif" font-size="14" lengthAdjust="spacing" textLength="110.3936" x="1591.6963" y="600.1699">ApplicationState</text><text fill="#000000" font-family="sans-serif" font-size="14" lengthAdjust="spacing" textLength="48.2139" x="1622.7861" y="616.6582">&#171;State&#187;</text><rect fill="#E2E2F0" height="30.4883" rx="2.5" ry="2.5" style="stroke:#181818;stroke-width:0.5;" width="131.5303" x="1719.0898" y="87.4883"/><text fill="#000000" font-family="sans-serif" font-size="14" lengthAdjust="spacing" textLength="117.5303" x="1726.0898" y="108.0234">ApplicationStates</text><rect fill="#E2E2F0" height="30.4883" rx="2.5" ry="2.5" style="stroke:#181818;stroke-width:0.5;" width="131.5303" x="1719.0898" y="579.6348"/><text fill="#000000" font-family="sans-serif" font-size="14" lengthAdjust="spacing" textLength="117.5303" x="1726.0898" y="600.1699">ApplicationStates</text><polygon fill="#181818" points="182.2515,146.2871,192.2515,150.2871,182.2515,154.2871,186.2515,150.2871" style="stroke:#181818;stroke-width:1;"/><line style="stroke:#181818;stroke-width:1;" x1="23.1826" x2="188.2515" y1="150.2871" y2="150.2871"/><text fill="#000000" font-family="sans-serif" font-size="13" lengthAdjust="spacing" textLength="147.0688" x="30.1826" y="145.5449">move job to new status</text><polygon fill="#181818" points="426.1216,175.5977,436.1216,179.5977,426.1216,183.5977,430.1216,179.5977" style="stroke:#181818;stroke-width:1;"/><line style="stroke:#181818;stroke-width:1;" x1="194.2515" x2="432.1216" y1="179.5977" y2="179.5977"/><text fill="#000000" font-family="sans-serif" font-size="13" lengthAdjust="spacing" textLength="219.8701" x="201.2515" y="174.8555">updateApplicationStatus(id, target)</text><polygon fill="#181818" points="706.0083,204.9082,716.0083,208.9082,706.0083,212.9082,710.0083,208.9082" style="stroke:#181818;stroke-width:1;"/><line style="stroke:#181818;stroke-width:1;" x1="438.1216" x2="712.0083" y1="208.9082" y2="208.9082"/><text fill="#000000" font-family="sans-serif" font-size="13" lengthAdjust="spacing" textLength="255.8867" x="445.1216" y="204.166">PATCH /api/jobs/{id}/application-status</text><polygon fill="#181818" points="1002.3735,234.2188,1012.3735,238.2188,1002.3735,242.2188,1006.3735,238.2188" style="stroke:#181818;stroke-width:1;"/><line style="stroke:#181818;stroke-width:1;" x1="718.0083" x2="1008.3735" y1="238.2188" y2="238.2188"/><text fill="#000000" font-family="sans-serif" font-size="13" lengthAdjust="spacing" textLength="272.3652" x="725.0083" y="233.4766">updateStatus(id, principal, request.status())</text><polygon fill="#181818" points="1257.0601,263.5293,1267.0601,267.5293,1257.0601,271.5293,1261.0601,267.5293" style="stroke:#181818;stroke-width:1;"/><line style="stroke:#181818;stroke-width:1;" x1="1014.3735" x2="1263.0601" y1="267.5293" y2="267.5293"/><text fill="#000000" font-family="sans-serif" font-size="13" lengthAdjust="spacing" textLength="71.3794" x="1021.3735" y="262.7871">findById(id)</text><polygon fill="#181818" points="1444.0322,292.8398,1454.0322,296.8398,1444.0322,300.8398,1448.0322,296.8398" style="stroke:#181818;stroke-width:1;"/><line style="stroke:#181818;stroke-width:1;" x1="1014.3735" x2="1450.0322" y1="296.8398" y2="296.8398"/><text fill="#000000" font-family="sans-serif" font-size="13" lengthAdjust="spacing" textLength="161.4146" x="1021.3735" y="292.0977">fromStatus(currentStatus)</text><polygon fill="#181818" points="1772.855,322.1504,1782.855,326.1504,1772.855,330.1504,1776.855,326.1504" style="stroke:#181818;stroke-width:1;"/><line style="stroke:#181818;stroke-width:1;" x1="1456.0322" x2="1778.855" y1="326.1504" y2="326.1504"/><text fill="#000000" font-family="sans-serif" font-size="13" lengthAdjust="spacing" textLength="122.8145" x="1463.0322" y="321.4082">from(currentStatus)</text><polygon fill="#181818" points="1467.0322,351.4609,1457.0322,355.4609,1467.0322,359.4609,1463.0322,355.4609" style="stroke:#181818;stroke-width:1;"/><line style="stroke:#181818;stroke-width:1;stroke-dasharray:2.0,2.0;" x1="1461.0322" x2="1783.855" y1="355.4609" y2="355.4609"/><text fill="#000000" font-family="sans-serif" font-size="13" lengthAdjust="spacing" textLength="229.0234" x="1473.0322" y="350.7188">New/Viewed/Applied/Rejected state</text><polygon fill="#181818" points="1444.0322,380.7715,1454.0322,384.7715,1444.0322,388.7715,1448.0322,384.7715" style="stroke:#181818;stroke-width:1;"/><line style="stroke:#181818;stroke-width:1;" x1="1014.3735" x2="1450.0322" y1="384.7715" y2="384.7715"/><text fill="#000000" font-family="sans-serif" font-size="13" lengthAdjust="spacing" textLength="122.7192" x="1021.3735" y="380.0293">transitionTo(target)</text><path d="M1348.0938,399.7715 L1422.5405,399.7715 L1422.5405,407.082 L1412.5405,417.082 L1348.0938,417.082 L1348.0938,399.7715 " fill="#EEEEEE" style="stroke:#000000;stroke-width:1.5;"/><rect fill="none" height="75.9316" style="stroke:#000000;stroke-width:1.5;" width="370.9961" x="1348.0938" y="399.7715"/><text fill="#000000" font-family="sans-serif" font-size="13" font-weight="bold" lengthAdjust="spacing" textLength="29.4468" x="1363.0938" y="413.3398">loop</text><text fill="#000000" font-family="sans-serif" font-size="11" font-weight="bold" lengthAdjust="spacing" textLength="248.9126" x="1437.5405" y="412.4063">[until target reached or correction required]</text><polygon fill="#181818" points="1634.8931,434.3926,1644.8931,438.3926,1634.8931,442.3926,1638.8931,438.3926" style="stroke:#181818;stroke-width:1;"/><line style="stroke:#181818;stroke-width:1;" x1="1456.0322" x2="1640.8931" y1="438.3926" y2="438.3926"/><text fill="#000000" font-family="sans-serif" font-size="13" lengthAdjust="spacing" textLength="166.8608" x="1463.0322" y="433.6504">view/apply/reject(context)</text><polygon fill="#181818" points="1467.0322,463.7031,1457.0322,467.7031,1467.0322,471.7031,1463.0322,467.7031" style="stroke:#181818;stroke-width:1;"/><line style="stroke:#181818;stroke-width:1;" x1="1461.0322" x2="1645.8931" y1="467.7031" y2="467.7031"/><text fill="#000000" font-family="sans-serif" font-size="13" lengthAdjust="spacing" textLength="117.6284" x="1473.0322" y="462.9609">setState(nextState)</text><polygon fill="#181818" points="1257.0601,500.0137,1267.0601,504.0137,1257.0601,508.0137,1261.0601,504.0137" style="stroke:#181818;stroke-width:1;"/><line style="stroke:#181818;stroke-width:1;" x1="1014.3735" x2="1263.0601" y1="504.0137" y2="504.0137"/><text fill="#000000" font-family="sans-serif" font-size="13" lengthAdjust="spacing" textLength="230.6865" x="1021.3735" y="499.2715">save(job with new ApplicationStatus)</text><polygon fill="#181818" points="729.0083,529.3242,719.0083,533.3242,729.0083,537.3242,725.0083,533.3242" style="stroke:#181818;stroke-width:1;"/><line style="stroke:#181818;stroke-width:1;stroke-dasharray:2.0,2.0;" x1="723.0083" x2="1013.3735" y1="533.3242" y2="533.3242"/><text fill="#000000" font-family="sans-serif" font-size="13" lengthAdjust="spacing" textLength="126.9976" x="735.0083" y="528.582">JobPostingResponse</text><polygon fill="#181818" points="205.2515,558.6348,195.2515,562.6348,205.2515,566.6348,201.2515,562.6348" style="stroke:#181818;stroke-width:1;"/><line style="stroke:#181818;stroke-width:1;stroke-dasharray:2.0,2.0;" x1="199.2515" x2="717.0083" y1="562.6348" y2="562.6348"/><text fill="#000000" font-family="sans-serif" font-size="13" lengthAdjust="spacing" textLength="76.1338" x="211.2515" y="557.8926">updated job</text><!--SRC=[ZLDDRzim3BthLn0zsK1JtuSYG5QWw7OOWdxij8iciQawLz8aEcvGxB-FakN4Jjkj9uloUu_a8qM6MeILzwrHaeopS1ka-eK1BblNmm9kI1B2MX9Xi48gSW7k8WRXPI2ZZ9UMuAIGrdA3PnIVJq16cDpDmTARvj7zZ8pCm9KtNpcSWoOb5Q4BPocujiMGMOVmVyGR35kZCBFAUKxXx6iNoTZDDNeN3VUuosZ-aMu-KXa-qmzxVZxOLIwMotsb7BshaZbxSY7byxyfyG2CGgIXm68vjHq-mPFR8h3PG0uizX0PtKKn1J6dJ83ndTSiTvIfYvNHfq0oR91gCQAPU1W2SzUhsuihQCRnDYz6_-5eBxKeoISabYWJsUUU9FJ1sDHyUme1VtSOwMoGgEfQZ3oMA6DYYNjZzUVT5ytq6QAC8262UoefL1S2MXgYMeoOL5FsjA2FSUNdOYRx3Vlcky4UTPFDu-yrFg8YrDbpVBiQ2jBolgLLSjNeR-kSXywIQOlbtBrK3wp4RqyvBaRbbveyCG6r03YkdQMtN4rsVzU4N4cb1b3D-04qAoLYxX0hot4-rGAjVjldABTOfRNg3JtanNgrCXF_ZnTb-jwYTpRYR2TUBV6m63hjyLy0]--></g></svg>