<svg xmlns="http://www.w3.org/2000/svg" xmlns:xlink="http://www.w3.org/1999/xlink" contentStyleType="text/css" height="616px" preserveAspectRatio="none" style="width:1348px;height:616px;background:#FFFFFF;" version="1.1" viewBox="0 0 1348 616" width="1348px" zoomAndPan="magnify"><title>Frontend Data Loading - Context as UI Observer/Provider</title><defs/><g><text fill="#000000" font-family="sans-serif" font-size="14" font-weight="bold" lengthAdjust="spacing" textLength="418.6328" x="464.1196" y="28.5352">Frontend Data Loading - Context as UI Observer/Provider</text><line style="stroke:#181818;stroke-width:0.5;stroke-dasharray:5.0,5.0;" x1="23" x2="23" y1="118.9766" y2="535.3242"/><line style="stroke:#181818;stroke-width:0.5;stroke-dasharray:5.0,5.0;" x1="105.8545" x2="105.8545" y1="118.9766" y2="535.3242"/><line style="stroke:#181818;stroke-width:0.5;stroke-dasharray:5.0,5.0;" x1="233.7124" x2="233.7124" y1="118.9766" y2="535.3242"/><line style="stroke:#181818;stroke-width:0.5;stroke-dasharray:5.0,5.0;" x1="456.0713" x2="456.0713" y1="118.9766" y2="535.3242"/><line style="stroke:#181818;stroke-width:0.5;stroke-dasharray:5.0,5.0;" x1="564.5605" x2="564.5605" y1="118.9766" y2="535.3242"/><line style="stroke:#181818;stroke-width:0.5;stroke-dasharray:5.0,5.0;" x1="651.2314" x2="651.2314" y1="118.9766" y2="535.3242"/><line style="stroke:#181818;stroke-width:0.5;stroke-dasharray:5.0,5.0;" x1="761.7725" x2="761.7725" y1="118.9766" y2="535.3242"/><line style="stroke:#181818;stroke-width:0.5;stroke-dasharray:5.0,5.0;" x1="887.0576" x2="887.0576" y1="118.9766" y2="535.3242"/><line style="stroke:#181818;stroke-width:0.5;stroke-dasharray:5.0,5.0;" x1="999.1523" x2="999.1523" y1="118.9766" y2="535.3242"/><line style="stroke:#181818;stroke-width:0.5;stroke-dasharray:5.0,5.0;" x1="1198.0449" x2="1198.0449" y1="118.9766" y2="535.3242"/><text fill="#000000" font-family="sans-serif" font-size="14" lengthAdjust="spacing" textLength="30.3652" x="5" y="116.0234">User</text><ellipse cx="23.1826" cy="50.9883" fill="#E2E2F0" rx="8" ry="8" style="stroke:#181818;stroke-width:0.5;"/><path d="M23.1826,58.9883 L23.1826,85.9883 M10.1826,66.9883 L36.1826,66.9883 M23.1826,85.9883 L10.1826,100.9883 M23.1826,85.9883 L36.1826,100.9883 " fill="none" style="stroke:#181818;stroke-width:0.5;"/><text fill="#000000" font-family="sans-serif" font-size="14" lengthAdjust="spacing" textLength="30.3652" x="5" y="547.8594">User</text><ellipse cx="23.1826" cy="559.3125" fill="#E2E2F0" rx="8" ry="8" style="stroke:#181818;stroke-width:0.5;"/><path d="M23.1826,567.3125 L23.1826,594.3125 M10.1826,575.3125 L36.1826,575.3125 M23.1826,594.3125 L10.1826,609.3125 M23.1826,594.3125 L36.1826,609.3125 " fill="none" style="stroke:#181818;stroke-width:0.5;"/><rect fill="#E2E2F0" height="30.4883" rx="2.5" ry="2.5" style="stroke:#181818;stroke-width:0.5;" width="72.9258" x="69.8545" y="87.4883"/><text fill="#000000" font-family="sans-serif" font-size="14" lengthAdjust="spacing" textLength="58.9258" x="76.8545" y="108.0234">main.tsx</text><rect fill="#E2E2F0" height="30.4883" rx="2.5" ry="2.5" style="stroke:#181818;stroke-width:0.5;" width="72.9258" x="69.8545" y="534.3242"/><text fill="#000000" font-family="sans-serif" font-size="14" lengthAdjust="spacing" textLength="58.9258" x="76.8545" y="554.8594">main.tsx</text><rect fill="#E2E2F0" height="30.4883" rx="2.5" ry="2.5" style="stroke:#181818;stroke-width:0.5;" width="101.9717" x="183.7124" y="87.4883"/><text fill="#000000" font-family="sans-serif" font-size="14" lengthAdjust="spacing" textLength="87.9717" x="190.7124" y="108.0234">AuthProvider</text><rect fill="#E2E2F0" height="30.4883" rx="2.5" ry="2.5" style="stroke:#181818;stroke-width:0.5;" width="101.9717" x="183.7124" y="534.3242"/><text fill="#000000" font-family="sans-serif" font-size="14" lengthAdjust="spacing" textLength="87.9717" x="190.7124" y="554.8594">AuthProvider</text><rect fill="#E2E2F0" height="30.4883" rx="2.5" ry="2.5" style="stroke:#181818;stroke-width:0.5;" width="128.167" x="392.0713" y="87.4883"/><text fill="#000000" font-family="sans-serif" font-size="14" lengthAdjust="spacing" textLength="114.167" x="399.0713" y="108.0234">AppDataProvider</text><rect fill="#E2E2F0" height="30.4883" rx="2.5" ry="2.5" style="stroke:#181818;stroke-width:0.5;" width="128.167" x="392.0713" y="534.3242"/><text fill="#000000" font-family="sans-serif" font-size="14" lengthAdjust="spacing" textLength="114.167" x="399.0713" y="554.8594">AppDataProvider</text><rect fill="#E2E2F0" height="30.4883" rx="2.5" ry="2.5" style="stroke:#181818;stroke-width:0.5;" width="66.6709" x="531.5605" y="87.4883"/><text fill="#000000" font-family="sans-serif" font-size="14" lengthAdjust="spacing" textLength="52.6709" x="538.5605" y="108.0234">App.tsx</text><rect fill="#E2E2F0" height="30.4883" rx="2.5" ry="2.5" style="stroke:#181818;stroke-width:0.5;" width="66.6709" x="531.5605" y="534.3242"/><text fill="#000000" font-family="sans-serif" font-size="14" lengthAdjust="spacing" textLength="52.6709" x="538.5605" y="554.8594">App.tsx</text><rect fill="#E2E2F0" height="30.4883" rx="2.5" ry="2.5" style="stroke:#181818;stroke-width:0.5;" width="87.541" x="608.2314" y="87.4883"/><text fill="#000000" font-family="sans-serif" font-size="14" lengthAdjust="spacing" textLength="73.541" x="615.2314" y="108.0234">api/jobs.ts</text><rect fill="#E2E2F0" height="30.4883" rx="2.5" ry="2.5" style="stroke:#181818;stroke-width:0.5;" width="87.541" x="608.2314" y="534.3242"/><text fill="#000000" font-family="sans-serif" font-size="14" lengthAdjust="spacing" textLength="73.541" x="615.2314" y="554.8594">api/jobs.ts</text><rect fill="#E2E2F0" height="30.4883" rx="2.5" ry="2.5" style="stroke:#181818;stroke-width:0.5;" width="113.2852" x="705.7725" y="87.4883"/><text fill="#000000" font-family="sans-serif" font-size="14" lengthAdjust="spacing" textLength="99.2852" x="712.7725" y="108.0234">api/watches.ts</text><rect fill="#E2E2F0" height="30.4883" rx="2.5" ry="2.5" style="stroke:#181818;stroke-width:0.5;" width="113.2852" x="705.7725" y="534.3242"/><text fill="#000000" font-family="sans-serif" font-size="14" lengthAdjust="spacing" textLength="99.2852" x="712.7725" y="554.8594">api/watches.ts</text><rect fill="#E2E2F0" height="30.4883" rx="2.5" ry="2.5" style="stroke:#181818;stroke-width:0.5;" width="116.0947" x="829.0576" y="87.4883"/><text fill="#000000" font-family="sans-serif" font-size="14" lengthAdjust="spacing" textLength="102.0947" x="836.0576" y="108.0234">api/resumes.ts</text><rect fill="#E2E2F0" height="30.4883" rx="2.5" ry="2.5" style="stroke:#181818;stroke-width:0.5;" width="116.0947" x="829.0576" y="534.3242"/><text fill="#000000" font-family="sans-serif" font-size="14" lengthAdjust="spacing" textLength="102.0947" x="836.0576" y="554.8594">api/resumes.ts</text><rect fill="#E2E2F0" height="30.4883" rx="2.5" ry="2.5" style="stroke:#181818;stroke-width:0.5;" width="89.8926" x="955.1523" y="87.4883"/><text fill="#000000" font-family="sans-serif" font-size="14" lengthAdjust="spacing" textLength="75.8926" x="962.1523" y="108.0234">mappers.ts</text><rect fill="#E2E2F0" height="30.4883" rx="2.5" ry="2.5" style="stroke:#181818;stroke-width:0.5;" width="89.8926" x="955.1523" y="534.3242"/><text fill="#000000" font-family="sans-serif" font-size="14" lengthAdjust="spacing" textLength="75.8926" x="962.1523" y="554.8594">mappers.ts</text><rect fill="#E2E2F0" height="30.4883" rx="2.5" ry="2.5" style="stroke:#181818;stroke-width:0.5;" width="287.8271" x="1055.0449" y="87.4883"/><text fill="#000000" font-family="sans-serif" font-size="14" lengthAdjust="spacing" textLength="273.8271" x="1062.0449" y="108.0234">Dashboard/Jobs/Tracker/Settings Pages</text><rect fill="#E2E2F0" height="30.4883" rx="2.5" ry="2.5" style="stroke:#181818;stroke-width:0.5;" width="287.8271" x="1055.0449" y="534.3242"/><text fill="#000000" font-family="sans-serif" font-size="14" lengthAdjust="spacing" textLength="273.8271" x="1062.0449" y="554.8594">Dashboard/Jobs/Tracker/Settings Pages</text><polygon fill="#181818" points="94.3174,146.2871,104.3174,150.2871,94.3174,154.2871,98.3174,150.2871" style="stroke:#181818;stroke-width:1;"/><line style="stroke:#181818;stroke-width:1;" x1="23.1826" x2="100.3174" y1="150.2871" y2="150.2871"/><text fill="#000000" font-family="sans-serif" font-size="13" lengthAdjust="spacing" textLength="59.1348" x="30.1826" y="145.5449">open app</text><polygon fill="#181818" points="222.6982,175.5977,232.6982,179.5977,222.6982,183.5977,226.6982,179.5977" style="stroke:#181818;stroke-width:1;"/><line style="stroke:#181818;stroke-width:1;" x1="106.3174" x2="228.6982" y1="179.5977" y2="179.5977"/><text fill="#000000" font-family="sans-serif" font-size="13" lengthAdjust="spacing" textLength="104.3809" x="113.3174" y="174.8555">wrap application</text><polygon fill="#181818" points="444.1548,204.9082,454.1548,208.9082,444.1548,212.9082,448.1548,208.9082" style="stroke:#181818;stroke-width:1;"/><line style="stroke:#181818;stroke-width:1;" x1="234.6982" x2="450.1548" y1="208.9082" y2="208.9082"/><text fill="#000000" font-family="sans-serif" font-size="13" lengthAdjust="spacing" textLength="197.4565" x="241.6982" y="204.166">provide auth state to data layer</text><polygon fill="#181818" points="640.002,234.2188,650.002,238.2188,640.002,242.2188,644.002,238.2188" style="stroke:#181818;stroke-width:1;"/><line style="stroke:#181818;stroke-width:1;" x1="456.1548" x2="646.002" y1="238.2188" y2="238.2188"/><text fill="#000000" font-family="sans-serif" font-size="13" lengthAdjust="spacing" textLength="54.2979" x="463.1548" y="233.4766">listJobs()</text><polygon fill="#181818" points="750.415,263.5293,760.415,267.5293,750.415,271.5293,754.415,267.5293" style="stroke:#181818;stroke-width:1;"/><line style="stroke:#181818;stroke-width:1;" x1="456.1548" x2="756.415" y1="267.5293" y2="267.5293"/><text fill="#000000" font-family="sans-serif" font-size="13" lengthAdjust="spacing" textLength="79.2188" x="463.1548" y="262.7871">listWatches()</text><polygon fill="#181818" points="875.105,292.8398,885.105,296.8398,875.105,300.8398,879.105,296.8398" style="stroke:#181818;stroke-width:1;"/><line style="stroke:#181818;stroke-width:1;" x1="456.1548" x2="881.105" y1="296.8398" y2="296.8398"/><text fill="#000000" font-family="sans-serif" font-size="13" lengthAdjust="spacing" textLength="250.2246" x="463.1548" y="292.0977">getBaseResume(), listTailoredResumes()</text><polygon fill="#181818" points="467.1548,322.1504,457.1548,326.1504,467.1548,330.1504,463.1548,326.1504" style="stroke:#181818;stroke-width:1;"/><line style="stroke:#181818;stroke-width:1;stroke-dasharray:2.0,2.0;" x1="461.1548" x2="651.002" y1="326.1504" y2="326.1504"/><text fill="#000000" font-family="sans-serif" font-size="13" lengthAdjust="spacing" textLength="75.2578" x="473.1548" y="321.4082">JobPosting[]</text><polygon fill="#181818" points="988.0986,351.4609,998.0986,355.4609,988.0986,359.4609,992.0986,355.4609" style="stroke:#181818;stroke-width:1;"/><line style="stroke:#181818;stroke-width:1;" x1="456.1548" x2="994.0986" y1="355.4609" y2="355.4609"/><text fill="#000000" font-family="sans-serif" font-size="13" lengthAdjust="spacing" textLength="123.7856" x="463.1548" y="350.7188">mapJobPosting(dto)</text><polygon fill="#181818" points="467.1548,380.7715,457.1548,384.7715,467.1548,388.7715,463.1548,384.7715" style="stroke:#181818;stroke-width:1;"/><line style="stroke:#181818;stroke-width:1;stroke-dasharray:2.0,2.0;" x1="461.1548" x2="999.0986" y1="384.7715" y2="384.7715"/><text fill="#000000" font-family="sans-serif" font-size="13" lengthAdjust="spacing" textLength="28.666" x="473.1548" y="380.0293">Job[]</text><polygon fill="#181818" points="552.896,410.082,562.896,414.082,552.896,418.082,556.896,414.082" style="stroke:#181818;stroke-width:1;"/><line style="stroke:#181818;stroke-width:1;" x1="456.1548" x2="558.896" y1="414.082" y2="414.082"/><text fill="#000000" font-family="sans-serif" font-size="13" lengthAdjust="spacing" textLength="84.7412" x="463.1548" y="409.3398">context value</text><polygon fill="#181818" points="1186.9585,439.3926,1196.9585,443.3926,1186.9585,447.3926,1190.9585,443.3926" style="stroke:#181818;stroke-width:1;"/><line style="stroke:#181818;stroke-width:1;" x1="564.896" x2="1192.9585" y1="443.3926" y2="443.3926"/><text fill="#000000" font-family="sans-serif" font-size="13" lengthAdjust="spacing" textLength="129.1621" x="571.896" y="438.6504">render selected view</text><polygon fill="#181818" points="467.1548,468.7031,457.1548,472.7031,467.1548,476.7031,463.1548,472.7031" style="stroke:#181818;stroke-width:1;"/><line style="stroke:#181818;stroke-width:1;" x1="461.1548" x2="1197.9585" y1="472.7031" y2="472.7031"/><text fill="#000000" font-family="sans-serif" font-size="13" lengthAdjust="spacing" textLength="84.6841" x="473.1548" y="467.9609">useAppData()</text><polygon fill="#181818" points="1186.9585,513.3242,1196.9585,517.3242,1186.9585,521.3242,1190.9585,517.3242" style="stroke:#181818;stroke-width:1;"/><line style="stroke:#181818;stroke-width:1;stroke-dasharray:2.0,2.0;" x1="456.1548" x2="1192.9585" y1="517.3242" y2="517.3242"/><text fill="#000000" font-family="sans-serif" font-size="13" lengthAdjust="spacing" textLength="151.2329" x="463.1548" y="497.2715">jobs, watches, resumes,</text><text fill="#000000" font-family="sans-serif" font-size="13" lengthAdjust="spacing" textLength="290.9512" x="463.1548" y="512.582">pollAllWatches(), updateJobApplicationStatus()</text><!--SRC=[TPF1Ri8m38RlVGgB4qXbt7UOn8OcRHeQ6g0TjXrCQq6sq4I92-pjvxI1KkXkiV_FJlhRPSMQuD6PWgd8OOACy68mLyKQXl0GqWS6zB1yWjUL9xSZDvevirCvkGGpDWwMaauiEbQPibWmzBQeYXlsXrwed4hGbiSbRuuzAkGySO5Q6zxKfjkvguBJpN9kYsZLwDkil10Ly2pdiLNNq1uvsz29Uw_3JjIHBxSD-bQ7L-WMhILtmgPrs6Ocw3ShWouVXOUD5Wwp7x5xJimo3mypN5DTNfsI93WFmxlAOhW5Owa0QPnKiUJFVHLzxz06NQiCMPaYQUc1Rpih9RO-0We9df49s40UraJZhvX_MI9TegjIhPNd4FK7NLpZQaHZefjkZ1LwJNoFdkfSVv1MvGjKsZZA8objZYyPTdwRg3FZWxKVNrqtnXa9ASDhu7xEPf0SnNzRT_UKbCXP_Azsg4iAM92gcOhev4SKs9EcZ2c7dQ9zKekTTvMUOhBBkBF6OVDJYAkTGbpSzBEmHkknrYVxKoYjZ9ZaAyRDjinb-gMeVm00]--></g></svg>