<svg xmlns="http://www.w3.org/2000/svg" xmlns:xlink="http://www.w3.org/1999/xlink" contentStyleType="text/css" height="991px" preserveAspectRatio="none" style="width:2658px;height:991px;background:#FFFFFF;" version="1.1" viewBox="0 0 2658 991" width="2658px" zoomAndPan="magnify"><title>Resume Generation Flow - Facade, Template Method, Chain, Rendering</title><defs/><g><text fill="#000000" font-family="sans-serif" font-size="14" font-weight="bold" lengthAdjust="spacing" textLength="511.4238" x="1072.5068" y="28.5352">Resume Generation Flow - Facade, Template Method, Chain, Rendering</text><line style="stroke:#181818;stroke-width:0.5;stroke-dasharray:5.0,5.0;" x1="23" x2="23" y1="118.9766" y2="910.7402"/><line style="stroke:#181818;stroke-width:0.5;stroke-dasharray:5.0,5.0;" x1="255.2739" x2="255.2739" y1="118.9766" y2="910.7402"/><line style="stroke:#181818;stroke-width:0.5;stroke-dasharray:5.0,5.0;" x1="465.2993" x2="465.2993" y1="118.9766" y2="910.7402"/><line style="stroke:#181818;stroke-width:0.5;stroke-dasharray:5.0,5.0;" x1="754.3145" x2="754.3145" y1="118.9766" y2="910.7402"/><line style="stroke:#181818;stroke-width:0.5;stroke-dasharray:5.0,5.0;" x1="976.5254" x2="976.5254" y1="118.9766" y2="910.7402"/><line style="stroke:#181818;stroke-width:0.5;stroke-dasharray:5.0,5.0;" x1="1123.2051" x2="1123.2051" y1="118.9766" y2="910.7402"/><line style="stroke:#181818;stroke-width:0.5;stroke-dasharray:5.0,5.0;" x1="1297.2725" x2="1297.2725" y1="118.9766" y2="910.7402"/><line style="stroke:#181818;stroke-width:0.5;stroke-dasharray:5.0,5.0;" x1="1479.4668" x2="1479.4668" y1="118.9766" y2="910.7402"/><line style="stroke:#181818;stroke-width:0.5;stroke-dasharray:5.0,5.0;" x1="1668.4932" x2="1668.4932" y1="118.9766" y2="910.7402"/><line style="stroke:#181818;stroke-width:0.5;stroke-dasharray:5.0,5.0;" x1="1852.5405" x2="1852.5405" y1="118.9766" y2="910.7402"/><line style="stroke:#181818;stroke-width:0.5;stroke-dasharray:5.0,5.0;" x1="2008.9272" x2="2008.9272" y1="118.9766" y2="910.7402"/><line style="stroke:#181818;stroke-width:0.5;stroke-dasharray:5.0,5.0;" x1="2223.2139" x2="2223.2139" y1="118.9766" y2="910.7402"/><line style="stroke:#181818;stroke-width:0.5;stroke-dasharray:5.0,5.0;" x1="2377.2559" x2="2377.2559" y1="118.9766" y2="910.7402"/><line style="stroke:#181818;stroke-width:0.5;stroke-dasharray:5.0,5.0;" x1="2554.3467" x2="2554.3467" y1="118.9766" y2="910.7402"/><text fill="#000000" font-family="sans-serif" font-size="14" lengthAdjust="spacing" textLength="30.3652" x="5" y="116.0234">User</text><ellipse cx="23.1826" cy="50.9883" fill="#E2E2F0" rx="8" ry="8" style="stroke:#181818;stroke-width:0.5;"/><path d="M23.1826,58.9883 L23.1826,85.9883 M10.1826,66.9883 L36.1826,66.9883 M23.1826,85.9883 L10.1826,100.9883 M23.1826,85.9883 L36.1826,100.9883 " fill="none" style="stroke:#181818;stroke-width:0.5;"/><text fill="#000000" font-family="sans-serif" font-size="14" lengthAdjust="spacing" textLength="30.3652" x="5" y="923.2754">User</text><ellipse cx="23.1826" cy="934.7285" fill="#E2E2F0" rx="8" ry="8" style="stroke:#181818;stroke-width:0.5;"/><path d="M23.1826,942.7285 L23.1826,969.7285 M10.1826,950.7285 L36.1826,950.7285 M23.1826,969.7285 L10.1826,984.7285 M23.1826,969.7285 L36.1826,984.7285 " fill="none" style="stroke:#181818;stroke-width:0.5;"/><rect fill="#E2E2F0" height="30.4883" rx="2.5" ry="2.5" style="stroke:#181818;stroke-width:0.5;" width="228.5664" x="141.2739" y="87.4883"/><text fill="#000000" font-family="sans-serif" font-size="14" lengthAdjust="spacing" textLength="214.5664" x="148.2739" y="108.0234">ResumesPage/ResumePanel.tsx</text><rect fill="#E2E2F0" height="30.4883" rx="2.5" ry="2.5" style="stroke:#181818;stroke-width:0.5;" width="228.5664" x="141.2739" y="909.7402"/><text fill="#000000" font-family="sans-serif" font-size="14" lengthAdjust="spacing" textLength="214.5664" x="148.2739" y="930.2754">ResumesPage/ResumePanel.tsx</text><rect fill="#E2E2F0" height="30.4883" rx="2.5" ry="2.5" style="stroke:#181818;stroke-width:0.5;" width="116.0947" x="407.2993" y="87.4883"/><text fill="#000000" font-family="sans-serif" font-size="14" lengthAdjust="spacing" textLength="102.0947" x="414.2993" y="108.0234">api/resumes.ts</text><rect fill="#E2E2F0" height="30.4883" rx="2.5" ry="2.5" style="stroke:#181818;stroke-width:0.5;" width="116.0947" x="407.2993" y="909.7402"/><text fill="#000000" font-family="sans-serif" font-size="14" lengthAdjust="spacing" textLength="102.0947" x="414.2993" y="930.2754">api/resumes.ts</text><rect fill="#E2E2F0" height="30.4883" rx="2.5" ry="2.5" style="stroke:#181818;stroke-width:0.5;" width="157.2744" x="676.3145" y="87.4883"/><text fill="#000000" font-family="sans-serif" font-size="14" lengthAdjust="spacing" textLength="143.2744" x="683.3145" y="108.0234">JobResumeController</text><rect fill="#E2E2F0" height="30.4883" rx="2.5" ry="2.5" style="stroke:#181818;stroke-width:0.5;" width="157.2744" x="676.3145" y="909.7402"/><text fill="#000000" font-family="sans-serif" font-size="14" lengthAdjust="spacing" textLength="143.2744" x="683.3145" y="930.2754">JobResumeController</text><rect fill="#E2E2F0" height="30.4883" rx="2.5" ry="2.5" style="stroke:#181818;stroke-width:0.5;" width="114.6797" x="919.5254" y="87.4883"/><text fill="#000000" font-family="sans-serif" font-size="14" lengthAdjust="spacing" textLength="100.6797" x="926.5254" y="108.0234">ResumeService</text><rect fill="#E2E2F0" height="30.4883" rx="2.5" ry="2.5" style="stroke:#181818;stroke-width:0.5;" width="114.6797" x="919.5254" y="909.7402"/><text fill="#000000" font-family="sans-serif" font-size="14" lengthAdjust="spacing" textLength="100.6797" x="926.5254" y="930.2754">ResumeService</text><rect fill="#E2E2F0" height="30.4883" rx="2.5" ry="2.5" style="stroke:#181818;stroke-width:0.5;" width="158.0674" x="1044.2051" y="87.4883"/><text fill="#000000" font-family="sans-serif" font-size="14" lengthAdjust="spacing" textLength="144.0674" x="1051.2051" y="108.0234">JobPostingRepository</text><rect fill="#E2E2F0" height="30.4883" rx="2.5" ry="2.5" style="stroke:#181818;stroke-width:0.5;" width="158.0674" x="1044.2051" y="909.7402"/><text fill="#000000" font-family="sans-serif" font-size="14" lengthAdjust="spacing" textLength="144.0674" x="1051.2051" y="930.2754">JobPostingRepository</text><rect fill="#E2E2F0" height="30.4883" rx="2.5" ry="2.5" style="stroke:#181818;stroke-width:0.5;" width="170.1943" x="1212.2725" y="87.4883"/><text fill="#000000" font-family="sans-serif" font-size="14" lengthAdjust="spacing" textLength="156.1943" x="1219.2725" y="108.0234">BaseResumeRepository</text><rect fill="#E2E2F0" height="30.4883" rx="2.5" ry="2.5" style="stroke:#181818;stroke-width:0.5;" width="170.1943" x="1212.2725" y="909.7402"/><text fill="#000000" font-family="sans-serif" font-size="14" lengthAdjust="spacing" textLength="156.1943" x="1219.2725" y="930.2754">BaseResumeRepository</text><rect fill="#E2E2F0" height="46.9766" rx="2.5" ry="2.5" style="stroke:#181818;stroke-width:0.5;" width="174.5693" x="1392.4668" y="71"/><text fill="#000000" font-family="sans-serif" font-size="14" lengthAdjust="spacing" textLength="160.5693" x="1399.4668" y="91.5352">ResumeTailoringFacade</text><text fill="#000000" font-family="sans-serif" font-size="14" lengthAdjust="spacing" textLength="61.4209" x="1449.041" y="108.0234">&#171;Facade&#187;</text><rect fill="#E2E2F0" height="46.9766" rx="2.5" ry="2.5" style="stroke:#181818;stroke-width:0.5;" width="174.5693" x="1392.4668" y="909.7402"/><text fill="#000000" font-family="sans-serif" font-size="14" lengthAdjust="spacing" textLength="160.5693" x="1399.4668" y="930.2754">ResumeTailoringFacade</text><text fill="#000000" font-family="sans-serif" font-size="14" lengthAdjust="spacing" textLength="61.4209" x="1449.041" y="946.7637">&#171;Facade&#187;</text><rect fill="#E2E2F0" height="46.9766" rx="2.5" ry="2.5" style="stroke:#181818;stroke-width:0.5;" width="177.3311" x="1580.4932" y="71"/><text fill="#000000" font-family="sans-serif" font-size="14" lengthAdjust="spacing" textLength="163.3311" x="1587.4932" y="91.5352">OpenAiTailoringPipeline</text><text fill="#000000" font-family="sans-serif" font-size="14" lengthAdjust="spacing" textLength="133.6426" x="1602.3374" y="108.0234">&#171;Template Method&#187;</text><rect fill="#E2E2F0" height="46.9766" rx="2.5" ry="2.5" style="stroke:#181818;stroke-width:0.5;" width="177.3311" x="1580.4932" y="909.7402"/><text fill="#000000" font-family="sans-serif" font-size="14" lengthAdjust="spacing" textLength="163.3311" x="1587.4932" y="930.2754">OpenAiTailoringPipeline</text><text fill="#000000" font-family="sans-serif" font-size="14" lengthAdjust="spacing" textLength="133.6426" x="1602.3374" y="946.7637">&#171;Template Method&#187;</text><rect fill="#E2E2F0" height="30.4883" rx="2.5" ry="2.5" style="stroke:#181818;stroke-width:0.5;" width="103.3867" x="1801.5405" y="87.4883"/><text fill="#000000" font-family="sans-serif" font-size="14" lengthAdjust="spacing" textLength="89.3867" x="1808.5405" y="108.0234">OpenAiClient</text><rect fill="#E2E2F0" height="30.4883" rx="2.5" ry="2.5" style="stroke:#181818;stroke-width:0.5;" width="103.3867" x="1801.5405" y="909.7402"/><text fill="#000000" font-family="sans-serif" font-size="14" lengthAdjust="spacing" textLength="89.3867" x="1808.5405" y="930.2754">OpenAiClient</text><rect fill="#E2E2F0" height="46.9766" rx="2.5" ry="2.5" style="stroke:#181818;stroke-width:0.5;" width="188.5352" x="1914.9272" y="71"/><text fill="#000000" font-family="sans-serif" font-size="14" lengthAdjust="spacing" textLength="174.5352" x="1921.9272" y="91.5352">ResumeValidationHandler</text><text fill="#000000" font-family="sans-serif" font-size="14" lengthAdjust="spacing" textLength="53.5117" x="1982.439" y="108.0234">&#171;Chain&#187;</text><rect fill="#E2E2F0" height="46.9766" rx="2.5" ry="2.5" style="stroke:#181818;stroke-width:0.5;" width="188.5352" x="1914.9272" y="909.7402"/><text fill="#000000" font-family="sans-serif" font-size="14" lengthAdjust="spacing" textLength="174.5352" x="1921.9272" y="930.2754">ResumeValidationHandler</text><text fill="#000000" font-family="sans-serif" font-size="14" lengthAdjust="spacing" textLength="53.5117" x="1982.439" y="946.7637">&#171;Chain&#187;</text><rect fill="#E2E2F0" height="30.4883" rx="2.5" ry="2.5" style="stroke:#181818;stroke-width:0.5;" width="150.042" x="2148.2139" y="87.4883"/><text fill="#000000" font-family="sans-serif" font-size="14" lengthAdjust="spacing" textLength="136.042" x="2155.2139" y="108.0234">LatexFinalizeService</text><rect fill="#E2E2F0" height="30.4883" rx="2.5" ry="2.5" style="stroke:#181818;stroke-width:0.5;" width="150.042" x="2148.2139" y="909.7402"/><text fill="#000000" font-family="sans-serif" font-size="14" lengthAdjust="spacing" textLength="136.042" x="2155.2139" y="930.2754">LatexFinalizeService</text><rect fill="#E2E2F0" height="30.4883" rx="2.5" ry="2.5" style="stroke:#181818;stroke-width:0.5;" width="139.0908" x="2308.2559" y="87.4883"/><text fill="#000000" font-family="sans-serif" font-size="14" lengthAdjust="spacing" textLength="125.0908" x="2315.2559" y="108.0234">PdfCompileService</text><rect fill="#E2E2F0" height="30.4883" rx="2.5" ry="2.5" style="stroke:#181818;stroke-width:0.5;" width="139.0908" x="2308.2559" y="909.7402"/><text fill="#000000" font-family="sans-serif" font-size="14" lengthAdjust="spacing" textLength="125.0908" x="2315.2559" y="930.2754">PdfCompileService</text><rect fill="#E2E2F0" height="30.4883" rx="2.5" ry="2.5" style="stroke:#181818;stroke-width:0.5;" width="195.0908" x="2457.3467" y="87.4883"/><text fill="#000000" font-family="sans-serif" font-size="14" lengthAdjust="spacing" textLength="181.0908" x="2464.3467" y="108.0234">TailoredResumeRepository</text><rect fill="#E2E2F0" height="30.4883" rx="2.5" ry="2.5" style="stroke:#181818;stroke-width:0.5;" width="195.0908" x="2457.3467" y="909.7402"/><text fill="#000000" font-family="sans-serif" font-size="14" lengthAdjust="spacing" textLength="181.0908" x="2464.3467" y="930.2754">TailoredResumeRepository</text><polygon fill="#181818" points="243.5571,146.2871,253.5571,150.2871,243.5571,154.2871,247.5571,150.2871" style="stroke:#181818;stroke-width:1;"/><line style="stroke:#181818;stroke-width:1;" x1="23.1826" x2="249.5571" y1="150.2871" y2="150.2871"/><text fill="#000000" font-family="sans-serif" font-size="13" lengthAdjust="spacing" textLength="208.3745" x="30.1826" y="145.5449">generate resume for selected job</text><polygon fill="#181818" points="453.3467,175.5977,463.3467,179.5977,453.3467,183.5977,457.3467,179.5977" style="stroke:#181818;stroke-width:1;"/><line style="stroke:#181818;stroke-width:1;" x1="255.5571" x2="459.3467" y1="179.5977" y2="179.5977"/><text fill="#000000" font-family="sans-serif" font-size="13" lengthAdjust="spacing" textLength="185.7896" x="262.5571" y="174.8555">generateResumeForJob(jobId)</text><polygon fill="#181818" points="742.9517,204.9082,752.9517,208.9082,742.9517,212.9082,746.9517,208.9082" style="stroke:#181818;stroke-width:1;"/><line style="stroke:#181818;stroke-width:1;" x1="465.3467" x2="748.9517" y1="208.9082" y2="208.9082"/><text fill="#000000" font-family="sans-serif" font-size="13" lengthAdjust="spacing" textLength="265.605" x="472.3467" y="204.166">POST /api/jobs/{jobId}/resumes/generate</text><polygon fill="#181818" points="964.8652,234.2188,974.8652,238.2188,964.8652,242.2188,968.8652,238.2188" style="stroke:#181818;stroke-width:1;"/><line style="stroke:#181818;stroke-width:1;" x1="754.9517" x2="970.8652" y1="238.2188" y2="238.2188"/><text fill="#000000" font-family="sans-serif" font-size="13" lengthAdjust="spacing" textLength="136.2524" x="761.9517" y="233.4766">generateForJob(jobId)</text><polygon fill="#181818" points="1111.2388,263.5293,1121.2388,267.5293,1111.2388,271.5293,1115.2388,267.5293" style="stroke:#181818;stroke-width:1;"/><line style="stroke:#181818;stroke-width:1;" x1="976.8652" x2="1117.2388" y1="267.5293" y2="267.5293"/><text fill="#000000" font-family="sans-serif" font-size="13" lengthAdjust="spacing" textLength="91.4888" x="983.8652" y="262.7871">findById(jobId)</text><polygon fill="#181818" points="1285.3696,292.8398,1295.3696,296.8398,1285.3696,300.8398,1289.3696,296.8398" style="stroke:#181818;stroke-width:1;"/><line style="stroke:#181818;stroke-width:1;" x1="976.8652" x2="1291.3696" y1="296.8398" y2="296.8398"/><text fill="#000000" font-family="sans-serif" font-size="13" lengthAdjust="spacing" textLength="147.5259" x="983.8652" y="292.0977">find latest base resume</text><polygon fill="#181818" points="1467.7515,322.1504,1477.7515,326.1504,1467.7515,330.1504,1471.7515,326.1504" style="stroke:#181818;stroke-width:1;"/><line style="stroke:#181818;stroke-width:1;" x1="976.8652" x2="1473.7515" y1="326.1504" y2="326.1504"/><text fill="#000000" font-family="sans-serif" font-size="13" lengthAdjust="spacing" textLength="171.5645" x="983.8652" y="321.4082">tailor(jobDto, baseContent)</text><polygon fill="#181818" points="1657.1587,351.4609,1667.1587,355.4609,1657.1587,359.4609,1661.1587,355.4609" style="stroke:#181818;stroke-width:1;"/><line style="stroke:#181818;stroke-width:1;" x1="1479.7515" x2="1663.1587" y1="355.4609" y2="355.4609"/><text fill="#000000" font-family="sans-serif" font-size="13" lengthAdjust="spacing" textLength="165.4072" x="1486.7515" y="350.7188">execute(job, baseContent)</text><line style="stroke:#181818;stroke-width:1;" x1="1669.1587" x2="1711.1587" y1="384.7715" y2="384.7715"/><line style="stroke:#181818;stroke-width:1;" x1="1711.1587" x2="1711.1587" y1="384.7715" y2="397.7715"/><line style="stroke:#181818;stroke-width:1;" x1="1670.1587" x2="1711.1587" y1="397.7715" y2="397.7715"/><polygon fill="#181818" points="1680.1587,393.7715,1670.1587,397.7715,1680.1587,401.7715,1676.1587,397.7715" style="stroke:#181818;stroke-width:1;"/><text fill="#000000" font-family="sans-serif" font-size="13" lengthAdjust="spacing" textLength="133.3262" x="1676.1587" y="380.0293">extractKeywords(job)</text><polygon fill="#181818" points="1841.2339,423.082,1851.2339,427.082,1841.2339,431.082,1845.2339,427.082" style="stroke:#181818;stroke-width:1;"/><line style="stroke:#181818;stroke-width:1;" x1="1669.1587" x2="1847.2339" y1="427.082" y2="427.082"/><text fill="#000000" font-family="sans-serif" font-size="13" lengthAdjust="spacing" textLength="160.0752" x="1676.1587" y="422.3398">rewrite/prioritize content</text><polygon fill="#181818" points="1680.1587,452.3926,1670.1587,456.3926,1680.1587,460.3926,1676.1587,456.3926" style="stroke:#181818;stroke-width:1;"/><line style="stroke:#181818;stroke-width:1;stroke-dasharray:2.0,2.0;" x1="1674.1587" x2="1852.2339" y1="456.3926" y2="456.3926"/><text fill="#000000" font-family="sans-serif" font-size="13" lengthAdjust="spacing" textLength="100.147" x="1686.1587" y="451.6504">tailored content</text><polygon fill="#181818" points="1490.7515,481.7031,1480.7515,485.7031,1490.7515,489.7031,1486.7515,485.7031" style="stroke:#181818;stroke-width:1;"/><line style="stroke:#181818;stroke-width:1;stroke-dasharray:2.0,2.0;" x1="1484.7515" x2="1668.1587" y1="485.7031" y2="485.7031"/><text fill="#000000" font-family="sans-serif" font-size="13" lengthAdjust="spacing" textLength="151.2646" x="1496.7515" y="480.9609">TailoredResumeContent</text><polygon fill="#181818" points="1997.1948,511.0137,2007.1948,515.0137,1997.1948,519.0137,2001.1948,515.0137" style="stroke:#181818;stroke-width:1;"/><line style="stroke:#181818;stroke-width:1;" x1="1479.7515" x2="2003.1948" y1="515.0137" y2="515.0137"/><text fill="#000000" font-family="sans-serif" font-size="13" lengthAdjust="spacing" textLength="105.0918" x="1486.7515" y="510.2715">validate(content)</text><line style="stroke:#181818;stroke-width:1;" x1="2009.1948" x2="2051.1948" y1="544.3242" y2="544.3242"/><line style="stroke:#181818;stroke-width:1;" x1="2051.1948" x2="2051.1948" y1="544.3242" y2="557.3242"/><line style="stroke:#181818;stroke-width:1;" x1="2010.1948" x2="2051.1948" y1="557.3242" y2="557.3242"/><polygon fill="#181818" points="2020.1948,553.3242,2010.1948,557.3242,2020.1948,561.3242,2016.1948,557.3242" style="stroke:#181818;stroke-width:1;"/><text fill="#000000" font-family="sans-serif" font-size="13" lengthAdjust="spacing" textLength="200.04" x="2016.1948" y="539.582">NoFabricationValidationHandler</text><line style="stroke:#181818;stroke-width:1;" x1="2009.1948" x2="2051.1948" y1="586.6348" y2="586.6348"/><line style="stroke:#181818;stroke-width:1;" x1="2051.1948" x2="2051.1948" y1="586.6348" y2="599.6348"/><line style="stroke:#181818;stroke-width:1;" x1="2010.1948" x2="2051.1948" y1="599.6348" y2="599.6348"/><polygon fill="#181818" points="2020.1948,595.6348,2010.1948,599.6348,2020.1948,603.6348,2016.1948,599.6348" style="stroke:#181818;stroke-width:1;"/><text fill="#000000" font-family="sans-serif" font-size="13" lengthAdjust="spacing" textLength="176.2681" x="2016.1948" y="581.8926">AtsLengthValidationHandler</text><polygon fill="#181818" points="1490.7515,624.9453,1480.7515,628.9453,1490.7515,632.9453,1486.7515,628.9453" style="stroke:#181818;stroke-width:1;"/><line style="stroke:#181818;stroke-width:1;stroke-dasharray:2.0,2.0;" x1="1484.7515" x2="2008.1948" y1="628.9453" y2="628.9453"/><text fill="#000000" font-family="sans-serif" font-size="13" lengthAdjust="spacing" textLength="29.6055" x="1496.7515" y="624.2031">valid</text><polygon fill="#181818" points="987.8652,654.2559,977.8652,658.2559,987.8652,662.2559,983.8652,658.2559" style="stroke:#181818;stroke-width:1;"/><line style="stroke:#181818;stroke-width:1;stroke-dasharray:2.0,2.0;" x1="981.8652" x2="1478.7515" y1="658.2559" y2="658.2559"/><text fill="#000000" font-family="sans-serif" font-size="13" lengthAdjust="spacing" textLength="151.2646" x="993.8652" y="653.5137">TailoredResumeContent</text><polygon fill="#181818" points="2211.2349,683.5664,2221.2349,687.5664,2211.2349,691.5664,2215.2349,687.5664" style="stroke:#181818;stroke-width:1;"/><line style="stroke:#181818;stroke-width:1;" x1="976.8652" x2="2217.2349" y1="687.5664" y2="687.5664"/><text fill="#000000" font-family="sans-serif" font-size="13" lengthAdjust="spacing" textLength="130.8633" x="983.8652" y="682.8242">create/update LaTeX</text><polygon fill="#181818" points="987.8652,712.877,977.8652,716.877,987.8652,720.877,983.8652,716.877" style="stroke:#181818;stroke-width:1;"/><line style="stroke:#181818;stroke-width:1;stroke-dasharray:2.0,2.0;" x1="981.8652" x2="2222.2349" y1="716.877" y2="716.877"/><text fill="#000000" font-family="sans-serif" font-size="13" lengthAdjust="spacing" textLength="77.0288" x="993.8652" y="712.1348">latex source</text><polygon fill="#181818" points="2365.8013,742.1875,2375.8013,746.1875,2365.8013,750.1875,2369.8013,746.1875" style="stroke:#181818;stroke-width:1;"/><line style="stroke:#181818;stroke-width:1;" x1="976.8652" x2="2371.8013" y1="746.1875" y2="746.1875"/><text fill="#000000" font-family="sans-serif" font-size="13" lengthAdjust="spacing" textLength="89.1909" x="983.8652" y="741.4453">compile(latex)</text><polygon fill="#181818" points="987.8652,771.498,977.8652,775.498,987.8652,779.498,983.8652,775.498" style="stroke:#181818;stroke-width:1;"/><line style="stroke:#181818;stroke-width:1;stroke-dasharray:2.0,2.0;" x1="981.8652" x2="2376.8013" y1="775.498" y2="775.498"/><text fill="#000000" font-family="sans-serif" font-size="13" lengthAdjust="spacing" textLength="98.5918" x="993.8652" y="770.7559">pdf path/status</text><polygon fill="#181818" points="2542.8921,800.8086,2552.8921,804.8086,2542.8921,808.8086,2546.8921,804.8086" style="stroke:#181818;stroke-width:1;"/><line style="stroke:#181818;stroke-width:1;" x1="976.8652" x2="2548.8921" y1="804.8086" y2="804.8086"/><text fill="#000000" font-family="sans-serif" font-size="13" lengthAdjust="spacing" textLength="137.4141" x="983.8652" y="800.0664">save(TailoredResume)</text><polygon fill="#181818" points="987.8652,830.1191,977.8652,834.1191,987.8652,838.1191,983.8652,834.1191" style="stroke:#181818;stroke-width:1;"/><line style="stroke:#181818;stroke-width:1;stroke-dasharray:2.0,2.0;" x1="981.8652" x2="2553.8921" y1="834.1191" y2="834.1191"/><text fill="#000000" font-family="sans-serif" font-size="13" lengthAdjust="spacing" textLength="108.7925" x="993.8652" y="829.377">persisted resume</text><polygon fill="#181818" points="765.9517,859.4297,755.9517,863.4297,765.9517,867.4297,761.9517,863.4297" style="stroke:#181818;stroke-width:1;"/><line style="stroke:#181818;stroke-width:1;stroke-dasharray:2.0,2.0;" x1="759.9517" x2="975.8652" y1="863.4297" y2="863.4297"/><text fill="#000000" font-family="sans-serif" font-size="13" lengthAdjust="spacing" textLength="197.9136" x="771.9517" y="858.6875">TailoredResumeDetailResponse</text><polygon fill="#181818" points="266.5571,888.7402,256.5571,892.7402,266.5571,896.7402,262.5571,892.7402" style="stroke:#181818;stroke-width:1;"/><line style="stroke:#181818;stroke-width:1;stroke-dasharray:2.0,2.0;" x1="260.5571" x2="753.9517" y1="892.7402" y2="892.7402"/><text fill="#000000" font-family="sans-serif" font-size="13" lengthAdjust="spacing" textLength="177.1313" x="272.5571" y="887.998">generated resume metadata</text><!--SRC=[VPJBRjim44Nt-WeYAmTmgdqH170Sk7MRDaRY55rqGqiJcuLC4kJurQB_tk53icZJsKd3S-UbIw701jWpsCqQs2UGO3WA9TcaKJjsmoQyuZKCsHpMkk48x1lWIjL3Dbvn8OSab3KO8PS5hr0Pzch159eR59NGN2Ax2gdjZ2-X3CypBg7vW7P_nRYDfL-dgOfhKPgW9DA38orYhXJzeXOXFbOIZMeQC9xFn7ETlO3PYWfwlSJ8MPMPiaYJFeDMLj2mXsCPhLBwdbi8oKxeS72A1tJEHQFSBiFIVydRs_1qT-UruILLFccG8z4fPq938wJNddoocAGbScd6ZG297lE1QQxB7xmHjVV8PovhMgghvTqGAno1LFv8lUmdGjBndsJhRIp5P_NRMAsrQ1AMeYaMHeSwk-tZ8MsySDvaDtUTuzX7jWo61nQynjx8mXOQg11gzbijYeubtT60FMM8J9GX7mn8CQslYnv8iemFIJzxUfcpqjcSHBRywwN_Mi-NRVeYf-vcY9lfjPCsab9jBrgHu4t8-lumhI-YhLCZovoLBB85XUEspZN1eQH0ltYN-m7Lq8jS_-Ikwo92XBTU907ieTeWECK9ta6d0ZJqo_aAXvqojNN2b0qE9jB0pWY4KXj1TmJ9QAmAoOl8tAIfCRgcmuvf-pEcpelzzgOxtWE2j-451bKxL-_u5Fwk9dnXHENVp-xRUyeHsaUGIrozh-gFuJlhsivOAp_d-RUFjvWKbG4QjTneDp5xv7FuMNJ7kHBEMtjcrSPK6LVHdNT9myzWu5dwr1JCfT8KrnnNfKME6tkUhVzF8DxoBGpI4Q-BXCbM0ME5TJ-9_5MuUEtJIW_Wl4RFMabxuQxdVrXjORQc5BHc_Xy0]--></g></svg>