<svg xmlns="http://www.w3.org/2000/svg" xmlns:xlink="http://www.w3.org/1999/xlink" contentStyleType="text/css" data-diagram-type="CLASS" height="555px" preserveAspectRatio="none" style="width:1252px;height:555px;background:#FFFFFF;" version="1.1" viewBox="0 0 1252 555" width="1252px" zoomAndPan="magnify"><?plantuml 1.2026.5?><defs/><g><g class="title" data-source-line="2501"><text fill="#000000" font-family="sans-serif" font-size="14" font-weight="700" lengthAdjust="spacing" textLength="320.0723" x="462.4639" y="23.5352">Chain of Responsibility - Resume Validation</text></g><!--cluster Chain of Responsibility Pattern--><g class="cluster" data-qualified-name="Chain of Responsibility Pattern" data-source-line="2504" id="ent0001"><path d="M8.5,43.4883 L233.5889,43.4883 A3.75,3.75 0 0 1 236.0889,45.9883 L243.0889,65.9766 L1234.5,65.9766 A2.5,2.5 0 0 1 1237,68.4766 L1237,538.3783 A2.5,2.5 0 0 1 1234.5,540.8783 L8.5,540.8783 A2.5,2.5 0 0 1 6,538.3783 L6,45.9883 A2.5,2.5 0 0 1 8.5,43.4883" fill="none" style="stroke:#000000;stroke-width:1.5;"/><line style="stroke:#000000;stroke-width:1.5;" x1="6" x2="243.0889" y1="65.9766" y2="65.9766"/><text fill="#000000" font-family="sans-serif" font-size="14" font-weight="700" lengthAdjust="spacing" textLength="224.0889" x="10" y="59.0234">Chain of Responsibility Pattern</text></g><!--class ResumeValidationHandler--><g class="entity" data-qualified-name="Chain of Responsibility Pattern.ResumeValidationHandler" data-source-line="2505" id="ent0002"><rect fill="#F1F1F1" height="113.9531" rx="2.5" ry="2.5" style="stroke:#181818;stroke-width:0.5;" width="300.8525" x="405.57" y="236.4583"/><ellipse cx="464.4787" cy="252.4583" fill="#A9DCDF" rx="11" ry="11" style="stroke:#181818;stroke-width:1;"/><path d="M464.342,247.8064 L463.1882,252.8782 L465.5041,252.8782 Z M462.8478,245.5652 L465.8444,245.5652 L469.1896,257.9583 L466.7409,257.9583 L465.9772,254.8953 L462.6984,254.8953 L461.9513,257.9583 L459.5026,257.9583 Z " fill="#000000"/><text fill="#000000" font-family="sans-serif" font-size="14" font-style="italic" lengthAdjust="spacing" textLength="174.5352" x="484.9787" y="257.7493">ResumeValidationHandler</text><line style="stroke:#181818;stroke-width:0.5;" x1="406.57" x2="705.4225" y1="268.4583" y2="268.4583"/><text fill="#000000" font-family="sans-serif" font-size="14" lengthAdjust="spacing" textLength="222.5576" x="411.57" y="285.9934">#next: ResumeValidationHandler</text><line style="stroke:#181818;stroke-width:0.5;" x1="406.57" x2="705.4225" y1="292.9466" y2="292.9466"/><text fill="#000000" font-family="sans-serif" font-size="14" lengthAdjust="spacing" textLength="288.8525" x="411.57" y="310.4817">+linkWith(next): ResumeValidationHandler</text><text fill="#000000" font-family="sans-serif" font-size="14" lengthAdjust="spacing" textLength="161.8682" x="411.57" y="326.97">+validate(content): void</text><text fill="#000000" font-family="sans-serif" font-size="14" lengthAdjust="spacing" textLength="145.9541" x="411.57" y="343.4583">#check(content): void</text></g><!--class NoFabricationValidationHandler--><g class="entity" data-qualified-name="Chain of Responsibility Pattern.NoFabricationValidationHandler" data-source-line="2512" id="ent0003"><rect fill="#F1F1F1" height="64.4883" rx="2.5" ry="2.5" style="stroke:#181818;stroke-width:0.5;" width="247.4277" x="22.29" y="86.7283"/><ellipse cx="37.29" cy="102.7283" fill="#ADD1B2" rx="11" ry="11" style="stroke:#181818;stroke-width:1;"/><path d="M39.7631,108.8713 Q39.1821,109.1702 38.5429,109.3196 Q37.9038,109.469 37.1982,109.469 Q34.6914,109.469 33.3715,107.8171 Q32.0517,106.1653 32.0517,103.0442 Q32.0517,99.9148 33.3715,98.2629 Q34.6914,96.6111 37.1982,96.6111 Q37.9038,96.6111 38.5512,96.7605 Q39.1987,96.9099 39.7631,97.2088 L39.7631,99.9314 Q39.1323,99.3504 38.5388,99.0806 Q37.9453,98.8108 37.3144,98.8108 Q35.9697,98.8108 35.2849,99.8775 Q34.6001,100.9441 34.6001,103.0442 Q34.6001,105.136 35.2849,106.2026 Q35.9697,107.2693 37.3144,107.2693 Q37.9453,107.2693 38.5388,106.9995 Q39.1323,106.7297 39.7631,106.1487 Z " fill="#000000"/><text fill="#000000" font-family="sans-serif" font-size="14" lengthAdjust="spacing" textLength="215.4277" x="51.29" y="108.0193">NoFabricationValidationHandler</text><line style="stroke:#181818;stroke-width:0.5;" x1="23.29" x2="268.7177" y1="118.7283" y2="118.7283"/><line style="stroke:#181818;stroke-width:0.5;" x1="23.29" x2="268.7177" y1="126.7283" y2="126.7283"/><text fill="#000000" font-family="sans-serif" font-size="14" lengthAdjust="spacing" textLength="145.9541" x="28.29" y="144.2634">#check(content): void</text></g><!--class AtsLengthValidationHandler--><g class="entity" data-qualified-name="Chain of Responsibility Pattern.AtsLengthValidationHandler" data-source-line="2516" id="ent0004"><rect fill="#F1F1F1" height="64.4883" rx="2.5" ry="2.5" style="stroke:#181818;stroke-width:0.5;" width="221.8271" x="305.09" y="86.7283"/><ellipse cx="320.09" cy="102.7283" fill="#ADD1B2" rx="11" ry="11" style="stroke:#181818;stroke-width:1;"/><path d="M322.5631,108.8713 Q321.9821,109.1702 321.3429,109.3196 Q320.7038,109.469 319.9982,109.469 Q317.4914,109.469 316.1715,107.8171 Q314.8517,106.1653 314.8517,103.0442 Q314.8517,99.9148 316.1715,98.2629 Q317.4914,96.6111 319.9982,96.6111 Q320.7038,96.6111 321.3512,96.7605 Q321.9987,96.9099 322.5631,97.2088 L322.5631,99.9314 Q321.9323,99.3504 321.3388,99.0806 Q320.7453,98.8108 320.1144,98.8108 Q318.7697,98.8108 318.0849,99.8775 Q317.4001,100.9441 317.4001,103.0442 Q317.4001,105.136 318.0849,106.2026 Q318.7697,107.2693 320.1144,107.2693 Q320.7453,107.2693 321.3388,106.9995 Q321.9323,106.7297 322.5631,106.1487 Z " fill="#000000"/><text fill="#000000" font-family="sans-serif" font-size="14" lengthAdjust="spacing" textLength="189.8271" x="334.09" y="108.0193">AtsLengthValidationHandler</text><line style="stroke:#181818;stroke-width:0.5;" x1="306.09" x2="525.9171" y1="118.7283" y2="118.7283"/><line style="stroke:#181818;stroke-width:0.5;" x1="306.09" x2="525.9171" y1="126.7283" y2="126.7283"/><text fill="#000000" font-family="sans-serif" font-size="14" lengthAdjust="spacing" textLength="145.9541" x="311.09" y="144.2634">#check(content): void</text></g><!--class RequiredSectionsValidationHandler--><g class="entity" data-qualified-name="Chain of Responsibility Pattern.RequiredSectionsValidationHandler" data-source-line="2520" id="ent0005"><rect fill="#F1F1F1" height="64.4883" rx="2.5" ry="2.5" style="stroke:#181818;stroke-width:0.5;" width="269.9453" x="562.03" y="86.7283"/><ellipse cx="577.03" cy="102.7283" fill="#ADD1B2" rx="11" ry="11" style="stroke:#181818;stroke-width:1;"/><path d="M579.5031,108.8713 Q578.9221,109.1702 578.2829,109.3196 Q577.6438,109.469 576.9382,109.469 Q574.4314,109.469 573.1115,107.8171 Q571.7917,106.1653 571.7917,103.0442 Q571.7917,99.9148 573.1115,98.2629 Q574.4314,96.6111 576.9382,96.6111 Q577.6438,96.6111 578.2912,96.7605 Q578.9387,96.9099 579.5031,97.2088 L579.5031,99.9314 Q578.8723,99.3504 578.2788,99.0806 Q577.6853,98.8108 577.0544,98.8108 Q575.7097,98.8108 575.0249,99.8775 Q574.3401,100.9441 574.3401,103.0442 Q574.3401,105.136 575.0249,106.2026 Q575.7097,107.2693 577.0544,107.2693 Q577.6853,107.2693 578.2788,106.9995 Q578.8723,106.7297 579.5031,106.1487 Z " fill="#000000"/><text fill="#000000" font-family="sans-serif" font-size="14" lengthAdjust="spacing" textLength="237.9453" x="591.03" y="108.0193">RequiredSectionsValidationHandler</text><line style="stroke:#181818;stroke-width:0.5;" x1="563.03" x2="830.9753" y1="118.7283" y2="118.7283"/><line style="stroke:#181818;stroke-width:0.5;" x1="563.03" x2="830.9753" y1="126.7283" y2="126.7283"/><text fill="#000000" font-family="sans-serif" font-size="14" lengthAdjust="spacing" textLength="145.9541" x="568.03" y="144.2634">#check(content): void</text></g><!--class TailoredResumeContent--><g class="entity" data-qualified-name="Chain of Responsibility Pattern.TailoredResumeContent" data-source-line="2524" id="ent0006"><rect fill="#F1F1F1" height="97.4648" rx="2.5" ry="2.5" style="stroke:#181818;stroke-width:0.5;" width="232.7871" x="439.61" y="427.4183"/><ellipse cx="471.659" cy="443.4183" fill="#ADD1B2" rx="11" ry="11" style="stroke:#181818;stroke-width:1;"/><path d="M474.1322,449.5613 Q473.5511,449.8602 472.912,450.0096 Q472.2728,450.159 471.5672,450.159 Q469.0604,450.159 467.7406,448.5071 Q466.4207,446.8553 466.4207,443.7342 Q466.4207,440.6048 467.7406,438.9529 Q469.0604,437.3011 471.5672,437.3011 Q472.2728,437.3011 472.9203,437.4505 Q473.5677,437.5999 474.1322,437.8987 L474.1322,440.6214 Q473.5013,440.0404 472.9078,439.7706 Q472.3143,439.5008 471.6834,439.5008 Q470.3387,439.5008 469.6539,440.5675 Q468.9691,441.6341 468.9691,443.7342 Q468.9691,445.826 469.6539,446.8926 Q470.3387,447.9593 471.6834,447.9593 Q472.3143,447.9593 472.9078,447.6895 Q473.5013,447.4197 474.1322,446.8387 Z " fill="#000000"/><text fill="#000000" font-family="sans-serif" font-size="14" lengthAdjust="spacing" textLength="162.9004" x="489.4477" y="448.7093">TailoredResumeContent</text><line style="stroke:#181818;stroke-width:0.5;" x1="440.61" x2="671.3971" y1="459.4183" y2="459.4183"/><text fill="#000000" font-family="sans-serif" font-size="14" lengthAdjust="spacing" textLength="122.6982" x="445.61" y="476.9534">+summary: String</text><text fill="#000000" font-family="sans-serif" font-size="14" lengthAdjust="spacing" textLength="136.1445" x="445.61" y="493.4417">+skills: List~String~</text><text fill="#000000" font-family="sans-serif" font-size="14" lengthAdjust="spacing" textLength="220.7871" x="445.61" y="509.93">+experienceBullets: List~String~</text><line style="stroke:#181818;stroke-width:0.5;" x1="440.61" x2="671.3971" y1="516.8831" y2="516.8831"/></g><!--class ResumeTailoringFacade--><g class="entity" data-qualified-name="Chain of Responsibility Pattern.ResumeTailoringFacade" data-source-line="2530" id="ent0007"><rect fill="#F1F1F1" height="80.9766" rx="2.5" ry="2.5" style="stroke:#181818;stroke-width:0.5;" width="354.7402" x="866.63" y="78.4883"/><ellipse cx="959.4654" cy="94.4883" fill="#ADD1B2" rx="11" ry="11" style="stroke:#181818;stroke-width:1;"/><path d="M961.9386,100.6313 Q961.3575,100.9302 960.7184,101.0796 Q960.0792,101.229 959.3737,101.229 Q956.8668,101.229 955.547,99.5771 Q954.2272,97.9253 954.2272,94.8042 Q954.2272,91.6748 955.547,90.0229 Q956.8668,88.3711 959.3737,88.3711 Q960.0792,88.3711 960.7267,88.5205 Q961.3741,88.6699 961.9386,88.9688 L961.9386,91.6914 Q961.3077,91.1104 960.7142,90.8406 Q960.1207,90.5708 959.4899,90.5708 Q958.1451,90.5708 957.4603,91.6375 Q956.7755,92.7041 956.7755,94.8042 Q956.7755,96.896 957.4603,97.9626 Q958.1451,99.0293 959.4899,99.0293 Q960.1207,99.0293 960.7142,98.7595 Q961.3077,98.4897 961.9386,97.9087 Z " fill="#000000"/><text fill="#000000" font-family="sans-serif" font-size="14" lengthAdjust="spacing" textLength="160.5693" x="979.9654" y="99.7793">ResumeTailoringFacade</text><line style="stroke:#181818;stroke-width:0.5;" x1="867.63" x2="1220.3702" y1="110.4883" y2="110.4883"/><text fill="#000000" font-family="sans-serif" font-size="14" lengthAdjust="spacing" textLength="296.5225" x="872.63" y="128.0234">-validationChain: ResumeValidationHandler</text><line style="stroke:#181818;stroke-width:0.5;" x1="867.63" x2="1220.3702" y1="134.9766" y2="134.9766"/><text fill="#000000" font-family="sans-serif" font-size="14" lengthAdjust="spacing" textLength="342.7402" x="872.63" y="152.5117">+tailor(job, baseResume): TailoredResumeContent</text></g><!--link NoFabricationValidationHandler to ResumeValidationHandler--><g class="link" data-entity-1="ent0003" data-entity-2="ent0002" data-link-type="extension" data-source-line="2536" id="lnk8"><path codeLine="2536" d="M221.2,151.6083 C277.26,175.1883 338.7285,201.0382 405.3785,229.0782" fill="none" id="NoFabricationValidationHandler-to-ResumeValidationHandler" style="stroke:#181818;stroke-width:1;"/><polygon fill="none" points="421.97,236.0583,407.7052,223.5477,403.0518,234.6087,421.97,236.0583" style="stroke:#181818;stroke-width:1;stroke-linejoin:miter;stroke-miterlimit:10;"/></g><!--link AtsLengthValidationHandler to ResumeValidationHandler--><g class="link" data-entity-1="ent0004" data-entity-2="ent0002" data-link-type="extension" data-source-line="2537" id="lnk9"><path codeLine="2537" d="M441.68,151.6083 C460.86,175.2383 476.2474,194.1817 499.0274,222.2517" fill="none" id="AtsLengthValidationHandler-to-ResumeValidationHandler" style="stroke:#181818;stroke-width:1;"/><polygon fill="none" points="510.37,236.2283,503.6863,218.4708,494.3685,226.0326,510.37,236.2283" style="stroke:#181818;stroke-width:1;stroke-linejoin:miter;stroke-miterlimit:10;"/></g><!--link RequiredSectionsValidationHandler to ResumeValidationHandler--><g class="link" data-entity-1="ent0005" data-entity-2="ent0002" data-link-type="extension" data-source-line="2538" id="lnk10"><path codeLine="2538" d="M671.14,151.6083 C651.82,175.2383 636.2934,194.2231 613.3434,222.2931" fill="none" id="RequiredSectionsValidationHandler-to-ResumeValidationHandler" style="stroke:#181818;stroke-width:1;"/><polygon fill="none" points="601.95,236.2283,617.9885,226.0909,608.6983,218.4953,601.95,236.2283" style="stroke:#181818;stroke-width:1;stroke-linejoin:miter;stroke-miterlimit:10;"/></g><!--link ResumeValidationHandler to ResumeValidationHandler--><g class="link" data-entity-1="ent0002" data-entity-2="ent0002" data-link-type="aggregation" data-source-line="2539" id="lnk11"><path codeLine="2539" d="M718.5052,278.9635 C739.3852,281.6035 741.43,285.4183 741.43,293.4383 C741.43,301.4583 732.4408,306.1534 711.5608,308.7834" fill="none" id="ResumeValidationHandler-ResumeValidationHandler" style="stroke:#181818;stroke-width:1;"/><polygon fill="none" points="706.6,277.4583,712.0509,282.1793,718.5052,278.9635,713.0544,274.2425,706.6,277.4583" style="stroke:#181818;stroke-width:1;stroke-linejoin:miter;stroke-miterlimit:10;"/><polygon fill="#181818" points="706.6,309.4083,716.0293,312.2522,711.5608,308.7834,715.0296,304.3149,706.6,309.4083" style="stroke:#181818;stroke-width:1;stroke-linejoin:miter;stroke-miterlimit:10;"/><text fill="#000000" font-family="sans-serif" font-size="13" lengthAdjust="spacing" textLength="80.0757" x="747.43" y="298.5066">next handler</text><text fill="#000000" font-family="sans-serif" font-size="13" lengthAdjust="spacing" textLength="8.2202" x="714.5774" y="273.8241">1</text><text fill="#000000" font-family="sans-serif" font-size="13" lengthAdjust="spacing" textLength="24.667" x="714.4923" y="307.3946">0..1</text></g><!--link ResumeValidationHandler to TailoredResumeContent--><g class="link" data-entity-1="ent0002" data-entity-2="ent0006" data-link-type="dependency" data-source-line="2540" id="lnk12"><path codeLine="2540" d="M556,350.6283 C556,375.0783 556,398.4383 556,421.9183" fill="none" id="ResumeValidationHandler-to-TailoredResumeContent" style="stroke:#181818;stroke-width:1;stroke-dasharray:7,7;"/><polygon fill="#181818" points="556,426.9183,560,417.9183,556,421.9183,552,417.9183,556,426.9183" style="stroke:#181818;stroke-width:1;stroke-linejoin:miter;stroke-miterlimit:10;"/><text fill="#000000" font-family="sans-serif" font-size="13" lengthAdjust="spacing" textLength="55.5166" x="557" y="393.9866">validates</text><text fill="#000000" font-family="sans-serif" font-size="13" lengthAdjust="spacing" textLength="8.2202" x="547.5264" y="371.1001">1</text><text fill="#000000" font-family="sans-serif" font-size="13" lengthAdjust="spacing" textLength="8.2202" x="547.4525" y="416.5305">1</text></g><!--link ResumeTailoringFacade to ResumeValidationHandler--><g class="link" data-entity-1="ent0007" data-entity-2="ent0002" data-link-type="dependency" data-source-line="2541" id="lnk13"><path codeLine="2541" d="M931.12,159.8683 C864.4,183.4483 783.7843,211.9322 711.3743,237.5222" fill="none" id="ResumeTailoringFacade-to-ResumeValidationHandler" style="stroke:#181818;stroke-width:1;"/><polygon fill="#181818" points="706.66,239.1883,716.4785,239.9608,711.3743,237.5222,713.8128,232.418,706.66,239.1883" style="stroke:#181818;stroke-width:1;stroke-linejoin:miter;stroke-miterlimit:10;"/><text fill="#000000" font-family="sans-serif" font-size="13" lengthAdjust="spacing" textLength="40.3584" x="844.71" y="203.0266">chains</text><text fill="#000000" font-family="sans-serif" font-size="13" lengthAdjust="spacing" textLength="8.2202" x="904.5098" y="180.1738">1</text><text fill="#000000" font-family="sans-serif" font-size="13" lengthAdjust="spacing" textLength="22.7119" x="714.5078" y="233.7733">1..*</text></g><?plantuml-src fLDDIyD04BtdLmpnKZyIzDf3GGLH414hUfvincRCThVkJelVlzrDDYZIfX6y967cpNjlydQ5HHESLiW6x0FSa5zOuxbWpV82MLDOpWdkK7E9mjOalcQpG8TpK1gzFnPnN2o5BfGrKtubE4oI1QeQPmHf7_4rYf0pARmb05XuSQWa4dQIFuhdQ4fDheK2x1Xwbd4Vg8NiQpRrFKirQh2x0-1LBDCe-1So3NvbkOnYgY9LhtS-al28Rg_i6HQELKlSQtgOvrZy9PcPLF_WkA6d9JigfwIQUVyFgbjaRGDL_7Md4TcDxuVI7DtB6AOXUpFhYZLhxSTmoLu-O-CpTkXvGOx9A3fPQaso3lgrGoCOvKFt31MMr0bdg--5seCraAoq9AD7Mnn0WPuYEAoxSRdMHZ0o46YMlKzwPRU4k7LkEBY1ySqt9ZrAmMRP1DB3F0_VVRWnD1S5gZ_GvVcaVMy-7-4aTRV99vk3R6PRHqTvlhVDaMe2ziaN?></g></svg>