<svg xmlns="http://www.w3.org/2000/svg" xmlns:xlink="http://www.w3.org/1999/xlink" contentStyleType="text/css" height="514px" preserveAspectRatio="none" style="width:1308px;height:514px;background:#FFFFFF;" version="1.1" viewBox="0 0 1308 514" width="1308px" zoomAndPan="magnify"><title>Facade Pattern - Resume Tailoring Simplified Interface</title><defs/><g><text fill="#000000" font-family="sans-serif" font-size="14" font-weight="bold" lengthAdjust="spacing" textLength="396.1289" x="448.9355" y="23.5352">Facade Pattern - Resume Tailoring Simplified Interface</text><!--cluster Facade Pattern--><g id="cluster_Facade Pattern"><path d="M8.5,43.4883 L115.4707,43.4883 A3.75,3.75 0 0 1 117.9707,45.9883 L124.9707,65.9766 L1298.5,65.9766 A2.5,2.5 0 0 1 1301,68.4766 L1301,505.4083 A2.5,2.5 0 0 1 1298.5,507.9083 L8.5,507.9083 A2.5,2.5 0 0 1 6,505.4083 L6,45.9883 A2.5,2.5 0 0 1 8.5,43.4883 " fill="none" style="stroke:#000000;stroke-width:1.5;"/><line style="stroke:#000000;stroke-width:1.5;" x1="6" x2="124.9707" y1="65.9766" y2="65.9766"/><text fill="#000000" font-family="sans-serif" font-size="14" font-weight="bold" lengthAdjust="spacing" textLength="105.9707" x="10" y="59.0234">Facade Pattern</text></g><!--class ResumeTailoringFacade--><g id="elem_ResumeTailoringFacade"><rect codeLine="2263" fill="#F1F1F1" height="113.9531" id="ResumeTailoringFacade" rx="2.5" ry="2.5" style="stroke:#181818;stroke-width:0.5;" width="354.7402" x="711.63" y="236.4683"/><ellipse cx="804.4654" cy="252.4683" fill="#ADD1B2" rx="11" ry="11" style="stroke:#181818;stroke-width:1;"/><path d="M806.9386,258.6113 Q806.3575,258.9102 805.7184,259.0596 Q805.0792,259.209 804.3737,259.209 Q801.8668,259.209 800.547,257.5571 Q799.2272,255.9053 799.2272,252.7842 Q799.2272,249.6548 800.547,248.0029 Q801.8668,246.3511 804.3737,246.3511 Q805.0792,246.3511 805.7267,246.5005 Q806.3741,246.6499 806.9386,246.9488 L806.9386,249.6714 Q806.3077,249.0904 805.7142,248.8206 Q805.1207,248.5508 804.4899,248.5508 Q803.1451,248.5508 802.4603,249.6175 Q801.7755,250.6841 801.7755,252.7842 Q801.7755,254.876 802.4603,255.9426 Q803.1451,257.0093 804.4899,257.0093 Q805.1207,257.0093 805.7142,256.7395 Q806.3077,256.4697 806.9386,255.8887 Z " fill="#000000"/><text fill="#000000" font-family="sans-serif" font-size="14" lengthAdjust="spacing" textLength="160.5693" x="824.9654" y="257.7593">ResumeTailoringFacade</text><line style="stroke:#181818;stroke-width:0.5;" x1="712.63" x2="1065.3702" y1="268.4683" y2="268.4683"/><text fill="#000000" font-family="sans-serif" font-size="14" lengthAdjust="spacing" textLength="241.1719" x="717.63" y="286.0034">-pipeline: AbstractTailoringPipeline</text><text fill="#000000" font-family="sans-serif" font-size="14" lengthAdjust="spacing" textLength="296.5225" x="717.63" y="302.4917">-validationChain: ResumeValidationHandler</text><text fill="#000000" font-family="sans-serif" font-size="14" lengthAdjust="spacing" textLength="189.6016" x="717.63" y="318.98">-renderer: ResumeRenderer</text><line style="stroke:#181818;stroke-width:0.5;" x1="712.63" x2="1065.3702" y1="325.9331" y2="325.9331"/><text fill="#000000" font-family="sans-serif" font-size="14" lengthAdjust="spacing" textLength="342.7402" x="717.63" y="343.4683">+tailor(job, baseResume): TailoredResumeContent</text></g><!--class AbstractTailoringPipeline--><g id="elem_AbstractTailoringPipeline"><rect codeLine="2270" fill="#F1F1F1" height="64.4883" id="AbstractTailoringPipeline" rx="2.5" ry="2.5" style="stroke:#181818;stroke-width:0.5;" width="372.4316" x="101.78" y="427.4183"/><ellipse cx="198.6657" cy="443.4183" fill="#A9DCDF" rx="11" ry="11" style="stroke:#181818;stroke-width:1;"/><path d="M198.529,438.7664 L197.3752,443.8382 L199.6911,443.8382 Z M197.0349,436.5252 L200.0315,436.5252 L203.3767,448.9183 L200.9279,448.9183 L200.1643,445.8553 L196.8855,445.8553 L196.1384,448.9183 L193.6897,448.9183 Z " fill="#000000"/><text fill="#000000" font-family="sans-serif" font-size="14" font-style="italic" lengthAdjust="spacing" textLength="170.1602" x="219.1657" y="448.7093">AbstractTailoringPipeline</text><line style="stroke:#181818;stroke-width:0.5;" x1="102.78" x2="473.2116" y1="459.4183" y2="459.4183"/><line style="stroke:#181818;stroke-width:0.5;" x1="102.78" x2="473.2116" y1="467.4183" y2="467.4183"/><text fill="#000000" font-family="sans-serif" font-size="14" lengthAdjust="spacing" textLength="360.4316" x="107.78" y="484.9534">+execute(job, baseResume): TailoredResumeContent</text></g><!--class OpenAiTailoringPipeline--><g id="elem_OpenAiTailoringPipeline"><rect codeLine="2274" fill="#F1F1F1" height="80.9766" id="OpenAiTailoringPipeline" rx="2.5" ry="2.5" style="stroke:#181818;stroke-width:0.5;" width="372.4316" x="21.78" y="252.9583"/><ellipse cx="122.0803" cy="268.9583" fill="#ADD1B2" rx="11" ry="11" style="stroke:#181818;stroke-width:1;"/><path d="M124.5534,275.1013 Q123.9724,275.4002 123.3332,275.5496 Q122.6941,275.699 121.9885,275.699 Q119.4817,275.699 118.1618,274.0471 Q116.842,272.3953 116.842,269.2742 Q116.842,266.1448 118.1618,264.4929 Q119.4817,262.8411 121.9885,262.8411 Q122.6941,262.8411 123.3415,262.9905 Q123.989,263.1399 124.5534,263.4388 L124.5534,266.1614 Q123.9226,265.5804 123.3291,265.3106 Q122.7356,265.0408 122.1047,265.0408 Q120.76,265.0408 120.0752,266.1075 Q119.3904,267.1741 119.3904,269.2742 Q119.3904,271.366 120.0752,272.4326 Q120.76,273.4993 122.1047,273.4993 Q122.7356,273.4993 123.3291,273.2295 Q123.9226,272.9597 124.5534,272.3787 Z " fill="#000000"/><text fill="#000000" font-family="sans-serif" font-size="14" lengthAdjust="spacing" textLength="163.3311" x="142.5803" y="274.2493">OpenAiTailoringPipeline</text><line style="stroke:#181818;stroke-width:0.5;" x1="22.78" x2="393.2116" y1="284.9583" y2="284.9583"/><text fill="#000000" font-family="sans-serif" font-size="14" lengthAdjust="spacing" textLength="143.3359" x="27.78" y="302.4934">-client: OpenAiClient</text><line style="stroke:#181818;stroke-width:0.5;" x1="22.78" x2="393.2116" y1="309.4466" y2="309.4466"/><text fill="#000000" font-family="sans-serif" font-size="14" lengthAdjust="spacing" textLength="360.4316" x="27.78" y="326.9817">+execute(job, baseResume): TailoredResumeContent</text></g><!--class ResumeValidationHandler--><g id="elem_ResumeValidationHandler"><rect codeLine="2279" fill="#F1F1F1" height="64.4883" id="ResumeValidationHandler" rx="2.5" ry="2.5" style="stroke:#181818;stroke-width:0.5;" width="206.5352" x="578.73" y="427.4183"/><ellipse cx="593.73" cy="443.4183" fill="#A9DCDF" rx="11" ry="11" style="stroke:#181818;stroke-width:1;"/><path d="M593.5933,438.7664 L592.4395,443.8382 L594.7554,443.8382 Z M592.0991,436.5252 L595.0957,436.5252 L598.4409,448.9183 L595.9922,448.9183 L595.2285,445.8553 L591.9497,445.8553 L591.2027,448.9183 L588.7539,448.9183 Z " fill="#000000"/><text fill="#000000" font-family="sans-serif" font-size="14" font-style="italic" lengthAdjust="spacing" textLength="174.5352" x="607.73" y="448.7093">ResumeValidationHandler</text><line style="stroke:#181818;stroke-width:0.5;" x1="579.73" x2="784.2652" y1="459.4183" y2="459.4183"/><line style="stroke:#181818;stroke-width:0.5;" x1="579.73" x2="784.2652" y1="467.4183" y2="467.4183"/><text fill="#000000" font-family="sans-serif" font-size="14" lengthAdjust="spacing" textLength="161.8682" x="584.73" y="484.9534">+validate(content): void</text></g><!--class NoFabricationValidationHandler--><g id="elem_NoFabricationValidationHandler"><rect codeLine="2283" fill="#F1F1F1" height="64.4883" id="NoFabricationValidationHandler" rx="2.5" ry="2.5" style="stroke:#181818;stroke-width:0.5;" width="247.4277" x="429.29" y="261.1983"/><ellipse cx="444.29" cy="277.1983" fill="#ADD1B2" rx="11" ry="11" style="stroke:#181818;stroke-width:1;"/><path d="M446.7631,283.3413 Q446.1821,283.6402 445.5429,283.7896 Q444.9038,283.939 444.1982,283.939 Q441.6914,283.939 440.3715,282.2871 Q439.0517,280.6353 439.0517,277.5142 Q439.0517,274.3848 440.3715,272.7329 Q441.6914,271.0811 444.1982,271.0811 Q444.9038,271.0811 445.5512,271.2305 Q446.1987,271.3799 446.7631,271.6788 L446.7631,274.4014 Q446.1323,273.8204 445.5388,273.5506 Q444.9453,273.2808 444.3144,273.2808 Q442.9697,273.2808 442.2849,274.3475 Q441.6001,275.4141 441.6001,277.5142 Q441.6001,279.606 442.2849,280.6726 Q442.9697,281.7393 444.3144,281.7393 Q444.9453,281.7393 445.5388,281.4695 Q446.1323,281.1997 446.7631,280.6187 Z " fill="#000000"/><text fill="#000000" font-family="sans-serif" font-size="14" lengthAdjust="spacing" textLength="215.4277" x="458.29" y="282.4893">NoFabricationValidationHandler</text><line style="stroke:#181818;stroke-width:0.5;" x1="430.29" x2="675.7177" y1="293.1983" y2="293.1983"/><line style="stroke:#181818;stroke-width:0.5;" x1="430.29" x2="675.7177" y1="301.1983" y2="301.1983"/><text fill="#000000" font-family="sans-serif" font-size="14" lengthAdjust="spacing" textLength="161.8682" x="435.29" y="318.7334">+validate(content): void</text></g><!--class ResumeRenderer--><g id="elem_ResumeRenderer"><rect codeLine="2287" fill="#F1F1F1" height="64.4883" id="ResumeRenderer" rx="2.5" ry="2.5" style="stroke:#181818;stroke-width:0.5;" width="177.04" x="926.48" y="427.4183"/><ellipse cx="955.1975" cy="443.4183" fill="#B4A7E5" rx="11" ry="11" style="stroke:#181818;stroke-width:1;"/><path d="M951.6253,439.6834 L951.6253,437.5252 L959.0047,437.5252 L959.0047,439.6834 L956.5393,439.6834 L956.5393,447.7601 L959.0047,447.7601 L959.0047,449.9183 L951.6253,449.9183 L951.6253,447.7601 L954.0906,447.7601 L954.0906,439.6834 Z " fill="#000000"/><text fill="#000000" font-family="sans-serif" font-size="14" font-style="italic" lengthAdjust="spacing" textLength="114.5566" x="972.2459" y="448.7093">ResumeRenderer</text><line style="stroke:#181818;stroke-width:0.5;" x1="927.48" x2="1102.52" y1="459.4183" y2="459.4183"/><line style="stroke:#181818;stroke-width:0.5;" x1="927.48" x2="1102.52" y1="467.4183" y2="467.4183"/><text fill="#000000" font-family="sans-serif" font-size="14" lengthAdjust="spacing" textLength="165.04" x="932.48" y="484.9534">+render(content): String</text></g><!--class LatexResumeRenderer--><g id="elem_LatexResumeRenderer"><rect codeLine="2291" fill="#F1F1F1" height="64.4883" id="LatexResumeRenderer" rx="2.5" ry="2.5" style="stroke:#181818;stroke-width:0.5;" width="183.375" x="1101.31" y="261.1983"/><ellipse cx="1116.31" cy="277.1983" fill="#ADD1B2" rx="11" ry="11" style="stroke:#181818;stroke-width:1;"/><path d="M1118.7831,283.3413 Q1118.2021,283.6402 1117.5629,283.7896 Q1116.9238,283.939 1116.2182,283.939 Q1113.7114,283.939 1112.3915,282.2871 Q1111.0717,280.6353 1111.0717,277.5142 Q1111.0717,274.3848 1112.3915,272.7329 Q1113.7114,271.0811 1116.2182,271.0811 Q1116.9238,271.0811 1117.5712,271.2305 Q1118.2187,271.3799 1118.7831,271.6788 L1118.7831,274.4014 Q1118.1523,273.8204 1117.5588,273.5506 Q1116.9653,273.2808 1116.3344,273.2808 Q1114.9897,273.2808 1114.3049,274.3475 Q1113.6201,275.4141 1113.6201,277.5142 Q1113.6201,279.606 1114.3049,280.6726 Q1114.9897,281.7393 1116.3344,281.7393 Q1116.9653,281.7393 1117.5588,281.4695 Q1118.1523,281.1997 1118.7831,280.6187 Z " fill="#000000"/><text fill="#000000" font-family="sans-serif" font-size="14" lengthAdjust="spacing" textLength="151.375" x="1130.31" y="282.4893">LatexResumeRenderer</text><line style="stroke:#181818;stroke-width:0.5;" x1="1102.31" x2="1283.685" y1="293.1983" y2="293.1983"/><line style="stroke:#181818;stroke-width:0.5;" x1="1102.31" x2="1283.685" y1="301.1983" y2="301.1983"/><text fill="#000000" font-family="sans-serif" font-size="14" lengthAdjust="spacing" textLength="165.04" x="1107.31" y="318.7334">+render(content): String</text></g><!--class ResumeService--><g id="elem_ResumeService"><rect codeLine="2295" fill="#F1F1F1" height="80.9766" id="ResumeService" rx="2.5" ry="2.5" style="stroke:#181818;stroke-width:0.5;" width="352.5117" x="712.74" y="78.4883"/><ellipse cx="834.406" cy="94.4883" fill="#ADD1B2" rx="11" ry="11" style="stroke:#181818;stroke-width:1;"/><path d="M836.8792,100.6313 Q836.2981,100.9302 835.6589,101.0796 Q835.0198,101.229 834.3142,101.229 Q831.8074,101.229 830.4876,99.5771 Q829.1677,97.9253 829.1677,94.8042 Q829.1677,91.6748 830.4876,90.0229 Q831.8074,88.3711 834.3142,88.3711 Q835.0198,88.3711 835.6672,88.5205 Q836.3147,88.6699 836.8792,88.9688 L836.8792,91.6914 Q836.2483,91.1104 835.6548,90.8406 Q835.0613,90.5708 834.4304,90.5708 Q833.0857,90.5708 832.4009,91.6375 Q831.7161,92.7041 831.7161,94.8042 Q831.7161,96.896 832.4009,97.9626 Q833.0857,99.0293 834.4304,99.0293 Q835.0613,99.0293 835.6548,98.7595 Q836.2483,98.4897 836.8792,97.9087 Z " fill="#000000"/><text fill="#000000" font-family="sans-serif" font-size="14" lengthAdjust="spacing" textLength="100.6797" x="854.906" y="99.7793">ResumeService</text><line style="stroke:#181818;stroke-width:0.5;" x1="713.74" x2="1064.2517" y1="110.4883" y2="110.4883"/><text fill="#000000" font-family="sans-serif" font-size="14" lengthAdjust="spacing" textLength="221.9219" x="718.74" y="128.0234">-facade: ResumeTailoringFacade</text><line style="stroke:#181818;stroke-width:0.5;" x1="713.74" x2="1064.2517" y1="134.9766" y2="134.9766"/><text fill="#000000" font-family="sans-serif" font-size="14" lengthAdjust="spacing" textLength="340.5117" x="718.74" y="152.5117">+generateForJob(jobId): TailoredResumeResponse</text></g><!--link OpenAiTailoringPipeline to AbstractTailoringPipeline--><g id="link_OpenAiTailoringPipeline_AbstractTailoringPipeline"><path codeLine="2301" d="M227.37,334.1983 C241.24,362.6783 251.7869,384.3263 264.6769,410.7863 " fill="none" id="OpenAiTailoringPipeline-to-AbstractTailoringPipeline" style="stroke:#181818;stroke-width:1;"/><polygon fill="none" points="272.56,426.9683,270.0709,408.1586,259.2829,413.414,272.56,426.9683" style="stroke:#181818;stroke-width:1;"/></g><!--link NoFabricationValidationHandler to ResumeValidationHandler--><g id="link_NoFabricationValidationHandler_ResumeValidationHandler"><path codeLine="2302" d="M577.87,326.1083 C600.72,355.1883 623.2737,383.891 646.0837,412.941 " fill="none" id="NoFabricationValidationHandler-to-ResumeValidationHandler" style="stroke:#181818;stroke-width:1;"/><polygon fill="none" points="657.2,427.0983,650.8028,409.2356,641.3646,416.6464,657.2,427.0983" style="stroke:#181818;stroke-width:1;"/></g><!--link LatexResumeRenderer to ResumeRenderer--><g id="link_LatexResumeRenderer_ResumeRenderer"><path codeLine="2303" d="M1158.68,326.1083 C1127.16,355.1883 1093.9302,385.8433 1062.4402,414.8933 " fill="none" id="LatexResumeRenderer-to-ResumeRenderer" style="stroke:#181818;stroke-width:1;stroke-dasharray:7.0,7.0;"/><polygon fill="none" points="1049.21,427.0983,1066.5085,419.3033,1058.3718,410.4832,1049.21,427.0983" style="stroke:#181818;stroke-width:1;"/><text fill="#000000" font-family="sans-serif" font-size="13" lengthAdjust="spacing" textLength="48.5786" x="1099.66" y="393.9866">realizes</text></g><!--link ResumeTailoringFacade to AbstractTailoringPipeline--><g id="link_ResumeTailoringFacade_AbstractTailoringPipeline"><path codeLine="2304" d="M711.29,345.6083 C705.46,347.2383 699.69,348.8483 694,350.4183 C598.56,376.8383 495.9824,404.151 415.2124,425.411 " fill="none" id="ResumeTailoringFacade-to-AbstractTailoringPipeline" style="stroke:#181818;stroke-width:1;"/><polygon fill="#181818" points="409.41,426.9383,419.1317,428.5156,414.2453,425.6655,417.0954,420.7791,409.41,426.9383" style="stroke:#181818;stroke-width:1;"/><text fill="#000000" font-family="sans-serif" font-size="13" lengthAdjust="spacing" textLength="28.5645" x="583.66" y="393.9866">uses</text><text fill="#000000" font-family="sans-serif" font-size="13" lengthAdjust="spacing" textLength="8.2202" x="695.6287" y="345.0674">1</text><text fill="#000000" font-family="sans-serif" font-size="13" lengthAdjust="spacing" textLength="8.2202" x="424.5476" y="416.6181">1</text></g><!--link ResumeTailoringFacade to ResumeValidationHandler--><g id="link_ResumeTailoringFacade_ResumeValidationHandler"><path codeLine="2305" d="M818.05,350.7283 C785.87,376.2583 753.7107,401.7795 726.4807,423.3795 " fill="none" id="ResumeTailoringFacade-to-ResumeValidationHandler" style="stroke:#181818;stroke-width:1;"/><polygon fill="#181818" points="721.78,427.1083,731.3168,424.6489,725.6972,424.001,726.3452,418.3813,721.78,427.1083" style="stroke:#181818;stroke-width:1;"/><text fill="#000000" font-family="sans-serif" font-size="13" lengthAdjust="spacing" textLength="40.3584" x="780.29" y="393.9866">chains</text><text fill="#000000" font-family="sans-serif" font-size="13" lengthAdjust="spacing" textLength="8.2202" x="801.3966" y="370.8052">1</text><text fill="#000000" font-family="sans-serif" font-size="13" lengthAdjust="spacing" textLength="22.7119" x="705.7898" y="416.4475">1..*</text></g><!--link ResumeTailoringFacade to ResumeRenderer--><g id="link_ResumeTailoringFacade_ResumeRenderer"><path codeLine="2306" d="M921.42,350.7583 C931.22,366.3483 942.47,382.9583 954,397.4183 C962.14,407.6283 967.5497,413.7233 976.7497,422.9333 " fill="none" id="ResumeTailoringFacade-to-ResumeRenderer" style="stroke:#181818;stroke-width:1;"/><polygon fill="#181818" points="980.99,427.1783,977.4595,417.984,977.4564,423.6408,971.7995,423.6378,980.99,427.1783" style="stroke:#181818;stroke-width:1;"/><text fill="#000000" font-family="sans-serif" font-size="13" lengthAdjust="spacing" textLength="48.001" x="955" y="393.9866">renders</text><text fill="#000000" font-family="sans-serif" font-size="13" lengthAdjust="spacing" textLength="8.2202" x="916.7188" y="370.8386">1</text><text fill="#000000" font-family="sans-serif" font-size="13" lengthAdjust="spacing" textLength="8.2202" x="965.1731" y="416.5319">1</text></g><!--link ResumeService to ResumeTailoringFacade--><g id="link_ResumeService_ResumeTailoringFacade"><path codeLine="2307" d="M889,159.5483 C889,182.2183 889,205.0583 889,230.0683 " fill="none" id="ResumeService-to-ResumeTailoringFacade" style="stroke:#181818;stroke-width:1;"/><polygon fill="#181818" points="889,236.0683,893,227.0683,889,231.0683,885,227.0683,889,236.0683" style="stroke:#181818;stroke-width:1;"/><text fill="#000000" font-family="sans-serif" font-size="13" lengthAdjust="spacing" textLength="60.4424" x="890" y="203.0366">delegates</text><text fill="#000000" font-family="sans-serif" font-size="13" lengthAdjust="spacing" textLength="8.2202" x="880.3564" y="180.1042">1</text><text fill="#000000" font-family="sans-serif" font-size="13" lengthAdjust="spacing" textLength="8.2202" x="880.5259" y="225.7487">1</text></g><!--SRC=[fLJ1Rjim3BtxAmYVkdKEjgiE1O80GJCCMz0ClTCIax5L94DIWg1h_tso9HjD6dVTUh4jYUyzaazquA09vYXH4Imn1786AhWXlziI_4JMrh7Pm8gtZUOrauA5YK5hb5JuUpODEjo2rEZzD0J7zIxGGbgpuWU2pqNHeBp73K5vh572xm8IB8iDMZcmFGUe6cv8io41qze7Xp8CWSjyb0Btg5bXO6jclv2DoBItm_Or6gN9fMX7Hf4ZruVTv7LtUXawYOixMt-26Zsbc0yYDuHKsfZPs0eJ8kQfY0_C2UQoHlFDfLtIWMJirh_A9FOV3PafZt5NKdE4Y1mswrRlKZqfRgIvVMdP3BgGYIMoxoshunA-spdMZcL7yBzKtD_64oDxU3Bw6NWLsduTP_8jyX_UWK_G5Razoy62TNUFnVdhdSWtPCX5xRbrNstTMh9GBuo8pyOQJvra51rplgeUhruPahzqkqEFZSov_amc0s3O4-0eWX_85-U7klnIHgMhxZq-7m9s_WqKayd7SlGY2f3jR-0jYPmfeltieRsjBo6df08KQTh4PldY3m00]--></g></svg>