<svg xmlns="http://www.w3.org/2000/svg" xmlns:xlink="http://www.w3.org/1999/xlink" contentStyleType="text/css" height="465px" preserveAspectRatio="none" style="width:999px;height:465px;background:#FEFEFE;" version="1.1" viewBox="0 0 999 465" width="999px" zoomAndPan="magnify"><title>Chain of Responsibility - Resume Validation Pipeline</title><defs/><g><rect fill="#FEFEFE" height="465" style="stroke:none;stroke-width:1;" width="999" x="0" y="0"/><text fill="#000000" font-family="sans-serif" font-size="14" font-weight="bold" lengthAdjust="spacing" textLength="381.8076" x="301.8141" y="23.5352">Chain of Responsibility - Resume Validation Pipeline</text><!--class ResumeValidationHandler--><g id="elem_ResumeValidationHandler"><rect codeLine="490" fill="#E0F2F1" height="113.9531" id="ResumeValidationHandler" rx="2.5" ry="2.5" style="stroke:#00897B;stroke-width:0.5;" width="303.7236" x="353.84" y="169.9783"/><ellipse cx="414.1842" cy="185.9783" fill="#A9DCDF" rx="11" ry="11" style="stroke:#181818;stroke-width:1;"/><path d="M414.0475,181.3264 L412.8937,186.3982 L415.2096,186.3982 Z M412.5534,179.0852 L415.55,179.0852 L418.8952,191.4783 L416.4464,191.4783 L415.6828,188.4153 L412.404,188.4153 L411.6569,191.4783 L409.2082,191.4783 Z " fill="#000000"/><text fill="#000000" font-family="sans-serif" font-size="14" font-style="italic" lengthAdjust="spacing" textLength="174.5352" x="434.6842" y="191.2693">ResumeValidationHandler</text><line style="stroke:#00897B;stroke-width:0.5;" x1="354.84" x2="656.5636" y1="201.9783" y2="201.9783"/><polygon fill="none" points="364.84,210.7224,368.84,214.7224,364.84,218.7224,360.84,214.7224" style="stroke:#B38D22;stroke-width:1;"/><text fill="#000000" font-family="sans-serif" font-size="14" lengthAdjust="spacing" textLength="213.7051" x="373.84" y="219.5134">next: ResumeValidationHandler</text><line style="stroke:#00897B;stroke-width:0.5;" x1="354.84" x2="656.5636" y1="226.4666" y2="226.4666"/><ellipse cx="364.84" cy="240.2107" fill="#84BE84" rx="3" ry="3" style="stroke:#038048;stroke-width:1;"/><text fill="#000000" font-family="sans-serif" font-size="14" lengthAdjust="spacing" textLength="277.7236" x="373.84" y="244.0017">linkWith(next): ResumeValidationHandler</text><ellipse cx="364.84" cy="256.699" fill="#84BE84" rx="3" ry="3" style="stroke:#038048;stroke-width:1;"/><text fill="#000000" font-family="sans-serif" font-size="14" lengthAdjust="spacing" textLength="150.7393" x="373.84" y="260.49">validate(content): void</text><polygon fill="#FFFF44" points="364.84,268.1873,368.84,272.1873,364.84,276.1873,360.84,272.1873" style="stroke:#B38D22;stroke-width:1;"/><text fill="#000000" font-family="sans-serif" font-size="14" lengthAdjust="spacing" textLength="137.1016" x="373.84" y="276.9783">check(content): void</text></g><!--class NoFabricationValidationHandler--><g id="elem_NoFabricationValidationHandler"><rect codeLine="497" fill="#E0F2F1" height="64.4883" id="NoFabricationValidationHandler" rx="2.5" ry="2.5" style="stroke:#00897B;stroke-width:0.5;" width="319.4053" x="9" y="44.4883"/><ellipse cx="56.7388" cy="60.4883" fill="#ADD1B2" rx="11" ry="11" style="stroke:#181818;stroke-width:1;"/><path d="M59.2119,66.6313 Q58.6309,66.9302 57.9917,67.0796 Q57.3525,67.229 56.647,67.229 Q54.1401,67.229 52.8203,65.5771 Q51.5005,63.9253 51.5005,60.8042 Q51.5005,57.6748 52.8203,56.0229 Q54.1401,54.3711 56.647,54.3711 Q57.3525,54.3711 58,54.5205 Q58.6475,54.6699 59.2119,54.9688 L59.2119,57.6914 Q58.5811,57.1104 57.9875,56.8406 Q57.394,56.5708 56.7632,56.5708 Q55.4185,56.5708 54.7336,57.6375 Q54.0488,58.7041 54.0488,60.8042 Q54.0488,62.896 54.7336,63.9626 Q55.4185,65.0293 56.7632,65.0293 Q57.394,65.0293 57.9875,64.7595 Q58.5811,64.4897 59.2119,63.9087 Z " fill="#000000"/><text fill="#000000" font-family="sans-serif" font-size="14" lengthAdjust="spacing" textLength="215.4277" x="77.2388" y="65.7793">NoFabricationValidationHandler</text><line style="stroke:#00897B;stroke-width:0.5;" x1="10" x2="327.4053" y1="76.4883" y2="76.4883"/><line style="stroke:#00897B;stroke-width:0.5;" x1="10" x2="327.4053" y1="84.4883" y2="84.4883"/><polygon fill="#FFFF44" points="20,93.2324,24,97.2324,20,101.2324,16,97.2324" style="stroke:#B38D22;stroke-width:1;"/><text fill="#000000" font-family="sans-serif" font-size="14" lengthAdjust="spacing" textLength="293.4053" x="29" y="102.0234">check(content): checks for false experience</text></g><!--class AtsLengthValidationHandler--><g id="elem_AtsLengthValidationHandler"><rect codeLine="501" fill="#E0F2F1" height="64.4883" id="AtsLengthValidationHandler" rx="2.5" ry="2.5" style="stroke:#00897B;stroke-width:0.5;" width="283.8174" x="363.79" y="44.4883"/><ellipse cx="406.6856" cy="60.4883" fill="#ADD1B2" rx="11" ry="11" style="stroke:#181818;stroke-width:1;"/><path d="M409.1588,66.6313 Q408.5777,66.9302 407.9385,67.0796 Q407.2994,67.229 406.5938,67.229 Q404.087,67.229 402.7671,65.5771 Q401.4473,63.9253 401.4473,60.8042 Q401.4473,57.6748 402.7671,56.0229 Q404.087,54.3711 406.5938,54.3711 Q407.2994,54.3711 407.9468,54.5205 Q408.5943,54.6699 409.1588,54.9688 L409.1588,57.6914 Q408.5279,57.1104 407.9344,56.8406 Q407.3409,56.5708 406.71,56.5708 Q405.3653,56.5708 404.6805,57.6375 Q403.9957,58.7041 403.9957,60.8042 Q403.9957,62.896 404.6805,63.9626 Q405.3653,65.0293 406.71,65.0293 Q407.3409,65.0293 407.9344,64.7595 Q408.5279,64.4897 409.1588,63.9087 Z " fill="#000000"/><text fill="#000000" font-family="sans-serif" font-size="14" lengthAdjust="spacing" textLength="189.8271" x="426.8846" y="65.7793">AtsLengthValidationHandler</text><line style="stroke:#00897B;stroke-width:0.5;" x1="364.79" x2="646.6074" y1="76.4883" y2="76.4883"/><line style="stroke:#00897B;stroke-width:0.5;" x1="364.79" x2="646.6074" y1="84.4883" y2="84.4883"/><polygon fill="#FFFF44" points="374.79,93.2324,378.79,97.2324,374.79,101.2324,370.79,97.2324" style="stroke:#B38D22;stroke-width:1;"/><text fill="#000000" font-family="sans-serif" font-size="14" lengthAdjust="spacing" textLength="257.8174" x="383.79" y="102.0234">check(content): validates length limits</text></g><!--class RequiredSectionsValidationHandler--><g id="elem_RequiredSectionsValidationHandler"><rect codeLine="505" fill="#E0F2F1" height="64.4883" id="RequiredSectionsValidationHandler" rx="2.5" ry="2.5" style="stroke:#00897B;stroke-width:0.5;" width="309.4658" x="682.97" y="44.4883"/><ellipse cx="715.7542" cy="60.4883" fill="#ADD1B2" rx="11" ry="11" style="stroke:#181818;stroke-width:1;"/><path d="M718.2274,66.6313 Q717.6463,66.9302 717.0072,67.0796 Q716.368,67.229 715.6624,67.229 Q713.1556,67.229 711.8358,65.5771 Q710.5159,63.9253 710.5159,60.8042 Q710.5159,57.6748 711.8358,56.0229 Q713.1556,54.3711 715.6624,54.3711 Q716.368,54.3711 717.0155,54.5205 Q717.6629,54.6699 718.2274,54.9688 L718.2274,57.6914 Q717.5965,57.1104 717.003,56.8406 Q716.4095,56.5708 715.7786,56.5708 Q714.4339,56.5708 713.7491,57.6375 Q713.0643,58.7041 713.0643,60.8042 Q713.0643,62.896 713.7491,63.9626 Q714.4339,65.0293 715.7786,65.0293 Q716.4095,65.0293 717.003,64.7595 Q717.5965,64.4897 718.2274,63.9087 Z " fill="#000000"/><text fill="#000000" font-family="sans-serif" font-size="14" lengthAdjust="spacing" textLength="237.9453" x="733.7063" y="65.7793">RequiredSectionsValidationHandler</text><line style="stroke:#00897B;stroke-width:0.5;" x1="683.97" x2="991.4358" y1="76.4883" y2="76.4883"/><line style="stroke:#00897B;stroke-width:0.5;" x1="683.97" x2="991.4358" y1="84.4883" y2="84.4883"/><polygon fill="#FFFF44" points="693.97,93.2324,697.97,97.2324,693.97,101.2324,689.97,97.2324" style="stroke:#B38D22;stroke-width:1;"/><text fill="#000000" font-family="sans-serif" font-size="14" lengthAdjust="spacing" textLength="283.4658" x="702.97" y="102.0234">check(content): ensures required sections</text></g><!--class TailoredResumeContent--><g id="elem_TailoredResumeContent"><rect codeLine="509" fill="#E0F2F1" height="97.4648" id="TailoredResumeContent" rx="2.5" ry="2.5" style="stroke:#00897B;stroke-width:0.5;" width="235.6582" x="387.87" y="360.9383"/><ellipse cx="421.211" cy="376.9383" fill="#ADD1B2" rx="11" ry="11" style="stroke:#181818;stroke-width:1;"/><path d="M423.6842,383.0813 Q423.1031,383.3802 422.4639,383.5296 Q421.8248,383.679 421.1192,383.679 Q418.6124,383.679 417.2926,382.0271 Q415.9727,380.3753 415.9727,377.2542 Q415.9727,374.1248 417.2926,372.4729 Q418.6124,370.8211 421.1192,370.8211 Q421.8248,370.8211 422.4722,370.9705 Q423.1197,371.1199 423.6842,371.4188 L423.6842,374.1414 Q423.0533,373.5604 422.4598,373.2906 Q421.8663,373.0208 421.2354,373.0208 Q419.8907,373.0208 419.2059,374.0875 Q418.5211,375.1541 418.5211,377.2542 Q418.5211,379.346 419.2059,380.4126 Q419.8907,381.4793 421.2354,381.4793 Q421.8663,381.4793 422.4598,381.2095 Q423.0533,380.9397 423.6842,380.3587 Z " fill="#000000"/><text fill="#000000" font-family="sans-serif" font-size="14" lengthAdjust="spacing" textLength="162.9004" x="439.2868" y="382.2293">TailoredResumeContent</text><line style="stroke:#00897B;stroke-width:0.5;" x1="388.87" x2="622.5282" y1="392.9383" y2="392.9383"/><ellipse cx="398.87" cy="406.6824" fill="none" rx="3" ry="3" style="stroke:#038048;stroke-width:1;"/><text fill="#000000" font-family="sans-serif" font-size="14" lengthAdjust="spacing" textLength="111.5693" x="407.87" y="410.4734">summary: String</text><ellipse cx="398.87" cy="423.1707" fill="none" rx="3" ry="3" style="stroke:#038048;stroke-width:1;"/><text fill="#000000" font-family="sans-serif" font-size="14" lengthAdjust="spacing" textLength="125.0156" x="407.87" y="426.9617">skills: List~String~</text><ellipse cx="398.87" cy="439.659" fill="none" rx="3" ry="3" style="stroke:#038048;stroke-width:1;"/><text fill="#000000" font-family="sans-serif" font-size="14" lengthAdjust="spacing" textLength="209.6582" x="407.87" y="443.45">experienceBullets: List~String~</text><line style="stroke:#00897B;stroke-width:0.5;" x1="388.87" x2="622.5282" y1="450.4031" y2="450.4031"/></g><!--link NoFabricationValidationHandler to ResumeValidationHandler--><g id="link_NoFabricationValidationHandler_ResumeValidationHandler"><path codeLine="515" d="M240.58,109.3483 C280.41,126.8683 314.624,141.9098 360.994,162.3098 " fill="none" id="NoFabricationValidationHandler-to-ResumeValidationHandler" style="stroke:#181818;stroke-width:1;"/><polygon fill="none" points="377.47,169.5583,363.4101,156.8178,358.5778,167.8018,377.47,169.5583" style="stroke:#181818;stroke-width:1;"/></g><!--link AtsLengthValidationHandler to ResumeValidationHandler--><g id="link_AtsLengthValidationHandler_ResumeValidationHandler"><path codeLine="516" d="M505.7,109.1683 C505.7,126.7583 505.7,131.2183 505.7,151.7283 " fill="none" id="AtsLengthValidationHandler-to-ResumeValidationHandler" style="stroke:#181818;stroke-width:1;"/><polygon fill="none" points="505.7,169.7283,511.7,151.7283,499.7,151.7283,505.7,169.7283" style="stroke:#181818;stroke-width:1;"/></g><!--link RequiredSectionsValidationHandler to ResumeValidationHandler--><g id="link_RequiredSectionsValidationHandler_ResumeValidationHandler"><path codeLine="517" d="M766.89,109.3483 C727.66,126.8683 694.1455,141.8184 648.4655,162.2184 " fill="none" id="RequiredSectionsValidationHandler-to-ResumeValidationHandler" style="stroke:#181818;stroke-width:1;"/><polygon fill="none" points="632.03,169.5583,650.9121,167.6969,646.0189,156.7399,632.03,169.5583" style="stroke:#181818;stroke-width:1;"/></g><!--link ResumeValidationHandler to ResumeValidationHandler--><g id="link_ResumeValidationHandler_ResumeValidationHandler"><path codeLine="518" d="M669.7592,213.7488 C690.5892,216.1788 692.56,219.6483 692.56,226.9583 C692.56,234.2583 684.6299,238.4359 663.7999,240.8559 " fill="none" id="ResumeValidationHandler-ResumeValidationHandler" style="stroke:#181818;stroke-width:1;"/><polygon fill="none" points="657.84,212.3583,663.3361,217.0266,669.7592,213.7488,664.2631,209.0805,657.84,212.3583" style="stroke:#181818;stroke-width:1;"/><polygon fill="#181818" points="657.84,241.5483,667.2415,244.4829,662.8066,240.9713,666.3183,236.5364,657.84,241.5483" style="stroke:#181818;stroke-width:1;"/><polygon fill="#000000" points="698.1394,232.0799,700.0104,222.7552,694.1722,223.4363,698.1394,232.0799" style="stroke:#000000;stroke-width:1;"/><text fill="#000000" font-family="sans-serif" font-size="13" lengthAdjust="spacing" textLength="80.0757" x="711.56" y="232.0266">next handler</text><text fill="#000000" font-family="sans-serif" font-size="13" lengthAdjust="spacing" textLength="8.2202" x="665.4083" y="208.8639">1</text><text fill="#000000" font-family="sans-serif" font-size="13" lengthAdjust="spacing" textLength="24.667" x="665.8066" y="239.4678">0..1</text></g><!--link ResumeValidationHandler to TailoredResumeContent--><g id="link_ResumeValidationHandler_TailoredResumeContent"><path codeLine="519" d="M505.7,284.1483 C505.7,308.5983 505.7,330.9583 505.7,354.4383 " fill="none" id="ResumeValidationHandler-to-TailoredResumeContent" style="stroke:#181818;stroke-width:1;stroke-dasharray:7.0,7.0;"/><polygon fill="#181818" points="505.7,360.4383,509.7,351.4383,505.7,355.4383,501.7,351.4383,505.7,360.4383" style="stroke:#181818;stroke-width:1;"/><text fill="#000000" font-family="sans-serif" font-size="13" lengthAdjust="spacing" textLength="55.5166" x="506.7" y="327.5066">validates</text><text fill="#000000" font-family="sans-serif" font-size="13" lengthAdjust="spacing" textLength="8.2202" x="497.2257" y="304.6201">1</text><text fill="#000000" font-family="sans-serif" font-size="13" lengthAdjust="spacing" textLength="8.2202" x="497.1531" y="350.0505">1</text></g><!--SRC=[ZP9DIyD048Rl-HL3lIYIqdfHUoZOqk11H5hHysOpROPiTkFkH2ngVxkR3ubKcqeEctrvvjtvOcA5C4y5QJ1hMA8hZ7OKaoBUGbW9POxm91GbWibeUA025MaCs1J01cB3R798oAAiWC1bf0jXHGwnaDd6cb8dSwECXPDeKNq_2Ac4SxDzR36ABgBnBypO16sBZ4PNrvUp812nOoiaDqYRRfVjhT29GWll0S29nZUU748ySExBofw9qzEAFEj5NniHJwNHZBgYNmqbrJCoHPdjwvz1q6HuRo8HMvAruO54zntgkuErBtmjb4F0jm8jePRO6T-mkqEzuVIVfjyLE51r62ZAYLrdkCINqWyrMJLpTV_qHUrAwrrj6mwkZU-S7mNv8MBIz7VUXDPkvrx8XTrEOCMMzAQMCbBAJU2E7EyQULVfNHDcfLB8-uX_xaYpm_1ZUd38FVtiZJlUjYFXVs_mO3m04uPJ68o6G_z_Y9j0jRoGjjTfh-5mEAtFlmVoOqU2Bm00]--></g></svg>