<svg xmlns="http://www.w3.org/2000/svg" xmlns:xlink="http://www.w3.org/1999/xlink" contentStyleType="text/css" height="776px" preserveAspectRatio="none" style="width:2088px;height:776px;background:#FFFFFF;" version="1.1" viewBox="0 0 2088 776" width="2088px" zoomAndPan="magnify"><title>Auth Flow - Register/Login and JWT-Protected Calls</title><defs/><g><text fill="#000000" font-family="sans-serif" font-size="14" font-weight="bold" lengthAdjust="spacing" textLength="379.8115" x="853.259" y="28.5352">Auth Flow - Register/Login and JWT-Protected Calls</text><line style="stroke:#181818;stroke-width:0.5;stroke-dasharray:5.0,5.0;" x1="23" x2="23" y1="118.9766" y2="695.877"/><line style="stroke:#181818;stroke-width:0.5;stroke-dasharray:5.0,5.0;" x1="152.7339" x2="152.7339" y1="118.9766" y2="695.877"/><line style="stroke:#181818;stroke-width:0.5;stroke-dasharray:5.0,5.0;" x1="297.3008" x2="297.3008" y1="118.9766" y2="695.877"/><line style="stroke:#181818;stroke-width:0.5;stroke-dasharray:5.0,5.0;" x1="440.1016" x2="440.1016" y1="118.9766" y2="695.877"/><line style="stroke:#181818;stroke-width:0.5;stroke-dasharray:5.0,5.0;" x1="687.623" x2="687.623" y1="118.9766" y2="695.877"/><line style="stroke:#181818;stroke-width:0.5;stroke-dasharray:5.0,5.0;" x1="925.1367" x2="925.1367" y1="118.9766" y2="695.877"/><line style="stroke:#181818;stroke-width:0.5;stroke-dasharray:5.0,5.0;" x1="1038.7134" x2="1038.7134" y1="118.9766" y2="695.877"/><line style="stroke:#181818;stroke-width:0.5;stroke-dasharray:5.0,5.0;" x1="1262.853" x2="1262.853" y1="118.9766" y2="695.877"/><line style="stroke:#181818;stroke-width:0.5;stroke-dasharray:5.0,5.0;" x1="1371.3442" x2="1371.3442" y1="118.9766" y2="695.877"/><line style="stroke:#181818;stroke-width:0.5;stroke-dasharray:5.0,5.0;" x1="1500.0542" x2="1500.0542" y1="118.9766" y2="695.877"/><line style="stroke:#181818;stroke-width:0.5;stroke-dasharray:5.0,5.0;" x1="1663.2778" x2="1663.2778" y1="118.9766" y2="695.877"/><line style="stroke:#181818;stroke-width:0.5;stroke-dasharray:5.0,5.0;" x1="1833.9673" x2="1833.9673" y1="118.9766" y2="695.877"/><line style="stroke:#181818;stroke-width:0.5;stroke-dasharray:5.0,5.0;" x1="2005.2271" x2="2005.2271" y1="118.9766" y2="695.877"/><text fill="#000000" font-family="sans-serif" font-size="14" lengthAdjust="spacing" textLength="30.3652" x="5" y="116.0234">User</text><ellipse cx="23.1826" cy="50.9883" fill="#E2E2F0" rx="8" ry="8" style="stroke:#181818;stroke-width:0.5;"/><path d="M23.1826,58.9883 L23.1826,85.9883 M10.1826,66.9883 L36.1826,66.9883 M23.1826,85.9883 L10.1826,100.9883 M23.1826,85.9883 L36.1826,100.9883 " fill="none" style="stroke:#181818;stroke-width:0.5;"/><text fill="#000000" font-family="sans-serif" font-size="14" lengthAdjust="spacing" textLength="30.3652" x="5" y="708.4121">User</text><ellipse cx="23.1826" cy="719.8652" fill="#E2E2F0" rx="8" ry="8" style="stroke:#181818;stroke-width:0.5;"/><path d="M23.1826,727.8652 L23.1826,754.8652 M10.1826,735.8652 L36.1826,735.8652 M23.1826,754.8652 L10.1826,769.8652 M23.1826,754.8652 L36.1826,769.8652 " fill="none" style="stroke:#181818;stroke-width:0.5;"/><rect fill="#E2E2F0" height="30.4883" rx="2.5" ry="2.5" style="stroke:#181818;stroke-width:0.5;" width="116.3887" x="94.7339" y="87.4883"/><text fill="#000000" font-family="sans-serif" font-size="14" lengthAdjust="spacing" textLength="102.3887" x="101.7339" y="108.0234">AuthScreen.tsx</text><rect fill="#E2E2F0" height="30.4883" rx="2.5" ry="2.5" style="stroke:#181818;stroke-width:0.5;" width="116.3887" x="94.7339" y="694.877"/><text fill="#000000" font-family="sans-serif" font-size="14" lengthAdjust="spacing" textLength="102.3887" x="101.7339" y="715.4121">AuthScreen.tsx</text><rect fill="#E2E2F0" height="30.4883" rx="2.5" ry="2.5" style="stroke:#181818;stroke-width:0.5;" width="125.4941" x="235.3008" y="87.4883"/><text fill="#000000" font-family="sans-serif" font-size="14" lengthAdjust="spacing" textLength="111.4941" x="242.3008" y="108.0234">AuthContext.tsx</text><rect fill="#E2E2F0" height="30.4883" rx="2.5" ry="2.5" style="stroke:#181818;stroke-width:0.5;" width="125.4941" x="235.3008" y="694.877"/><text fill="#000000" font-family="sans-serif" font-size="14" lengthAdjust="spacing" textLength="111.4941" x="242.3008" y="715.4121">AuthContext.tsx</text><rect fill="#E2E2F0" height="30.4883" rx="2.5" ry="2.5" style="stroke:#181818;stroke-width:0.5;" width="89.0791" x="396.1016" y="87.4883"/><text fill="#000000" font-family="sans-serif" font-size="14" lengthAdjust="spacing" textLength="75.0791" x="403.1016" y="108.0234">api/auth.ts</text><rect fill="#E2E2F0" height="30.4883" rx="2.5" ry="2.5" style="stroke:#181818;stroke-width:0.5;" width="89.0791" x="396.1016" y="694.877"/><text fill="#000000" font-family="sans-serif" font-size="14" lengthAdjust="spacing" textLength="75.0791" x="403.1016" y="715.4121">api/auth.ts</text><rect fill="#E2E2F0" height="30.4883" rx="2.5" ry="2.5" style="stroke:#181818;stroke-width:0.5;" width="95.7236" x="640.623" y="87.4883"/><text fill="#000000" font-family="sans-serif" font-size="14" lengthAdjust="spacing" textLength="81.7236" x="647.623" y="108.0234">api/client.ts</text><rect fill="#E2E2F0" height="30.4883" rx="2.5" ry="2.5" style="stroke:#181818;stroke-width:0.5;" width="95.7236" x="640.623" y="694.877"/><text fill="#000000" font-family="sans-serif" font-size="14" lengthAdjust="spacing" textLength="81.7236" x="647.623" y="715.4121">api/client.ts</text><rect fill="#E2E2F0" height="30.4883" rx="2.5" ry="2.5" style="stroke:#181818;stroke-width:0.5;" width="114.4336" x="868.1367" y="87.4883"/><text fill="#000000" font-family="sans-serif" font-size="14" lengthAdjust="spacing" textLength="100.4336" x="875.1367" y="108.0234">AuthController</text><rect fill="#E2E2F0" height="30.4883" rx="2.5" ry="2.5" style="stroke:#181818;stroke-width:0.5;" width="114.4336" x="868.1367" y="694.877"/><text fill="#000000" font-family="sans-serif" font-size="14" lengthAdjust="spacing" textLength="100.4336" x="875.1367" y="715.4121">AuthController</text><rect fill="#E2E2F0" height="30.4883" rx="2.5" ry="2.5" style="stroke:#181818;stroke-width:0.5;" width="93.6045" x="992.7134" y="87.4883"/><text fill="#000000" font-family="sans-serif" font-size="14" lengthAdjust="spacing" textLength="79.6045" x="999.7134" y="108.0234">AuthService</text><rect fill="#E2E2F0" height="30.4883" rx="2.5" ry="2.5" style="stroke:#181818;stroke-width:0.5;" width="93.6045" x="992.7134" y="694.877"/><text fill="#000000" font-family="sans-serif" font-size="14" lengthAdjust="spacing" textLength="79.6045" x="999.7134" y="715.4121">AuthService</text><rect fill="#E2E2F0" height="30.4883" rx="2.5" ry="2.5" style="stroke:#181818;stroke-width:0.5;" width="116.4912" x="1204.853" y="87.4883"/><text fill="#000000" font-family="sans-serif" font-size="14" lengthAdjust="spacing" textLength="102.4912" x="1211.853" y="108.0234">UserRepository</text><rect fill="#E2E2F0" height="30.4883" rx="2.5" ry="2.5" style="stroke:#181818;stroke-width:0.5;" width="116.4912" x="1204.853" y="694.877"/><text fill="#000000" font-family="sans-serif" font-size="14" lengthAdjust="spacing" textLength="102.4912" x="1211.853" y="715.4121">UserRepository</text><rect fill="#E2E2F0" height="30.4883" rx="2.5" ry="2.5" style="stroke:#181818;stroke-width:0.5;" width="81.71" x="1331.3442" y="87.4883"/><text fill="#000000" font-family="sans-serif" font-size="14" lengthAdjust="spacing" textLength="67.71" x="1338.3442" y="108.0234">JwtService</text><rect fill="#E2E2F0" height="30.4883" rx="2.5" ry="2.5" style="stroke:#181818;stroke-width:0.5;" width="81.71" x="1331.3442" y="694.877"/><text fill="#000000" font-family="sans-serif" font-size="14" lengthAdjust="spacing" textLength="67.71" x="1338.3442" y="715.4121">JwtService</text><rect fill="#E2E2F0" height="30.4883" rx="2.5" ry="2.5" style="stroke:#181818;stroke-width:0.5;" width="155.2236" x="1423.0542" y="87.4883"/><text fill="#000000" font-family="sans-serif" font-size="14" lengthAdjust="spacing" textLength="141.2236" x="1430.0542" y="108.0234">Browser localStorage</text><rect fill="#E2E2F0" height="30.4883" rx="2.5" ry="2.5" style="stroke:#181818;stroke-width:0.5;" width="155.2236" x="1423.0542" y="694.877"/><text fill="#000000" font-family="sans-serif" font-size="14" lengthAdjust="spacing" textLength="141.2236" x="1430.0542" y="715.4121">Browser localStorage</text><rect fill="#E2E2F0" height="30.4883" rx="2.5" ry="2.5" style="stroke:#181818;stroke-width:0.5;" width="151.6895" x="1588.2778" y="87.4883"/><text fill="#000000" font-family="sans-serif" font-size="14" lengthAdjust="spacing" textLength="137.6895" x="1595.2778" y="108.0234">AppDataContext.tsx</text><rect fill="#E2E2F0" height="30.4883" rx="2.5" ry="2.5" style="stroke:#181818;stroke-width:0.5;" width="151.6895" x="1588.2778" y="694.877"/><text fill="#000000" font-family="sans-serif" font-size="14" lengthAdjust="spacing" textLength="137.6895" x="1595.2778" y="715.4121">AppDataContext.tsx</text><rect fill="#E2E2F0" height="30.4883" rx="2.5" ry="2.5" style="stroke:#181818;stroke-width:0.5;" width="168.2598" x="1749.9673" y="87.4883"/><text fill="#000000" font-family="sans-serif" font-size="14" lengthAdjust="spacing" textLength="154.2598" x="1756.9673" y="108.0234">JwtAuthenticationFilter</text><rect fill="#E2E2F0" height="30.4883" rx="2.5" ry="2.5" style="stroke:#181818;stroke-width:0.5;" width="168.2598" x="1749.9673" y="694.877"/><text fill="#000000" font-family="sans-serif" font-size="14" lengthAdjust="spacing" textLength="154.2598" x="1756.9673" y="715.4121">JwtAuthenticationFilter</text><rect fill="#E2E2F0" height="30.4883" rx="2.5" ry="2.5" style="stroke:#181818;stroke-width:0.5;" width="154.1025" x="1928.2271" y="87.4883"/><text fill="#000000" font-family="sans-serif" font-size="14" lengthAdjust="spacing" textLength="140.1025" x="1935.2271" y="108.0234">JobPostingController</text><rect fill="#E2E2F0" height="30.4883" rx="2.5" ry="2.5" style="stroke:#181818;stroke-width:0.5;" width="154.1025" x="1928.2271" y="694.877"/><text fill="#000000" font-family="sans-serif" font-size="14" lengthAdjust="spacing" textLength="140.1025" x="1935.2271" y="715.4121">JobPostingController</text><polygon fill="#181818" points="140.9282,146.2871,150.9282,150.2871,140.9282,154.2871,144.9282,150.2871" style="stroke:#181818;stroke-width:1;"/><line style="stroke:#181818;stroke-width:1;" x1="23.1826" x2="146.9282" y1="150.2871" y2="150.2871"/><text fill="#000000" font-family="sans-serif" font-size="13" lengthAdjust="spacing" textLength="105.7456" x="30.1826" y="145.5449">enter credentials</text><polygon fill="#181818" points="286.0479,175.5977,296.0479,179.5977,286.0479,183.5977,290.0479,179.5977" style="stroke:#181818;stroke-width:1;"/><line style="stroke:#181818;stroke-width:1;" x1="152.9282" x2="292.0479" y1="179.5977" y2="179.5977"/><text fill="#000000" font-family="sans-serif" font-size="13" lengthAdjust="spacing" textLength="86.9692" x="159.9282" y="174.8555">login/register</text><polygon fill="#181818" points="428.6411,204.9082,438.6411,208.9082,428.6411,212.9082,432.6411,208.9082" style="stroke:#181818;stroke-width:1;"/><line style="stroke:#181818;stroke-width:1;" x1="298.0479" x2="434.6411" y1="208.9082" y2="208.9082"/><text fill="#000000" font-family="sans-serif" font-size="13" lengthAdjust="spacing" textLength="118.5933" x="305.0479" y="204.166">login() or register()</text><polygon fill="#181818" points="676.4849,234.2188,686.4849,238.2188,676.4849,242.2188,680.4849,238.2188" style="stroke:#181818;stroke-width:1;"/><line style="stroke:#181818;stroke-width:1;" x1="440.6411" x2="682.4849" y1="238.2188" y2="238.2188"/><text fill="#000000" font-family="sans-serif" font-size="13" lengthAdjust="spacing" textLength="223.8438" x="447.6411" y="233.4766">apiFetch("/api/auth/login|register")</text><polygon fill="#181818" points="913.3535,263.5293,923.3535,267.5293,913.3535,271.5293,917.3535,267.5293" style="stroke:#181818;stroke-width:1;"/><line style="stroke:#181818;stroke-width:1;" x1="688.4849" x2="919.3535" y1="267.5293" y2="267.5293"/><text fill="#000000" font-family="sans-serif" font-size="13" lengthAdjust="spacing" textLength="212.8687" x="695.4849" y="262.7871">POST /api/auth/login or /register</text><polygon fill="#181818" points="1027.5156,292.8398,1037.5156,296.8398,1027.5156,300.8398,1031.5156,296.8398" style="stroke:#181818;stroke-width:1;"/><line style="stroke:#181818;stroke-width:1;" x1="925.3535" x2="1033.5156" y1="296.8398" y2="296.8398"/><text fill="#000000" font-family="sans-serif" font-size="13" lengthAdjust="spacing" textLength="86.9692" x="932.3535" y="292.0977">login/register</text><polygon fill="#181818" points="1251.0986,322.1504,1261.0986,326.1504,1251.0986,330.1504,1255.0986,326.1504" style="stroke:#181818;stroke-width:1;"/><line style="stroke:#181818;stroke-width:1;" x1="1039.5156" x2="1257.0986" y1="326.1504" y2="326.1504"/><text fill="#000000" font-family="sans-serif" font-size="13" lengthAdjust="spacing" textLength="199.583" x="1046.5156" y="321.4082">findByEmail/existsByEmail/save</text><polygon fill="#181818" points="1360.1992,351.4609,1370.1992,355.4609,1360.1992,359.4609,1364.1992,355.4609" style="stroke:#181818;stroke-width:1;"/><line style="stroke:#181818;stroke-width:1;" x1="1039.5156" x2="1366.1992" y1="355.4609" y2="355.4609"/><text fill="#000000" font-family="sans-serif" font-size="13" lengthAdjust="spacing" textLength="130.0889" x="1046.5156" y="350.7188">generateToken(user)</text><polygon fill="#181818" points="1050.5156,380.7715,1040.5156,384.7715,1050.5156,388.7715,1046.5156,384.7715" style="stroke:#181818;stroke-width:1;"/><line style="stroke:#181818;stroke-width:1;stroke-dasharray:2.0,2.0;" x1="1044.5156" x2="1371.1992" y1="384.7715" y2="384.7715"/><text fill="#000000" font-family="sans-serif" font-size="13" lengthAdjust="spacing" textLength="23.3848" x="1056.5156" y="380.0293">JWT</text><polygon fill="#181818" points="936.3535,410.082,926.3535,414.082,936.3535,418.082,932.3535,414.082" style="stroke:#181818;stroke-width:1;"/><line style="stroke:#181818;stroke-width:1;stroke-dasharray:2.0,2.0;" x1="930.3535" x2="1038.5156" y1="414.082" y2="414.082"/><text fill="#000000" font-family="sans-serif" font-size="13" lengthAdjust="spacing" textLength="90.1621" x="942.3535" y="409.3398">AuthResponse</text><polygon fill="#181818" points="699.4849,439.3926,689.4849,443.3926,699.4849,447.3926,695.4849,443.3926" style="stroke:#181818;stroke-width:1;"/><line style="stroke:#181818;stroke-width:1;stroke-dasharray:2.0,2.0;" x1="693.4849" x2="924.3535" y1="443.3926" y2="443.3926"/><text fill="#000000" font-family="sans-serif" font-size="13" lengthAdjust="spacing" textLength="81.5737" x="705.4849" y="438.6504">token + user</text><polygon fill="#181818" points="451.6411,468.7031,441.6411,472.7031,451.6411,476.7031,447.6411,472.7031" style="stroke:#181818;stroke-width:1;"/><line style="stroke:#181818;stroke-width:1;stroke-dasharray:2.0,2.0;" x1="445.6411" x2="687.4849" y1="472.7031" y2="472.7031"/><text fill="#000000" font-family="sans-serif" font-size="13" lengthAdjust="spacing" textLength="90.1621" x="457.6411" y="467.9609">AuthResponse</text><polygon fill="#181818" points="309.0479,498.0137,299.0479,502.0137,309.0479,506.0137,305.0479,502.0137" style="stroke:#181818;stroke-width:1;"/><line style="stroke:#181818;stroke-width:1;stroke-dasharray:2.0,2.0;" x1="303.0479" x2="439.6411" y1="502.0137" y2="502.0137"/><text fill="#000000" font-family="sans-serif" font-size="13" lengthAdjust="spacing" textLength="90.1621" x="315.0479" y="497.2715">AuthResponse</text><polygon fill="#181818" points="1488.666,527.3242,1498.666,531.3242,1488.666,535.3242,1492.666,531.3242" style="stroke:#181818;stroke-width:1;"/><line style="stroke:#181818;stroke-width:1;" x1="298.0479" x2="1494.666" y1="531.3242" y2="531.3242"/><text fill="#000000" font-family="sans-serif" font-size="13" lengthAdjust="spacing" textLength="142.6509" x="305.0479" y="526.582">setStoredToken(token)</text><polygon fill="#181818" points="163.9282,556.6348,153.9282,560.6348,163.9282,564.6348,159.9282,560.6348" style="stroke:#181818;stroke-width:1;"/><line style="stroke:#181818;stroke-width:1;stroke-dasharray:2.0,2.0;" x1="157.9282" x2="297.0479" y1="560.6348" y2="560.6348"/><text fill="#000000" font-family="sans-serif" font-size="13" lengthAdjust="spacing" textLength="121.1196" x="169.9282" y="555.8926">authenticated state</text><polygon fill="#181818" points="699.4849,585.9453,689.4849,589.9453,699.4849,593.9453,695.4849,589.9453" style="stroke:#181818;stroke-width:1;"/><line style="stroke:#181818;stroke-width:1;" x1="693.4849" x2="1663.1226" y1="589.9453" y2="589.9453"/><text fill="#000000" font-family="sans-serif" font-size="13" lengthAdjust="spacing" textLength="130.5903" x="705.4849" y="585.2031">apiFetch("/api/jobs")</text><polygon fill="#181818" points="1822.0972,615.2559,1832.0972,619.2559,1822.0972,623.2559,1826.0972,619.2559" style="stroke:#181818;stroke-width:1;"/><line style="stroke:#181818;stroke-width:1;" x1="688.4849" x2="1828.0972" y1="619.2559" y2="619.2559"/><text fill="#000000" font-family="sans-serif" font-size="13" lengthAdjust="spacing" textLength="174.2114" x="695.4849" y="614.5137">Authorization: Bearer token</text><polygon fill="#181818" points="1383.1992,644.5664,1373.1992,648.5664,1383.1992,652.5664,1379.1992,648.5664" style="stroke:#181818;stroke-width:1;"/><line style="stroke:#181818;stroke-width:1;" x1="1377.1992" x2="1833.0972" y1="648.5664" y2="648.5664"/><text fill="#000000" font-family="sans-serif" font-size="13" lengthAdjust="spacing" textLength="88.7593" x="1389.1992" y="643.8242">validate token</text><polygon fill="#181818" points="1993.2783,673.877,2003.2783,677.877,1993.2783,681.877,1997.2783,677.877" style="stroke:#181818;stroke-width:1;"/><line style="stroke:#181818;stroke-width:1;" x1="1834.0972" x2="1999.2783" y1="677.877" y2="677.877"/><text fill="#000000" font-family="sans-serif" font-size="13" lengthAdjust="spacing" textLength="137.8901" x="1841.0972" y="673.1348">authenticated request</text><!--SRC=[XPHDRzim38Rl_XL4JWc6pFSU1ZJPSYWAB4WoxCpQNAfDapo9-UYm7p_AicV9Dh2JBV8XARsan8ermUE5Ns6dxGtMSA2pyaokVBPdPG1D3KzVJ-kziqmLKmrRrDeNMB5ryCMJAnfqh2hLe65OX5J7oX6Pz-pl2q0FWscARgrXkdF6ThOSnaQLA4uX8zYem4wXIYiod63RrZ1VsbcjoMMLesdcKEIkggBXH76TWq6F0pNMAr7dhMLpKuu_tJXDEonpREFiJRA0jXNgewJ1SmnuJWn54Ih1-aEYDpo075siighbJw5qBd5tS2Uuq3hql7JT21IfCx1HyvvRha16e8UNgwBtHpJgBh1qPKTSlIuNPT_5iatmfuzTjB5TGBAfs0j9iVzyFC4eEXIVRhKBwMM8SiwVh7SAcpT9y6_Ar9ktJpzHwPBk4kFxbSShZSE7nadecGmvP3hP7sIM5ycyAX9WFTcQNAyyuPm2mN0WtrZZQNBOaU0SAiCx2BLJORCMvWdxpaqcOhPkDm_f-0dgYSE2wdZoTXUhF6OydQ6ROIuh32-BP_aKewlND1-HSV9EPER9hNeSyYfhTafpTyl55rUZ4FkojvwLEOzU1N4aZq9UzJzp_js- -F5W_olVAMkT-jrkyG4sX4xihMh5m8sdwufQrIBJB9XkTgAkeryNylmN]--></g></svg>