<svg xmlns="http://www.w3.org/2000/svg" xmlns:xlink="http://www.w3.org/1999/xlink" contentStyleType="text/css" data-diagram-type="CLASS" height="935px" preserveAspectRatio="none" style="width:2308px;height:935px;background:#FFFFFF;" version="1.1" viewBox="0 0 2308 935" width="2308px" zoomAndPan="magnify"><?plantuml 1.2026.5?><defs/><g><g class="title" data-source-line="1801"><text fill="#000000" font-family="sans-serif" font-size="14" font-weight="700" lengthAdjust="spacing" textLength="227.7324" x="1036.6338" y="23.5352">Auth, User, and Config Modules</text></g><!--cluster user--><g class="cluster" data-qualified-name="user" data-source-line="1804" id="ent0001"><path d="M957.5,581.0983 L990.1777,581.0983 A3.75,3.75 0 0 1 992.6777,583.5983 L999.6777,603.5866 L1250.5,603.5866 A2.5,2.5 0 0 1 1253,606.0866 L1253,918.2583 A2.5,2.5 0 0 1 1250.5,920.7583 L957.5,920.7583 A2.5,2.5 0 0 1 955,918.2583 L955,583.5983 A2.5,2.5 0 0 1 957.5,581.0983" fill="none" style="stroke:#000000;stroke-width:1.5;"/><line style="stroke:#000000;stroke-width:1.5;" x1="955" x2="999.6777" y1="603.5866" y2="603.5866"/><text fill="#000000" font-family="sans-serif" font-size="14" font-weight="700" lengthAdjust="spacing" textLength="31.6777" x="959" y="596.6334">user</text></g><!--cluster auth--><g class="cluster" data-qualified-name="auth" data-source-line="1819" id="ent0004"><path d="M8.5,43.4883 L41.793,43.4883 A3.75,3.75 0 0 1 44.293,45.9883 L51.293,65.9766 L1799.5,65.9766 A2.5,2.5 0 0 1 1802,68.4766 L1802,554.5983 A2.5,2.5 0 0 1 1799.5,557.0983 L8.5,557.0983 A2.5,2.5 0 0 1 6,554.5983 L6,45.9883 A2.5,2.5 0 0 1 8.5,43.4883" fill="none" style="stroke:#000000;stroke-width:1.5;"/><line style="stroke:#000000;stroke-width:1.5;" x1="6" x2="51.293" y1="65.9766" y2="65.9766"/><text fill="#000000" font-family="sans-serif" font-size="14" font-weight="700" lengthAdjust="spacing" textLength="32.293" x="10" y="59.0234">auth</text></g><!--cluster config--><g class="cluster" data-qualified-name="config" data-source-line="1887" id="ent0019"><path d="M1828.5,68.2183 L1874.6787,68.2183 A3.75,3.75 0 0 1 1877.1787,70.7183 L1884.1787,90.7066 L2290.5,90.7066 A2.5,2.5 0 0 1 2293,93.2066 L2293,173.3383 A2.5,2.5 0 0 1 2290.5,175.8383 L1828.5,175.8383 A2.5,2.5 0 0 1 1826,173.3383 L1826,70.7183 A2.5,2.5 0 0 1 1828.5,68.2183" fill="none" style="stroke:#000000;stroke-width:1.5;"/><line style="stroke:#000000;stroke-width:1.5;" x1="1826" x2="1884.1787" y1="90.7066" y2="90.7066"/><text fill="#000000" font-family="sans-serif" font-size="14" font-weight="700" lengthAdjust="spacing" textLength="45.1787" x="1830" y="83.7534">config</text></g><!--class User--><g class="entity" data-qualified-name="user.User" data-source-line="1805" id="ent0002"><rect fill="#F1F1F1" height="139.0625" rx="2.5" ry="2.5" style="stroke:#181818;stroke-width:0.5;" width="159.417" x="997.29" y="765.6983"/><ellipse cx="1052.1284" cy="786.0088" fill="#ADD1B2" rx="11" ry="11" style="stroke:#181818;stroke-width:1;"/><path d="M1054.6015,792.1519 Q1054.0205,792.4507 1053.3813,792.6001 Q1052.7421,792.7496 1052.0366,792.7496 Q1049.5297,792.7496 1048.2099,791.0977 Q1046.8901,789.4458 1046.8901,786.3247 Q1046.8901,783.1954 1048.2099,781.5435 Q1049.5297,779.8916 1052.0366,779.8916 Q1052.7421,779.8916 1053.3896,780.0411 Q1054.0371,780.1905 1054.6015,780.4893 L1054.6015,783.212 Q1053.9707,782.6309 1053.3772,782.3611 Q1052.7837,782.0913 1052.1528,782.0913 Q1050.8081,782.0913 1050.1233,783.158 Q1049.4384,784.2246 1049.4384,786.3247 Q1049.4384,788.4165 1050.1233,789.4832 Q1050.8081,790.5498 1052.1528,790.5498 Q1052.7837,790.5498 1053.3772,790.2801 Q1053.9707,790.0103 1054.6015,789.4292 Z " fill="#000000"/><text fill="#000000" font-family="sans-serif" font-size="12" font-style="italic" lengthAdjust="spacing" textLength="45.2402" x="1070.6284" y="782.2998">&#171;Entity&#187;</text><text fill="#000000" font-family="sans-serif" font-size="14" lengthAdjust="spacing" textLength="30.3652" x="1078.0659" y="798.3663">User</text><line style="stroke:#181818;stroke-width:0.5;" x1="998.29" x2="1155.707" y1="806.3194" y2="806.3194"/><text fill="#000000" font-family="sans-serif" font-size="14" lengthAdjust="spacing" textLength="55.2002" x="1003.29" y="823.8545">id: Long</text><text fill="#000000" font-family="sans-serif" font-size="14" lengthAdjust="spacing" textLength="85.5244" x="1003.29" y="840.3428">email: String</text><text fill="#000000" font-family="sans-serif" font-size="14" lengthAdjust="spacing" textLength="147.417" x="1003.29" y="856.8311">passwordHash: String</text><text fill="#000000" font-family="sans-serif" font-size="14" lengthAdjust="spacing" textLength="109.7031" x="1003.29" y="873.3194">fullName: String</text><text fill="#000000" font-family="sans-serif" font-size="14" lengthAdjust="spacing" textLength="120.7842" x="1003.29" y="889.8077">createdAt: Instant</text><line style="stroke:#181818;stroke-width:0.5;" x1="998.29" x2="1155.707" y1="896.7608" y2="896.7608"/></g><!--class UserRepository--><g class="entity" data-qualified-name="user.UserRepository" data-source-line="1813" id="ent0003"><rect fill="#F1F1F1" height="89.5977" rx="2.5" ry="2.5" style="stroke:#181818;stroke-width:0.5;" width="266.9941" x="970.5" y="616.0983"/><ellipse cx="1048.5015" cy="636.4088" fill="#B4A7E5" rx="11" ry="11" style="stroke:#181818;stroke-width:1;"/><path d="M1044.9292,632.674 L1044.9292,630.5158 L1052.3086,630.5158 L1052.3086,632.674 L1049.8433,632.674 L1049.8433,640.7506 L1052.3086,640.7506 L1052.3086,642.9088 L1044.9292,642.9088 L1044.9292,640.7506 L1047.3945,640.7506 L1047.3945,632.674 Z " fill="#000000"/><text fill="#000000" font-family="sans-serif" font-size="12" font-style="italic" lengthAdjust="spacing" textLength="92.3086" x="1074.0928" y="632.6998">&#171;JpaRepository&#187;</text><text fill="#000000" font-family="sans-serif" font-size="14" font-style="italic" lengthAdjust="spacing" textLength="102.4912" x="1069.0015" y="648.7662">UserRepository</text><line style="stroke:#181818;stroke-width:0.5;" x1="971.5" x2="1236.4941" y1="656.7194" y2="656.7194"/><line style="stroke:#181818;stroke-width:0.5;" x1="971.5" x2="1236.4941" y1="664.7194" y2="664.7194"/><text fill="#000000" font-family="sans-serif" font-size="14" lengthAdjust="spacing" textLength="254.9941" x="976.5" y="682.2545">+findByEmail(email): Optional&lt;User&gt;</text><text fill="#000000" font-family="sans-serif" font-size="14" lengthAdjust="spacing" textLength="211.8594" x="976.5" y="698.7428">+existsByEmail(email): boolean</text></g><!--class AuthController--><g class="entity" data-qualified-name="auth.AuthController" data-source-line="1820" id="ent0005"><rect fill="#F1F1F1" height="106.0859" rx="2.5" ry="2.5" style="stroke:#181818;stroke-width:0.5;" width="254.7441" x="417.63" y="78.4883"/><ellipse cx="490.5353" cy="98.7988" fill="#ADD1B2" rx="11" ry="11" style="stroke:#181818;stroke-width:1;"/><path d="M493.0084,104.9419 Q492.4274,105.2407 491.7882,105.3901 Q491.149,105.5396 490.4435,105.5396 Q487.9366,105.5396 486.6168,103.8877 Q485.297,102.2358 485.297,99.1147 Q485.297,95.9854 486.6168,94.3335 Q487.9366,92.6816 490.4435,92.6816 Q491.149,92.6816 491.7965,92.8311 Q492.444,92.9805 493.0084,93.2793 L493.0084,96.002 Q492.3776,95.4209 491.7841,95.1511 Q491.1905,94.8813 490.5597,94.8813 Q489.215,94.8813 488.5301,95.948 Q487.8453,97.0146 487.8453,99.1147 Q487.8453,101.2065 488.5301,102.2732 Q489.215,103.3398 490.5597,103.3398 Q491.1905,103.3398 491.7841,103.0701 Q492.3776,102.8003 493.0084,102.2192 Z " fill="#000000"/><text fill="#000000" font-family="sans-serif" font-size="12" font-style="italic" lengthAdjust="spacing" textLength="95.877" x="513.3136" y="95.0898">&#171;RestController&#187;</text><text fill="#000000" font-family="sans-serif" font-size="14" lengthAdjust="spacing" textLength="100.4336" x="511.0353" y="111.1563">AuthController</text><line style="stroke:#181818;stroke-width:0.5;" x1="418.63" x2="671.3741" y1="119.1094" y2="119.1094"/><line style="stroke:#181818;stroke-width:0.5;" x1="418.63" x2="671.3741" y1="127.1094" y2="127.1094"/><text fill="#000000" font-family="sans-serif" font-size="14" lengthAdjust="spacing" textLength="229.5986" x="423.63" y="144.6445">+register(request): AuthResponse</text><text fill="#000000" font-family="sans-serif" font-size="14" lengthAdjust="spacing" textLength="211.5039" x="423.63" y="161.1328">+login(request): AuthResponse</text><text fill="#000000" font-family="sans-serif" font-size="14" lengthAdjust="spacing" textLength="242.7441" x="423.63" y="177.6211">+me(authentication): UserResponse</text></g><!--class AuthService--><g class="entity" data-qualified-name="auth.AuthService" data-source-line="1826" id="ent0006"><rect fill="#F1F1F1" height="106.0859" rx="2.5" ry="2.5" style="stroke:#181818;stroke-width:0.5;" width="370.4287" x="281.79" y="252.8183"/><ellipse cx="422.9521" cy="273.1288" fill="#ADD1B2" rx="11" ry="11" style="stroke:#181818;stroke-width:1;"/><path d="M425.4253,279.2719 Q424.8442,279.5707 424.205,279.7201 Q423.5659,279.8696 422.8603,279.8696 Q420.3535,279.8696 419.0337,278.2177 Q417.7138,276.5658 417.7138,273.4447 Q417.7138,270.3154 419.0337,268.6635 Q420.3535,267.0116 422.8603,267.0116 Q423.5659,267.0116 424.2133,267.1611 Q424.8608,267.3105 425.4253,267.6093 L425.4253,270.332 Q424.7944,269.7509 424.2009,269.4811 Q423.6074,269.2113 422.9765,269.2113 Q421.6318,269.2113 420.947,270.278 Q420.2622,271.3446 420.2622,273.4447 Q420.2622,275.5365 420.947,276.6032 Q421.6318,277.6698 422.9765,277.6698 Q423.6074,277.6698 424.2009,277.4001 Q424.7944,277.1303 425.4253,276.5492 Z " fill="#000000"/><text fill="#000000" font-family="sans-serif" font-size="12" font-style="italic" lengthAdjust="spacing" textLength="53.1445" x="456.6821" y="269.4198">&#171;Service&#187;</text><text fill="#000000" font-family="sans-serif" font-size="14" lengthAdjust="spacing" textLength="79.6045" x="443.4521" y="285.4862">AuthService</text><line style="stroke:#181818;stroke-width:0.5;" x1="282.79" x2="651.2187" y1="293.4394" y2="293.4394"/><line style="stroke:#181818;stroke-width:0.5;" x1="282.79" x2="651.2187" y1="301.4394" y2="301.4394"/><text fill="#000000" font-family="sans-serif" font-size="14" lengthAdjust="spacing" textLength="358.4287" x="287.79" y="318.9745">+register(email, password, fullName): AuthResponse</text><text fill="#000000" font-family="sans-serif" font-size="14" lengthAdjust="spacing" textLength="270.6006" x="287.79" y="335.4628">+login(email, password): AuthResponse</text><text fill="#000000" font-family="sans-serif" font-size="14" lengthAdjust="spacing" textLength="181.8496" x="287.79" y="351.9511">+me(email): UserResponse</text></g><!--class JwtService--><g class="entity" data-qualified-name="auth.JwtService" data-source-line="1832" id="ent0007"><rect fill="#F1F1F1" height="106.0859" rx="2.5" ry="2.5" style="stroke:#181818;stroke-width:0.5;" width="305.6719" x="492.16" y="431.0783"/><ellipse cx="606.891" cy="451.3888" fill="#ADD1B2" rx="11" ry="11" style="stroke:#181818;stroke-width:1;"/><path d="M609.3641,457.5319 Q608.783,457.8307 608.1439,457.9801 Q607.5047,458.1296 606.7992,458.1296 Q604.2923,458.1296 602.9725,456.4777 Q601.6527,454.8258 601.6527,451.7047 Q601.6527,448.5754 602.9725,446.9235 Q604.2923,445.2716 606.7992,445.2716 Q607.5047,445.2716 608.1522,445.4211 Q608.7996,445.5705 609.3641,445.8693 L609.3641,448.592 Q608.7332,448.0109 608.1397,447.7411 Q607.5462,447.4713 606.9154,447.4713 Q605.5706,447.4713 604.8858,448.538 Q604.201,449.6046 604.201,451.7047 Q604.201,453.7965 604.8858,454.8632 Q605.5706,455.9298 606.9154,455.9298 Q607.5462,455.9298 608.1397,455.6601 Q608.7332,455.3903 609.3641,454.8092 Z " fill="#000000"/><text fill="#000000" font-family="sans-serif" font-size="12" font-style="italic" lengthAdjust="spacing" textLength="53.1445" x="634.6737" y="447.6798">&#171;Service&#187;</text><text fill="#000000" font-family="sans-serif" font-size="14" lengthAdjust="spacing" textLength="67.71" x="627.391" y="463.7463">JwtService</text><line style="stroke:#181818;stroke-width:0.5;" x1="493.16" x2="796.8319" y1="471.6994" y2="471.6994"/><line style="stroke:#181818;stroke-width:0.5;" x1="493.16" x2="796.8319" y1="479.6994" y2="479.6994"/><text fill="#000000" font-family="sans-serif" font-size="14" lengthAdjust="spacing" textLength="200.0537" x="498.16" y="497.2345">+generateToken(user): String</text><text fill="#000000" font-family="sans-serif" font-size="14" lengthAdjust="spacing" textLength="222.7148" x="498.16" y="513.7228">+extractUsername(token): String</text><text fill="#000000" font-family="sans-serif" font-size="14" lengthAdjust="spacing" textLength="293.6719" x="498.16" y="530.2111">+isTokenValid(token, userDetails): boolean</text></g><!--class AuthUserDetailsService--><g class="entity" data-qualified-name="auth.AuthUserDetailsService" data-source-line="1838" id="ent0008"><rect fill="#F1F1F1" height="73.1094" rx="2.5" ry="2.5" style="stroke:#181818;stroke-width:0.5;" width="327.1641" x="832.42" y="447.5683"/><ellipse cx="913.525" cy="467.8788" fill="#ADD1B2" rx="11" ry="11" style="stroke:#181818;stroke-width:1;"/><path d="M915.9981,474.0219 Q915.4171,474.3207 914.7779,474.4701 Q914.1388,474.6196 913.4332,474.6196 Q910.9263,474.6196 909.6065,472.9677 Q908.2867,471.3158 908.2867,468.1947 Q908.2867,465.0654 909.6065,463.4135 Q910.9263,461.7616 913.4332,461.7616 Q914.1388,461.7616 914.7862,461.9111 Q915.4337,462.0605 915.9981,462.3593 L915.9981,465.082 Q915.3673,464.5009 914.7738,464.2311 Q914.1803,463.9613 913.5494,463.9613 Q912.2047,463.9613 911.5199,465.028 Q910.835,466.0946 910.835,468.1947 Q910.835,470.2865 911.5199,471.3532 Q912.2047,472.4198 913.5494,472.4198 Q914.1803,472.4198 914.7738,472.1501 Q915.3673,471.8803 915.9981,471.2992 Z " fill="#000000"/><text fill="#000000" font-family="sans-serif" font-size="12" font-style="italic" lengthAdjust="spacing" textLength="53.1445" x="985.6798" y="464.1698">&#171;Service&#187;</text><text fill="#000000" font-family="sans-serif" font-size="14" lengthAdjust="spacing" textLength="156.4541" x="934.025" y="480.2363">AuthUserDetailsService</text><line style="stroke:#181818;stroke-width:0.5;" x1="833.42" x2="1158.5841" y1="488.1894" y2="488.1894"/><line style="stroke:#181818;stroke-width:0.5;" x1="833.42" x2="1158.5841" y1="496.1894" y2="496.1894"/><text fill="#000000" font-family="sans-serif" font-size="14" lengthAdjust="spacing" textLength="315.1641" x="838.42" y="513.7245">+loadUserByUsername(username): UserDetails</text></g><!--class AuthUserDetails--><g class="entity" data-qualified-name="auth.AuthUserDetails" data-source-line="1842" id="ent0009"><rect fill="#F1F1F1" height="113.9531" rx="2.5" ry="2.5" style="stroke:#181818;stroke-width:0.5;" width="205.6484" x="251.18" y="427.1483"/><ellipse cx="295.2169" cy="443.1483" fill="#ADD1B2" rx="11" ry="11" style="stroke:#181818;stroke-width:1;"/><path d="M297.69,449.2913 Q297.109,449.5902 296.4698,449.7396 Q295.8306,449.889 295.1251,449.889 Q292.6182,449.889 291.2984,448.2371 Q289.9786,446.5853 289.9786,443.4642 Q289.9786,440.3348 291.2984,438.6829 Q292.6182,437.0311 295.1251,437.0311 Q295.8306,437.0311 296.4781,437.1805 Q297.1256,437.3299 297.69,437.6287 L297.69,440.3514 Q297.0592,439.7704 296.4656,439.5006 Q295.8721,439.2308 295.2413,439.2308 Q293.8966,439.2308 293.2117,440.2975 Q292.5269,441.3641 292.5269,443.4642 Q292.5269,445.556 293.2117,446.6226 Q293.8966,447.6893 295.2413,447.6893 Q295.8721,447.6893 296.4656,447.4195 Q297.0592,447.1497 297.69,446.5687 Z " fill="#000000"/><text fill="#000000" font-family="sans-serif" font-size="14" lengthAdjust="spacing" textLength="109.1221" x="315.6695" y="448.4393">AuthUserDetails</text><line style="stroke:#181818;stroke-width:0.5;" x1="252.18" x2="455.8284" y1="459.1483" y2="459.1483"/><text fill="#000000" font-family="sans-serif" font-size="14" lengthAdjust="spacing" textLength="76.6787" x="257.18" y="476.6834">-user: User</text><line style="stroke:#181818;stroke-width:0.5;" x1="252.18" x2="455.8284" y1="483.6366" y2="483.6366"/><text fill="#000000" font-family="sans-serif" font-size="14" lengthAdjust="spacing" textLength="158.4844" x="257.18" y="501.1717">+getUsername(): String</text><text fill="#000000" font-family="sans-serif" font-size="14" lengthAdjust="spacing" textLength="154.499" x="257.18" y="517.66">+getPassword(): String</text><text fill="#000000" font-family="sans-serif" font-size="14" lengthAdjust="spacing" textLength="193.6484" x="257.18" y="534.1483">+getAuthorities(): Collection</text></g><!--class JwtAuthenticationFilter--><g class="entity" data-qualified-name="auth.JwtAuthenticationFilter" data-source-line="1849" id="ent0010"><rect fill="#F1F1F1" height="73.1094" rx="2.5" ry="2.5" style="stroke:#181818;stroke-width:0.5;" width="340.4736" x="686.76" y="269.2983"/><ellipse cx="775.6169" cy="289.6088" fill="#ADD1B2" rx="11" ry="11" style="stroke:#181818;stroke-width:1;"/><path d="M778.0901,295.7519 Q777.509,296.0507 776.8699,296.2001 Q776.2307,296.3496 775.5251,296.3496 Q773.0183,296.3496 771.6985,294.6977 Q770.3787,293.0458 770.3787,289.9247 Q770.3787,286.7954 771.6985,285.1435 Q773.0183,283.4916 775.5251,283.4916 Q776.2307,283.4916 776.8782,283.6411 Q777.5256,283.7905 778.0901,284.0893 L778.0901,286.812 Q777.4592,286.2309 776.8657,285.9611 Q776.2722,285.6913 775.6413,285.6913 Q774.2966,285.6913 773.6118,286.758 Q772.927,287.8246 772.927,289.9247 Q772.927,292.0165 773.6118,293.0832 Q774.2966,294.1498 775.6413,294.1498 Q776.2722,294.1498 776.8657,293.8801 Q777.4592,293.6103 778.0901,293.0292 Z " fill="#000000"/><text fill="#000000" font-family="sans-serif" font-size="12" font-style="italic" lengthAdjust="spacing" textLength="80.4434" x="833.0251" y="285.8998">&#171;Component&#187;</text><text fill="#000000" font-family="sans-serif" font-size="14" lengthAdjust="spacing" textLength="154.2598" x="796.1169" y="301.9662">JwtAuthenticationFilter</text><line style="stroke:#181818;stroke-width:0.5;" x1="687.76" x2="1026.2336" y1="309.9194" y2="309.9194"/><line style="stroke:#181818;stroke-width:0.5;" x1="687.76" x2="1026.2336" y1="317.9194" y2="317.9194"/><text fill="#000000" font-family="sans-serif" font-size="14" lengthAdjust="spacing" textLength="328.4736" x="692.76" y="335.4545">+doFilterInternal(request, response, chain): void</text></g><!--class SecurityConfig--><g class="entity" data-qualified-name="auth.SecurityConfig" data-source-line="1853" id="ent0011"><rect fill="#F1F1F1" height="106.0859" rx="2.5" ry="2.5" style="stroke:#181818;stroke-width:0.5;" width="349.5996" x="707.2" y="78.4883"/><ellipse cx="828.5379" cy="98.7988" fill="#ADD1B2" rx="11" ry="11" style="stroke:#181818;stroke-width:1;"/><path d="M831.011,104.9419 Q830.43,105.2407 829.7908,105.3901 Q829.1517,105.5396 828.4461,105.5396 Q825.9393,105.5396 824.6194,103.8877 Q823.2996,102.2358 823.2996,99.1147 Q823.2996,95.9854 824.6194,94.3335 Q825.9393,92.6816 828.4461,92.6816 Q829.1517,92.6816 829.7991,92.8311 Q830.4466,92.9805 831.011,93.2793 L831.011,96.002 Q830.3802,95.4209 829.7867,95.1511 Q829.1932,94.8813 828.5623,94.8813 Q827.2176,94.8813 826.5328,95.948 Q825.8479,97.0146 825.8479,99.1147 Q825.8479,101.2065 826.5328,102.2732 Q827.2176,103.3398 828.5623,103.3398 Q829.1932,103.3398 829.7867,103.0701 Q830.3802,102.8003 831.011,102.2192 Z " fill="#000000"/><text fill="#000000" font-family="sans-serif" font-size="12" font-style="italic" lengthAdjust="spacing" textLength="92.8184" x="851.8406" y="95.0898">&#171;Configuration&#187;</text><text fill="#000000" font-family="sans-serif" font-size="14" lengthAdjust="spacing" textLength="98.4238" x="849.0379" y="111.1563">SecurityConfig</text><line style="stroke:#181818;stroke-width:0.5;" x1="708.2" x2="1055.7996" y1="119.1094" y2="119.1094"/><line style="stroke:#181818;stroke-width:0.5;" x1="708.2" x2="1055.7996" y1="127.1094" y2="127.1094"/><text fill="#000000" font-family="sans-serif" font-size="14" lengthAdjust="spacing" textLength="310.126" x="713.2" y="144.6445">+securityFilterChain(http): SecurityFilterChain</text><text fill="#000000" font-family="sans-serif" font-size="14" lengthAdjust="spacing" textLength="337.5996" x="713.2" y="161.1328">+authenticationProvider(): AuthenticationProvider</text><text fill="#000000" font-family="sans-serif" font-size="14" lengthAdjust="spacing" textLength="266.2803" x="713.2" y="177.6211">+passwordEncoder(): PasswordEncoder</text></g><!--class AuthExceptionHandler--><g class="entity" data-qualified-name="auth.AuthExceptionHandler" data-source-line="1859" id="ent0012"><rect fill="#F1F1F1" height="56.6211" rx="2.5" ry="2.5" style="stroke:#181818;stroke-width:0.5;" width="183.8945" x="22.05" y="103.2183"/><ellipse cx="37.05" cy="123.5288" fill="#ADD1B2" rx="11" ry="11" style="stroke:#181818;stroke-width:1;"/><path d="M39.5231,129.6719 Q38.9421,129.9707 38.3029,130.1201 Q37.6638,130.2696 36.9582,130.2696 Q34.4514,130.2696 33.1315,128.6177 Q31.8117,126.9658 31.8117,123.8447 Q31.8117,120.7154 33.1315,119.0635 Q34.4514,117.4116 36.9582,117.4116 Q37.6638,117.4116 38.3112,117.5611 Q38.9587,117.7105 39.5231,118.0093 L39.5231,120.732 Q38.8923,120.1509 38.2988,119.8811 Q37.7053,119.6113 37.0744,119.6113 Q35.7297,119.6113 35.0449,120.678 Q34.3601,121.7446 34.3601,123.8447 Q34.3601,125.9365 35.0449,127.0032 Q35.7297,128.0698 37.0744,128.0698 Q37.7053,128.0698 38.2988,127.8001 Q38.8923,127.5303 39.5231,126.9492 Z " fill="#000000"/><text fill="#000000" font-family="sans-serif" font-size="12" font-style="italic" lengthAdjust="spacing" textLength="134.2207" x="59.8869" y="119.8198">&#171;RestControllerAdvice&#187;</text><text fill="#000000" font-family="sans-serif" font-size="14" lengthAdjust="spacing" textLength="151.8945" x="51.05" y="135.8863">AuthExceptionHandler</text><line style="stroke:#181818;stroke-width:0.5;" x1="23.05" x2="204.9445" y1="143.8394" y2="143.8394"/><line style="stroke:#181818;stroke-width:0.5;" x1="23.05" x2="204.9445" y1="151.8394" y2="151.8394"/></g><!--class EmailAlreadyRegisteredException--><g class="entity" data-qualified-name="auth.EmailAlreadyRegisteredException" data-source-line="1860" id="ent0013"><rect fill="#F1F1F1" height="48" rx="2.5" ry="2.5" style="stroke:#181818;stroke-width:0.5;" width="258.0439" x="1272.98" y="107.5283"/><ellipse cx="1287.98" cy="123.5283" fill="#ADD1B2" rx="11" ry="11" style="stroke:#181818;stroke-width:1;"/><path d="M1290.4531,129.6713 Q1289.8721,129.9702 1289.2329,130.1196 Q1288.5938,130.269 1287.8882,130.269 Q1285.3814,130.269 1284.0615,128.6171 Q1282.7417,126.9653 1282.7417,123.8442 Q1282.7417,120.7148 1284.0615,119.0629 Q1285.3814,117.4111 1287.8882,117.4111 Q1288.5938,117.4111 1289.2412,117.5605 Q1289.8887,117.7099 1290.4531,118.0087 L1290.4531,120.7314 Q1289.8223,120.1504 1289.2288,119.8806 Q1288.6353,119.6108 1288.0044,119.6108 Q1286.6597,119.6108 1285.9749,120.6775 Q1285.2901,121.7441 1285.2901,123.8442 Q1285.2901,125.936 1285.9749,127.0026 Q1286.6597,128.0693 1288.0044,128.0693 Q1288.6353,128.0693 1289.2288,127.7995 Q1289.8223,127.5297 1290.4531,126.9487 Z " fill="#000000"/><text fill="#000000" font-family="sans-serif" font-size="14" lengthAdjust="spacing" textLength="226.0439" x="1301.98" y="128.8193">EmailAlreadyRegisteredException</text><line style="stroke:#181818;stroke-width:0.5;" x1="1273.98" x2="1530.0239" y1="139.5283" y2="139.5283"/><line style="stroke:#181818;stroke-width:0.5;" x1="1273.98" x2="1530.0239" y1="147.5283" y2="147.5283"/></g><!--class InvalidCredentialsException--><g class="entity" data-qualified-name="auth.InvalidCredentialsException" data-source-line="1861" id="ent0014"><rect fill="#F1F1F1" height="48" rx="2.5" ry="2.5" style="stroke:#181818;stroke-width:0.5;" width="219.8447" x="1566.08" y="107.5283"/><ellipse cx="1581.08" cy="123.5283" fill="#ADD1B2" rx="11" ry="11" style="stroke:#181818;stroke-width:1;"/><path d="M1583.5531,129.6713 Q1582.9721,129.9702 1582.3329,130.1196 Q1581.6938,130.269 1580.9882,130.269 Q1578.4814,130.269 1577.1615,128.6171 Q1575.8417,126.9653 1575.8417,123.8442 Q1575.8417,120.7148 1577.1615,119.0629 Q1578.4814,117.4111 1580.9882,117.4111 Q1581.6938,117.4111 1582.3412,117.5605 Q1582.9887,117.7099 1583.5531,118.0087 L1583.5531,120.7314 Q1582.9223,120.1504 1582.3288,119.8806 Q1581.7353,119.6108 1581.1044,119.6108 Q1579.7597,119.6108 1579.0749,120.6775 Q1578.3901,121.7441 1578.3901,123.8442 Q1578.3901,125.936 1579.0749,127.0026 Q1579.7597,128.0693 1581.1044,128.0693 Q1581.7353,128.0693 1582.3288,127.7995 Q1582.9223,127.5297 1583.5531,126.9487 Z " fill="#000000"/><text fill="#000000" font-family="sans-serif" font-size="14" lengthAdjust="spacing" textLength="187.8447" x="1595.08" y="128.8193">InvalidCredentialsException</text><line style="stroke:#181818;stroke-width:0.5;" x1="1567.08" x2="1784.9247" y1="139.5283" y2="139.5283"/><line style="stroke:#181818;stroke-width:0.5;" x1="1567.08" x2="1784.9247" y1="147.5283" y2="147.5283"/></g><!--class RegisterRequest--><g class="entity" data-qualified-name="auth.RegisterRequest" data-source-line="1863" id="ent0015"><rect fill="#F1F1F1" height="106.0859" rx="2.5" ry="2.5" style="stroke:#181818;stroke-width:0.5;" width="141.6553" x="241.17" y="78.4883"/><ellipse cx="256.17" cy="98.7988" fill="#ADD1B2" rx="11" ry="11" style="stroke:#181818;stroke-width:1;"/><path d="M258.6431,104.9419 Q258.0621,105.2407 257.4229,105.3901 Q256.7838,105.5396 256.0782,105.5396 Q253.5714,105.5396 252.2515,103.8877 Q250.9317,102.2358 250.9317,99.1147 Q250.9317,95.9854 252.2515,94.3335 Q253.5714,92.6816 256.0782,92.6816 Q256.7838,92.6816 257.4312,92.8311 Q258.0787,92.9805 258.6431,93.2793 L258.6431,96.002 Q258.0123,95.4209 257.4188,95.1511 Q256.8253,94.8813 256.1944,94.8813 Q254.8497,94.8813 254.1649,95.948 Q253.4801,97.0146 253.4801,99.1147 Q253.4801,101.2065 254.1649,102.2732 Q254.8497,103.3398 256.1944,103.3398 Q256.8253,103.3398 257.4188,103.0701 Q258.0123,102.8003 258.6431,102.2192 Z " fill="#000000"/><text fill="#000000" font-family="sans-serif" font-size="12" font-style="italic" lengthAdjust="spacing" textLength="50.1504" x="299.9224" y="95.0898">&#171;record&#187;</text><text fill="#000000" font-family="sans-serif" font-size="14" lengthAdjust="spacing" textLength="109.6553" x="270.17" y="111.1563">RegisterRequest</text><line style="stroke:#181818;stroke-width:0.5;" x1="242.17" x2="381.8253" y1="119.1094" y2="119.1094"/><text fill="#000000" font-family="sans-serif" font-size="14" lengthAdjust="spacing" textLength="85.5244" x="247.17" y="136.6445">email: String</text><text fill="#000000" font-family="sans-serif" font-size="14" lengthAdjust="spacing" textLength="113.5723" x="247.17" y="153.1328">password: String</text><text fill="#000000" font-family="sans-serif" font-size="14" lengthAdjust="spacing" textLength="109.7031" x="247.17" y="169.6211">fullName: String</text><line style="stroke:#181818;stroke-width:0.5;" x1="242.17" x2="381.8253" y1="176.5742" y2="176.5742"/></g><!--class LoginRequest--><g class="entity" data-qualified-name="auth.LoginRequest" data-source-line="1869" id="ent0016"><rect fill="#F1F1F1" height="89.5977" rx="2.5" ry="2.5" style="stroke:#181818;stroke-width:0.5;" width="125.5723" x="51.21" y="261.0583"/><ellipse cx="66.983" cy="281.3688" fill="#ADD1B2" rx="11" ry="11" style="stroke:#181818;stroke-width:1;"/><path d="M69.4561,287.5119 Q68.8751,287.8107 68.2359,287.9601 Q67.5968,288.1096 66.8912,288.1096 Q64.3844,288.1096 63.0645,286.4577 Q61.7447,284.8058 61.7447,281.6847 Q61.7447,278.5554 63.0645,276.9035 Q64.3844,275.2516 66.8912,275.2516 Q67.5968,275.2516 68.2442,275.4011 Q68.8917,275.5505 69.4561,275.8493 L69.4561,278.572 Q68.8253,277.9909 68.2318,277.7211 Q67.6383,277.4513 67.0074,277.4513 Q65.6627,277.4513 64.9779,278.518 Q64.2931,279.5846 64.2931,281.6847 Q64.2931,283.7765 64.9779,284.8432 Q65.6627,285.9098 67.0074,285.9098 Q67.6383,285.9098 68.2318,285.6401 Q68.8253,285.3703 69.4561,284.7892 Z " fill="#000000"/><text fill="#000000" font-family="sans-serif" font-size="12" font-style="italic" lengthAdjust="spacing" textLength="50.1504" x="102.0068" y="277.6598">&#171;record&#187;</text><text fill="#000000" font-family="sans-serif" font-size="14" lengthAdjust="spacing" textLength="91.8545" x="81.1548" y="293.7262">LoginRequest</text><line style="stroke:#181818;stroke-width:0.5;" x1="52.21" x2="175.7823" y1="301.6794" y2="301.6794"/><text fill="#000000" font-family="sans-serif" font-size="14" lengthAdjust="spacing" textLength="85.5244" x="57.21" y="319.2145">email: String</text><text fill="#000000" font-family="sans-serif" font-size="14" lengthAdjust="spacing" textLength="113.5723" x="57.21" y="335.7028">password: String</text><line style="stroke:#181818;stroke-width:0.5;" x1="52.21" x2="175.7823" y1="342.6559" y2="342.6559"/></g><!--class AuthResponse--><g class="entity" data-qualified-name="auth.AuthResponse" data-source-line="1874" id="ent0017"><rect fill="#F1F1F1" height="89.5977" rx="2.5" ry="2.5" style="stroke:#181818;stroke-width:0.5;" width="145.4033" x="1092.3" y="86.7283"/><ellipse cx="1114.6375" cy="107.0388" fill="#ADD1B2" rx="11" ry="11" style="stroke:#181818;stroke-width:1;"/><path d="M1117.1107,113.1819 Q1116.5296,113.4807 1115.8905,113.6301 Q1115.2513,113.7796 1114.5458,113.7796 Q1112.0389,113.7796 1110.7191,112.1277 Q1109.3993,110.4758 1109.3993,107.3547 Q1109.3993,104.2254 1110.7191,102.5735 Q1112.0389,100.9216 1114.5458,100.9216 Q1115.2513,100.9216 1115.8988,101.0711 Q1116.5462,101.2205 1117.1107,101.5193 L1117.1107,104.242 Q1116.4798,103.6609 1115.8863,103.3911 Q1115.2928,103.1213 1114.662,103.1213 Q1113.3172,103.1213 1112.6324,104.188 Q1111.9476,105.2546 1111.9476,107.3547 Q1111.9476,109.4465 1112.6324,110.5132 Q1113.3172,111.5798 1114.662,111.5798 Q1115.2928,111.5798 1115.8863,111.3101 Q1116.4798,111.0403 1117.1107,110.4592 Z " fill="#000000"/><text fill="#000000" font-family="sans-serif" font-size="12" font-style="italic" lengthAdjust="spacing" textLength="50.1504" x="1153.7417" y="103.3298">&#171;record&#187;</text><text fill="#000000" font-family="sans-serif" font-size="14" lengthAdjust="spacing" textLength="97.0977" x="1130.2681" y="119.3963">AuthResponse</text><line style="stroke:#181818;stroke-width:0.5;" x1="1093.3" x2="1236.7033" y1="127.3494" y2="127.3494"/><text fill="#000000" font-family="sans-serif" font-size="14" lengthAdjust="spacing" textLength="87.3359" x="1098.3" y="144.8845">token: String</text><text fill="#000000" font-family="sans-serif" font-size="14" lengthAdjust="spacing" textLength="133.4033" x="1098.3" y="161.3728">user: UserResponse</text><line style="stroke:#181818;stroke-width:0.5;" x1="1093.3" x2="1236.7033" y1="168.3259" y2="168.3259"/></g><!--class UserResponse--><g class="entity" data-qualified-name="auth.UserResponse" data-source-line="1879" id="ent0018"><rect fill="#F1F1F1" height="122.5742" rx="2.5" ry="2.5" style="stroke:#181818;stroke-width:0.5;" width="132.7842" x="1098.61" y="244.5683"/><ellipse cx="1116.1272" cy="264.8788" fill="#ADD1B2" rx="11" ry="11" style="stroke:#181818;stroke-width:1;"/><path d="M1118.6003,271.0219 Q1118.0193,271.3207 1117.3801,271.4701 Q1116.741,271.6196 1116.0354,271.6196 Q1113.5286,271.6196 1112.2087,269.9677 Q1110.8889,268.3158 1110.8889,265.1947 Q1110.8889,262.0654 1112.2087,260.4135 Q1113.5286,258.7616 1116.0354,258.7616 Q1116.741,258.7616 1117.3884,258.9111 Q1118.0359,259.0605 1118.6003,259.3593 L1118.6003,262.082 Q1117.9695,261.5009 1117.376,261.2311 Q1116.7825,260.9613 1116.1516,260.9613 Q1114.8069,260.9613 1114.1221,262.028 Q1113.4372,263.0946 1113.4372,265.1947 Q1113.4372,267.2865 1114.1221,268.3532 Q1114.8069,269.4198 1116.1516,269.4198 Q1116.7825,269.4198 1117.376,269.1501 Q1117.9695,268.8803 1118.6003,268.2992 Z " fill="#000000"/><text fill="#000000" font-family="sans-serif" font-size="12" font-style="italic" lengthAdjust="spacing" textLength="50.1504" x="1153.2066" y="261.1698">&#171;record&#187;</text><text fill="#000000" font-family="sans-serif" font-size="14" lengthAdjust="spacing" textLength="95.1904" x="1130.6866" y="277.2362">UserResponse</text><line style="stroke:#181818;stroke-width:0.5;" x1="1099.61" x2="1230.3942" y1="285.1894" y2="285.1894"/><text fill="#000000" font-family="sans-serif" font-size="14" lengthAdjust="spacing" textLength="55.2002" x="1104.61" y="302.7245">id: Long</text><text fill="#000000" font-family="sans-serif" font-size="14" lengthAdjust="spacing" textLength="85.5244" x="1104.61" y="319.2128">email: String</text><text fill="#000000" font-family="sans-serif" font-size="14" lengthAdjust="spacing" textLength="109.7031" x="1104.61" y="335.7011">fullName: String</text><text fill="#000000" font-family="sans-serif" font-size="14" lengthAdjust="spacing" textLength="120.7842" x="1104.61" y="352.1894">createdAt: Instant</text><line style="stroke:#181818;stroke-width:0.5;" x1="1099.61" x2="1230.3942" y1="359.1425" y2="359.1425"/></g><!--class JacksonConfig--><g class="entity" data-qualified-name="config.JacksonConfig" data-source-line="1888" id="ent0020"><rect fill="#F1F1F1" height="56.6211" rx="2.5" ry="2.5" style="stroke:#181818;stroke-width:0.5;" width="128.7627" x="1841.62" y="103.2183"/><ellipse cx="1856.62" cy="123.5288" fill="#ADD1B2" rx="11" ry="11" style="stroke:#181818;stroke-width:1;"/><path d="M1859.0931,129.6719 Q1858.5121,129.9707 1857.8729,130.1201 Q1857.2338,130.2696 1856.5282,130.2696 Q1854.0214,130.2696 1852.7015,128.6177 Q1851.3817,126.9658 1851.3817,123.8447 Q1851.3817,120.7154 1852.7015,119.0635 Q1854.0214,117.4116 1856.5282,117.4116 Q1857.2338,117.4116 1857.8812,117.5611 Q1858.5287,117.7105 1859.0931,118.0093 L1859.0931,120.732 Q1858.4623,120.1509 1857.8688,119.8811 Q1857.2753,119.6113 1856.6444,119.6113 Q1855.2997,119.6113 1854.6149,120.678 Q1853.9301,121.7446 1853.9301,123.8447 Q1853.9301,125.9365 1854.6149,127.0032 Q1855.2997,128.0698 1856.6444,128.0698 Q1857.2753,128.0698 1857.8688,127.8001 Q1858.4623,127.5303 1859.0931,126.9492 Z " fill="#000000"/><text fill="#000000" font-family="sans-serif" font-size="12" font-style="italic" lengthAdjust="spacing" textLength="92.8184" x="1872.5922" y="119.8198">&#171;Configuration&#187;</text><text fill="#000000" font-family="sans-serif" font-size="14" lengthAdjust="spacing" textLength="96.7627" x="1870.62" y="135.8863">JacksonConfig</text><line style="stroke:#181818;stroke-width:0.5;" x1="1842.62" x2="1969.3827" y1="143.8394" y2="143.8394"/><line style="stroke:#181818;stroke-width:0.5;" x1="1842.62" x2="1969.3827" y1="151.8394" y2="151.8394"/></g><!--class JobPostingTrackerSchemaMigration--><g class="entity" data-qualified-name="config.JobPostingTrackerSchemaMigration" data-source-line="1889" id="ent0021"><rect fill="#F1F1F1" height="56.6211" rx="2.5" ry="2.5" style="stroke:#181818;stroke-width:0.5;" width="272.0029" x="2005" y="103.2183"/><ellipse cx="2020" cy="123.5288" fill="#ADD1B2" rx="11" ry="11" style="stroke:#181818;stroke-width:1;"/><path d="M2022.4731,129.6719 Q2021.8921,129.9707 2021.2529,130.1201 Q2020.6138,130.2696 2019.9082,130.2696 Q2017.4014,130.2696 2016.0815,128.6177 Q2014.7617,126.9658 2014.7617,123.8447 Q2014.7617,120.7154 2016.0815,119.0635 Q2017.4014,117.4116 2019.9082,117.4116 Q2020.6138,117.4116 2021.2612,117.5611 Q2021.9087,117.7105 2022.4731,118.0093 L2022.4731,120.732 Q2021.8423,120.1509 2021.2488,119.8811 Q2020.6553,119.6113 2020.0244,119.6113 Q2018.6797,119.6113 2017.9949,120.678 Q2017.3101,121.7446 2017.3101,123.8447 Q2017.3101,125.9365 2017.9949,127.0032 Q2018.6797,128.0698 2020.0244,128.0698 Q2020.6553,128.0698 2021.2488,127.8001 Q2021.8423,127.5303 2022.4731,126.9492 Z " fill="#000000"/><text fill="#000000" font-family="sans-serif" font-size="12" font-style="italic" lengthAdjust="spacing" textLength="119.9707" x="2094.0161" y="119.8198">&#171;ApplicationRunner&#187;</text><text fill="#000000" font-family="sans-serif" font-size="14" lengthAdjust="spacing" textLength="240.0029" x="2034" y="135.8863">JobPostingTrackerSchemaMigration</text><line style="stroke:#181818;stroke-width:0.5;" x1="2006" x2="2276.0029" y1="143.8394" y2="143.8394"/><line style="stroke:#181818;stroke-width:0.5;" x1="2006" x2="2276.0029" y1="151.8394" y2="151.8394"/></g><!--class RuntimeException--><g class="entity" data-qualified-name="RuntimeException" data-source-line="1905" id="ent0035"><rect fill="#F1F1F1" height="48" rx="2.5" ry="2.5" style="stroke:#181818;stroke-width:0.5;" width="154.9102" x="1817.54" y="281.8583"/><ellipse cx="1832.54" cy="297.8583" fill="#ADD1B2" rx="11" ry="11" style="stroke:#181818;stroke-width:1;"/><path d="M1835.0131,304.0013 Q1834.4321,304.3002 1833.7929,304.4496 Q1833.1538,304.599 1832.4482,304.599 Q1829.9414,304.599 1828.6215,302.9471 Q1827.3017,301.2953 1827.3017,298.1742 Q1827.3017,295.0448 1828.6215,293.3929 Q1829.9414,291.7411 1832.4482,291.7411 Q1833.1538,291.7411 1833.8012,291.8905 Q1834.4487,292.0399 1835.0131,292.3388 L1835.0131,295.0614 Q1834.3823,294.4804 1833.7888,294.2106 Q1833.1953,293.9408 1832.5644,293.9408 Q1831.2197,293.9408 1830.5349,295.0075 Q1829.8501,296.0741 1829.8501,298.1742 Q1829.8501,300.266 1830.5349,301.3326 Q1831.2197,302.3993 1832.5644,302.3993 Q1833.1953,302.3993 1833.7888,302.1295 Q1834.3823,301.8597 1835.0131,301.2787 Z " fill="#000000"/><text fill="#000000" font-family="sans-serif" font-size="14" lengthAdjust="spacing" textLength="122.9102" x="1846.54" y="303.1493">RuntimeException</text><line style="stroke:#181818;stroke-width:0.5;" x1="1818.54" x2="1971.4502" y1="313.8583" y2="313.8583"/><line style="stroke:#181818;stroke-width:0.5;" x1="1818.54" x2="1971.4502" y1="321.8583" y2="321.8583"/></g><!--class JobPostingRepository--><g class="entity" data-qualified-name="JobPostingRepository" data-source-line="1907" id="ent0038"><rect fill="#F1F1F1" height="48" rx="2.5" ry="2.5" style="stroke:#181818;stroke-width:0.5;" width="176.0674" x="2052.97" y="281.8583"/><ellipse cx="2067.97" cy="297.8583" fill="#ADD1B2" rx="11" ry="11" style="stroke:#181818;stroke-width:1;"/><path d="M2070.4431,304.0013 Q2069.8621,304.3002 2069.2229,304.4496 Q2068.5838,304.599 2067.8782,304.599 Q2065.3714,304.599 2064.0515,302.9471 Q2062.7317,301.2953 2062.7317,298.1742 Q2062.7317,295.0448 2064.0515,293.3929 Q2065.3714,291.7411 2067.8782,291.7411 Q2068.5838,291.7411 2069.2312,291.8905 Q2069.8787,292.0399 2070.4431,292.3388 L2070.4431,295.0614 Q2069.8123,294.4804 2069.2188,294.2106 Q2068.6253,293.9408 2067.9944,293.9408 Q2066.6497,293.9408 2065.9649,295.0075 Q2065.2801,296.0741 2065.2801,298.1742 Q2065.2801,300.266 2065.9649,301.3326 Q2066.6497,302.3993 2067.9944,302.3993 Q2068.6253,302.3993 2069.2188,302.1295 Q2069.8123,301.8597 2070.4431,301.2787 Z " fill="#000000"/><text fill="#000000" font-family="sans-serif" font-size="14" lengthAdjust="spacing" textLength="144.0674" x="2081.97" y="303.1493">JobPostingRepository</text><line style="stroke:#181818;stroke-width:0.5;" x1="2053.97" x2="2228.0374" y1="313.8583" y2="313.8583"/><line style="stroke:#181818;stroke-width:0.5;" x1="2053.97" x2="2228.0374" y1="321.8583" y2="321.8583"/></g><!--link AuthController to AuthService--><g class="link" data-entity-1="ent0005" data-entity-2="ent0006" data-link-type="dependency" data-source-line="1892" id="lnk22"><path codeLine="1892" d="M521.39,184.6983 C511.66,206.1983 502.4607,226.5027 492.7307,248.0127" fill="none" id="AuthController-to-AuthService" style="stroke:#181818;stroke-width:1;"/><polygon fill="#181818" points="490.67,252.5683,498.0238,246.0168,492.7307,248.0127,490.7348,242.7196,490.67,252.5683" style="stroke:#181818;stroke-width:1;stroke-linejoin:miter;stroke-miterlimit:10;"/></g><!--link AuthService to UserRepository--><g class="link" data-entity-1="ent0006" data-entity-2="ent0003" data-link-type="dependency" data-source-line="1893" id="lnk23"><path codeLine="1893" d="M635.08,359.3883 C646.51,362.2283 657.89,364.8483 669,367.1483 C780.32,390.1483 1101.48,342.1783 1177,427.1483 C1217.73,472.9683 1196.76,507.0583 1177,565.0983 C1170.77,583.3883 1162.5644,596.9947 1150.6544,611.8747" fill="none" id="AuthService-to-UserRepository" style="stroke:#181818;stroke-width:1;"/><polygon fill="#181818" points="1147.53,615.7783,1156.2768,611.2514,1150.6544,611.8747,1150.0311,606.2523,1147.53,615.7783" style="stroke:#181818;stroke-width:1;stroke-linejoin:miter;stroke-miterlimit:10;"/></g><!--link AuthService to JwtService--><g class="link" data-entity-1="ent0006" data-entity-2="ent0007" data-link-type="dependency" data-source-line="1894" id="lnk24"><path codeLine="1894" d="M519.92,359.2683 C542.67,381.7983 565.6573,404.55 588.4173,427.09" fill="none" id="AuthService-to-JwtService" style="stroke:#181818;stroke-width:1;"/><polygon fill="#181818" points="591.97,430.6083,588.3899,421.4332,588.4173,427.09,582.7606,427.1174,591.97,430.6083" style="stroke:#181818;stroke-width:1;stroke-linejoin:miter;stroke-miterlimit:10;"/></g><!--link AuthService to AuthUserDetails--><g class="link" data-entity-1="ent0006" data-entity-2="ent0009" data-link-type="dependency" data-source-line="1895" id="lnk25"><path codeLine="1895" d="M433.4,359.2683 C419.74,380.5783 406.6278,401.0285 392.7278,422.7185" fill="none" id="AuthService-to-AuthUserDetails" style="stroke:#181818;stroke-width:1;"/><polygon fill="#181818" points="390.03,426.9283,398.2538,421.509,392.7278,422.7185,391.5183,417.1925,390.03,426.9283" style="stroke:#181818;stroke-width:1;stroke-linejoin:miter;stroke-miterlimit:10;"/></g><!--link AuthUserDetails to User--><g class="link" data-entity-1="ent0009" data-entity-2="ent0002" data-link-type="dependency" data-source-line="1896" id="lnk26"><path codeLine="1896" d="M435.22,541.3983 C448.3,549.7083 461.87,557.8883 475,565.0983 C655.62,664.2983 875.21,755.2106 992.44,801.5406" fill="none" id="AuthUserDetails-to-User" style="stroke:#181818;stroke-width:1;"/><polygon fill="#181818" points="997.09,803.3783,990.1901,796.3504,992.44,801.5406,987.2498,803.7904,997.09,803.3783" style="stroke:#181818;stroke-width:1;stroke-linejoin:miter;stroke-miterlimit:10;"/></g><!--link AuthUserDetailsService to UserRepository--><g class="link" data-entity-1="ent0008" data-entity-2="ent0003" data-link-type="dependency" data-source-line="1897" id="lnk27"><path codeLine="1897" d="M1018.12,520.9083 C1035.09,548.3783 1055.9713,582.1751 1074.1113,611.5251" fill="none" id="AuthUserDetailsService-to-UserRepository" style="stroke:#181818;stroke-width:1;"/><polygon fill="#181818" points="1076.74,615.7783,1075.4109,606.0195,1074.1113,611.5251,1068.6057,610.2255,1076.74,615.7783" style="stroke:#181818;stroke-width:1;stroke-linejoin:miter;stroke-miterlimit:10;"/></g><!--link JwtAuthenticationFilter to JwtService--><g class="link" data-entity-1="ent0010" data-entity-2="ent0007" data-link-type="dependency" data-source-line="1898" id="lnk28"><path codeLine="1898" d="M813.84,342.7383 C783.33,368.1083 745.8048,399.3118 711.6448,427.7118" fill="none" id="JwtAuthenticationFilter-to-JwtService" style="stroke:#181818;stroke-width:1;"/><polygon fill="#181818" points="707.8,430.9083,717.2778,428.2304,711.6448,427.7118,712.1634,422.0788,707.8,430.9083" style="stroke:#181818;stroke-width:1;stroke-linejoin:miter;stroke-miterlimit:10;"/></g><!--link JwtAuthenticationFilter to AuthUserDetailsService--><g class="link" data-entity-1="ent0010" data-entity-2="ent0008" data-link-type="dependency" data-source-line="1899" id="lnk29"><path codeLine="1899" d="M885.13,342.5283 C909.17,373.0083 940.484,412.7221 964.574,443.2721" fill="none" id="JwtAuthenticationFilter-to-AuthUserDetailsService" style="stroke:#181818;stroke-width:1;"/><polygon fill="#181818" points="967.67,447.1983,965.2382,437.6544,964.574,443.2721,958.9563,442.6079,967.67,447.1983" style="stroke:#181818;stroke-width:1;stroke-linejoin:miter;stroke-miterlimit:10;"/></g><!--link SecurityConfig to JwtAuthenticationFilter--><g class="link" data-entity-1="ent0011" data-entity-2="ent0010" data-link-type="dependency" data-source-line="1900" id="lnk30"><path codeLine="1900" d="M874.43,184.6983 C870.48,211.9383 866.4565,239.6399 862.9265,264.0199" fill="none" id="SecurityConfig-to-JwtAuthenticationFilter" style="stroke:#181818;stroke-width:1;"/><polygon fill="#181818" points="862.21,268.9683,867.4584,260.6343,862.9265,264.0199,859.5409,259.488,862.21,268.9683" style="stroke:#181818;stroke-width:1;stroke-linejoin:miter;stroke-miterlimit:10;"/></g><!--link SecurityConfig to AuthUserDetailsService--><g class="link" data-entity-1="ent0011" data-entity-2="ent0008" data-link-type="dependency" data-source-line="1901" id="lnk31"><path codeLine="1901" d="M990.32,185.0183 C1012.27,200.9583 1032.45,220.7183 1045,244.5683 C1079.65,310.4283 1045.8468,394.0686 1019.8668,442.6786" fill="none" id="SecurityConfig-to-AuthUserDetailsService" style="stroke:#181818;stroke-width:1;"/><polygon fill="#181818" points="1017.51,447.0883,1025.28,441.0363,1019.8668,442.6786,1018.2245,437.2654,1017.51,447.0883" style="stroke:#181818;stroke-width:1;stroke-linejoin:miter;stroke-miterlimit:10;"/></g><!--link SecurityConfig to UserRepository--><g class="link" data-entity-1="ent0011" data-entity-2="ent0003" data-link-type="dependency" data-source-line="1902" id="lnk32"><path codeLine="1902" d="M1057.05,181.0683 C1148.38,207.2283 1242.57,235.8883 1249,244.5683 C1286.76,295.5783 1222.32,552.2283 1215,565.0983 C1204.04,584.3783 1191.4195,598.3216 1174.5395,612.5816" fill="none" id="SecurityConfig-to-UserRepository" style="stroke:#181818;stroke-width:1;"/><polygon fill="#181818" points="1170.72,615.8083,1180.1764,613.0559,1174.5395,612.5816,1175.0138,606.9447,1170.72,615.8083" style="stroke:#181818;stroke-width:1;stroke-linejoin:miter;stroke-miterlimit:10;"/></g><!--link UserRepository to User--><g class="link" data-entity-1="ent0003" data-entity-2="ent0002" data-link-type="dependency" data-source-line="1903" id="lnk33"><path codeLine="1903" d="M1097.12,705.8283 C1094.29,723.8783 1091.7236,740.2685 1088.5836,760.3185" fill="none" id="UserRepository-to-User" style="stroke:#181818;stroke-width:1;"/><polygon fill="#181818" points="1087.81,765.2583,1093.1543,756.9856,1088.5836,760.3185,1085.2507,755.7478,1087.81,765.2583" style="stroke:#181818;stroke-width:1;stroke-linejoin:miter;stroke-miterlimit:10;"/></g><!--link AuthResponse to UserResponse--><g class="link" data-entity-1="ent0017" data-entity-2="ent0018" data-link-type="dependency" data-source-line="1904" id="lnk34"><path codeLine="1904" d="M1165,176.4583 C1165,196.9983 1165,216.7983 1165,239.0983" fill="none" id="AuthResponse-to-UserResponse" style="stroke:#181818;stroke-width:1;"/><polygon fill="#181818" points="1165,244.0983,1169,235.0983,1165,239.0983,1161,235.0983,1165,244.0983" style="stroke:#181818;stroke-width:1;stroke-linejoin:miter;stroke-miterlimit:10;"/></g><!--link EmailAlreadyRegisteredException to RuntimeException--><g class="link" data-entity-1="ent0013" data-entity-2="ent0035" data-link-type="extension" data-source-line="1905" id="lnk36"><path codeLine="1905" d="M1463.39,155.9183 C1489.56,165.4583 1520.56,176.1883 1549,184.5683 C1659.85,217.2383 1695.74,199.1383 1802,244.5683 C1824.29,254.0983 1832.5335,258.381 1850.0235,270.901" fill="none" id="EmailAlreadyRegisteredException-to-RuntimeException" style="stroke:#181818;stroke-width:1;"/><polygon fill="none" points="1864.66,281.3783,1853.516,266.0221,1846.5311,275.7798,1864.66,281.3783" style="stroke:#181818;stroke-width:1;stroke-linejoin:miter;stroke-miterlimit:10;"/></g><!--link InvalidCredentialsException to RuntimeException--><g class="link" data-entity-1="ent0014" data-entity-2="ent0035" data-link-type="extension" data-source-line="1906" id="lnk37"><path codeLine="1906" d="M1705.54,155.7683 C1747.33,188.6583 1809.1649,237.3165 1851.0849,270.3065" fill="none" id="InvalidCredentialsException-to-RuntimeException" style="stroke:#181818;stroke-width:1;"/><polygon fill="none" points="1865.23,281.4383,1854.7955,265.5914,1847.3743,275.0215,1865.23,281.4383" style="stroke:#181818;stroke-width:1;stroke-linejoin:miter;stroke-miterlimit:10;"/></g><!--link JobPostingTrackerSchemaMigration to JobPostingRepository--><g class="link" data-entity-1="ent0021" data-entity-2="ent0038" data-link-type="dependency" data-source-line="1907" id="lnk39"><path codeLine="1907" d="M2141,160.2183 C2141,193.7983 2141,244.8283 2141,276.3883" fill="none" id="JobPostingTrackerSchemaMigration-to-JobPostingRepository" style="stroke:#181818;stroke-width:1;"/><polygon fill="#181818" points="2141,281.3883,2145,272.3883,2141,276.3883,2137,272.3883,2141,281.3883" style="stroke:#181818;stroke-width:1;stroke-linejoin:miter;stroke-miterlimit:10;"/></g><?plantuml-src fLPDRnen4Btlhx1o8YgHUaO8YH2g42KjWgHtnpk0XR6tjfU4jldl7NlDUh-0Lhr4Y-VDpFDyFCToAu2CSxlfanS3ka-eJCb4oHLVaoULvW9COhPSPbJJ7M626ZEsLlFNtCACARdaFu5yJfACiYrT0xdACSeL-PMG0koZak5mAYstXz78MmZXwO0yAhdsFs17kHYG9OOD9nbwlYcTtbEpgHbMkH1VwGvgXqm3jP2ExO3CfB5KMZp-IF0FbnRqYZBmD1QGASEjqWSaz93H-BlazMd5PNfxc3f6FS_hUa2-PPOhISNG1HaLE7ZdnfecybKf0LJwz1-Leb0iSBKehk1OPAkL4Buy2p0s7aGw6jQO1tHFmuySCPZ3-I8yKz900H9gpULPn0vwZW9W4nXrbq5KKP4IvUiLsIr1xpdMRJWCNnsS_AtxPRFwPNVEi6pud69xBEXfaWzlzWp7DKZGE1JFQWkovsRokZOos3-hARCklaJ6FUk03Gmttlqx5Jmj07tYGjs1HNQcqUzQ-LuYx0nBeMZgaBU7aaSUFiBTGuop2KAq6-TQU1rh4A_Nk1cQvg437IONNsbkEHXddRYPP6vgMXqOruRg2nVMJ_D4xR1ZQ8XNJLLXdRcDn5qwZckVwD3UFc4RobqFzegdzLHBO3aIEWHXSXdSHwvztfZ515oHQ-BYzJRMPkwERLFXKr-CkLPxdk9mXybiMmglum1F9LC1FgyVjNisVMVWfUGUHRPhxyTfCH-bbrUNiK1zIm-Bi7QGbd5At4pktP1EqEW8Ks4YfWGT0ooAocDs3GpvbkKxhSENDBXoqKUtvl-Neb6su_wte_cTh4MBEz2j6bLBEzw5L-bV7f-g-ZC_h5NzVq2JKVBKE4USUfqhOp7NCwhL5lIIRP3N4ryNK7GTPva84xh8fNIFXqlUU65kRaPLMK-g4kzizUUnPOvYsp8rn2XfYjCnUd925ZkodnAM1fDpiEvaIKD7Gi2kA5tGlm_Qk53ZduzQISffZ7vXS2yiFphy7X7ikUKxYEj-HWfEU5mSCb-c4XGlyWS0?></g></svg>