<svg xmlns="http://www.w3.org/2000/svg" xmlns:xlink="http://www.w3.org/1999/xlink" contentStyleType="text/css" height="547px" preserveAspectRatio="none" style="width:391px;height:547px;background:#FEFEFE;" version="1.1" viewBox="0 0 391 547" width="391px" zoomAndPan="magnify"><title>Builder Pattern - Tailored Resume Construction</title><defs/><g><rect fill="#FEFEFE" height="547" style="stroke:none;stroke-width:1;" width="391" x="0" y="0"/><text fill="#000000" font-family="sans-serif" font-size="14" font-weight="bold" lengthAdjust="spacing" textLength="344.5039" x="16.3994" y="23.5352">Builder Pattern - Tailored Resume Construction</text><!--class TailoredResumeBuilder--><g id="elem_TailoredResumeBuilder"><rect codeLine="530" fill="#F3E5F5" height="163.418" id="TailoredResumeBuilder" rx="2.5" ry="2.5" style="stroke:#7B1FA2;stroke-width:0.5;" width="350.7891" x="21.26" y="202.4683"/><ellipse cx="114.3347" cy="218.4683" fill="#ADD1B2" rx="11" ry="11" style="stroke:#181818;stroke-width:1;"/><path d="M116.8079,224.6113 Q116.2268,224.9102 115.5876,225.0596 Q114.9485,225.209 114.2429,225.209 Q111.7361,225.209 110.4162,223.5571 Q109.0964,221.9053 109.0964,218.7842 Q109.0964,215.6548 110.4162,214.0029 Q111.7361,212.3511 114.2429,212.3511 Q114.9485,212.3511 115.5959,212.5005 Q116.2434,212.6499 116.8079,212.9488 L116.8079,215.6714 Q116.177,215.0904 115.5835,214.8206 Q114.99,214.5508 114.3591,214.5508 Q113.0144,214.5508 112.3296,215.6175 Q111.6448,216.6841 111.6448,218.7842 Q111.6448,220.876 112.3296,221.9426 Q113.0144,223.0093 114.3591,223.0093 Q114.99,223.0093 115.5835,222.7395 Q116.177,222.4697 116.8079,221.8887 Z " fill="#000000"/><text fill="#000000" font-family="sans-serif" font-size="14" lengthAdjust="spacing" textLength="156.1396" x="134.8347" y="223.7593">TailoredResumeBuilder</text><line style="stroke:#7B1FA2;stroke-width:0.5;" x1="22.26" x2="371.0491" y1="234.4683" y2="234.4683"/><rect fill="none" height="6" style="stroke:#C82930;stroke-width:1;" width="6" x="29.26" y="245.2124"/><text fill="#000000" font-family="sans-serif" font-size="14" lengthAdjust="spacing" textLength="111.5693" x="41.26" y="252.0034">summary: String</text><rect fill="none" height="6" style="stroke:#C82930;stroke-width:1;" width="6" x="29.26" y="261.7007"/><text fill="#000000" font-family="sans-serif" font-size="14" lengthAdjust="spacing" textLength="125.0156" x="41.26" y="268.4917">skills: List~String~</text><rect fill="none" height="6" style="stroke:#C82930;stroke-width:1;" width="6" x="29.26" y="278.189"/><text fill="#000000" font-family="sans-serif" font-size="14" lengthAdjust="spacing" textLength="136.1855" x="41.26" y="284.98">bullets: List~String~</text><line style="stroke:#7B1FA2;stroke-width:0.5;" x1="22.26" x2="371.0491" y1="291.9331" y2="291.9331"/><ellipse cx="32.26" cy="305.6773" fill="#84BE84" rx="3" ry="3" style="stroke:#038048;stroke-width:1;"/><text fill="#000000" font-family="sans-serif" font-size="14" lengthAdjust="spacing" textLength="312.5322" x="41.26" y="309.4683">summary(text: String): TailoredResumeBuilder</text><ellipse cx="32.26" cy="322.1655" fill="#84BE84" rx="3" ry="3" style="stroke:#038048;stroke-width:1;"/><text fill="#000000" font-family="sans-serif" font-size="14" lengthAdjust="spacing" textLength="303.6113" x="41.26" y="325.9566">addSkill(skill: String): TailoredResumeBuilder</text><ellipse cx="32.26" cy="338.6538" fill="#84BE84" rx="3" ry="3" style="stroke:#038048;stroke-width:1;"/><text fill="#000000" font-family="sans-serif" font-size="14" lengthAdjust="spacing" textLength="324.7891" x="41.26" y="342.4448">addBullet(bullet: String): TailoredResumeBuilder</text><ellipse cx="32.26" cy="355.1421" fill="#84BE84" rx="3" ry="3" style="stroke:#038048;stroke-width:1;"/><text fill="#000000" font-family="sans-serif" font-size="14" lengthAdjust="spacing" textLength="215.2705" x="41.26" y="358.9331">build(): TailoredResumeContent</text></g><!--class TailoredResumeContent--><g id="elem_TailoredResumeContent"><rect codeLine="540" fill="#F3E5F5" height="97.4648" id="TailoredResumeContent" rx="2.5" ry="2.5" style="stroke:#7B1FA2;stroke-width:0.5;" width="235.6582" x="78.82" y="442.8883"/><ellipse cx="112.161" cy="458.8883" fill="#ADD1B2" rx="11" ry="11" style="stroke:#181818;stroke-width:1;"/><path d="M114.6342,465.0313 Q114.0531,465.3302 113.4139,465.4796 Q112.7748,465.629 112.0692,465.629 Q109.5624,465.629 108.2426,463.9771 Q106.9227,462.3253 106.9227,459.2042 Q106.9227,456.0748 108.2426,454.4229 Q109.5624,452.7711 112.0692,452.7711 Q112.7748,452.7711 113.4222,452.9205 Q114.0697,453.0699 114.6342,453.3688 L114.6342,456.0914 Q114.0033,455.5104 113.4098,455.2406 Q112.8163,454.9708 112.1854,454.9708 Q110.8407,454.9708 110.1559,456.0375 Q109.4711,457.1041 109.4711,459.2042 Q109.4711,461.296 110.1559,462.3626 Q110.8407,463.4293 112.1854,463.4293 Q112.8163,463.4293 113.4098,463.1595 Q114.0033,462.8897 114.6342,462.3087 Z " fill="#000000"/><text fill="#000000" font-family="sans-serif" font-size="14" lengthAdjust="spacing" textLength="162.9004" x="130.2368" y="464.1793">TailoredResumeContent</text><line style="stroke:#7B1FA2;stroke-width:0.5;" x1="79.82" x2="313.4782" y1="474.8883" y2="474.8883"/><ellipse cx="89.82" cy="488.6324" fill="none" rx="3" ry="3" style="stroke:#038048;stroke-width:1;"/><text fill="#000000" font-family="sans-serif" font-size="14" lengthAdjust="spacing" textLength="111.5693" x="98.82" y="492.4234">summary: String</text><ellipse cx="89.82" cy="505.1207" fill="none" rx="3" ry="3" style="stroke:#038048;stroke-width:1;"/><text fill="#000000" font-family="sans-serif" font-size="14" lengthAdjust="spacing" textLength="125.0156" x="98.82" y="508.9117">skills: List~String~</text><ellipse cx="89.82" cy="521.609" fill="none" rx="3" ry="3" style="stroke:#038048;stroke-width:1;"/><text fill="#000000" font-family="sans-serif" font-size="14" lengthAdjust="spacing" textLength="209.6582" x="98.82" y="525.4">experienceBullets: List~String~</text><line style="stroke:#7B1FA2;stroke-width:0.5;" x1="79.82" x2="313.4782" y1="532.3531" y2="532.3531"/></g><!--class AbstractTailoringPipeline--><g id="elem_AbstractTailoringPipeline"><rect codeLine="546" fill="#F3E5F5" height="80.9766" id="AbstractTailoringPipeline" rx="2.5" ry="2.5" style="stroke:#7B1FA2;stroke-width:0.5;" width="375.3027" x="9" y="44.4883"/><ellipse cx="107.3213" cy="60.4883" fill="#A9DCDF" rx="11" ry="11" style="stroke:#181818;stroke-width:1;"/><path d="M107.1846,55.8364 L106.0308,60.9082 L108.3467,60.9082 Z M105.6904,53.5952 L108.687,53.5952 L112.0322,65.9883 L109.5835,65.9883 L108.8198,62.9253 L105.541,62.9253 L104.7939,65.9883 L102.3452,65.9883 Z " fill="#000000"/><text fill="#000000" font-family="sans-serif" font-size="14" font-style="italic" lengthAdjust="spacing" textLength="170.1602" x="127.8213" y="65.7793">AbstractTailoringPipeline</text><line style="stroke:#7B1FA2;stroke-width:0.5;" x1="10" x2="383.3027" y1="76.4883" y2="76.4883"/><line style="stroke:#7B1FA2;stroke-width:0.5;" x1="10" x2="383.3027" y1="84.4883" y2="84.4883"/><polygon fill="#FFFF44" points="20,93.2324,24,97.2324,20,101.2324,16,97.2324" style="stroke:#B38D22;stroke-width:1;"/><text fill="#000000" font-family="sans-serif" font-size="14" lengthAdjust="spacing" textLength="284.1152" x="29" y="102.0234">buildContent(job): TailoredResumeBuilder</text><polygon fill="#FFFF44" points="20,109.7207,24,113.7207,20,117.7207,16,113.7207" style="stroke:#B38D22;stroke-width:1;"/><text fill="#000000" font-family="sans-serif" font-size="14" lengthAdjust="spacing" textLength="349.3027" x="29" y="118.5117">execute(job, baseResume): TailoredResumeContent</text></g><!--link TailoredResumeBuilder to TailoredResumeContent--><g id="link_TailoredResumeBuilder_TailoredResumeContent"><path codeLine="551" d="M196.65,366.3683 C196.65,392.1683 196.65,413.8583 196.65,436.5383 " fill="none" id="TailoredResumeBuilder-to-TailoredResumeContent" style="stroke:#181818;stroke-width:1;"/><polygon fill="#181818" points="196.65,442.5383,200.65,433.5383,196.65,437.5383,192.65,433.5383,196.65,442.5383" style="stroke:#181818;stroke-width:1;"/><text fill="#000000" font-family="sans-serif" font-size="13" lengthAdjust="spacing" textLength="45.1318" x="197.65" y="409.4566">creates</text><text fill="#000000" font-family="sans-serif" font-size="13" lengthAdjust="spacing" textLength="8.2202" x="188.3275" y="386.377">1</text><text fill="#000000" font-family="sans-serif" font-size="13" lengthAdjust="spacing" textLength="8.2202" x="188.1031" y="432.1716">1</text></g><!--link AbstractTailoringPipeline to TailoredResumeBuilder--><g id="link_AbstractTailoringPipeline_TailoredResumeBuilder"><path codeLine="552" d="M196.65,125.8783 C196.65,147.8283 196.65,169.8783 196.65,196.1883 " fill="none" id="AbstractTailoringPipeline-to-TailoredResumeBuilder" style="stroke:#181818;stroke-width:1;"/><polygon fill="#181818" points="196.65,202.1883,200.65,193.1883,196.65,197.1883,192.65,193.1883,196.65,202.1883" style="stroke:#181818;stroke-width:1;"/><text fill="#000000" font-family="sans-serif" font-size="13" lengthAdjust="spacing" textLength="116.5239" x="197.65" y="169.0366">uses step-by-step</text><text fill="#000000" font-family="sans-serif" font-size="13" lengthAdjust="spacing" textLength="8.2202" x="188.0542" y="145.8819">1</text><text fill="#000000" font-family="sans-serif" font-size="13" lengthAdjust="spacing" textLength="8.2202" x="188.3032" y="191.8004">1</text></g><!--SRC=[ZLBBQiCm4BphAvRaukBwa9PGyA4GX-JKGsZw0xAy13MoPAGr99Jcswk7KmfsGj51qkvePtQq94aXLBrK3LhOSIAq6Whuu58PYmsye-jRXBNHZcmlI1hDo7H01cf3P5fefCKKTqUfEsvv2pKNnuCrlMxMnjU1-NOJrX-4KDovQWHxtYoton7CMAzkWBnKY-tgYR6O-TMPP5xx-680XG-qt9vBs9EL-X13HwcKA-5DEhgay2N4wruff74Y7sfaX2Uw5deefra3dZVDFd1aaUcVBwh8dYKH_tbJXsCsGlW_8jJ4lgVD6TBHd7niJdx3d1nF7Lg9Mc0rQPEduxKV3YueVHUiXclYzw2Tx519ZP5x7kKFQh9FKzzfTOud53rXW3twgNAO4FTwdnw9sM86HV4QzsbVIX0MEQ5Zj_NVhdBbAQ5twC0HTaLzBiBEVW00]--></g></svg>