<svg xmlns="http://www.w3.org/2000/svg" xmlns:xlink="http://www.w3.org/1999/xlink" contentStyleType="text/css" height="455px" preserveAspectRatio="none" style="width:1582px;height:455px;background:#FFFFFF;" version="1.1" viewBox="0 0 1582 455" width="1582px" zoomAndPan="magnify"><title>State Pattern - Application Tracker Workflow</title><defs/><g><text fill="#000000" font-family="sans-serif" font-size="14" font-weight="bold" lengthAdjust="spacing" textLength="325.0557" x="621.4722" y="23.5352">State Pattern - Application Tracker Workflow</text><!--cluster State Pattern--><g id="cluster_State Pattern"><path d="M8.5,43.4883 L101.8193,43.4883 A3.75,3.75 0 0 1 104.3193,45.9883 L111.3193,65.9766 L1572.5,65.9766 A2.5,2.5 0 0 1 1575,68.4766 L1575,446.3583 A2.5,2.5 0 0 1 1572.5,448.8583 L8.5,448.8583 A2.5,2.5 0 0 1 6,446.3583 L6,45.9883 A2.5,2.5 0 0 1 8.5,43.4883 " fill="none" style="stroke:#000000;stroke-width:1.5;"/><line style="stroke:#000000;stroke-width:1.5;" x1="6" x2="111.3193" y1="65.9766" y2="65.9766"/><text fill="#000000" font-family="sans-serif" font-size="14" font-weight="bold" lengthAdjust="spacing" textLength="92.3193" x="10" y="59.0234">State Pattern</text></g><!--class ApplicationStatus--><g id="elem_ApplicationStatus"><rect codeLine="2316" fill="#F1F1F1" height="113.9531" id="ApplicationStatus" rx="2.5" ry="2.5" style="stroke:#181818;stroke-width:0.5;" width="150.4189" x="21.79" y="103.2183"/><ellipse cx="36.79" cy="119.2183" fill="#EB937F" rx="11" ry="11" style="stroke:#181818;stroke-width:1;"/><path d="M40.4043,125.7183 L32.6845,125.7183 L32.6845,113.3252 L40.4043,113.3252 L40.4043,115.4834 L35.1333,115.4834 L35.1333,118.1563 L39.9062,118.1563 L39.9062,120.3145 L35.1333,120.3145 L35.1333,123.5601 L40.4043,123.5601 Z " fill="#000000"/><text fill="#000000" font-family="sans-serif" font-size="14" lengthAdjust="spacing" textLength="118.4189" x="50.79" y="124.5093">ApplicationStatus</text><line style="stroke:#181818;stroke-width:0.5;" x1="22.79" x2="171.2089" y1="135.2183" y2="135.2183"/><text fill="#000000" font-family="sans-serif" font-size="14" lengthAdjust="spacing" textLength="29.9072" x="27.79" y="152.7534">NEW</text><text fill="#000000" font-family="sans-serif" font-size="14" lengthAdjust="spacing" textLength="50.8252" x="27.79" y="169.2417">VIEWED</text><text fill="#000000" font-family="sans-serif" font-size="14" lengthAdjust="spacing" textLength="54.708" x="27.79" y="185.73">APPLIED</text><text fill="#000000" font-family="sans-serif" font-size="14" lengthAdjust="spacing" textLength="64.9961" x="27.79" y="202.2183">REJECTED</text><line style="stroke:#181818;stroke-width:0.5;" x1="22.79" x2="171.2089" y1="209.1714" y2="209.1714"/></g><!--class ApplicationState--><g id="elem_ApplicationState"><rect codeLine="2323" fill="#F1F1F1" height="113.9531" id="ApplicationState" rx="2.5" ry="2.5" style="stroke:#181818;stroke-width:0.5;" width="222.8477" x="723.58" y="318.9083"/><ellipse cx="775.5571" cy="334.9083" fill="#B4A7E5" rx="11" ry="11" style="stroke:#181818;stroke-width:1;"/><path d="M771.9848,331.1734 L771.9848,329.0152 L779.3642,329.0152 L779.3642,331.1734 L776.8988,331.1734 L776.8988,339.2501 L779.3642,339.2501 L779.3642,341.4083 L771.9848,341.4083 L771.9848,339.2501 L774.4501,339.2501 L774.4501,331.1734 Z " fill="#000000"/><text fill="#000000" font-family="sans-serif" font-size="14" font-style="italic" lengthAdjust="spacing" textLength="110.3936" x="796.0571" y="340.1993">ApplicationState</text><line style="stroke:#181818;stroke-width:0.5;" x1="724.58" x2="945.4277" y1="350.9083" y2="350.9083"/><line style="stroke:#181818;stroke-width:0.5;" x1="724.58" x2="945.4277" y1="358.9083" y2="358.9083"/><text fill="#000000" font-family="sans-serif" font-size="14" lengthAdjust="spacing" textLength="210.8477" x="729.58" y="376.4434">+getStatus(): ApplicationStatus</text><text fill="#000000" font-family="sans-serif" font-size="14" lengthAdjust="spacing" textLength="138.9951" x="729.58" y="392.9317">+view(context): void</text><text fill="#000000" font-family="sans-serif" font-size="14" lengthAdjust="spacing" textLength="145.8311" x="729.58" y="409.42">+apply(context): void</text><text fill="#000000" font-family="sans-serif" font-size="14" lengthAdjust="spacing" textLength="147.1094" x="729.58" y="425.9083">+reject(context): void</text></g><!--class NewApplicationState--><g id="elem_NewApplicationState"><rect codeLine="2330" fill="#F1F1F1" height="113.9531" id="NewApplicationState" rx="2.5" ry="2.5" style="stroke:#181818;stroke-width:0.5;" width="222.8477" x="207.58" y="103.2183"/><ellipse cx="245.766" cy="119.2183" fill="#ADD1B2" rx="11" ry="11" style="stroke:#181818;stroke-width:1;"/><path d="M248.2391,125.3613 Q247.6581,125.6602 247.0189,125.8096 Q246.3798,125.959 245.6742,125.959 Q243.1674,125.959 241.8475,124.3071 Q240.5277,122.6553 240.5277,119.5342 Q240.5277,116.4048 241.8475,114.7529 Q243.1674,113.1011 245.6742,113.1011 Q246.3798,113.1011 247.0272,113.2505 Q247.6747,113.3999 248.2391,113.6988 L248.2391,116.4214 Q247.6083,115.8404 247.0148,115.5706 Q246.4213,115.3008 245.7904,115.3008 Q244.4457,115.3008 243.7609,116.3675 Q243.076,117.4341 243.076,119.5342 Q243.076,121.626 243.7609,122.6926 Q244.4457,123.7593 245.7904,123.7593 Q246.4213,123.7593 247.0148,123.4895 Q247.6083,123.2197 248.2391,122.6387 Z " fill="#000000"/><text fill="#000000" font-family="sans-serif" font-size="14" lengthAdjust="spacing" textLength="139.3232" x="264.9184" y="124.5093">NewApplicationState</text><line style="stroke:#181818;stroke-width:0.5;" x1="208.58" x2="429.4277" y1="135.2183" y2="135.2183"/><line style="stroke:#181818;stroke-width:0.5;" x1="208.58" x2="429.4277" y1="143.2183" y2="143.2183"/><text fill="#000000" font-family="sans-serif" font-size="14" lengthAdjust="spacing" textLength="210.8477" x="213.58" y="160.7534">+getStatus(): ApplicationStatus</text><text fill="#000000" font-family="sans-serif" font-size="14" lengthAdjust="spacing" textLength="138.9951" x="213.58" y="177.2417">+view(context): void</text><text fill="#000000" font-family="sans-serif" font-size="14" lengthAdjust="spacing" textLength="145.8311" x="213.58" y="193.73">+apply(context): void</text><text fill="#000000" font-family="sans-serif" font-size="14" lengthAdjust="spacing" textLength="147.1094" x="213.58" y="210.2183">+reject(context): void</text></g><!--class ViewedApplicationState--><g id="elem_ViewedApplicationState"><rect codeLine="2337" fill="#F1F1F1" height="97.4648" id="ViewedApplicationState" rx="2.5" ry="2.5" style="stroke:#181818;stroke-width:0.5;" width="222.8477" x="465.58" y="111.4683"/><ellipse cx="495.005" cy="127.4683" fill="#ADD1B2" rx="11" ry="11" style="stroke:#181818;stroke-width:1;"/><path d="M497.4782,133.6113 Q496.8971,133.9102 496.258,134.0596 Q495.6188,134.209 494.9133,134.209 Q492.4064,134.209 491.0866,132.5571 Q489.7668,130.9053 489.7668,127.7842 Q489.7668,124.6548 491.0866,123.0029 Q492.4064,121.3511 494.9133,121.3511 Q495.6188,121.3511 496.2663,121.5005 Q496.9137,121.6499 497.4782,121.9488 L497.4782,124.6714 Q496.8473,124.0904 496.2538,123.8206 Q495.6603,123.5508 495.0295,123.5508 Q493.6847,123.5508 492.9999,124.6175 Q492.3151,125.6841 492.3151,127.7842 Q492.3151,129.876 492.9999,130.9426 Q493.6847,132.0093 495.0295,132.0093 Q495.6603,132.0093 496.2538,131.7395 Q496.8473,131.4697 497.4782,130.8887 Z " fill="#000000"/><text fill="#000000" font-family="sans-serif" font-size="14" lengthAdjust="spacing" textLength="158.792" x="512.2106" y="132.7593">ViewedApplicationState</text><line style="stroke:#181818;stroke-width:0.5;" x1="466.58" x2="687.4277" y1="143.4683" y2="143.4683"/><line style="stroke:#181818;stroke-width:0.5;" x1="466.58" x2="687.4277" y1="151.4683" y2="151.4683"/><text fill="#000000" font-family="sans-serif" font-size="14" lengthAdjust="spacing" textLength="210.8477" x="471.58" y="169.0034">+getStatus(): ApplicationStatus</text><text fill="#000000" font-family="sans-serif" font-size="14" lengthAdjust="spacing" textLength="145.8311" x="471.58" y="185.4917">+apply(context): void</text><text fill="#000000" font-family="sans-serif" font-size="14" lengthAdjust="spacing" textLength="147.1094" x="471.58" y="201.98">+reject(context): void</text></g><!--class AppliedApplicationState--><g id="elem_AppliedApplicationState"><rect codeLine="2343" fill="#F1F1F1" height="80.9766" id="AppliedApplicationState" rx="2.5" ry="2.5" style="stroke:#181818;stroke-width:0.5;" width="222.8477" x="723.58" y="119.7083"/><ellipse cx="751.3901" cy="135.7083" fill="#ADD1B2" rx="11" ry="11" style="stroke:#181818;stroke-width:1;"/><path d="M753.8632,141.8513 Q753.2821,142.1502 752.643,142.2996 Q752.0038,142.449 751.2983,142.449 Q748.7914,142.449 747.4716,140.7971 Q746.1518,139.1453 746.1518,136.0242 Q746.1518,132.8948 747.4716,131.2429 Q748.7914,129.5911 751.2983,129.5911 Q752.0038,129.5911 752.6513,129.7405 Q753.2988,129.8899 753.8632,130.1888 L753.8632,132.9114 Q753.2323,132.3304 752.6388,132.0606 Q752.0453,131.7908 751.4145,131.7908 Q750.0697,131.7908 749.3849,132.8575 Q748.7001,133.9241 748.7001,136.0242 Q748.7001,138.116 749.3849,139.1826 Q750.0697,140.2493 751.4145,140.2493 Q752.0453,140.2493 752.6388,139.9795 Q753.2323,139.7097 753.8632,139.1287 Z " fill="#000000"/><text fill="#000000" font-family="sans-serif" font-size="14" lengthAdjust="spacing" textLength="162.3809" x="768.2367" y="140.9993">AppliedApplicationState</text><line style="stroke:#181818;stroke-width:0.5;" x1="724.58" x2="945.4277" y1="151.7083" y2="151.7083"/><line style="stroke:#181818;stroke-width:0.5;" x1="724.58" x2="945.4277" y1="159.7083" y2="159.7083"/><text fill="#000000" font-family="sans-serif" font-size="14" lengthAdjust="spacing" textLength="210.8477" x="729.58" y="177.2434">+getStatus(): ApplicationStatus</text><text fill="#000000" font-family="sans-serif" font-size="14" lengthAdjust="spacing" textLength="147.1094" x="729.58" y="193.7317">+reject(context): void</text></g><!--class RejectedApplicationState--><g id="elem_RejectedApplicationState"><rect codeLine="2348" fill="#F1F1F1" height="64.4883" id="RejectedApplicationState" rx="2.5" ry="2.5" style="stroke:#181818;stroke-width:0.5;" width="222.8477" x="981.58" y="127.9483"/><ellipse cx="1006.8061" cy="143.9483" fill="#ADD1B2" rx="11" ry="11" style="stroke:#181818;stroke-width:1;"/><path d="M1009.2792,150.0913 Q1008.6982,150.3902 1008.059,150.5396 Q1007.4198,150.689 1006.7143,150.689 Q1004.2074,150.689 1002.8876,149.0371 Q1001.5678,147.3853 1001.5678,144.2642 Q1001.5678,141.1348 1002.8876,139.4829 Q1004.2074,137.8311 1006.7143,137.8311 Q1007.4198,137.8311 1008.0673,137.9805 Q1008.7148,138.1299 1009.2792,138.4287 L1009.2792,141.1514 Q1008.6484,140.5704 1008.0549,140.3006 Q1007.4613,140.0308 1006.8305,140.0308 Q1005.4858,140.0308 1004.8009,141.0975 Q1004.1161,142.1641 1004.1161,144.2642 Q1004.1161,146.356 1004.8009,147.4226 Q1005.4858,148.4893 1006.8305,148.4893 Q1007.4613,148.4893 1008.0549,148.2195 Q1008.6484,147.9497 1009.2792,147.3687 Z " fill="#000000"/><text fill="#000000" font-family="sans-serif" font-size="14" lengthAdjust="spacing" textLength="168.123" x="1023.0785" y="149.2393">RejectedApplicationState</text><line style="stroke:#181818;stroke-width:0.5;" x1="982.58" x2="1203.4277" y1="159.9483" y2="159.9483"/><line style="stroke:#181818;stroke-width:0.5;" x1="982.58" x2="1203.4277" y1="167.9483" y2="167.9483"/><text fill="#000000" font-family="sans-serif" font-size="14" lengthAdjust="spacing" textLength="210.8477" x="987.58" y="185.4834">+getStatus(): ApplicationStatus</text></g><!--class ApplicationTrackerContext--><g id="elem_ApplicationTrackerContext"><rect codeLine="2352" fill="#F1F1F1" height="163.418" id="ApplicationTrackerContext" rx="2.5" ry="2.5" style="stroke:#181818;stroke-width:0.5;" width="320.1299" x="1238.94" y="78.4883"/><ellipse cx="1303.8165" cy="94.4883" fill="#ADD1B2" rx="11" ry="11" style="stroke:#181818;stroke-width:1;"/><path d="M1306.2896,100.6313 Q1305.7086,100.9302 1305.0694,101.0796 Q1304.4302,101.229 1303.7247,101.229 Q1301.2178,101.229 1299.898,99.5771 Q1298.5782,97.9253 1298.5782,94.8042 Q1298.5782,91.6748 1299.898,90.0229 Q1301.2178,88.3711 1303.7247,88.3711 Q1304.4302,88.3711 1305.0777,88.5205 Q1305.7252,88.6699 1306.2896,88.9688 L1306.2896,91.6914 Q1305.6588,91.1104 1305.0652,90.8406 Q1304.4717,90.5708 1303.8409,90.5708 Q1302.4962,90.5708 1301.8113,91.6375 Q1301.1265,92.7041 1301.1265,94.8042 Q1301.1265,96.896 1301.8113,97.9626 Q1302.4962,99.0293 1303.8409,99.0293 Q1304.4717,99.0293 1305.0652,98.7595 Q1305.6588,98.4897 1306.2896,97.9087 Z " fill="#000000"/><text fill="#000000" font-family="sans-serif" font-size="14" lengthAdjust="spacing" textLength="181.877" x="1324.3165" y="99.7793">ApplicationTrackerContext</text><line style="stroke:#181818;stroke-width:0.5;" x1="1239.94" x2="1558.0699" y1="110.4883" y2="110.4883"/><text fill="#000000" font-family="sans-serif" font-size="14" lengthAdjust="spacing" textLength="160.4941" x="1244.94" y="128.0234">-state: ApplicationState</text><text fill="#000000" font-family="sans-serif" font-size="14" lengthAdjust="spacing" textLength="160.7471" x="1244.94" y="144.5117">-jobPosting: JobPosting</text><line style="stroke:#181818;stroke-width:0.5;" x1="1239.94" x2="1558.0699" y1="151.4648" y2="151.4648"/><text fill="#000000" font-family="sans-serif" font-size="14" lengthAdjust="spacing" textLength="144.6553" x="1244.94" y="169">+setState(state): void</text><text fill="#000000" font-family="sans-serif" font-size="14" lengthAdjust="spacing" textLength="308.1299" x="1244.94" y="185.4883">+transitionTo(target: ApplicationStatus): void</text><text fill="#000000" font-family="sans-serif" font-size="14" lengthAdjust="spacing" textLength="87.6777" x="1244.94" y="201.9766">+view(): void</text><text fill="#000000" font-family="sans-serif" font-size="14" lengthAdjust="spacing" textLength="94.5137" x="1244.94" y="218.4648">+apply(): void</text><text fill="#000000" font-family="sans-serif" font-size="14" lengthAdjust="spacing" textLength="95.792" x="1244.94" y="234.9531">+reject(): void</text></g><!--link NewApplicationState to ApplicationState--><g id="link_NewApplicationState_ApplicationState"><path codeLine="2363" d="M403.14,217.6383 C417.78,226.3483 433.1,234.7983 448,241.9083 C537.45,284.5683 627.0888,315.047 705.8388,338.667 " fill="none" id="NewApplicationState-to-ApplicationState" style="stroke:#181818;stroke-width:1;stroke-dasharray:7.0,7.0;"/><polygon fill="none" points="723.08,343.8383,707.5626,332.92,704.1151,344.4141,723.08,343.8383" style="stroke:#181818;stroke-width:1;"/><text fill="#000000" font-family="sans-serif" font-size="13" lengthAdjust="spacing" textLength="48.5786" x="552.28" y="285.4766">realizes</text></g><!--link ViewedApplicationState to ApplicationState--><g id="link_ViewedApplicationState_ApplicationState"><path codeLine="2364" d="M635.22,209.4183 C674.31,241.7883 712.0858,273.0886 753.0758,307.0286 " fill="none" id="ViewedApplicationState-to-ApplicationState" style="stroke:#181818;stroke-width:1;stroke-dasharray:7.0,7.0;"/><polygon fill="none" points="766.94,318.5083,756.9023,302.4072,749.2492,311.65,766.94,318.5083" style="stroke:#181818;stroke-width:1;"/><text fill="#000000" font-family="sans-serif" font-size="13" lengthAdjust="spacing" textLength="48.5786" x="730.11" y="285.4766">realizes</text></g><!--link AppliedApplicationState to ApplicationState--><g id="link_AppliedApplicationState_ApplicationState"><path codeLine="2365" d="M835,201.1383 C835,234.2383 835,263.6683 835,300.6083 " fill="none" id="AppliedApplicationState-to-ApplicationState" style="stroke:#181818;stroke-width:1;stroke-dasharray:7.0,7.0;"/><polygon fill="none" points="835,318.6083,841,300.6083,829,300.6083,835,318.6083" style="stroke:#181818;stroke-width:1;"/><text fill="#000000" font-family="sans-serif" font-size="13" lengthAdjust="spacing" textLength="48.5786" x="836" y="285.4766">realizes</text></g><!--link RejectedApplicationState to ApplicationState--><g id="link_RejectedApplicationState_ApplicationState"><path codeLine="2366" d="M1054.93,192.7283 C1015.05,225.7583 965.4519,266.8358 916.9219,307.0358 " fill="none" id="RejectedApplicationState-to-ApplicationState" style="stroke:#181818;stroke-width:1;stroke-dasharray:7.0,7.0;"/><polygon fill="none" points="903.06,318.5183,920.7494,311.6564,913.0944,302.4151,903.06,318.5183" style="stroke:#181818;stroke-width:1;"/><text fill="#000000" font-family="sans-serif" font-size="13" lengthAdjust="spacing" textLength="48.5786" x="957.26" y="285.4766">realizes</text></g><!--link ApplicationTrackerContext to ApplicationState--><g id="link_ApplicationTrackerContext_ApplicationState"><path codeLine="2367" d="M1227.5737,239.7212 C1221.9737,242.0412 1227.49,239.7183 1222,241.9083 C1130.44,278.4083 1030.146,312.5532 952.266,337.8732 " fill="none" id="ApplicationTrackerContext-ApplicationState" style="stroke:#181818;stroke-width:1;"/><polygon fill="none" points="1238.66,235.1283,1231.5859,233.7293,1227.5737,239.7212,1234.6478,241.1201,1238.66,235.1283" style="stroke:#181818;stroke-width:1;"/><polygon fill="#181818" points="946.56,339.7283,956.3558,340.7496,951.315,338.1824,953.8823,333.1416,946.56,339.7283" style="stroke:#181818;stroke-width:1;"/><text fill="#000000" font-family="sans-serif" font-size="13" lengthAdjust="spacing" textLength="34.6201" x="1139.23" y="285.4766">holds</text><text fill="#000000" font-family="sans-serif" font-size="13" lengthAdjust="spacing" textLength="8.2202" x="1222.7049" y="235.9704">1</text><text fill="#000000" font-family="sans-serif" font-size="13" lengthAdjust="spacing" textLength="8.2202" x="954.3313" y="334.3739">1</text></g><!--SRC=[pLFBRi8m4BpxArOvfQg2sYi794Hp05Ke0WHd4nPg27PaBz3dlzVOKGN42AHSUaascjsPoJv8K84m9au86IT2BI61RbaM8kSab8I9vla6DSoKtYmBTM1c8sJ9DTz2Nd1ZkaHQp7U4_Lp9iVX4U6Aij3LyXH2TCKVmnG1GxhQd2iUKdN4Gm32TkVUqdyxI5nTsi-orNyMZT93s9kxZXzc7a9PtoNEy9CIAxt65v0NYXtPTrUVi1HvYwvxmdMpMNec51xZD_mWY6jUOKnrohbnVO8Y7_sTgQbbnqSHN8td7sKp_3fMHIsaWS-dOmzKbzBnoHPQO8tED1ZsuLlDC6H9orOR1N-nT6Ey2OyTmradIN1hXD5LCN5l30QDd9MvT0diIcj1fq-olXXQrrVhkr6-g3HfvOM_Si2kBTBFksWRSBBmwrFiaWoECdYDGIT9nGO3YJHKBmtu1]--></g></svg>