<svg xmlns="http://www.w3.org/2000/svg" xmlns:xlink="http://www.w3.org/1999/xlink" contentStyleType="text/css" data-diagram-type="CLASS" height="522px" preserveAspectRatio="none" style="width:845px;height:522px;background:#FFFFFF;" version="1.1" viewBox="0 0 845 522" width="845px" zoomAndPan="magnify"><?plantuml 1.2026.5?><defs/><g><g class="title" data-source-line="2349"><text fill="#000000" font-family="sans-serif" font-size="14" font-weight="700" lengthAdjust="spacing" textLength="373.0713" x="232.483" y="23.5352">Observer Pattern - New Job Discovery Notifications</text></g><!--cluster Observer Pattern--><g class="cluster" data-qualified-name="Observer Pattern" data-source-line="2352" id="ent0001"><path d="M8.5,43.4883 L132.1982,43.4883 A3.75,3.75 0 0 1 134.6982,45.9883 L141.6982,65.9766 L635.5,65.9766 A2.5,2.5 0 0 1 638,68.4766 L638,505.4083 A2.5,2.5 0 0 1 635.5,507.9083 L8.5,507.9083 A2.5,2.5 0 0 1 6,505.4083 L6,45.9883 A2.5,2.5 0 0 1 8.5,43.4883" fill="none" style="stroke:#000000;stroke-width:1.5;"/><line style="stroke:#000000;stroke-width:1.5;" x1="6" x2="141.6982" y1="65.9766" y2="65.9766"/><text fill="#000000" font-family="sans-serif" font-size="14" font-weight="700" lengthAdjust="spacing" textLength="122.6982" x="10" y="59.0234">Observer Pattern</text></g><!--class CompanyWatchSubject--><g class="entity" data-qualified-name="Observer Pattern.CompanyWatchSubject" data-source-line="2353" id="ent0002"><rect fill="#F1F1F1" height="113.9531" rx="2.5" ry="2.5" style="stroke:#181818;stroke-width:0.5;" width="269.3662" x="22.32" y="236.4683"/><ellipse cx="75.6471" cy="252.4683" fill="#ADD1B2" rx="11" ry="11" style="stroke:#181818;stroke-width:1;"/><path d="M78.1203,258.6113 Q77.5392,258.9102 76.9001,259.0596 Q76.2609,259.209 75.5554,259.209 Q73.0485,259.209 71.7287,257.5571 Q70.4089,255.9053 70.4089,252.7842 Q70.4089,249.6548 71.7287,248.0029 Q73.0485,246.3511 75.5554,246.3511 Q76.2609,246.3511 76.9084,246.5005 Q77.5558,246.6499 78.1203,246.9488 L78.1203,249.6714 Q77.4894,249.0904 76.8959,248.8206 Q76.3024,248.5508 75.6716,248.5508 Q74.3268,248.5508 73.642,249.6175 Q72.9572,250.6841 72.9572,252.7842 Q72.9572,254.876 73.642,255.9426 Q74.3268,257.0093 75.6716,257.0093 Q76.3024,257.0093 76.8959,256.7395 Q77.4894,256.4697 78.1203,255.8887 Z " fill="#000000"/><text fill="#000000" font-family="sans-serif" font-size="14" lengthAdjust="spacing" textLength="154.2119" x="96.1471" y="257.7593">CompanyWatchSubject</text><line style="stroke:#181818;stroke-width:0.5;" x1="23.32" x2="290.6862" y1="268.4683" y2="268.4683"/><text fill="#000000" font-family="sans-serif" font-size="14" lengthAdjust="spacing" textLength="257.3662" x="28.32" y="286.0034">-listeners: List~JobDiscoveryListener~</text><line style="stroke:#181818;stroke-width:0.5;" x1="23.32" x2="290.6862" y1="292.9566" y2="292.9566"/><text fill="#000000" font-family="sans-serif" font-size="14" lengthAdjust="spacing" textLength="173.6123" x="28.32" y="310.4917">+subscribe(listener): void</text><text fill="#000000" font-family="sans-serif" font-size="14" lengthAdjust="spacing" textLength="190.9893" x="28.32" y="326.98">+unsubscribe(listener): void</text><text fill="#000000" font-family="sans-serif" font-size="14" lengthAdjust="spacing" textLength="230.5146" x="28.32" y="343.4683">+notifyNewJob(job, watchId): void</text></g><!--class JobDiscoveryListener--><g class="entity" data-qualified-name="Observer Pattern.JobDiscoveryListener" data-source-line="2360" id="ent0003"><rect fill="#F1F1F1" height="64.4883" rx="2.5" ry="2.5" style="stroke:#181818;stroke-width:0.5;" width="295.5957" x="267.2" y="427.4183"/><ellipse cx="340.1497" cy="443.4183" fill="#B4A7E5" rx="11" ry="11" style="stroke:#181818;stroke-width:1;"/><path d="M336.5774,439.6834 L336.5774,437.5252 L343.9568,437.5252 L343.9568,439.6834 L341.4915,439.6834 L341.4915,447.7601 L343.9568,447.7601 L343.9568,449.9183 L336.5774,449.9183 L336.5774,447.7601 L339.0428,447.7601 L339.0428,439.6834 Z " fill="#000000"/><text fill="#000000" font-family="sans-serif" font-size="14" font-style="italic" lengthAdjust="spacing" textLength="141.1963" x="360.6497" y="448.7093">JobDiscoveryListener</text><line style="stroke:#181818;stroke-width:0.5;" x1="268.2" x2="561.7957" y1="459.4183" y2="459.4183"/><line style="stroke:#181818;stroke-width:0.5;" x1="268.2" x2="561.7957" y1="467.4183" y2="467.4183"/><text fill="#000000" font-family="sans-serif" font-size="14" lengthAdjust="spacing" textLength="283.5957" x="273.2" y="484.9534">+onNewJobDiscovered(job, watchId): void</text></g><!--class JobDiscoveryPersistenceListener--><g class="entity" data-qualified-name="Observer Pattern.JobDiscoveryPersistenceListener" data-source-line="2364" id="ent0004"><rect fill="#F1F1F1" height="80.9766" rx="2.5" ry="2.5" style="stroke:#181818;stroke-width:0.5;" width="295.5957" x="326.2" y="252.9583"/><ellipse cx="361.9527" cy="268.9583" fill="#ADD1B2" rx="11" ry="11" style="stroke:#181818;stroke-width:1;"/><path d="M364.4259,275.1013 Q363.8448,275.4002 363.2057,275.5496 Q362.5665,275.699 361.8609,275.699 Q359.3541,275.699 358.0343,274.0471 Q356.7145,272.3953 356.7145,269.2742 Q356.7145,266.1448 358.0343,264.4929 Q359.3541,262.8411 361.8609,262.8411 Q362.5665,262.8411 363.214,262.9905 Q363.8614,263.1399 364.4259,263.4388 L364.4259,266.1614 Q363.795,265.5804 363.2015,265.3106 Q362.608,265.0408 361.9771,265.0408 Q360.6324,265.0408 359.9476,266.1075 Q359.2628,267.1741 359.2628,269.2742 Q359.2628,271.366 359.9476,272.4326 Q360.6324,273.4993 361.9771,273.4993 Q362.608,273.4993 363.2015,273.2295 Q363.795,272.9597 364.4259,272.3787 Z " fill="#000000"/><text fill="#000000" font-family="sans-serif" font-size="14" lengthAdjust="spacing" textLength="217.4785" x="380.5645" y="274.2493">JobDiscoveryPersistenceListener</text><line style="stroke:#181818;stroke-width:0.5;" x1="327.2" x2="620.7957" y1="284.9583" y2="284.9583"/><text fill="#000000" font-family="sans-serif" font-size="14" lengthAdjust="spacing" textLength="230.0293" x="332.2" y="302.4934">-repository: JobPostingRepository</text><line style="stroke:#181818;stroke-width:0.5;" x1="327.2" x2="620.7957" y1="309.4466" y2="309.4466"/><text fill="#000000" font-family="sans-serif" font-size="14" lengthAdjust="spacing" textLength="283.5957" x="332.2" y="326.9817">+onNewJobDiscovered(job, watchId): void</text></g><!--class JobObserverService--><g class="entity" data-qualified-name="Observer Pattern.JobObserverService" data-source-line="2369" id="ent0005"><rect fill="#F1F1F1" height="64.4883" rx="2.5" ry="2.5" style="stroke:#181818;stroke-width:0.5;" width="226.3887" x="32.81" y="86.7383"/><ellipse cx="76.6838" cy="102.7383" fill="#ADD1B2" rx="11" ry="11" style="stroke:#181818;stroke-width:1;"/><path d="M79.157,108.8813 Q78.5759,109.1802 77.9368,109.3296 Q77.2976,109.479 76.592,109.479 Q74.0852,109.479 72.7654,107.8271 Q71.4455,106.1753 71.4455,103.0542 Q71.4455,99.9248 72.7654,98.2729 Q74.0852,96.6211 76.592,96.6211 Q77.2976,96.6211 77.9451,96.7705 Q78.5925,96.9199 79.157,97.2188 L79.157,99.9414 Q78.5261,99.3604 77.9326,99.0906 Q77.3391,98.8208 76.7082,98.8208 Q75.3635,98.8208 74.6787,99.8875 Q73.9939,100.9541 73.9939,103.0542 Q73.9939,105.146 74.6787,106.2126 Q75.3635,107.2793 76.7082,107.2793 Q77.3391,107.2793 77.9326,107.0095 Q78.5261,106.7397 79.157,106.1587 Z " fill="#000000"/><text fill="#000000" font-family="sans-serif" font-size="14" lengthAdjust="spacing" textLength="130.2246" x="97.1002" y="108.0293">JobObserverService</text><line style="stroke:#181818;stroke-width:0.5;" x1="33.81" x2="258.1987" y1="118.7383" y2="118.7383"/><line style="stroke:#181818;stroke-width:0.5;" x1="33.81" x2="258.1987" y1="126.7383" y2="126.7383"/><text fill="#000000" font-family="sans-serif" font-size="14" lengthAdjust="spacing" textLength="214.3887" x="38.81" y="144.2734">+registerListener(listener): void</text></g><!--class JobPollingScheduler--><g class="entity" data-qualified-name="Observer Pattern.JobPollingScheduler" data-source-line="2373" id="ent0006"><rect fill="#F1F1F1" height="80.9766" rx="2.5" ry="2.5" style="stroke:#181818;stroke-width:0.5;" width="232.2744" x="293.86" y="78.4883"/><ellipse cx="338.7789" cy="94.4883" fill="#ADD1B2" rx="11" ry="11" style="stroke:#181818;stroke-width:1;"/><path d="M341.2521,100.6313 Q340.671,100.9302 340.0319,101.0796 Q339.3927,101.229 338.6871,101.229 Q336.1803,101.229 334.8605,99.5771 Q333.5407,97.9253 333.5407,94.8042 Q333.5407,91.6748 334.8605,90.0229 Q336.1803,88.3711 338.6871,88.3711 Q339.3927,88.3711 340.0402,88.5205 Q340.6876,88.6699 341.2521,88.9688 L341.2521,91.6914 Q340.6212,91.1104 340.0277,90.8406 Q339.4342,90.5708 338.8034,90.5708 Q337.4586,90.5708 336.7738,91.6375 Q336.089,92.7041 336.089,94.8042 Q336.089,96.896 336.7738,97.9626 Q337.4586,99.0293 338.8034,99.0293 Q339.4342,99.0293 340.0277,98.7595 Q340.6212,98.4897 341.2521,97.9087 Z " fill="#000000"/><text fill="#000000" font-family="sans-serif" font-size="14" lengthAdjust="spacing" textLength="133.9365" x="359.2789" y="99.7793">JobPollingScheduler</text><line style="stroke:#181818;stroke-width:0.5;" x1="294.86" x2="525.1344" y1="110.4883" y2="110.4883"/><text fill="#000000" font-family="sans-serif" font-size="14" lengthAdjust="spacing" textLength="220.2744" x="299.86" y="128.0234">-subject: CompanyWatchSubject</text><line style="stroke:#181818;stroke-width:0.5;" x1="294.86" x2="525.1344" y1="134.9766" y2="134.9766"/><text fill="#000000" font-family="sans-serif" font-size="14" lengthAdjust="spacing" textLength="192.5205" x="299.86" y="152.5117">+pollEnabledWatches(): void</text></g><!--class JobPostingRepository--><g class="entity" data-qualified-name="JobPostingRepository" data-source-line="2381" id="ent0009"><rect fill="#F1F1F1" height="48" rx="2.5" ry="2.5" style="stroke:#181818;stroke-width:0.5;" width="176.0674" x="653.97" y="435.6683"/><ellipse cx="668.97" cy="451.6683" fill="#ADD1B2" rx="11" ry="11" style="stroke:#181818;stroke-width:1;"/><path d="M671.4431,457.8113 Q670.8621,458.1102 670.2229,458.2596 Q669.5838,458.409 668.8782,458.409 Q666.3714,458.409 665.0515,456.7571 Q663.7317,455.1053 663.7317,451.9842 Q663.7317,448.8548 665.0515,447.2029 Q666.3714,445.5511 668.8782,445.5511 Q669.5838,445.5511 670.2312,445.7005 Q670.8787,445.8499 671.4431,446.1488 L671.4431,448.8714 Q670.8123,448.2904 670.2188,448.0206 Q669.6253,447.7508 668.9944,447.7508 Q667.6497,447.7508 666.9649,448.8175 Q666.2801,449.8841 666.2801,451.9842 Q666.2801,454.076 666.9649,455.1426 Q667.6497,456.2093 668.9944,456.2093 Q669.6253,456.2093 670.2188,455.9395 Q670.8123,455.6697 671.4431,455.0887 Z " fill="#000000"/><text fill="#000000" font-family="sans-serif" font-size="14" lengthAdjust="spacing" textLength="144.0674" x="682.97" y="456.9593">JobPostingRepository</text><line style="stroke:#181818;stroke-width:0.5;" x1="654.97" x2="829.0374" y1="467.6683" y2="467.6683"/><line style="stroke:#181818;stroke-width:0.5;" x1="654.97" x2="829.0374" y1="475.6683" y2="475.6683"/></g><!--link JobDiscoveryPersistenceListener to JobDiscoveryListener--><g class="link" data-entity-1="ent0004" data-entity-2="ent0003" data-link-type="extension" data-source-line="2379" id="lnk7"><path codeLine="2379" d="M459.72,334.1983 C449.49,362.6783 441.9724,383.5671 432.4724,410.0271" fill="none" id="JobDiscoveryPersistenceListener-to-JobDiscoveryListener" style="stroke:#181818;stroke-width:1;stroke-dasharray:7,7;"/><polygon fill="none" points="426.39,426.9683,438.1195,412.0546,426.8254,407.9996,426.39,426.9683" style="stroke:#181818;stroke-width:1;stroke-linejoin:miter;stroke-miterlimit:10;"/><text fill="#000000" font-family="sans-serif" font-size="13" lengthAdjust="spacing" textLength="48.5786" x="443.73" y="393.9866">realizes</text></g><!--link CompanyWatchSubject to JobDiscoveryListener--><g class="link" data-entity-1="ent0002" data-entity-2="ent0003" data-link-type="aggregation" data-source-line="2380" id="lnk8"><path codeLine="2380" d="M255.5533,357.1718 C295.6633,382.7018 327.2618,402.8237 361.2018,424.4237" fill="none" id="CompanyWatchSubject-JobDiscoveryListener" style="stroke:#181818;stroke-width:1;"/><polygon fill="none" points="245.43,350.7283,248.3438,357.3245,255.5533,357.1718,252.6395,350.5756,245.43,350.7283" style="stroke:#181818;stroke-width:1;stroke-linejoin:miter;stroke-miterlimit:10;"/><polygon fill="#181818" points="365.42,427.1083,359.9749,418.9015,361.2018,424.4237,355.6796,425.6507,365.42,427.1083" style="stroke:#181818;stroke-width:1;stroke-linejoin:miter;stroke-miterlimit:10;"/><text fill="#000000" font-family="sans-serif" font-size="13" lengthAdjust="spacing" textLength="47.0806" x="317.7" y="393.9866">notifies</text><text fill="#000000" font-family="sans-serif" font-size="13" lengthAdjust="spacing" textLength="8.2202" x="247.2046" y="370.8052">1</text><text fill="#000000" font-family="sans-serif" font-size="13" lengthAdjust="spacing" textLength="22.7119" x="330.9992" y="416.4475">0..*</text></g><!--link JobDiscoveryPersistenceListener to JobPostingRepository--><g class="link" data-entity-1="ent0004" data-entity-2="ent0009" data-link-type="dependency" data-source-line="2381" id="lnk10"><path codeLine="2381" d="M539.22,334.4083 C590.81,366.0183 656.8068,406.4658 699.6268,432.7058" fill="none" id="JobDiscoveryPersistenceListener-to-JobPostingRepository" style="stroke:#181818;stroke-width:1;"/><polygon fill="#181818" points="703.89,435.3183,698.3062,427.2052,699.6268,432.7058,694.1262,434.0264,703.89,435.3183" style="stroke:#181818;stroke-width:1;stroke-linejoin:miter;stroke-miterlimit:10;"/><text fill="#000000" font-family="sans-serif" font-size="13" lengthAdjust="spacing" textLength="103.835" x="640.89" y="393.9866">persists through</text><text fill="#000000" font-family="sans-serif" font-size="13" lengthAdjust="spacing" textLength="8.2202" x="540.6115" y="354.4211">1</text><text fill="#000000" font-family="sans-serif" font-size="13" lengthAdjust="spacing" textLength="8.2202" x="685.1266" y="424.7649">1</text></g><!--link JobPollingScheduler to CompanyWatchSubject--><g class="link" data-entity-1="ent0006" data-entity-2="ent0002" data-link-type="dependency" data-source-line="2382" id="lnk11"><path codeLine="2382" d="M351.64,159.7583 C318.37,182.4383 280.2616,208.4222 243.6416,233.3822" fill="none" id="JobPollingScheduler-to-CompanyWatchSubject" style="stroke:#181818;stroke-width:1;"/><polygon fill="#181818" points="239.51,236.1983,249.1997,234.4346,243.6416,233.3822,244.694,227.8241,239.51,236.1983" style="stroke:#181818;stroke-width:1;stroke-linejoin:miter;stroke-miterlimit:10;"/><text fill="#000000" font-family="sans-serif" font-size="13" lengthAdjust="spacing" textLength="97.0684" x="307.16" y="203.0366">triggers polling</text><text fill="#000000" font-family="sans-serif" font-size="13" lengthAdjust="spacing" textLength="8.2202" x="333.7194" y="180.0463">1</text><text fill="#000000" font-family="sans-serif" font-size="13" lengthAdjust="spacing" textLength="8.2202" x="241.0914" y="225.8946">1</text></g><!--link JobObserverService to CompanyWatchSubject--><g class="link" data-entity-1="ent0005" data-entity-2="ent0002" data-link-type="dependency" data-source-line="2383" id="lnk12"><path codeLine="2383" d="M148.02,151.6083 C149.52,175.2383 151.3,203.1785 153.1,231.2485" fill="none" id="JobObserverService-to-CompanyWatchSubject" style="stroke:#181818;stroke-width:1;"/><polygon fill="#181818" points="153.42,236.2383,156.8359,227.0008,153.1,231.2485,148.8523,227.5127,153.42,236.2383" style="stroke:#181818;stroke-width:1;stroke-linejoin:miter;stroke-miterlimit:10;"/><text fill="#000000" font-family="sans-serif" font-size="13" lengthAdjust="spacing" textLength="112.7217" x="152.5" y="203.0366">registers listeners</text><text fill="#000000" font-family="sans-serif" font-size="13" lengthAdjust="spacing" textLength="8.2202" x="139.6627" y="171.8552">1</text><text fill="#000000" font-family="sans-serif" font-size="13" lengthAdjust="spacing" textLength="8.2202" x="144.4625" y="225.536">1</text></g><?plantuml-src fPDDJyCm38Rl-HLMJuFH2QuzJ4B00OHWeWVEQUfrsKfInUccyVNRSTjr6oZG0vUegkt7h_qcNliIuJ4ZT6jqC9FUepCGmmDkuCvcSAr9MGvjuS5wFTTAUcqD2LffKqadNq2LakZIUwUpskEjiYRLhmZdGbHIhMI14FtaH_0ce2k4A_jIIRDzbbujqZfRel9j520kDNaqw2Y1U_xyP3rxEVUxs6UREgOw8yKASDGNdIImjZhlmhKPI33DS5iUcdkCbZOxWqqZw3O_P7q8FhHX_NEf449YTiB7rdIaFW7plvZT7evvCvwvHIhyWOuTLfQqjswRD2KpIrwRucd_zry2UfzIFZNFk1l7OT6eSBsMm0g_SsQsB5bLgXQOr-L1F7N-9Y7JkrOLLzuOcPMOjq6aqN4JRZEqfydaVHes9m67ikIxII9qwQAB26mSJo4wdqnEezyOxKtHp1WIql1Qt4KKT8fPLLT6u1VEriL2X7Ptp0dfJe2VNb4m2ggkLWIi7ARqBXFitvtu0W00?></g></svg>