<svg xmlns="http://www.w3.org/2000/svg" xmlns:xlink="http://www.w3.org/1999/xlink" contentStyleType="text/css" data-diagram-type="CLASS" height="472px" preserveAspectRatio="none" style="width:630px;height:472px;background:#FEFEFE;" version="1.1" viewBox="0 0 630 472" width="630px" zoomAndPan="magnify"><?plantuml 1.2026.5?><defs/><g><rect fill="#FEFEFE" height="472" style="stroke:none;stroke-width:1;" width="630" x="0" y="0"/><g class="title" data-source-line="345"><text fill="#000000" font-family="sans-serif" font-size="14" font-weight="700" lengthAdjust="spacing" textLength="276.2129" x="173.8264" y="23.5352">Observer Pattern - New Job Discovery</text></g><!--class CompanyWatchSubject--><g class="entity" data-qualified-name="CompanyWatchSubject" data-source-line="351" id="ent0001"><rect fill="#F1F8E9" height="113.9531" rx="2.5" ry="2.5" style="stroke:#689F38;stroke-width:0.5;" width="275.2656" x="340.6" y="202.4683"/><ellipse cx="396.8769" cy="218.4683" fill="#ADD1B2" rx="11" ry="11" style="stroke:#181818;stroke-width:1;"/><path d="M399.35,224.6113 Q398.7689,224.9102 398.1298,225.0596 Q397.4906,225.209 396.7851,225.209 Q394.2782,225.209 392.9584,223.5571 Q391.6386,221.9053 391.6386,218.7842 Q391.6386,215.6548 392.9584,214.0029 Q394.2782,212.3511 396.7851,212.3511 Q397.4906,212.3511 398.1381,212.5005 Q398.7855,212.6499 399.35,212.9488 L399.35,215.6714 Q398.7191,215.0904 398.1256,214.8206 Q397.5321,214.5508 396.9013,214.5508 Q395.5565,214.5508 394.8717,215.6175 Q394.1869,216.6841 394.1869,218.7842 Q394.1869,220.876 394.8717,221.9426 Q395.5565,223.0093 396.9013,223.0093 Q397.5321,223.0093 398.1256,222.7395 Q398.7191,222.4697 399.35,221.8887 Z " fill="#000000"/><text fill="#000000" font-family="sans-serif" font-size="14" lengthAdjust="spacing" textLength="154.2119" x="417.3769" y="223.7593">CompanyWatchSubject</text><line style="stroke:#689F38;stroke-width:0.5;" x1="341.6" x2="614.8656" y1="234.4683" y2="234.4683"/><g data-visibility-modifier="PRIVATE_FIELD"><rect fill="none" height="6" style="stroke:#C82930;stroke-width:1;" width="6" x="348.6" y="245.2124"/></g><text fill="#000000" font-family="sans-serif" font-size="14" lengthAdjust="spacing" textLength="249.2656" x="360.6" y="252.0034">listeners: List~JobDiscoveryListener~</text><line style="stroke:#689F38;stroke-width:0.5;" x1="341.6" x2="614.8656" y1="258.9566" y2="258.9566"/><g data-visibility-modifier="PUBLIC_METHOD"><ellipse cx="351.6" cy="272.7007" fill="#84BE84" rx="3" ry="3" style="stroke:#038048;stroke-width:1;"/></g><text fill="#000000" font-family="sans-serif" font-size="14" lengthAdjust="spacing" textLength="162.4834" x="360.6" y="276.4917">subscribe(listener): void</text><g data-visibility-modifier="PUBLIC_METHOD"><ellipse cx="351.6" cy="289.189" fill="#84BE84" rx="3" ry="3" style="stroke:#038048;stroke-width:1;"/></g><text fill="#000000" font-family="sans-serif" font-size="14" lengthAdjust="spacing" textLength="179.8604" x="360.6" y="292.98">unsubscribe(listener): void</text><g data-visibility-modifier="PUBLIC_METHOD"><ellipse cx="351.6" cy="305.6773" fill="#84BE84" rx="3" ry="3" style="stroke:#038048;stroke-width:1;"/></g><text fill="#000000" font-family="sans-serif" font-size="14" lengthAdjust="spacing" textLength="219.3857" x="360.6" y="309.4683">notifyNewJob(job, watchId): void</text></g><!--class JobDiscoveryListener--><g class="entity" data-qualified-name="JobDiscoveryListener" data-source-line="358" id="ent0002"><rect fill="#F1F8E9" height="64.4883" rx="2.5" ry="2.5" style="stroke:#689F38;stroke-width:0.5;" width="298.4668" x="304" y="393.4183"/><ellipse cx="378.3853" cy="409.4183" fill="#B4A7E5" rx="11" ry="11" style="stroke:#181818;stroke-width:1;"/><path d="M374.813,405.6834 L374.813,403.5252 L382.1924,403.5252 L382.1924,405.6834 L379.7271,405.6834 L379.7271,413.7601 L382.1924,413.7601 L382.1924,415.9183 L374.813,415.9183 L374.813,413.7601 L377.2783,413.7601 L377.2783,405.6834 Z " fill="#000000"/><text fill="#000000" font-family="sans-serif" font-size="14" font-style="italic" lengthAdjust="spacing" textLength="141.1963" x="398.8853" y="414.7093">JobDiscoveryListener</text><line style="stroke:#689F38;stroke-width:0.5;" x1="305" x2="601.4668" y1="425.4183" y2="425.4183"/><line style="stroke:#689F38;stroke-width:0.5;" x1="305" x2="601.4668" y1="433.4183" y2="433.4183"/><g data-visibility-modifier="PUBLIC_METHOD"><ellipse cx="315" cy="447.1624" fill="#84BE84" rx="3" ry="3" style="stroke:#038048;stroke-width:1;"/></g><text fill="#000000" font-family="sans-serif" font-size="14" lengthAdjust="spacing" textLength="272.4668" x="324" y="450.9534">onNewJobDiscovered(job, watchId): void</text></g><!--class JobDiscoveryPersistenceListener--><g class="entity" data-qualified-name="JobDiscoveryPersistenceListener" data-source-line="362" id="ent0003"><rect fill="#F1F8E9" height="80.9766" rx="2.5" ry="2.5" style="stroke:#689F38;stroke-width:0.5;" width="298.4668" x="7" y="218.9583"/><ellipse cx="44.0447" cy="234.9583" fill="#ADD1B2" rx="11" ry="11" style="stroke:#181818;stroke-width:1;"/><path d="M46.5179,241.1013 Q45.9368,241.4002 45.2977,241.5496 Q44.6585,241.699 43.9529,241.699 Q41.4461,241.699 40.1263,240.0471 Q38.8064,238.3953 38.8064,235.2742 Q38.8064,232.1448 40.1263,230.4929 Q41.4461,228.8411 43.9529,228.8411 Q44.6585,228.8411 45.306,228.9905 Q45.9534,229.1399 46.5179,229.4388 L46.5179,232.1614 Q45.887,231.5804 45.2935,231.3106 Q44.7,231.0408 44.0691,231.0408 Q42.7244,231.0408 42.0396,232.1075 Q41.3548,233.1741 41.3548,235.2742 Q41.3548,237.366 42.0396,238.4326 Q42.7244,239.4993 44.0691,239.4993 Q44.7,239.4993 45.2935,239.2295 Q45.887,238.9597 46.5179,238.3787 Z " fill="#000000"/><text fill="#000000" font-family="sans-serif" font-size="14" lengthAdjust="spacing" textLength="217.4785" x="62.9436" y="240.2493">JobDiscoveryPersistenceListener</text><line style="stroke:#689F38;stroke-width:0.5;" x1="8" x2="304.4668" y1="250.9583" y2="250.9583"/><g data-visibility-modifier="PRIVATE_FIELD"><rect fill="none" height="6" style="stroke:#C82930;stroke-width:1;" width="6" x="15" y="261.7024"/></g><text fill="#000000" font-family="sans-serif" font-size="14" lengthAdjust="spacing" textLength="221.9287" x="27" y="268.4934">repository: JobPostingRepository</text><line style="stroke:#689F38;stroke-width:0.5;" x1="8" x2="304.4668" y1="275.4466" y2="275.4466"/><g data-visibility-modifier="PUBLIC_METHOD"><ellipse cx="18" cy="289.1907" fill="#84BE84" rx="3" ry="3" style="stroke:#038048;stroke-width:1;"/></g><text fill="#000000" font-family="sans-serif" font-size="14" lengthAdjust="spacing" textLength="272.4668" x="27" y="292.9817">onNewJobDiscovered(job, watchId): void</text></g><!--class JobPollingScheduler--><g class="entity" data-qualified-name="JobPollingScheduler" data-source-line="367" id="ent0004"><rect fill="#F1F8E9" height="80.9766" rx="2.5" ry="2.5" style="stroke:#689F38;stroke-width:0.5;" width="238.1738" x="359.15" y="44.4883"/><ellipse cx="407.0187" cy="60.4883" fill="#ADD1B2" rx="11" ry="11" style="stroke:#181818;stroke-width:1;"/><path d="M409.4918,66.6313 Q408.9107,66.9302 408.2716,67.0796 Q407.6324,67.229 406.9269,67.229 Q404.42,67.229 403.1002,65.5771 Q401.7804,63.9253 401.7804,60.8042 Q401.7804,57.6748 403.1002,56.0229 Q404.42,54.3711 406.9269,54.3711 Q407.6324,54.3711 408.2799,54.5205 Q408.9273,54.6699 409.4918,54.9688 L409.4918,57.6914 Q408.8609,57.1104 408.2674,56.8406 Q407.6739,56.5708 407.0431,56.5708 Q405.6983,56.5708 405.0135,57.6375 Q404.3287,58.7041 404.3287,60.8042 Q404.3287,62.896 405.0135,63.9626 Q405.6983,65.0293 407.0431,65.0293 Q407.6739,65.0293 408.2674,64.7595 Q408.8609,64.4897 409.4918,63.9087 Z " fill="#000000"/><text fill="#000000" font-family="sans-serif" font-size="14" lengthAdjust="spacing" textLength="133.9365" x="427.5187" y="65.7793">JobPollingScheduler</text><line style="stroke:#689F38;stroke-width:0.5;" x1="360.15" x2="596.3238" y1="76.4883" y2="76.4883"/><g data-visibility-modifier="PRIVATE_FIELD"><rect fill="none" height="6" style="stroke:#C82930;stroke-width:1;" width="6" x="367.15" y="87.2324"/></g><text fill="#000000" font-family="sans-serif" font-size="14" lengthAdjust="spacing" textLength="212.1738" x="379.15" y="94.0234">subject: CompanyWatchSubject</text><line style="stroke:#689F38;stroke-width:0.5;" x1="360.15" x2="596.3238" y1="100.9766" y2="100.9766"/><g data-visibility-modifier="PUBLIC_METHOD"><ellipse cx="370.15" cy="114.7207" fill="#84BE84" rx="3" ry="3" style="stroke:#038048;stroke-width:1;"/></g><text fill="#000000" font-family="sans-serif" font-size="14" lengthAdjust="spacing" textLength="181.3916" x="379.15" y="118.5117">pollEnabledWatches(): void</text></g><!--class JobPostingRepository--><g class="entity" data-qualified-name="JobPostingRepository" data-source-line="374" id="ent0007"><rect fill="#F1F8E9" height="48" rx="2.5" ry="2.5" style="stroke:#689F38;stroke-width:0.5;" width="176.0674" x="68.2" y="401.6683"/><ellipse cx="83.2" cy="417.6683" fill="#ADD1B2" rx="11" ry="11" style="stroke:#181818;stroke-width:1;"/><path d="M85.6731,423.8113 Q85.0921,424.1102 84.4529,424.2596 Q83.8138,424.409 83.1082,424.409 Q80.6014,424.409 79.2815,422.7571 Q77.9617,421.1053 77.9617,417.9842 Q77.9617,414.8548 79.2815,413.2029 Q80.6014,411.5511 83.1082,411.5511 Q83.8138,411.5511 84.4612,411.7005 Q85.1087,411.8499 85.6731,412.1488 L85.6731,414.8714 Q85.0423,414.2904 84.4488,414.0206 Q83.8553,413.7508 83.2244,413.7508 Q81.8797,413.7508 81.1949,414.8175 Q80.5101,415.8841 80.5101,417.9842 Q80.5101,420.076 81.1949,421.1426 Q81.8797,422.2093 83.2244,422.2093 Q83.8553,422.2093 84.4488,421.9395 Q85.0423,421.6697 85.6731,421.0887 Z " fill="#000000"/><text fill="#000000" font-family="sans-serif" font-size="14" lengthAdjust="spacing" textLength="144.0674" x="97.2" y="422.9593">JobPostingRepository</text><line style="stroke:#689F38;stroke-width:0.5;" x1="69.2" x2="243.2674" y1="433.6683" y2="433.6683"/><line style="stroke:#689F38;stroke-width:0.5;" x1="69.2" x2="243.2674" y1="441.6683" y2="441.6683"/></g><!--link JobDiscoveryPersistenceListener to JobDiscoveryListener--><g class="link" data-entity-1="ent0003" data-entity-2="ent0002" data-link-type="extension" data-source-line="372" id="lnk5"><path codeLine="372" d="M228.51,300.4083 C280.02,328.8883 332.5675,357.9487 380.2975,384.3387" fill="none" id="JobDiscoveryPersistenceListener-to-JobDiscoveryListener" style="stroke:#181818;stroke-width:1;stroke-dasharray:7,7;"/><polygon fill="none" points="396.05,393.0483,383.2007,379.0878,377.3943,389.5895,396.05,393.0483" style="stroke:#181818;stroke-width:1;stroke-linejoin:miter;stroke-miterlimit:10;"/><text fill="#000000" font-family="sans-serif" font-size="13" lengthAdjust="spacing" textLength="48.5786" x="341.07" y="359.9866">realizes</text></g><!--link CompanyWatchSubject to JobDiscoveryListener--><g class="link" data-entity-1="ent0001" data-entity-2="ent0002" data-link-type="aggregation" data-source-line="373" id="lnk6"><path codeLine="373" d="M467.8962,328.3619 C463.9962,354.0119 462.0724,366.6252 458.7724,388.3052" fill="none" id="CompanyWatchSubject-JobDiscoveryListener" style="stroke:#181818;stroke-width:1;"/><polygon fill="none" points="469.7,316.4983,464.8435,321.8288,467.8962,328.3619,472.7526,323.0314,469.7,316.4983" style="stroke:#181818;stroke-width:1;stroke-linejoin:miter;stroke-miterlimit:10;"/><polygon fill="#181818" points="458.02,393.2483,463.3288,384.9527,458.7724,388.3052,455.4199,383.7488,458.02,393.2483" style="stroke:#181818;stroke-width:1;stroke-linejoin:miter;stroke-miterlimit:10;"/><polygon fill="#000000" points="469.2276,360.0166,473.4941,351.5168,467.6832,350.6323,469.2276,360.0166" style="stroke:#000000;stroke-width:1;stroke-linejoin:miter;stroke-miterlimit:10;"/><text fill="#000000" font-family="sans-serif" font-size="13" lengthAdjust="spacing" textLength="47.0806" x="478.98" y="359.9866">notifies</text><text fill="#000000" font-family="sans-serif" font-size="13" lengthAdjust="spacing" textLength="8.2202" x="460.186" y="336.953">1</text><text fill="#000000" font-family="sans-serif" font-size="13" lengthAdjust="spacing" textLength="22.7119" x="434.8119" y="382.6164">0..*</text></g><!--link JobDiscoveryPersistenceListener to JobPostingRepository--><g class="link" data-entity-1="ent0003" data-entity-2="ent0007" data-link-type="dependency" data-source-line="374" id="lnk8"><path codeLine="374" d="M156.23,300.1983 C156.23,331.8983 156.23,370.2083 156.23,396.4883" fill="none" id="JobDiscoveryPersistenceListener-to-JobPostingRepository" style="stroke:#181818;stroke-width:1;"/><polygon fill="#181818" points="156.23,401.4883,160.23,392.4883,156.23,396.4883,152.23,392.4883,156.23,401.4883" style="stroke:#181818;stroke-width:1;stroke-linejoin:miter;stroke-miterlimit:10;"/><text fill="#000000" font-family="sans-serif" font-size="13" lengthAdjust="spacing" textLength="103.835" x="157.23" y="359.9866">persists through</text><text fill="#000000" font-family="sans-serif" font-size="13" lengthAdjust="spacing" textLength="8.2202" x="147.6095" y="320.4815">1</text><text fill="#000000" font-family="sans-serif" font-size="13" lengthAdjust="spacing" textLength="8.2202" x="147.2323" y="390.9784">1</text></g><!--link JobPollingScheduler to CompanyWatchSubject--><g class="link" data-entity-1="ent0004" data-entity-2="ent0001" data-link-type="dependency" data-source-line="375" id="lnk9"><path codeLine="375" d="M478.23,125.5483 C478.23,148.2183 478.23,172.0583 478.23,197.0683" fill="none" id="JobPollingScheduler-to-CompanyWatchSubject" style="stroke:#181818;stroke-width:1;"/><polygon fill="#181818" points="478.23,202.0683,482.23,193.0683,478.23,197.0683,474.23,193.0683,478.23,202.0683" style="stroke:#181818;stroke-width:1;stroke-linejoin:miter;stroke-miterlimit:10;"/><text fill="#000000" font-family="sans-serif" font-size="13" lengthAdjust="spacing" textLength="97.0684" x="479.23" y="169.0366">triggers polling</text><text fill="#000000" font-family="sans-serif" font-size="13" lengthAdjust="spacing" textLength="8.2202" x="469.5846" y="146.1042">1</text><text fill="#000000" font-family="sans-serif" font-size="13" lengthAdjust="spacing" textLength="8.2202" x="469.7556" y="191.7487">1</text></g><?plantuml-src dPBDJiCm48JlVefLk1HA8YearERG0z1A80GLFN2sdMrgSBsHxO3AtxFZ91G5DQKIoiNAp7wxExPNNYFS2OVs6ItCkFTe3SHmYozmJG8kbPCKf3NpL80d4EGzhI1J5gLNP9XxKgRWbgz0SFcKMofDTa6QB1nC9zNNSaZDdJlViWscmybeoqOsG_jjEHkEfgT3nce5BcXLSBD-u5ukvwLu39F06mE8jN8U3LgNmaquVeODVXQu-TO-Wx7lIk6aLG9xcvB359v9PPLOcZzbGrujrY6WGEyzaZY6bsgGgspZ-M1CcP3ZWak4hX7gOVja6iP6ncmNhTcwJPg57MkOn5_Gs691JdcowxGgc97pokJtFt__sNX6MWVEN2unA_MccMkoJxikf6fKXAg9uK9ZLaleUYtuldsIv7tS7LyA5hbMh-XOrrE81X5G78yXEacIesWNexv7XGx6UqUfY3Lm47Mc6cX5K-R0ByFRpfUiAxKsfslo5BnLUHvGK3Irx0i0?></g></svg>