<svg xmlns="http://www.w3.org/2000/svg" xmlns:xlink="http://www.w3.org/1999/xlink" contentStyleType="text/css" height="1438px" preserveAspectRatio="none" style="width:2099px;height:1438px;background:#FFFFFF;" version="1.1" viewBox="0 0 2099 1438" width="2099px" zoomAndPan="magnify"><title>Frontend - React Components, Context Providers, API Clients, Libs, and Types</title><defs/><g><text fill="#000000" font-family="sans-serif" font-size="14" font-weight="bold" lengthAdjust="spacing" textLength="561.7637" x="761.8432" y="23.5352">Frontend - React Components, Context Providers, API Clients, Libs, and Types</text><!--cluster NextOffer-FE/src--><g id="cluster_NextOffer-FE/src"><path d="M8.5,43.4883 L135.1445,43.4883 A3.75,3.75 0 0 1 137.6445,45.9883 L144.6445,65.9766 L2068.5,65.9766 A2.5,2.5 0 0 1 2071,68.4766 L2071,1428.6083 A2.5,2.5 0 0 1 2068.5,1431.1083 L8.5,1431.1083 A2.5,2.5 0 0 1 6,1428.6083 L6,45.9883 A2.5,2.5 0 0 1 8.5,43.4883 " fill="none" style="stroke:#000000;stroke-width:1.5;"/><line style="stroke:#000000;stroke-width:1.5;" x1="6" x2="144.6445" y1="65.9766" y2="65.9766"/><text fill="#000000" font-family="sans-serif" font-size="14" font-weight="bold" lengthAdjust="spacing" textLength="125.6445" x="10" y="59.0234">NextOffer-FE/src</text></g><!--cluster context--><g id="cluster_context"><path d="M32.5,639.8583 L86.9092,639.8583 A3.75,3.75 0 0 1 89.4092,642.3583 L96.4092,662.3466 L612.5,662.3466 A2.5,2.5 0 0 1 615,664.8466 L615,774.3083 A2.5,2.5 0 0 1 612.5,776.8083 L32.5,776.8083 A2.5,2.5 0 0 1 30,774.3083 L30,642.3583 A2.5,2.5 0 0 1 32.5,639.8583 " fill="none" style="stroke:#000000;stroke-width:1.5;"/><line style="stroke:#000000;stroke-width:1.5;" x1="30" x2="96.4092" y1="662.3466" y2="662.3466"/><text fill="#000000" font-family="sans-serif" font-size="14" font-weight="bold" lengthAdjust="spacing" textLength="53.4092" x="34" y="655.3934">context</text></g><!--cluster pages--><g id="cluster_pages"><path d="M478.5,252.9483 L522.3613,252.9483 A3.75,3.75 0 0 1 524.8613,255.4483 L531.8613,275.4366 L1821.5,275.4366 A2.5,2.5 0 0 1 1824,277.9366 L1824,370.9083 A2.5,2.5 0 0 1 1821.5,373.4083 L478.5,373.4083 A2.5,2.5 0 0 1 476,370.9083 L476,255.4483 A2.5,2.5 0 0 1 478.5,252.9483 " fill="none" style="stroke:#000000;stroke-width:1.5;"/><line style="stroke:#000000;stroke-width:1.5;" x1="476" x2="531.8613" y1="275.4366" y2="275.4366"/><text fill="#000000" font-family="sans-serif" font-size="14" font-weight="bold" lengthAdjust="spacing" textLength="42.8613" x="480" y="268.4834">pages</text></g><!--cluster components--><g id="cluster_components"><path d="M691.5,397.4083 L780.8682,397.4083 A3.75,3.75 0 0 1 783.3682,399.9083 L790.3682,419.8966 L1788.5,419.8966 A2.5,2.5 0 0 1 1791,422.3966 L1791,766.0683 A2.5,2.5 0 0 1 1788.5,768.5683 L691.5,768.5683 A2.5,2.5 0 0 1 689,766.0683 L689,399.9083 A2.5,2.5 0 0 1 691.5,397.4083 " fill="none" style="stroke:#000000;stroke-width:1.5;"/><line style="stroke:#000000;stroke-width:1.5;" x1="689" x2="790.3682" y1="419.8966" y2="419.8966"/><text fill="#000000" font-family="sans-serif" font-size="14" font-weight="bold" lengthAdjust="spacing" textLength="88.3682" x="693" y="412.9434">components</text></g><!--cluster api--><g id="cluster_api"><path d="M32.5,961.7583 L55.5596,961.7583 A3.75,3.75 0 0 1 58.0596,964.2583 L65.0596,984.2466 L1422.5,984.2466 A2.5,2.5 0 0 1 1425,986.7466 L1425,1404.6083 A2.5,2.5 0 0 1 1422.5,1407.1083 L32.5,1407.1083 A2.5,2.5 0 0 1 30,1404.6083 L30,964.2583 A2.5,2.5 0 0 1 32.5,961.7583 " fill="none" style="stroke:#000000;stroke-width:1.5;"/><line style="stroke:#000000;stroke-width:1.5;" x1="30" x2="65.0596" y1="984.2466" y2="984.2466"/><text fill="#000000" font-family="sans-serif" font-size="14" font-weight="bold" lengthAdjust="spacing" textLength="22.0596" x="34" y="977.2934">api</text></g><!--cluster lib--><g id="cluster_lib"><path d="M230.5,800.8083 L249.8818,800.8083 A3.75,3.75 0 0 1 252.3818,803.3083 L259.3818,823.2966 L1735.5,823.2966 A2.5,2.5 0 0 1 1738,825.7966 L1738,935.2583 A2.5,2.5 0 0 1 1735.5,937.7583 L230.5,937.7583 A2.5,2.5 0 0 1 228,935.2583 L228,803.3083 A2.5,2.5 0 0 1 230.5,800.8083 " fill="none" style="stroke:#000000;stroke-width:1.5;"/><line style="stroke:#000000;stroke-width:1.5;" x1="228" x2="259.3818" y1="823.2966" y2="823.2966"/><text fill="#000000" font-family="sans-serif" font-size="14" font-weight="bold" lengthAdjust="spacing" textLength="18.3818" x="232" y="816.3434">lib</text></g><!--cluster data--><g id="cluster_data"><path d="M1764.5,809.0483 L1796.9111,809.0483 A3.75,3.75 0 0 1 1799.4111,811.5483 L1806.4111,831.5366 L2031.5,831.5366 A2.5,2.5 0 0 1 2034,834.0366 L2034,927.0183 A2.5,2.5 0 0 1 2031.5,929.5183 L1764.5,929.5183 A2.5,2.5 0 0 1 1762,927.0183 L1762,811.5483 A2.5,2.5 0 0 1 1764.5,809.0483 " fill="none" style="stroke:#000000;stroke-width:1.5;"/><line style="stroke:#000000;stroke-width:1.5;" x1="1762" x2="1806.4111" y1="831.5366" y2="831.5366"/><text fill="#000000" font-family="sans-serif" font-size="14" font-weight="bold" lengthAdjust="spacing" textLength="31.4111" x="1766" y="824.5834">data</text></g><!--entity Main--><g id="elem_Main"><rect fill="#F1F1F1" height="36.4883" rx="2.5" ry="2.5" style="stroke:#181818;stroke-width:0.5;" width="78.9258" x="342.54" y="78.4883"/><text fill="#000000" font-family="sans-serif" font-size="14" lengthAdjust="spacing" textLength="58.9258" x="352.54" y="102.0234">main.tsx</text></g><!--entity App--><g id="elem_App"><rect fill="#F1F1F1" height="52.9766" rx="2.5" ry="2.5" style="stroke:#181818;stroke-width:0.5;" width="219.3701" x="929.31" y="174.9683"/><text fill="#000000" font-family="sans-serif" font-size="14" lengthAdjust="spacing" textLength="52.6709" x="939.31" y="198.5034">App.tsx</text><text fill="#000000" font-family="sans-serif" font-size="14" lengthAdjust="spacing" textLength="199.3701" x="939.31" y="214.9917">App(), emptyJob(), pageTitle()</text></g><!--entity Types--><g id="elem_Types"><rect fill="#F1F1F1" height="52.9766" rx="2.5" ry="2.5" style="stroke:#181818;stroke-width:0.5;" width="267.9668" x="1678.02" y="1021.4883"/><text fill="#000000" font-family="sans-serif" font-size="14" lengthAdjust="spacing" textLength="53.1016" x="1688.02" y="1045.0234">types.ts</text><text fill="#000000" font-family="sans-serif" font-size="14" lengthAdjust="spacing" textLength="247.9668" x="1688.02" y="1061.5117">View, JobStatus, Job, ResumeVersion</text></g><!--entity AuthContext--><g id="elem_AuthContext"><rect fill="#F1F1F1" height="85.9531" rx="2.5" ry="2.5" style="stroke:#181818;stroke-width:0.5;" width="292.7471" x="45.63" y="674.8583"/><text fill="#000000" font-family="sans-serif" font-size="14" font-style="italic" lengthAdjust="spacing" textLength="138.8379" x="122.5846" y="698.3934">&#171;Provider/Observer&#187;</text><text fill="#000000" font-family="sans-serif" font-size="14" lengthAdjust="spacing" textLength="111.4941" x="55.63" y="714.8817">AuthContext.tsx</text><text fill="#000000" font-family="sans-serif" font-size="14" lengthAdjust="spacing" textLength="272.7471" x="55.63" y="731.37">AuthProvider, useAuth, formatAuthError</text><text fill="#000000" font-family="sans-serif" font-size="14" lengthAdjust="spacing" textLength="123.5254" x="55.63" y="747.8583">AuthContextValue</text></g><!--entity AppDataContext--><g id="elem_AppDataContext"><rect fill="#F1F1F1" height="85.9531" rx="2.5" ry="2.5" style="stroke:#181818;stroke-width:0.5;" width="225.1191" x="373.44" y="674.8583"/><text fill="#000000" font-family="sans-serif" font-size="14" font-style="italic" lengthAdjust="spacing" textLength="138.8379" x="416.5806" y="698.3934">&#171;Provider/Observer&#187;</text><text fill="#000000" font-family="sans-serif" font-size="14" lengthAdjust="spacing" textLength="137.6895" x="383.44" y="714.8817">AppDataContext.tsx</text><text fill="#000000" font-family="sans-serif" font-size="14" lengthAdjust="spacing" textLength="205.1191" x="383.44" y="731.37">AppDataProvider, useAppData</text><text fill="#000000" font-family="sans-serif" font-size="14" lengthAdjust="spacing" textLength="149.7207" x="383.44" y="747.8583">AppDataContextValue</text></g><!--entity AuthScreen--><g id="elem_AuthScreen"><rect fill="#F1F1F1" height="52.9766" rx="2.5" ry="2.5" style="stroke:#181818;stroke-width:0.5;" width="122.3887" x="491.81" y="296.1883"/><text fill="#000000" font-family="sans-serif" font-size="14" lengthAdjust="spacing" textLength="102.3887" x="501.81" y="319.7234">AuthScreen.tsx</text><text fill="#000000" font-family="sans-serif" font-size="14" lengthAdjust="spacing" textLength="86.1055" x="501.81" y="336.2117">AuthScreen()</text></g><!--entity DashboardPage--><g id="elem_DashboardPage"><rect fill="#F1F1F1" height="52.9766" rx="2.5" ry="2.5" style="stroke:#181818;stroke-width:0.5;" width="151.1133" x="963.44" y="296.1883"/><text fill="#000000" font-family="sans-serif" font-size="14" lengthAdjust="spacing" textLength="131.1133" x="973.44" y="319.7234">DashboardPage.tsx</text><text fill="#000000" font-family="sans-serif" font-size="14" lengthAdjust="spacing" textLength="114.8301" x="973.44" y="336.2117">DashboardPage()</text></g><!--entity JobsPage--><g id="elem_JobsPage"><rect fill="#F1F1F1" height="52.9766" rx="2.5" ry="2.5" style="stroke:#181818;stroke-width:0.5;" width="106.29" x="1149.85" y="296.1883"/><text fill="#000000" font-family="sans-serif" font-size="14" lengthAdjust="spacing" textLength="86.29" x="1159.85" y="319.7234">JobsPage.tsx</text><text fill="#000000" font-family="sans-serif" font-size="14" lengthAdjust="spacing" textLength="70.0068" x="1159.85" y="336.2117">JobsPage()</text></g><!--entity ResumesPage--><g id="elem_ResumesPage"><rect fill="#F1F1F1" height="52.9766" rx="2.5" ry="2.5" style="stroke:#181818;stroke-width:0.5;" width="255.4023" x="1291.3" y="296.1883"/><text fill="#000000" font-family="sans-serif" font-size="14" lengthAdjust="spacing" textLength="117.8721" x="1301.3" y="319.7234">ResumesPage.tsx</text><text fill="#000000" font-family="sans-serif" font-size="14" lengthAdjust="spacing" textLength="235.4023" x="1301.3" y="336.2117">ResumesPage(), statusClassName()</text></g><!--entity TrackerPage--><g id="elem_TrackerPage"><rect fill="#F1F1F1" height="52.9766" rx="2.5" ry="2.5" style="stroke:#181818;stroke-width:0.5;" width="226.4453" x="1581.78" y="296.1883"/><text fill="#000000" font-family="sans-serif" font-size="14" lengthAdjust="spacing" textLength="108.582" x="1591.78" y="319.7234">TrackerPage.tsx</text><text fill="#000000" font-family="sans-serif" font-size="14" lengthAdjust="spacing" textLength="206.4453" x="1591.78" y="336.2117">TrackerPage(), COLUMN_META</text></g><!--entity SettingsPage--><g id="elem_SettingsPage"><rect fill="#F1F1F1" height="69.4648" rx="2.5" ry="2.5" style="stroke:#181818;stroke-width:0.5;" width="279.458" x="649.27" y="287.9483"/><text fill="#000000" font-family="sans-serif" font-size="14" lengthAdjust="spacing" textLength="111.8018" x="659.27" y="311.4834">SettingsPage.tsx</text><text fill="#000000" font-family="sans-serif" font-size="14" lengthAdjust="spacing" textLength="232.7637" x="659.27" y="327.9717">SettingsPage(), filtersFromWatch(),</text><text fill="#000000" font-family="sans-serif" font-size="14" lengthAdjust="spacing" textLength="259.458" x="659.27" y="344.46">formatActiveFilters(), formatLastScan()</text></g><!--entity ActivityPanel--><g id="elem_ActivityPanel"><rect fill="#F1F1F1" height="52.9766" rx="2.5" ry="2.5" style="stroke:#181818;stroke-width:0.5;" width="131.3506" x="705.32" y="440.6583"/><text fill="#000000" font-family="sans-serif" font-size="14" lengthAdjust="spacing" textLength="111.3506" x="715.32" y="464.1934">ActivityPanel.tsx</text><text fill="#000000" font-family="sans-serif" font-size="14" lengthAdjust="spacing" textLength="95.0674" x="715.32" y="480.6817">ActivityPanel()</text></g><!--entity JobDetailPanel--><g id="elem_JobDetailPanel"><rect fill="#F1F1F1" height="52.9766" rx="2.5" ry="2.5" style="stroke:#181818;stroke-width:0.5;" width="142.5068" x="1119.75" y="440.6583"/><text fill="#000000" font-family="sans-serif" font-size="14" lengthAdjust="spacing" textLength="122.5068" x="1129.75" y="464.1934">JobDetailPanel.tsx</text><text fill="#000000" font-family="sans-serif" font-size="14" lengthAdjust="spacing" textLength="106.2236" x="1129.75" y="480.6817">JobDetailPanel()</text></g><!--entity JobList--><g id="elem_JobList"><rect fill="#F1F1F1" height="52.9766" rx="2.5" ry="2.5" style="stroke:#181818;stroke-width:0.5;" width="91.0391" x="993.48" y="440.6583"/><text fill="#000000" font-family="sans-serif" font-size="14" lengthAdjust="spacing" textLength="71.0391" x="1003.48" y="464.1934">JobList.tsx</text><text fill="#000000" font-family="sans-serif" font-size="14" lengthAdjust="spacing" textLength="54.7559" x="1003.48" y="480.6817">JobList()</text></g><!--entity Metric--><g id="elem_Metric"><rect fill="#F1F1F1" height="52.9766" rx="2.5" ry="2.5" style="stroke:#181818;stroke-width:0.5;" width="87.4297" x="871.29" y="440.6583"/><text fill="#000000" font-family="sans-serif" font-size="14" lengthAdjust="spacing" textLength="67.4297" x="881.29" y="464.1934">Metric.tsx</text><text fill="#000000" font-family="sans-serif" font-size="14" lengthAdjust="spacing" textLength="51.1465" x="881.29" y="480.6817">Metric()</text></g><!--entity PanelHeader--><g id="elem_PanelHeader"><rect fill="#F1F1F1" height="52.9766" rx="2.5" ry="2.5" style="stroke:#181818;stroke-width:0.5;" width="129.5527" x="1297.22" y="440.6583"/><text fill="#000000" font-family="sans-serif" font-size="14" lengthAdjust="spacing" textLength="109.5527" x="1307.22" y="464.1934">PanelHeader.tsx</text><text fill="#000000" font-family="sans-serif" font-size="14" lengthAdjust="spacing" textLength="93.2695" x="1307.22" y="480.6817">PanelHeader()</text></g><!--entity ResumePanel--><g id="elem_ResumePanel"><rect fill="#F1F1F1" height="69.4648" rx="2.5" ry="2.5" style="stroke:#181818;stroke-width:0.5;" width="313.3506" x="1461.32" y="432.4083"/><text fill="#000000" font-family="sans-serif" font-size="14" lengthAdjust="spacing" textLength="114.7412" x="1471.32" y="455.9434">ResumePanel.tsx</text><text fill="#000000" font-family="sans-serif" font-size="14" lengthAdjust="spacing" textLength="219.1602" x="1471.32" y="472.4317">ResumePanel(), formatCreated(),</text><text fill="#000000" font-family="sans-serif" font-size="14" lengthAdjust="spacing" textLength="293.3506" x="1471.32" y="488.92">statusLabel(), formatLabel(), detectFormat()</text></g><!--entity ResumeViewer--><g id="elem_ResumeViewer"><rect fill="#F1F1F1" height="69.4648" rx="2.5" ry="2.5" style="stroke:#181818;stroke-width:0.5;" width="337.543" x="953.23" y="683.0983"/><text fill="#000000" font-family="sans-serif" font-size="14" lengthAdjust="spacing" textLength="124.0518" x="963.23" y="706.6334">ResumeViewer.tsx</text><text fill="#000000" font-family="sans-serif" font-size="14" lengthAdjust="spacing" textLength="317.543" x="963.23" y="723.1217">ResumeViewer(), RenderedResumeDocument(),</text><text fill="#000000" font-family="sans-serif" font-size="14" lengthAdjust="spacing" textLength="107.4131" x="963.23" y="739.61">formatCreated()</text></g><!--entity ResumeViewerModal--><g id="elem_ResumeViewerModal"><rect fill="#F1F1F1" height="52.9766" rx="2.5" ry="2.5" style="stroke:#181818;stroke-width:0.5;" width="185.2998" x="1277.35" y="561.8783"/><text fill="#000000" font-family="sans-serif" font-size="14" lengthAdjust="spacing" textLength="165.2998" x="1287.35" y="585.4134">ResumeViewerModal.tsx</text><text fill="#000000" font-family="sans-serif" font-size="14" lengthAdjust="spacing" textLength="149.0166" x="1287.35" y="601.9017">ResumeViewerModal()</text></g><!--entity ApiClient--><g id="elem_ApiClient"><rect fill="#F1F1F1" height="52.9766" rx="2.5" ry="2.5" style="stroke:#181818;stroke-width:0.5;" width="400.3926" x="585.8" y="1159.1983"/><text fill="#000000" font-family="sans-serif" font-size="14" lengthAdjust="spacing" textLength="53.792" x="595.8" y="1182.7334">client.ts</text><text fill="#000000" font-family="sans-serif" font-size="14" lengthAdjust="spacing" textLength="380.3926" x="595.8" y="1199.2217">ApiError, getStoredToken(), setStoredToken(), apiFetch()</text></g><!--entity ApiAuth--><g id="elem_ApiAuth"><rect fill="#F1F1F1" height="52.9766" rx="2.5" ry="2.5" style="stroke:#181818;stroke-width:0.5;" width="192.9766" x="45.51" y="1021.4883"/><text fill="#000000" font-family="sans-serif" font-size="14" lengthAdjust="spacing" textLength="47.1475" x="55.51" y="1045.0234">auth.ts</text><text fill="#000000" font-family="sans-serif" font-size="14" lengthAdjust="spacing" textLength="172.9766" x="55.51" y="1061.5117">register(), login(), getMe()</text></g><!--entity ApiJobs--><g id="elem_ApiJobs"><rect fill="#F1F1F1" height="52.9766" rx="2.5" ry="2.5" style="stroke:#181818;stroke-width:0.5;" width="323.4336" x="624.28" y="1021.4883"/><text fill="#000000" font-family="sans-serif" font-size="14" lengthAdjust="spacing" textLength="45.6094" x="634.28" y="1045.0234">jobs.ts</text><text fill="#000000" font-family="sans-serif" font-size="14" lengthAdjust="spacing" textLength="303.4336" x="634.28" y="1061.5117">listJobs(), getJob(), updateApplicationStatus()</text></g><!--entity ApiResumes--><g id="elem_ApiResumes"><rect fill="#F1F1F1" height="102.4414" rx="2.5" ry="2.5" style="stroke:#181818;stroke-width:0.5;" width="425.8496" x="983.08" y="996.7583"/><text fill="#000000" font-family="sans-serif" font-size="14" lengthAdjust="spacing" textLength="74.1631" x="993.08" y="1020.2934">resumes.ts</text><text fill="#000000" font-family="sans-serif" font-size="14" lengthAdjust="spacing" textLength="405.8496" x="993.08" y="1036.7817">getBaseResume(), saveBaseResume(), listTailoredResumes(),</text><text fill="#000000" font-family="sans-serif" font-size="14" lengthAdjust="spacing" textLength="318.6914" x="993.08" y="1053.27">getTailoredResume(), generateResumeForJob(),</text><text fill="#000000" font-family="sans-serif" font-size="14" lengthAdjust="spacing" textLength="390.749" x="993.08" y="1069.7583">compileTailoredResumePdf(), downloadTailoredResume(),</text><text fill="#000000" font-family="sans-serif" font-size="14" lengthAdjust="spacing" textLength="156.2012" x="993.08" y="1086.2466">isBaseResumeMissing()</text></g><!--entity ApiWatches--><g id="elem_ApiWatches"><rect fill="#F1F1F1" height="69.4648" rx="2.5" ry="2.5" style="stroke:#181818;stroke-width:0.5;" width="315.8252" x="273.09" y="1013.2483"/><text fill="#000000" font-family="sans-serif" font-size="14" lengthAdjust="spacing" textLength="71.3535" x="283.09" y="1036.7834">watches.ts</text><text fill="#000000" font-family="sans-serif" font-size="14" lengthAdjust="spacing" textLength="295.8252" x="283.09" y="1053.2717">listWatches(), createWatch(), updateWatch(),</text><text fill="#000000" font-family="sans-serif" font-size="14" lengthAdjust="spacing" textLength="175.6768" x="283.09" y="1069.76">deleteWatch(), pollWatch()</text></g><!--entity ApiTypes--><g id="elem_ApiTypes"><rect fill="#F1F1F1" height="118.9297" rx="2.5" ry="2.5" style="stroke:#181818;stroke-width:0.5;" width="435.8643" x="973.07" y="1272.1783"/><text fill="#000000" font-family="sans-serif" font-size="14" lengthAdjust="spacing" textLength="53.1016" x="983.07" y="1295.7134">types.ts</text><text fill="#000000" font-family="sans-serif" font-size="14" lengthAdjust="spacing" textLength="286.5898" x="983.07" y="1312.2017">AuthUser, AuthResponse, CompanyWatch,</text><text fill="#000000" font-family="sans-serif" font-size="14" lengthAdjust="spacing" textLength="351.6201" x="983.07" y="1328.69">ApplicationStatus, JobPosting, CreateWatchRequest,</text><text fill="#000000" font-family="sans-serif" font-size="14" lengthAdjust="spacing" textLength="386.1348" x="983.07" y="1345.1783">UpdateWatchRequest, ApiProblem, ResumeOutputStatus,</text><text fill="#000000" font-family="sans-serif" font-size="14" lengthAdjust="spacing" textLength="415.8643" x="983.07" y="1361.6666">ResumeSourceFormat, BaseResume, TailoredResumeContent,</text><text fill="#000000" font-family="sans-serif" font-size="14" lengthAdjust="spacing" textLength="329.2803" x="983.07" y="1378.1548">TailoredResumeSummary, TailoredResumeDetail</text></g><!--entity Mappers--><g id="elem_Mappers"><rect fill="#F1F1F1" height="52.9766" rx="2.5" ry="2.5" style="stroke:#181818;stroke-width:0.5;" width="255.6211" x="647.19" y="852.2983"/><text fill="#000000" font-family="sans-serif" font-size="14" lengthAdjust="spacing" textLength="75.8926" x="657.19" y="875.8334">mappers.ts</text><text fill="#000000" font-family="sans-serif" font-size="14" lengthAdjust="spacing" textLength="235.6211" x="657.19" y="892.3217">mapJobPosting(), formatFirstSeen()</text></g><!--entity TrackerStatus--><g id="elem_TrackerStatus"><rect fill="#F1F1F1" height="69.4648" rx="2.5" ry="2.5" style="stroke:#181818;stroke-width:0.5;" width="379.7549" x="1342.12" y="844.0483"/><text fill="#000000" font-family="sans-serif" font-size="14" lengthAdjust="spacing" textLength="105.9502" x="1352.12" y="867.5834">trackerStatus.ts</text><text fill="#000000" font-family="sans-serif" font-size="14" lengthAdjust="spacing" textLength="359.7549" x="1352.12" y="884.0717">toApiApplicationStatus(), fromApiApplicationStatus(),</text><text fill="#000000" font-family="sans-serif" font-size="14" lengthAdjust="spacing" textLength="136.9033" x="1352.12" y="900.56">TRACKER_STATUSES</text></g><!--entity ResumeViewerLib--><g id="elem_ResumeViewerLib"><rect fill="#F1F1F1" height="69.4648" rx="2.5" ry="2.5" style="stroke:#181818;stroke-width:0.5;" width="367.9766" x="244.01" y="844.0483"/><text fill="#000000" font-family="sans-serif" font-size="14" lengthAdjust="spacing" textLength="112.3418" x="254.01" y="867.5834">resumeViewer.ts</text><text fill="#000000" font-family="sans-serif" font-size="14" lengthAdjust="spacing" textLength="301.54" x="254.01" y="884.0717">ResumeViewerTarget, latestTailoredForJob(),</text><text fill="#000000" font-family="sans-serif" font-size="14" lengthAdjust="spacing" textLength="347.9766" x="254.01" y="900.56">getResumePdfPreviewUrl(), useResumeViewerData()</text></g><!--entity LatexPreview--><g id="elem_LatexPreview"><rect fill="#F1F1F1" height="85.9531" rx="2.5" ry="2.5" style="stroke:#181818;stroke-width:0.5;" width="369.3369" x="937.33" y="835.8083"/><text fill="#000000" font-family="sans-serif" font-size="14" lengthAdjust="spacing" textLength="101.3496" x="947.33" y="859.3434">latexPreview.ts</text><text fill="#000000" font-family="sans-serif" font-size="14" lengthAdjust="spacing" textLength="318.8418" x="947.33" y="875.8317">ParsedResumePreview, parseLatexForPreview(),</text><text fill="#000000" font-family="sans-serif" font-size="14" lengthAdjust="spacing" textLength="349.3369" x="947.33" y="892.32">formatLineForDisplay(), parsePlainTextForPreview(),</text><text fill="#000000" font-family="sans-serif" font-size="14" lengthAdjust="spacing" textLength="215.9678" x="947.33" y="908.8083">stripLatex(), detectSectionTitle()</text></g><!--entity MockData--><g id="elem_MockData"><rect fill="#F1F1F1" height="69.4648" rx="2.5" ry="2.5" style="stroke:#181818;stroke-width:0.5;" width="240.4111" x="1777.79" y="844.0483"/><text fill="#000000" font-family="sans-serif" font-size="14" lengthAdjust="spacing" textLength="85.0117" x="1787.79" y="867.5834">mockData.ts</text><text fill="#000000" font-family="sans-serif" font-size="14" lengthAdjust="spacing" textLength="220.4111" x="1787.79" y="884.0717">navItems, jobs, resumeVersions,</text><text fill="#000000" font-family="sans-serif" font-size="14" lengthAdjust="spacing" textLength="170.5361" x="1787.79" y="900.56">activity, integrationNotes</text></g><!--link Main to App--><g id="link_Main_App"><path d="M421.62,103.9183 C520.25,119.3483 773.6221,158.9612 922.9321,182.3112 " fill="none" id="Main-to-App" style="stroke:#181818;stroke-width:1;"/><polygon fill="#181818" points="928.86,183.2383,920.5861,177.8957,923.92,182.4657,919.35,185.7997,928.86,183.2383" style="stroke:#181818;stroke-width:1;"/></g><!--link Main to AuthContext--><g id="link_Main_AuthContext"><path d="M362.67,115.3983 C326.23,150.7383 251,234.2983 251,321.6783 C251,321.6783 251,321.6783 251,468.1483 C251,542.2483 227.9065,619.8473 210.4465,668.7773 " fill="none" id="Main-to-AuthContext" style="stroke:#181818;stroke-width:1;"/><polygon fill="#181818" points="208.43,674.4283,215.2221,667.2961,210.1104,669.7191,207.6874,664.6075,208.43,674.4283" style="stroke:#181818;stroke-width:1;"/></g><!--link Main to AppDataContext--><g id="link_Main_AppDataContext"><path d="M383.28,115.3383 C388.35,181.5783 408.88,421.8283 453,614.8583 C457.56,634.8083 462.3671,650.7582 468.5571,668.9482 " fill="none" id="Main-to-AppDataContext" style="stroke:#181818;stroke-width:1;"/><polygon fill="#181818" points="470.49,674.6283,471.3774,664.8195,468.8792,669.8948,463.8039,667.3967,470.49,674.6283" style="stroke:#181818;stroke-width:1;"/></g><!--link App to AuthContext--><g id="link_App_AuthContext"><path d="M929.11,204.3383 C766.97,207.9983 478.47,218.2083 439,244.9483 C287.79,347.3783 350.65,456.2983 260,614.8583 C248.49,634.9883 237.8363,651.5152 225.5163,669.5352 " fill="none" id="App-to-AuthContext" style="stroke:#181818;stroke-width:1;"/><polygon fill="#181818" points="222.13,674.4883,230.5115,669.3162,224.9519,670.3607,223.9075,664.8011,222.13,674.4883" style="stroke:#181818;stroke-width:1;"/></g><!--link App to AppDataContext--><g id="link_App_AppDataContext"><path d="M928.82,202.9083 C773.63,204.6983 506.08,212.5183 476,244.9483 C419.03,306.3783 458.4043,564.8819 476.9743,668.7719 " fill="none" id="App-to-AppDataContext" style="stroke:#181818;stroke-width:1;"/><polygon fill="#181818" points="478.03,674.6783,480.384,665.1149,477.1502,669.7563,472.5088,666.5225,478.03,674.6783" style="stroke:#181818;stroke-width:1;"/></g><!--link App to AuthScreen--><g id="link_App_AuthScreen"><path d="M929.05,205.8783 C826.87,210.4983 683,221.0983 632,244.9483 C607.58,256.3683 589.8899,273.8449 575.5199,291.4049 " fill="none" id="App-to-AuthScreen" style="stroke:#181818;stroke-width:1;"/><polygon fill="#181818" points="571.72,296.0483,580.5154,291.6164,574.8865,292.1788,574.3242,286.55,571.72,296.0483" style="stroke:#181818;stroke-width:1;"/></g><!--link App to DashboardPage--><g id="link_App_DashboardPage"><path d="M1039,228.3283 C1039,248.3283 1039,269.8783 1039,289.8583 " fill="none" id="App-to-DashboardPage" style="stroke:#181818;stroke-width:1;"/><polygon fill="#181818" points="1039,295.8583,1043,286.8583,1039,290.8583,1035,286.8583,1039,295.8583" style="stroke:#181818;stroke-width:1;"/></g><!--link App to JobsPage--><g id="link_App_JobsPage"><path d="M1104.38,228.3083 C1114,233.2383 1123.52,238.8083 1132,244.9483 C1151.7,259.2083 1166.4375,274.9089 1179.6275,291.0789 " fill="none" id="App-to-JobsPage" style="stroke:#181818;stroke-width:1;"/><polygon fill="#181818" points="1183.42,295.7283,1180.8308,286.2259,1180.2596,291.8538,1174.6316,291.2826,1183.42,295.7283" style="stroke:#181818;stroke-width:1;"/></g><!--link App to ResumesPage--><g id="link_App_ResumesPage"><path d="M1149.01,215.1883 C1189.05,221.6783 1234.23,231.1983 1274,244.9483 C1311.01,257.7383 1344.9486,275.852 1373.1986,292.722 " fill="none" id="App-to-ResumesPage" style="stroke:#181818;stroke-width:1;"/><polygon fill="#181818" points="1378.35,295.7983,1372.6738,287.7497,1374.0572,293.2347,1368.5721,294.6182,1378.35,295.7983" style="stroke:#181818;stroke-width:1;"/></g><!--link App to TrackerPage--><g id="link_App_TrackerPage"><path d="M1148.97,205.6083 C1279.62,210.3483 1489.32,221.4083 1564,244.9483 C1599.32,256.0783 1630.4055,274.6806 1655.7055,292.2906 " fill="none" id="App-to-TrackerPage" style="stroke:#181818;stroke-width:1;"/><polygon fill="#181818" points="1660.63,295.7183,1655.5284,287.2937,1656.5262,292.8619,1650.9581,293.8597,1660.63,295.7183" style="stroke:#181818;stroke-width:1;"/></g><!--link App to SettingsPage--><g id="link_App_SettingsPage"><path d="M981.84,228.2883 C969.97,233.7383 957.55,239.4883 946,244.9483 C917.06,258.6283 890.695,271.4121 863.365,284.8421 " fill="none" id="App-to-SettingsPage" style="stroke:#181818;stroke-width:1;"/><polygon fill="#181818" points="857.98,287.4883,867.8216,287.109,862.4675,285.2831,864.2933,279.929,857.98,287.4883" style="stroke:#181818;stroke-width:1;"/></g><!--link App to Types--><g id="link_App_Types"><path d="M1149.18,203.4183 C1358.34,205.9283 1797.71,214.7583 1860,244.9483 C1977.67,301.9783 2054,335.3783 2054,466.1483 C2054,466.1483 2054,466.1483 2054,718.8283 C2054,820.0783 2092.45,863.0883 2034,945.7583 C2008.2,982.2483 1971.5842,1003.7682 1930.8442,1018.9082 " fill="none" id="App-to-Types" style="stroke:#181818;stroke-width:1;"/><polygon fill="#181818" points="1925.22,1020.9983,1935.0497,1021.6126,1929.9068,1019.2565,1932.2629,1014.1137,1925.22,1020.9983" style="stroke:#181818;stroke-width:1;"/></g><!--link App to MockData--><g id="link_App_MockData"><path d="M1149.17,204.9283 C1359.27,210.1283 1798.71,223.4983 1824,244.9483 C1900.79,310.0783 1873,365.4483 1873,466.1483 C1873,466.1483 1873,466.1483 1873,589.3683 C1873,681.5983 1885.0368,783.8423 1892.3168,837.7323 " fill="none" id="App-to-MockData" style="stroke:#181818;stroke-width:1;"/><polygon fill="#181818" points="1893.12,843.6783,1895.8791,834.2238,1892.4506,838.7233,1887.9511,835.2948,1893.12,843.6783" style="stroke:#181818;stroke-width:1;"/></g><!--link DashboardPage to JobList--><g id="link_DashboardPage_JobList"><path d="M1039,349.4783 C1039,375.2983 1039,408.7883 1039,434.5383 " fill="none" id="DashboardPage-to-JobList" style="stroke:#181818;stroke-width:1;"/><polygon fill="#181818" points="1039,440.5383,1043,431.5383,1039,435.5383,1035,431.5383,1039,440.5383" style="stroke:#181818;stroke-width:1;"/></g><!--link DashboardPage to JobDetailPanel--><g id="link_DashboardPage_JobDetailPanel"><path d="M1066.53,349.4783 C1093.99,375.2183 1131.5626,410.4348 1159.0426,436.1948 " fill="none" id="DashboardPage-to-JobDetailPanel" style="stroke:#181818;stroke-width:1;"/><polygon fill="#181818" points="1163.42,440.2983,1159.5895,431.2248,1159.7721,436.8788,1154.1182,437.0614,1163.42,440.2983" style="stroke:#181818;stroke-width:1;"/></g><!--link DashboardPage to ResumePanel--><g id="link_DashboardPage_ResumePanel"><path d="M1070.93,349.4183 C1087.99,361.5683 1109.97,374.8283 1132,381.4083 C1198.45,401.2883 1376.32,374.2483 1444,389.4083 C1482.98,398.1483 1518.6208,413.0903 1551.0208,429.2503 " fill="none" id="DashboardPage-to-ResumePanel" style="stroke:#181818;stroke-width:1;"/><polygon fill="#181818" points="1556.39,431.9283,1550.1215,424.3318,1551.9157,429.6966,1546.5509,431.4908,1556.39,431.9283" style="stroke:#181818;stroke-width:1;"/></g><!--link DashboardPage to ActivityPanel--><g id="link_DashboardPage_ActivityPanel"><path d="M1006.04,349.4483 C989.06,361.2983 967.46,374.2783 946,381.4083 C907.06,394.3683 891.54,372.8083 854,389.4083 C828.7,400.6083 810.0094,418.2053 794.7994,435.8353 " fill="none" id="DashboardPage-to-ActivityPanel" style="stroke:#181818;stroke-width:1;"/><polygon fill="#181818" points="790.88,440.3783,799.7877,436.1767,794.1461,436.5925,793.7304,430.9509,790.88,440.3783" style="stroke:#181818;stroke-width:1;"/></g><!--link DashboardPage to Metric--><g id="link_DashboardPage_Metric"><path d="M1013.29,349.3883 C1001.64,361.3183 987.85,375.8383 976,389.4083 C961.56,405.9483 949.8489,420.5507 938.1489,435.6907 " fill="none" id="DashboardPage-to-Metric" style="stroke:#181818;stroke-width:1;"/><polygon fill="#181818" points="934.48,440.4383,943.1483,435.7628,937.5374,436.482,936.8182,430.871,934.48,440.4383" style="stroke:#181818;stroke-width:1;"/></g><!--link JobsPage to JobList--><g id="link_JobsPage_JobList"><path d="M1176.59,349.6683 C1163.98,360.8383 1148.13,373.1883 1132,381.4083 C1119.71,387.6783 1113.6,381.9483 1102,389.4083 C1082,402.2883 1068.5738,418.5764 1057.3838,435.4664 " fill="none" id="JobsPage-to-JobList" style="stroke:#181818;stroke-width:1;"/><polygon fill="#181818" points="1054.07,440.4683,1062.3753,435.1747,1056.8315,436.3001,1055.7062,430.7563,1054.07,440.4683" style="stroke:#181818;stroke-width:1;"/></g><!--link JobsPage to JobDetailPanel--><g id="link_JobsPage_JobDetailPanel"><path d="M1200.83,349.4783 C1198.65,375.2983 1195.8338,408.8095 1193.6638,434.5595 " fill="none" id="JobsPage-to-JobDetailPanel" style="stroke:#181818;stroke-width:1;"/><polygon fill="#181818" points="1193.16,440.5383,1197.9016,431.906,1193.5799,435.5559,1189.9299,431.2342,1193.16,440.5383" style="stroke:#181818;stroke-width:1;"/></g><!--link ResumesPage to ResumePanel--><g id="link_ResumesPage_ResumePanel"><path d="M1455.04,349.4783 C1487.29,372.5683 1529.9415,403.1054 1565.3615,428.4654 " fill="none" id="ResumesPage-to-ResumePanel" style="stroke:#181818;stroke-width:1;"/><polygon fill="#181818" points="1570.24,431.9583,1565.2509,423.4666,1566.1746,429.0475,1560.5937,429.9713,1570.24,431.9583" style="stroke:#181818;stroke-width:1;"/></g><!--link TrackerPage to TrackerStatus--><g id="link_TrackerPage_TrackerStatus"><path d="M1751.79,349.6483 C1767.34,359.7183 1782.29,372.8883 1791,389.4083 C1811.49,428.2783 1817.62,749.8583 1791,784.8083 C1782.9,795.4483 1774.73,788.7083 1762,792.8083 C1714.29,808.1683 1667.4179,825.245 1624.6479,841.515 " fill="none" id="TrackerPage-to-TrackerStatus" style="stroke:#181818;stroke-width:1;"/><polygon fill="#181818" points="1619.04,843.6483,1628.8741,844.187,1623.7133,841.8705,1626.0297,836.7097,1619.04,843.6483" style="stroke:#181818;stroke-width:1;"/></g><!--link SettingsPage to AppDataContext--><g id="link_SettingsPage_AppDataContext"><path d="M701.9,357.7683 C686.65,366.4683 671.89,376.9583 660,389.4083 C584.06,468.9583 612.63,519.4083 558,614.8583 C546.37,635.1683 535.275,651.6402 522.245,669.5102 " fill="none" id="SettingsPage-to-AppDataContext" style="stroke:#181818;stroke-width:1;"/><polygon fill="#181818" points="518.71,674.3583,527.2445,669.4428,521.6558,670.3182,520.7804,664.7295,518.71,674.3583" style="stroke:#181818;stroke-width:1;"/></g><!--link SettingsPage to ApiTypes--><g id="link_SettingsPage_ApiTypes"><path d="M720.61,357.8083 C708.5,366.6083 697.17,377.1283 689,389.4083 C589.96,538.2483 751.37,669.1883 615,784.8083 C598.6,798.7183 243.05,777.4483 228,792.8083 C180.43,841.3683 180.09,897.5283 228,945.7583 C251.45,969.3683 1402.55,930.1483 1426,953.7583 C1448.78,976.6883 1438.48,1069.3883 1426,1099.1983 C1396.26,1170.2483 1337.6509,1226.8537 1284.2109,1268.0737 " fill="none" id="SettingsPage-to-ApiTypes" style="stroke:#181818;stroke-width:1;"/><polygon fill="#181818" points="1279.46,1271.7383,1289.0294,1269.4088,1283.4191,1268.6845,1284.1433,1263.0742,1279.46,1271.7383" style="stroke:#181818;stroke-width:1;"/></g><!--link ResumePanel to ApiResumes--><g id="link_ResumePanel_ApiResumes"><path d="M1460.87,501.8683 C1290.92,539.0483 1031.49,598.0583 936,631.8583 C787.02,684.5783 768.78,748.3683 615,784.8083 C604.54,787.2883 235.52,785.1283 228,792.8083 C180.43,841.3683 180.19,897.4283 228,945.7583 C235.2,953.0383 954.96,951.7583 965,953.7583 C1008.79,962.5083 1049.3218,976.9892 1088.6818,993.9892 " fill="none" id="ResumePanel-to-ApiResumes" style="stroke:#181818;stroke-width:1;"/><polygon fill="#181818" points="1094.19,996.3683,1087.5137,989.1276,1089.5998,994.3857,1084.3417,996.4718,1094.19,996.3683" style="stroke:#181818;stroke-width:1;"/></g><!--link ResumePanel to ResumeViewerModal--><g id="link_ResumePanel_ResumeViewerModal"><path d="M1546.93,502.3083 C1507.72,521.1583 1465.2076,541.5987 1429.1376,558.9387 " fill="none" id="ResumePanel-to-ResumeViewerModal" style="stroke:#181818;stroke-width:1;"/><polygon fill="#181818" points="1423.73,561.5383,1433.5745,561.2439,1428.2363,559.3719,1430.1083,554.0338,1423.73,561.5383" style="stroke:#181818;stroke-width:1;"/></g><!--link ResumeViewerModal to ResumeViewer--><g id="link_ResumeViewerModal_ResumeViewer"><path d="M1319.51,615.3183 C1281.7,634.7483 1234.9464,658.7756 1193.7564,679.9456 " fill="none" id="ResumeViewerModal-to-ResumeViewer" style="stroke:#181818;stroke-width:1;"/><polygon fill="#181818" points="1188.42,682.6883,1198.2531,682.1318,1192.867,680.4027,1194.5962,675.0166,1188.42,682.6883" style="stroke:#181818;stroke-width:1;"/></g><!--link ResumeViewer to ResumeViewerLib--><g id="link_ResumeViewer_ResumeViewerLib"><path d="M952.85,744.0183 C812.1,765.0083 634.01,791.6783 630,792.8083 C584.4,805.6083 540.821,823.5511 502.491,841.1811 " fill="none" id="ResumeViewer-to-ResumeViewerLib" style="stroke:#181818;stroke-width:1;"/><polygon fill="#181818" points="497.04,843.6883,506.888,843.5615,501.5825,841.5989,503.5451,836.2934,497.04,843.6883" style="stroke:#181818;stroke-width:1;"/></g><!--link ResumeViewer to LatexPreview--><g id="link_ResumeViewer_LatexPreview"><path d="M1122,752.9283 C1122,777.1083 1122,803.6983 1122,829.5283 " fill="none" id="ResumeViewer-to-LatexPreview" style="stroke:#181818;stroke-width:1;"/><polygon fill="#181818" points="1122,835.5283,1126,826.5283,1122,830.5283,1118,826.5283,1122,835.5283" style="stroke:#181818;stroke-width:1;"/></g><!--link AuthContext to ApiAuth--><g id="link_AuthContext_ApiAuth"><path d="M80.59,761.2083 C68.87,769.9483 58.51,780.3883 51,792.8083 C15.83,850.9783 26.66,882.2883 51,945.7583 C62.59,975.9883 83.3363,998.8839 104.2963,1017.3339 " fill="none" id="AuthContext-to-ApiAuth" style="stroke:#181818;stroke-width:1;"/><polygon fill="#181818" points="108.8,1021.2983,104.6873,1012.3492,105.0469,1017.9946,99.4015,1018.3542,108.8,1021.2983" style="stroke:#181818;stroke-width:1;"/></g><!--link AppDataContext to ApiJobs--><g id="link_AppDataContext_ApiJobs"><path d="M416.35,761.1483 C397.41,770.6883 376.47,779.5383 356,784.8083 C343.56,788.0083 133.92,783.5683 125,792.8083 C77.77,841.6983 77.33,897.2983 125,945.7583 C134.37,955.2883 593.04,950.4883 606,953.7583 C658.89,967.1083 708.6828,995.2084 743.7128,1017.8784 " fill="none" id="AppDataContext-to-ApiJobs" style="stroke:#181818;stroke-width:1;"/><polygon fill="#181818" points="748.75,1021.1383,743.3675,1012.8904,744.5523,1018.4217,739.021,1019.6066,748.75,1021.1383" style="stroke:#181818;stroke-width:1;"/></g><!--link AppDataContext to ApiWatches--><g id="link_AppDataContext_ApiWatches"><path d="M416.36,761.2183 C397.43,770.7483 376.48,779.5883 356,784.8083 C341.57,788.4883 98.37,782.1183 88,792.8083 C40.65,841.5883 41.09,896.5583 88,945.7583 C100.9,959.2883 237.98,948.7983 256,953.7583 C301.14,966.1783 342.6296,988.5261 376.3696,1009.7261 " fill="none" id="AppDataContext-to-ApiWatches" style="stroke:#181818;stroke-width:1;"/><polygon fill="#181818" points="381.45,1012.9183,375.9576,1004.7431,377.2164,1010.2581,371.7013,1011.5169,381.45,1012.9183" style="stroke:#181818;stroke-width:1;"/></g><!--link AppDataContext to ApiResumes--><g id="link_AppDataContext_ApiResumes"><path d="M415.98,761.2283 C397.14,770.6983 376.33,779.4983 356,784.8083 C335.13,790.2583 176.94,777.2383 162,792.8083 C114.93,841.8583 114.17,897.4483 162,945.7583 C169.85,953.6883 954.06,951.5783 965,953.7583 C1008.79,962.4883 1049.3223,976.9581 1088.6823,993.9681 " fill="none" id="AppDataContext-to-ApiResumes" style="stroke:#181818;stroke-width:1;"/><polygon fill="#181818" points="1094.19,996.3483,1087.5153,989.1062,1089.6003,994.3648,1084.3417,996.4497,1094.19,996.3483" style="stroke:#181818;stroke-width:1;"/></g><!--link AppDataContext to Mappers--><g id="link_AppDataContext_Mappers"><path d="M569.55,761.1683 C589.15,771.3483 609.89,782.3083 629,792.8083 C663.96,812.0083 697.8194,831.7276 726.7194,848.8676 " fill="none" id="AppDataContext-to-Mappers" style="stroke:#181818;stroke-width:1;"/><polygon fill="#181818" points="731.88,851.9283,726.1795,843.8968,727.5795,849.3777,722.0986,850.7777,731.88,851.9283" style="stroke:#181818;stroke-width:1;"/></g><!--link ApiAuth to ApiClient--><g id="link_ApiAuth_ApiClient"><path d="M193.16,1074.8483 C212.45,1083.7083 234.85,1092.9483 256,1099.1983 C362.7,1130.7483 479.1808,1150.6795 579.4808,1163.8095 " fill="none" id="ApiAuth-to-ApiClient" style="stroke:#181818;stroke-width:1;"/><polygon fill="#181818" points="585.43,1164.5883,577.0253,1159.4539,580.4723,1163.9393,575.9869,1167.3862,585.43,1164.5883" style="stroke:#181818;stroke-width:1;"/></g><!--link ApiJobs to ApiClient--><g id="link_ApiJobs_ApiClient"><path d="M786,1074.8283 C786,1098.9783 786,1128.8283 786,1152.9383 " fill="none" id="ApiJobs-to-ApiClient" style="stroke:#181818;stroke-width:1;"/><polygon fill="#181818" points="786,1158.9383,790,1149.9383,786,1153.9383,782,1149.9383,786,1158.9383" style="stroke:#181818;stroke-width:1;"/></g><!--link ApiWatches to ApiClient--><g id="link_ApiWatches_ApiClient"><path d="M520.12,1083.0483 C581.53,1106.5283 656.2856,1135.1058 712.5256,1156.6058 " fill="none" id="ApiWatches-to-ApiClient" style="stroke:#181818;stroke-width:1;"/><polygon fill="#181818" points="718.13,1158.7483,711.1517,1151.7982,713.4596,1156.9628,708.295,1159.2708,718.13,1158.7483" style="stroke:#181818;stroke-width:1;"/></g><!--link ApiResumes to ApiClient--><g id="link_ApiResumes_ApiClient"><path d="M1043.04,1099.6083 C982.28,1119.7183 920.6861,1140.1131 870.1961,1156.8231 " fill="none" id="ApiResumes-to-ApiClient" style="stroke:#181818;stroke-width:1;"/><polygon fill="#181818" points="864.5,1158.7083,874.301,1159.6779,869.2468,1157.1373,871.7874,1152.0831,864.5,1158.7083" style="stroke:#181818;stroke-width:1;"/></g><!--link ApiClient to ApiTypes--><g id="link_ApiClient_ApiTypes"><path d="M858.87,1212.5883 C905.33,1229.1083 961.8467,1249.1884 1019.8167,1269.7984 " fill="none" id="ApiClient-to-ApiTypes" style="stroke:#181818;stroke-width:1;"/><polygon fill="#181818" points="1025.47,1271.8083,1018.3299,1265.0245,1020.7589,1270.1333,1015.65,1272.5623,1025.47,1271.8083" style="stroke:#181818;stroke-width:1;"/></g><!--link Mappers to ApiTypes--><g id="link_Mappers_ApiTypes"><path d="M819.03,905.6083 C846.94,920.4883 884.38,937.7783 920,945.7583 C935.48,949.2283 1479.86,942.4683 1491,953.7583 C1531.32,994.6483 1523.3,1164.6983 1491,1212.1783 C1470.69,1242.0383 1446.8863,1261.6159 1414.6863,1278.3159 " fill="none" id="Mappers-to-ApiTypes" style="stroke:#181818;stroke-width:1;"/><polygon fill="#181818" points="1409.36,1281.0783,1419.191,1280.4856,1413.7986,1278.7763,1415.5078,1273.3839,1409.36,1281.0783" style="stroke:#181818;stroke-width:1;"/></g><!--link Mappers to Types--><g id="link_Mappers_Types"><path d="M819.03,905.6183 C846.94,920.4983 884.37,937.7883 920,945.7583 C985.93,960.5083 1461.36,942.6483 1528,953.7583 C1607.34,966.9883 1689.1517,996.1337 1745.7417,1018.8437 " fill="none" id="Mappers-to-Types" style="stroke:#181818;stroke-width:1;"/><polygon fill="#181818" points="1751.31,1021.0783,1744.4472,1014.0141,1746.6697,1019.2161,1741.4677,1021.4386,1751.31,1021.0783" style="stroke:#181818;stroke-width:1;"/></g><!--link TrackerStatus to ApiTypes--><g id="link_TrackerStatus_ApiTypes"><path d="M1536.34,913.8083 C1545.16,988.7883 1561.64,1165.2883 1528,1212.1783 C1499.17,1252.3583 1461.1973,1276.8733 1414.8673,1294.5133 " fill="none" id="TrackerStatus-to-ApiTypes" style="stroke:#181818;stroke-width:1;"/><polygon fill="#181818" points="1409.26,1296.6483,1419.0943,1297.184,1413.9328,1294.8691,1416.2477,1289.7076,1409.26,1296.6483" style="stroke:#181818;stroke-width:1;"/></g><!--link TrackerStatus to Types--><g id="link_TrackerStatus_Types"><path d="M1589,913.8183 C1642.25,945.6183 1715.4085,989.3023 1763.6585,1018.1123 " fill="none" id="TrackerStatus-to-Types" style="stroke:#181818;stroke-width:1;"/><polygon fill="#181818" points="1768.81,1021.1883,1763.1333,1013.14,1764.517,1018.625,1759.032,1020.0087,1768.81,1021.1883" style="stroke:#181818;stroke-width:1;"/></g><!--link ResumeViewerLib to ApiResumes--><g id="link_ResumeViewerLib_ApiResumes"><path d="M513.6,913.8683 C549.03,926.3483 590.91,939.0583 630,945.7583 C703.39,958.3383 892.07,938.6983 965,953.7583 C1008.41,962.7283 1048.5778,977.0885 1087.7478,993.9285 " fill="none" id="ResumeViewerLib-to-ApiResumes" style="stroke:#181818;stroke-width:1;"/><polygon fill="#181818" points="1093.26,996.2983,1086.5716,989.0688,1088.6665,994.3234,1083.4119,996.4184,1093.26,996.2983" style="stroke:#181818;stroke-width:1;"/></g><!--link ResumeViewerLib to ApiTypes--><g id="link_ResumeViewerLib_ApiTypes"><path d="M513.06,913.9683 C548.59,926.5583 590.68,939.3083 630,945.7583 C641.29,947.6183 1445.95,945.6283 1454,953.7583 C1494.41,994.5683 1485.17,1163.9483 1454,1212.1783 C1438.1,1236.7783 1420.8313,1253.1697 1395.7813,1268.6797 " fill="none" id="ResumeViewerLib-to-ApiTypes" style="stroke:#181818;stroke-width:1;"/><polygon fill="#181818" points="1390.68,1271.8383,1400.4377,1270.5013,1394.9311,1269.2062,1396.2263,1263.6996,1390.68,1271.8383" style="stroke:#181818;stroke-width:1;"/></g><!--link MockData to Types--><g id="link_MockData_Types"><path d="M1880.6,913.6183 C1864.25,945.3983 1842.8937,986.9124 1828.0437,1015.7924 " fill="none" id="MockData-to-Types" style="stroke:#181818;stroke-width:1;"/><polygon fill="#181818" points="1825.3,1021.1283,1832.9728,1014.9535,1827.5864,1016.6817,1825.8583,1011.2953,1825.3,1021.1283" style="stroke:#181818;stroke-width:1;"/></g><!--SRC=[VLVRRjiu47ttLn1vQW6b_O4YWDU9iMtjn8YTz2L0GSiJXnk9r9AK4sEn_xx3cqYAoZua4CzmBfoxDTCDaAKKN0C_a4jo3xJMP27QJd3WMbNuZRHtJJPIdDW194BppNUoQ9YZhzWU_rFatfqxK3FrodX79Mr97QHizHcrIAWrvSS6PhEErg_q2EJY5YNVFJ-3l5pUV5MolY3_p4Xa91SjPVoBLkyNX2gonaDEddUTeJvn_FZqkIBGTlhyG-pDTuSQTkPzdpvRRhoICsjZBx8_yKS6RnL1lgsckbVsiq9VgBw5Htmo4zoAS2z4ASC3QkSTPtTkMgzVlE-yYGW49rQaLs20YZmBsL9jlc-a5DBTyuoFjEd16Hz1ykrR4FFrRgz0da1UNHNgk-wQQffRuB3S28SDn59pXd-e_D_CBSRtwWEdR6i9mADFt3a4QG36hDTKlUm5bOSDodRS6UG5PDXO1ePLHVPmyfpXE6PoQP3m9O39CsLpPj5GfMvf6wGbbyO2TnBT138AJ00ZS76tUbZV_bxVxEOkwo9vB6eBMZD-J8nB4IFicJKQCnXBlFr5TVs2s1FtELThTeAbks3lMdX5bTxMD4Ga5LZ4UJ1bCjX6FjFd3UNG-7YdK0XvYar4x1eqPKqY9CTYz19mGioAAJtmcqDaDASnnngqPBLZSD_-lZkChrkjVmB5kd0y2U0P4sGwnP8d9a0Cp482rN2m4NH9jwBxzC9mF836PhkqO9QFayxnVGvxO30-HOoyUnmE8E7Wy6jHut-karGQJ4jqEVR_KxOM1zgK6Yqy8ShYHGhIZataNct7astkyuxPpbgH8-0e4lYEdNWr7GThjq1Gt19idVZknzoa6okWsAYiU0b7J1_dfqOScPM2cjPnxZ3JrSO2_i9sOmKqo6vwZ-Vpqwll3kXHRBuDgwd60UH6KvHfMCOofMiwLYoA-eCgS0wqRwKdo16ZUOSb8uRGAXjJPCrXPne7YIOv17FB6Vh4ZNxMGCwnEJpRH1Hll17qK8Xxuan5OzPCAUmnyN7Ucl7xtam7W-YsN-viDDKs0qEBy-wB7Uy03IJaJZIDFmILNjPOPLmIJ10Vb1cRvWijn2iAAhiiKNws_9MTetd8x3Qn4SfqKRmTxRo7ltjG6daUehK1D2RXfDqtq8PDvAxNNQ-zq50oMz7B6bofLoIwj2Avp-tyvaPPZc_xjgNoFBxkUcdmZTjxnfNNiFr4vRMqwt2UM9VXTtnxx5DB9d74nA6_TYo5wztSSm-syhGmnLJM10h6-VO13LzyFr_ylBd_lTtDTm_RcsqwLTsrwK8QMcBUdtPKOeLW-M3COW4b5O7KeGes4ax8zI1jO-v3U9mairXDD3fSgSS66LtlNfOrQ4Eb6ehDuMRbHN1bhg8r7aswz8fnaodNJ7KDFRiT6Has3UxLErpkHamA1rrdfSMPiiK_T6wwLwyIqueSmRocKqaYwbVpUFiKJa_VDRHOAAOdLaIcUxV9TEetX8emJEAZjF6z5Tgic2Pzl32h7DMRdmdaylBARlpn43Vex4QotCxmMDmTi8-l-eKrGFaA6j1XlGn0kY46B5tr0fOjOCD5Mv7XD7XWbkaEUkr-Cqb9LwRoGhepbDHyRolfVb4AxywC6OEf7ObV2YiI_wJ-yaMSUcegPXDqtzfcYP902JDeJ2fNaW8fxcLN2ggfz-92LbQpzFUVjyyk5QDVPvvaTuDfKXXpqzJmvWbgQD9US-3msv5NMg9UNqdmgag2-yhZuvL_33eaIuVySabo-2WEqy4loDu0NtPHt7y0]--></g></svg>