<svg xmlns="http://www.w3.org/2000/svg" xmlns:xlink="http://www.w3.org/1999/xlink" contentStyleType="text/css" height="465px" preserveAspectRatio="none" style="width:1056px;height:465px;background:#FFFFFF;" version="1.1" viewBox="0 0 1056 465" width="1056px" zoomAndPan="magnify"><title>Factory Pattern - Career Page Fetcher Creation</title><defs/><g><text fill="#000000" font-family="sans-serif" font-size="14" font-weight="bold" lengthAdjust="spacing" textLength="337.2715" x="352.3643" y="23.5352">Factory Pattern - Career Page Fetcher Creation</text><!--cluster Factory Pattern--><g id="cluster_Factory Pattern"><path d="M8.5,43.4883 L118.9023,43.4883 A3.75,3.75 0 0 1 121.4023,45.9883 L128.4023,65.9766 L1046.5,65.9766 A2.5,2.5 0 0 1 1049,68.4766 L1049,456.4283 A2.5,2.5 0 0 1 1046.5,458.9283 L8.5,458.9283 A2.5,2.5 0 0 1 6,456.4283 L6,45.9883 A2.5,2.5 0 0 1 8.5,43.4883 " fill="none" style="stroke:#000000;stroke-width:1.5;"/><line style="stroke:#000000;stroke-width:1.5;" x1="6" x2="128.4023" y1="65.9766" y2="65.9766"/><text fill="#000000" font-family="sans-serif" font-size="14" font-weight="bold" lengthAdjust="spacing" textLength="109.4023" x="10" y="59.0234">Factory Pattern</text></g><!--class AtsType--><g id="elem_AtsType"><rect codeLine="2179" fill="#F1F1F1" height="97.4648" id="AtsType" rx="2.5" ry="2.5" style="stroke:#181818;stroke-width:0.5;" width="147.5088" x="783.25" y="345.4683"/><ellipse cx="825.5642" cy="361.4683" fill="#EB937F" rx="11" ry="11" style="stroke:#181818;stroke-width:1;"/><path d="M829.1785,367.9683 L821.4587,367.9683 L821.4587,355.5752 L829.1785,355.5752 L829.1785,357.7334 L823.9075,357.7334 L823.9075,360.4063 L828.6804,360.4063 L828.6804,362.5645 L823.9075,362.5645 L823.9075,365.8101 L829.1785,365.8101 Z " fill="#000000"/><text fill="#000000" font-family="sans-serif" font-size="14" lengthAdjust="spacing" textLength="54.8105" x="845.634" y="366.7593">AtsType</text><line style="stroke:#181818;stroke-width:0.5;" x1="784.25" x2="929.7588" y1="377.4683" y2="377.4683"/><text fill="#000000" font-family="sans-serif" font-size="14" lengthAdjust="spacing" textLength="90.4805" x="789.25" y="395.0034">GREENHOUSE</text><text fill="#000000" font-family="sans-serif" font-size="14" lengthAdjust="spacing" textLength="69.7129" x="789.25" y="411.4917">WORKDAY</text><text fill="#000000" font-family="sans-serif" font-size="14" lengthAdjust="spacing" textLength="135.5088" x="789.25" y="427.98">SMART_RECRUITERS</text><line style="stroke:#181818;stroke-width:0.5;" x1="784.25" x2="929.7588" y1="434.9331" y2="434.9331"/></g><!--class CareerPageFetcher--><g id="elem_CareerPageFetcher"><rect codeLine="2185" fill="#F1F1F1" height="64.4883" id="CareerPageFetcher" rx="2.5" ry="2.5" style="stroke:#181818;stroke-width:0.5;" width="182.3994" x="349.8" y="361.9483"/><ellipse cx="375.5982" cy="377.9483" fill="#B4A7E5" rx="11" ry="11" style="stroke:#181818;stroke-width:1;"/><path d="M372.026,374.2134 L372.026,372.0552 L379.4054,372.0552 L379.4054,374.2134 L376.94,374.2134 L376.94,382.2901 L379.4054,382.2901 L379.4054,384.4483 L372.026,384.4483 L372.026,382.2901 L374.4913,382.2901 L374.4913,374.2134 Z " fill="#000000"/><text fill="#000000" font-family="sans-serif" font-size="14" font-style="italic" lengthAdjust="spacing" textLength="126.4033" x="391.9979" y="383.2393">CareerPageFetcher</text><line style="stroke:#181818;stroke-width:0.5;" x1="350.8" x2="531.1994" y1="393.9483" y2="393.9483"/><line style="stroke:#181818;stroke-width:0.5;" x1="350.8" x2="531.1994" y1="401.9483" y2="401.9483"/><text fill="#000000" font-family="sans-serif" font-size="14" lengthAdjust="spacing" textLength="170.3994" x="355.8" y="419.4834">+fetch(url: String): String</text></g><!--class GreenhouseFetcher--><g id="elem_GreenhouseFetcher"><rect codeLine="2189" fill="#F1F1F1" height="64.4883" id="GreenhouseFetcher" rx="2.5" ry="2.5" style="stroke:#181818;stroke-width:0.5;" width="182.3994" x="21.8" y="203.9783"/><ellipse cx="45.5403" cy="219.9783" fill="#ADD1B2" rx="11" ry="11" style="stroke:#181818;stroke-width:1;"/><path d="M48.0134,226.1213 Q47.4324,226.4202 46.7932,226.5696 Q46.1541,226.719 45.4485,226.719 Q42.9417,226.719 41.6218,225.0671 Q40.302,223.4153 40.302,220.2942 Q40.302,217.1648 41.6218,215.5129 Q42.9417,213.8611 45.4485,213.8611 Q46.1541,213.8611 46.8015,214.0105 Q47.449,214.1599 48.0134,214.4588 L48.0134,217.1814 Q47.3826,216.6004 46.7891,216.3306 Q46.1956,216.0608 45.5647,216.0608 Q44.22,216.0608 43.5352,217.1275 Q42.8503,218.1941 42.8503,220.2942 Q42.8503,222.386 43.5352,223.4526 Q44.22,224.5193 45.5647,224.5193 Q46.1956,224.5193 46.7891,224.2495 Q47.3826,223.9797 48.0134,223.3987 Z " fill="#000000"/><text fill="#000000" font-family="sans-serif" font-size="14" lengthAdjust="spacing" textLength="130.9766" x="61.4826" y="225.2693">GreenhouseFetcher</text><line style="stroke:#181818;stroke-width:0.5;" x1="22.8" x2="203.1994" y1="235.9783" y2="235.9783"/><line style="stroke:#181818;stroke-width:0.5;" x1="22.8" x2="203.1994" y1="243.9783" y2="243.9783"/><text fill="#000000" font-family="sans-serif" font-size="14" lengthAdjust="spacing" textLength="170.3994" x="27.8" y="261.5134">+fetch(url: String): String</text></g><!--class WorkdayFetcher--><g id="elem_WorkdayFetcher"><rect codeLine="2193" fill="#F1F1F1" height="64.4883" id="WorkdayFetcher" rx="2.5" ry="2.5" style="stroke:#181818;stroke-width:0.5;" width="182.3994" x="238.8" y="203.9783"/><ellipse cx="272.7563" cy="219.9783" fill="#ADD1B2" rx="11" ry="11" style="stroke:#181818;stroke-width:1;"/><path d="M275.2294,226.1213 Q274.6483,226.4202 274.0092,226.5696 Q273.37,226.719 272.6645,226.719 Q270.1576,226.719 268.8378,225.0671 Q267.518,223.4153 267.518,220.2942 Q267.518,217.1648 268.8378,215.5129 Q270.1576,213.8611 272.6645,213.8611 Q273.37,213.8611 274.0175,214.0105 Q274.6649,214.1599 275.2294,214.4588 L275.2294,217.1814 Q274.5985,216.6004 274.005,216.3306 Q273.4115,216.0608 272.7807,216.0608 Q271.4359,216.0608 270.7511,217.1275 Q270.0663,218.1941 270.0663,220.2942 Q270.0663,222.386 270.7511,223.4526 Q271.4359,224.5193 272.7807,224.5193 Q273.4115,224.5193 274.005,224.2495 Q274.5985,223.9797 275.2294,223.3987 Z " fill="#000000"/><text fill="#000000" font-family="sans-serif" font-size="14" lengthAdjust="spacing" textLength="108.2744" x="290.9688" y="225.2693">WorkdayFetcher</text><line style="stroke:#181818;stroke-width:0.5;" x1="239.8" x2="420.1994" y1="235.9783" y2="235.9783"/><line style="stroke:#181818;stroke-width:0.5;" x1="239.8" x2="420.1994" y1="243.9783" y2="243.9783"/><text fill="#000000" font-family="sans-serif" font-size="14" lengthAdjust="spacing" textLength="170.3994" x="244.8" y="261.5134">+fetch(url: String): String</text></g><!--class SmartRecruitersFetcher--><g id="elem_SmartRecruitersFetcher"><rect codeLine="2197" fill="#F1F1F1" height="64.4883" id="SmartRecruitersFetcher" rx="2.5" ry="2.5" style="stroke:#181818;stroke-width:0.5;" width="189.4248" x="456.29" y="203.9783"/><ellipse cx="471.29" cy="219.9783" fill="#ADD1B2" rx="11" ry="11" style="stroke:#181818;stroke-width:1;"/><path d="M473.7631,226.1213 Q473.1821,226.4202 472.5429,226.5696 Q471.9038,226.719 471.1982,226.719 Q468.6914,226.719 467.3715,225.0671 Q466.0517,223.4153 466.0517,220.2942 Q466.0517,217.1648 467.3715,215.5129 Q468.6914,213.8611 471.1982,213.8611 Q471.9038,213.8611 472.5512,214.0105 Q473.1987,214.1599 473.7631,214.4588 L473.7631,217.1814 Q473.1323,216.6004 472.5388,216.3306 Q471.9453,216.0608 471.3144,216.0608 Q469.9697,216.0608 469.2849,217.1275 Q468.6001,218.1941 468.6001,220.2942 Q468.6001,222.386 469.2849,223.4526 Q469.9697,224.5193 471.3144,224.5193 Q471.9453,224.5193 472.5388,224.2495 Q473.1323,223.9797 473.7631,223.3987 Z " fill="#000000"/><text fill="#000000" font-family="sans-serif" font-size="14" lengthAdjust="spacing" textLength="157.4248" x="485.29" y="225.2693">SmartRecruitersFetcher</text><line style="stroke:#181818;stroke-width:0.5;" x1="457.29" x2="644.7148" y1="235.9783" y2="235.9783"/><line style="stroke:#181818;stroke-width:0.5;" x1="457.29" x2="644.7148" y1="243.9783" y2="243.9783"/><text fill="#000000" font-family="sans-serif" font-size="14" lengthAdjust="spacing" textLength="170.3994" x="462.29" y="261.5134">+fetch(url: String): String</text></g><!--class CareerPageFetcherFactory--><g id="elem_CareerPageFetcherFactory"><rect codeLine="2201" fill="#F1F1F1" height="64.4883" id="CareerPageFetcherFactory" rx="2.5" ry="2.5" style="stroke:#181818;stroke-width:0.5;" width="351.7256" x="681.14" y="203.9783"/><ellipse cx="764.9076" cy="219.9783" fill="#A9DCDF" rx="11" ry="11" style="stroke:#181818;stroke-width:1;"/><path d="M764.7709,215.3264 L763.6171,220.3982 L765.933,220.3982 Z M763.2767,213.0852 L766.2733,213.0852 L769.6185,225.4783 L767.1698,225.4783 L766.4061,222.4153 L763.1273,222.4153 L762.3802,225.4783 L759.9315,225.4783 Z " fill="#000000"/><text fill="#000000" font-family="sans-serif" font-size="14" font-style="italic" lengthAdjust="spacing" textLength="175.6904" x="785.4076" y="225.2693">CareerPageFetcherFactory</text><line style="stroke:#181818;stroke-width:0.5;" x1="682.14" x2="1031.8656" y1="235.9783" y2="235.9783"/><line style="stroke:#181818;stroke-width:0.5;" x1="682.14" x2="1031.8656" y1="243.9783" y2="243.9783"/><text fill="#000000" font-family="sans-serif" font-size="14" lengthAdjust="spacing" textLength="339.7256" x="687.14" y="261.5134">+createFetcher(type: AtsType): CareerPageFetcher</text></g><!--class DefaultCareerPageFetcherFactory--><g id="elem_DefaultCareerPageFetcherFactory"><rect codeLine="2205" fill="#F1F1F1" height="64.4883" id="DefaultCareerPageFetcherFactory" rx="2.5" ry="2.5" style="stroke:#181818;stroke-width:0.5;" width="351.7256" x="681.14" y="78.4883"/><ellipse cx="740.3392" cy="94.4883" fill="#ADD1B2" rx="11" ry="11" style="stroke:#181818;stroke-width:1;"/><path d="M742.8124,100.6313 Q742.2313,100.9302 741.5921,101.0796 Q740.953,101.229 740.2474,101.229 Q737.7406,101.229 736.4208,99.5771 Q735.1009,97.9253 735.1009,94.8042 Q735.1009,91.6748 736.4208,90.0229 Q737.7406,88.3711 740.2474,88.3711 Q740.953,88.3711 741.6004,88.5205 Q742.2479,88.6699 742.8124,88.9688 L742.8124,91.6914 Q742.1815,91.1104 741.588,90.8406 Q740.9945,90.5708 740.3636,90.5708 Q739.0189,90.5708 738.3341,91.6375 Q737.6493,92.7041 737.6493,94.8042 Q737.6493,96.896 738.3341,97.9626 Q739.0189,99.0293 740.3636,99.0293 Q740.9945,99.0293 741.588,98.7595 Q742.1815,98.4897 742.8124,97.9087 Z " fill="#000000"/><text fill="#000000" font-family="sans-serif" font-size="14" lengthAdjust="spacing" textLength="224.8271" x="760.8392" y="99.7793">DefaultCareerPageFetcherFactory</text><line style="stroke:#181818;stroke-width:0.5;" x1="682.14" x2="1031.8656" y1="110.4883" y2="110.4883"/><line style="stroke:#181818;stroke-width:0.5;" x1="682.14" x2="1031.8656" y1="118.4883" y2="118.4883"/><text fill="#000000" font-family="sans-serif" font-size="14" lengthAdjust="spacing" textLength="339.7256" x="687.14" y="136.0234">+createFetcher(type: AtsType): CareerPageFetcher</text></g><!--link GreenhouseFetcher to CareerPageFetcher--><g id="link_GreenhouseFetcher_CareerPageFetcher"><path codeLine="2210" d="M179.38,268.7883 C236.19,295.7983 301.3245,326.7779 358.1845,353.8179 " fill="none" id="GreenhouseFetcher-to-CareerPageFetcher" style="stroke:#181818;stroke-width:1;stroke-dasharray:7.0,7.0;"/><polygon fill="none" points="374.44,361.5483,360.7613,348.3994,355.6077,359.2364,374.44,361.5483" style="stroke:#181818;stroke-width:1;"/><text fill="#000000" font-family="sans-serif" font-size="13" lengthAdjust="spacing" textLength="48.5786" x="278" y="312.0366">realizes</text></g><!--link WorkdayFetcher to CareerPageFetcher--><g id="link_WorkdayFetcher_CareerPageFetcher"><path codeLine="2211" d="M352.46,268.7883 C371.72,295.8483 388.8834,319.9628 408.1334,347.0128 " fill="none" id="WorkdayFetcher-to-CareerPageFetcher" style="stroke:#181818;stroke-width:1;stroke-dasharray:7.0,7.0;"/><polygon fill="none" points="418.57,361.6783,413.0219,343.5339,403.2449,350.4917,418.57,361.6783" style="stroke:#181818;stroke-width:1;"/><text fill="#000000" font-family="sans-serif" font-size="13" lengthAdjust="spacing" textLength="48.5786" x="386.5" y="312.0366">realizes</text></g><!--link SmartRecruitersFetcher to CareerPageFetcher--><g id="link_SmartRecruitersFetcher_CareerPageFetcher"><path codeLine="2212" d="M528.74,268.7883 C509.66,295.8483 492.6715,319.9167 473.6015,346.9667 " fill="none" id="SmartRecruitersFetcher-to-CareerPageFetcher" style="stroke:#181818;stroke-width:1;stroke-dasharray:7.0,7.0;"/><polygon fill="none" points="463.23,361.6783,478.5054,350.4239,468.6977,343.5095,463.23,361.6783" style="stroke:#181818;stroke-width:1;"/><text fill="#000000" font-family="sans-serif" font-size="13" lengthAdjust="spacing" textLength="48.5786" x="506.85" y="312.0366">realizes</text></g><!--link DefaultCareerPageFetcherFactory to CareerPageFetcherFactory--><g id="link_DefaultCareerPageFetcherFactory_CareerPageFetcherFactory"><path codeLine="2213" d="M857,143.2083 C857,161.7883 857,167.2283 857,185.7983 " fill="none" id="DefaultCareerPageFetcherFactory-to-CareerPageFetcherFactory" style="stroke:#181818;stroke-width:1;"/><polygon fill="none" points="857,203.7983,863,185.7983,851,185.7983,857,203.7983" style="stroke:#181818;stroke-width:1;"/></g><!--link CareerPageFetcherFactory to CareerPageFetcher--><g id="link_CareerPageFetcherFactory_CareerPageFetcher"><path codeLine="2214" d="M772.57,268.8783 C700.49,295.8983 602.9779,332.4615 530.9279,359.4815 " fill="none" id="CareerPageFetcherFactory-to-CareerPageFetcher" style="stroke:#181818;stroke-width:1;stroke-dasharray:7.0,7.0;"/><polygon fill="#181818" points="525.31,361.5883,535.1415,362.1733,529.9916,359.8326,532.3324,354.6827,525.31,361.5883" style="stroke:#181818;stroke-width:1;"/><text fill="#000000" font-family="sans-serif" font-size="13" lengthAdjust="spacing" textLength="45.1318" x="687.26" y="312.0366">creates</text><text fill="#000000" font-family="sans-serif" font-size="13" lengthAdjust="spacing" textLength="8.2202" x="747.7335" y="289.131">1</text><text fill="#000000" font-family="sans-serif" font-size="13" lengthAdjust="spacing" textLength="8.2202" x="533.1428" y="351.2917">1</text></g><!--link CareerPageFetcherFactory to AtsType--><g id="link_CareerPageFetcherFactory_AtsType"><path codeLine="2215" d="M857,268.7883 C857,290.6783 857,314.2583 857,339.0783 " fill="none" id="CareerPageFetcherFactory-to-AtsType" style="stroke:#181818;stroke-width:1;stroke-dasharray:7.0,7.0;"/><polygon fill="#181818" points="857,345.0783,861,336.0783,857,340.0783,853,336.0783,857,345.0783" style="stroke:#181818;stroke-width:1;"/><text fill="#000000" font-family="sans-serif" font-size="13" lengthAdjust="spacing" textLength="28.5645" x="858" y="312.0366">uses</text><text fill="#000000" font-family="sans-serif" font-size="13" lengthAdjust="spacing" textLength="8.2202" x="848.258" y="289.0238">1</text><text fill="#000000" font-family="sans-serif" font-size="13" lengthAdjust="spacing" textLength="8.2202" x="848.4524" y="334.7059">1</text></g><!--SRC=[jLDDRy8m3BtdLrWzCKsWxTe3KWKTGzF6b8BGJfF90aIK52NkWNtyzxcbEOmFiI7jaiQsthFzNaE6SWrtgAXmMtX68kqijA67Jcl7YGLNDQab1psdaKnXXLyPkq67Qr0vUfyGEJChIGzLOJFphk56Y0sgLGMEzhWZ-100sfPhICYFjnjT9m06CasVxaUJBAt3wKW-z9EN-fuz9dByAjEUd0p7gSmu-INuC9OPvwXqCsurRHXsHtezhy9MwV8OCfxIBgx29P3KAy20yNPPbFvIWcdXLc-ulH2ThT6HrCgLXbVoVsR1cIV7GZTq1t844nf2LJaPQYrY4-BW1bCVe7_EsjTpB7FwZnxSvT28JkUpUyJW6BX1pd-R5tlQdmUSaFiyyDpkxVOnXgOgJiAYsuYRT-lliVuxBVtl2CApYe55zE8R]--></g></svg>